<svg xmlns="http://www.w3.org/2000/svg" width="113" height="38" fill="none"><g clip-path="url(#a)"><path fill="#000" d="M104.001 0H9.004Q8.486 0 7.97.002c-.29.002-.576.007-.868.012Q6.15.025 5.21.182A6.08 6.08 0 0 0 .774 3.437a6.3 6.3 0 0 0-.59 1.808 12.4 12.4 0 0 0-.17 1.902c-.008.292-.01.584-.014.875v21.959c.005.295.006.58.014.875q.011.959.17 1.902c.103.63.302 1.24.59 1.81A5.9 5.9 0 0 0 1.886 36.1c.447.453.963.831 1.529 1.12.565.289 1.17.49 1.795.599q.94.155 1.892.168.436.01.868.01c.345.002.687.002 1.034.002H104c.34 0 .685 0 1.024-.002.288 0 .583-.004.871-.01a12.5 12.5 0 0 0 1.888-.168 6.4 6.4 0 0 0 1.802-.6 6 6 0 0 0 1.527-1.12c.45-.448.826-.966 1.116-1.533.285-.57.482-1.18.585-1.809q.158-.944.175-1.902c.004-.295.004-.58.004-.875.007-.346.007-.689.007-1.04V9.06q.002-.522-.007-1.037.001-.437-.004-.875a13 13 0 0 0-.175-1.902 6.3 6.3 0 0 0-.585-1.808 6.12 6.12 0 0 0-2.643-2.66 6.4 6.4 0 0 0-1.802-.595 12 12 0 0 0-1.888-.168c-.288-.005-.583-.01-.871-.012C104.686 0 104.341 0 104.001 0"/><path fill="#fff" d="M7.975 37.169c-.288 0-.569-.004-.854-.01a12 12 0 0 1-1.765-.155 5.5 5.5 0 0 1-1.565-.52 5.1 5.1 0 0 1-1.32-.967 5 5 0 0 1-.963-1.326 5.5 5.5 0 0 1-.513-1.575 12 12 0 0 1-.157-1.78c-.006-.201-.014-.868-.014-.868V8.022s.009-.657.014-.85q.011-.895.157-1.778a5.5 5.5 0 0 1 .513-1.58A5.257 5.257 0 0 1 5.352.999a12 12 0 0 1 1.77-.155L7.976.83h97.045l.863.012q.883.01 1.755.155c.548.094 1.08.269 1.577.52a5.3 5.3 0 0 1 2.281 2.3c.246.493.416 1.02.505 1.566q.147.89.164 1.793c.003.269.003.558.003.845.008.356.008.696.008 1.037v19.883c0 .345 0 .681-.008 1.021 0 .309 0 .592-.004.883q-.016.886-.161 1.761a5.5 5.5 0 0 1-.51 1.587 5.2 5.2 0 0 1-.959 1.316 5.1 5.1 0 0 1-1.321.971 5.5 5.5 0 0 1-1.575.523 12 12 0 0 1-1.766.155c-.276.006-.566.01-.847.01l-1.024.002z"/><g fill="#000"><path d="M23.605 18.895c.01-.825.228-1.633.633-2.35a4.9 4.9 0 0 1 1.68-1.752 5 5 0 0 0-1.708-1.532 4.95 4.95 0 0 0-2.21-.6c-1.65-.174-3.248.993-4.088.993-.857 0-2.15-.975-3.544-.946-.901.029-1.78.293-2.55.765a5.24 5.24 0 0 0-1.842 1.93c-1.9 3.307-.483 8.169 1.336 10.843.91 1.31 1.974 2.772 3.366 2.72 1.362-.057 1.871-.874 3.515-.874 1.63 0 2.106.874 3.526.84 1.462-.023 2.383-1.314 3.261-2.636a10.9 10.9 0 0 0 1.491-3.055 4.7 4.7 0 0 1-2.083-1.739 4.75 4.75 0 0 1-.783-2.607M20.922 10.903a4.83 4.83 0 0 0 1.095-3.448 4.86 4.86 0 0 0-3.15 1.64 4.59 4.59 0 0 0-1.123 3.32 4 4 0 0 0 1.762-.388 4 4 0 0 0 1.416-1.124"/></g><g fill="#000"><path d="M39.946 25.783h-4.47l-1.073 3.188H32.51l4.233-11.797h1.967l4.234 11.797h-1.925zm-4.007-1.472h3.543l-1.746-5.175h-.05zM52.087 24.671c0 2.673-1.422 4.39-3.568 4.39a2.9 2.9 0 0 1-1.56-.363 2.9 2.9 0 0 1-1.13-1.142h-.04v4.26h-1.755V20.37h1.699v1.43h.032c.275-.477.673-.87 1.152-1.138.48-.267 1.022-.4 1.57-.382 2.17 0 3.6 1.726 3.6 4.391m-1.803 0c0-1.741-.895-2.886-2.26-2.886-1.34 0-2.242 1.169-2.242 2.886 0 1.733.901 2.894 2.242 2.894 1.365 0 2.26-1.137 2.26-2.894M61.498 24.671c0 2.673-1.423 4.39-3.569 4.39a2.9 2.9 0 0 1-1.56-.363 2.9 2.9 0 0 1-1.13-1.142h-.04v4.26h-1.755V20.37h1.698v1.43h.033c.275-.477.673-.87 1.152-1.138.48-.267 1.022-.4 1.57-.382 2.17 0 3.6 1.726 3.6 4.391m-1.804 0c0-1.741-.895-2.886-2.26-2.886-1.34 0-2.243 1.169-2.243 2.886 0 1.733.902 2.894 2.243 2.894 1.365 0 2.26-1.137 2.26-2.894M67.716 25.684c.13 1.17 1.26 1.938 2.803 1.938 1.48 0 2.544-.768 2.544-1.823 0-.915-.642-1.464-2.162-1.84l-1.52-.368c-2.153-.523-3.153-1.536-3.153-3.18 0-2.035 1.764-3.434 4.267-3.434 2.478 0 4.177 1.399 4.234 3.434h-1.771c-.106-1.177-1.074-1.888-2.487-1.888s-2.382.72-2.382 1.766c0 .834.618 1.324 2.13 1.7l1.292.32c2.406.572 3.404 1.544 3.404 3.27 0 2.207-1.746 3.589-4.526 3.589-2.6 0-4.356-1.35-4.47-3.484zM78.705 18.335v2.035h1.626v1.398h-1.626v4.742c0 .737.325 1.08 1.04 1.08q.29-.005.577-.04v1.389q-.483.09-.975.081c-1.73 0-2.405-.654-2.405-2.322v-4.93h-1.244V20.37h1.243v-2.035zM81.271 24.671c0-2.706 1.584-4.406 4.055-4.406 2.479 0 4.056 1.7 4.056 4.406 0 2.714-1.569 4.407-4.056 4.407s-4.055-1.693-4.055-4.407m6.323 0c0-1.856-.846-2.952-2.268-2.952s-2.268 1.104-2.268 2.952c0 1.864.846 2.951 2.268 2.951s2.268-1.087 2.268-2.95M90.829 20.37h1.673v1.464h.04c.114-.457.38-.861.755-1.144a2.03 2.03 0 0 1 1.302-.41q.305 0 .602.066v1.651a2.4 2.4 0 0 0-.789-.106 1.76 1.76 0 0 0-1.367.566 1.78 1.78 0 0 0-.462 1.413v5.101H90.83zM103.292 26.445c-.236 1.561-1.748 2.633-3.682 2.633-2.487 0-4.03-1.676-4.03-4.366 0-2.698 1.552-4.447 3.957-4.447 2.365 0 3.853 1.634 3.853 4.242v.605h-6.039v.107a2.25 2.25 0 0 0 .603 1.74 2.23 2.23 0 0 0 1.697.696 1.93 1.93 0 0 0 1.974-1.21zm-5.933-2.567h4.275a2.073 2.073 0 0 0-1.271-2.028 2 2 0 0 0-.826-.155 2.15 2.15 0 0 0-1.541.635 2.18 2.18 0 0 0-.637 1.548"/></g><g fill="#000"><path d="M35.72 8.294a2.48 2.48 0 0 1 1.988.777 2.51 2.51 0 0 1 .663 2.04c0 1.81-.973 2.852-2.651 2.852h-2.036V8.294zm-1.16 4.867h1.062a1.76 1.76 0 0 0 1.411-.574 1.79 1.79 0 0 0 .447-1.464 1.8 1.8 0 0 0-.454-1.455 1.78 1.78 0 0 0-1.404-.573H34.56zM39.36 11.822a2.04 2.04 0 0 1 .514-1.556 2.02 2.02 0 0 1 1.49-.663 2 2 0 0 1 1.492.663 2.03 2.03 0 0 1 .514 1.556 2.04 2.04 0 0 1-.513 1.559 2.02 2.02 0 0 1-1.492.665 2 2 0 0 1-1.492-.665 2.03 2.03 0 0 1-.514-1.559m3.147 0c0-.927-.414-1.47-1.14-1.47-.73 0-1.14.543-1.14 1.47 0 .935.41 1.473 1.14 1.473.726 0 1.14-.542 1.14-1.473M48.701 13.963h-.87l-.88-3.15h-.066l-.875 3.15h-.862l-1.172-4.278h.851l.762 3.264h.063l.874-3.264h.805l.874 3.264h.066l.758-3.264h.84zM50.854 9.685h.808v.68h.063a1.28 1.28 0 0 1 1.269-.763 1.38 1.38 0 0 1 1.116.44 1.4 1.4 0 0 1 .356 1.152v2.769h-.84v-2.557c0-.688-.296-1.03-.917-1.03a.97.97 0 0 0-.97.667 1 1 0 0 0-.045.417v2.503h-.84zM55.803 8.015h.839v5.948h-.84zM57.809 11.822a2.04 2.04 0 0 1 .514-1.556 2.02 2.02 0 0 1 1.491-.664 2 2 0 0 1 1.49.664 2.03 2.03 0 0 1 .516 1.556 2.04 2.04 0 0 1-.514 1.559 2.02 2.02 0 0 1-1.492.664 2 2 0 0 1-1.492-.665 2.03 2.03 0 0 1-.513-1.558m3.147 0c0-.927-.414-1.47-1.14-1.47-.73 0-1.14.543-1.14 1.47 0 .935.41 1.473 1.14 1.473.726 0 1.14-.542 1.14-1.473M62.703 12.753c0-.77.57-1.214 1.582-1.277l1.151-.067v-.369c0-.452-.297-.707-.87-.707-.469 0-.793.173-.886.476h-.813c.086-.735.773-1.206 1.738-1.206 1.066 0 1.667.533 1.667 1.437v2.923h-.808v-.601h-.066a1.43 1.43 0 0 1-1.278.671 1.28 1.28 0 0 1-1.305-.756 1.3 1.3 0 0 1-.112-.524m2.733-.365v-.358l-1.038.067c-.586.04-.851.24-.851.617 0 .385.332.609.788.609a.995.995 0 0 0 .996-.548c.06-.12.096-.252.105-.387M67.375 11.822c0-1.352.69-2.208 1.765-2.208a1.4 1.4 0 0 1 1.304.75h.063V8.016h.839v5.948h-.804v-.676h-.067a1.48 1.48 0 0 1-1.335.746c-1.082 0-1.765-.856-1.765-2.21m.867 0c0 .907.425 1.453 1.136 1.453.707 0 1.144-.553 1.144-1.45 0-.89-.442-1.452-1.144-1.452-.707 0-1.136.55-1.136 1.45M74.818 11.822a2.04 2.04 0 0 1 .514-1.556 2.02 2.02 0 0 1 1.491-.663 2 2 0 0 1 1.49.663 2.03 2.03 0 0 1 .515 1.556 2.04 2.04 0 0 1-.513 1.559 2.02 2.02 0 0 1-1.492.665 2 2 0 0 1-1.492-.665 2.03 2.03 0 0 1-.513-1.559m3.147 0c0-.927-.414-1.47-1.14-1.47-.73 0-1.14.543-1.14 1.47 0 .935.41 1.473 1.14 1.473.726 0 1.14-.542 1.14-1.473M79.954 9.685h.808v.68h.063a1.28 1.28 0 0 1 1.269-.763 1.38 1.38 0 0 1 1.116.44 1.4 1.4 0 0 1 .356 1.152v2.769h-.84v-2.557c0-.688-.297-1.03-.917-1.03a.97.97 0 0 0-.97.667 1 1 0 0 0-.046.417v2.503h-.839zM88.307 8.62v1.085h.922v.71h-.922v2.2c0 .448.184.645.602.645q.16 0 .32-.02v.703a3 3 0 0 1-.457.043c-.933 0-1.305-.33-1.305-1.155v-2.415h-.675v-.712h.675V8.62zM90.375 8.015h.832v2.358h.066a1.31 1.31 0 0 1 1.297-.767 1.4 1.4 0 0 1 1.105.451 1.41 1.41 0 0 1 .359 1.144v2.762h-.84v-2.554c0-.683-.316-1.03-.91-1.03a.99.99 0 0 0-1.015.657c-.049.137-.068.283-.055.428v2.499h-.84zM98.927 12.808c-.114.39-.36.729-.698.955a1.72 1.72 0 0 1-1.144.282 1.92 1.92 0 0 1-1.49-.646 1.95 1.95 0 0 1-.475-1.562 1.98 1.98 0 0 1 .474-1.567 1.96 1.96 0 0 1 1.487-.668c1.183 0 1.897.814 1.897 2.157v.295h-3.003v.047a1.14 1.14 0 0 0 .297.865 1.12 1.12 0 0 0 .836.36 1.01 1.01 0 0 0 1.011-.518zm-2.952-1.379h2.148a1.04 1.04 0 0 0-.63-1.03 1 1 0 0 0-.417-.078 1.08 1.08 0 0 0-1.02.682c-.055.135-.083.28-.08.426"/></g></g><defs><clipPath id="a"><path fill="#fff" d="M0 0h113v38H0z"/></clipPath></defs></svg>