<svg width="113" height="38" viewBox="0 0 113 38" fill="none" xmlns="http://www.w3.org/2000/svg">
<g id="appleDownload" clip-path="url(#clip0_1071_67848)">
<g id="Group">
<g id="Group_2">
<g id="Group_3">
<path id="Vector" d="M104.001 1.42968e-06H9.0037C8.65742 1.42968e-06 8.31529 1.42974e-06 7.96993 0.00190143C7.68083 0.00380143 7.39403 0.00932093 7.10216 0.0139664C6.46807 0.0214731 5.83547 0.0775939 5.20985 0.181841C4.58512 0.288357 3.97996 0.489171 3.41483 0.777491C2.8504 1.06825 2.33466 1.44606 1.88633 1.89722C1.43564 2.34711 1.05995 2.86712 0.773721 3.43725C0.486698 4.00626 0.287675 4.61599 0.183527 5.24541C0.0783881 5.87403 0.021812 6.5099 0.0143063 7.14731C0.0055431 7.43858 0.00461768 7.73082 0 8.02212V29.9807C0.00461768 30.2756 0.0055431 30.5614 0.0143063 30.8565C0.0218143 31.4939 0.0783904 32.1297 0.183527 32.7583C0.287388 33.3881 0.486422 33.9981 0.773721 34.5674C1.05982 35.1357 1.43556 35.6536 1.88633 36.1009C2.33296 36.5541 2.84903 36.9322 3.41483 37.2207C3.97995 37.5098 4.58505 37.7118 5.20985 37.82C5.83557 37.9234 6.46811 37.9795 7.10216 37.9879C7.39403 37.9944 7.68083 37.9981 7.96993 37.9981C8.31528 38 8.65744 38 9.0037 38H104.001C104.341 38 104.686 38 105.025 37.9981C105.313 37.9981 105.608 37.9944 105.896 37.9879C106.528 37.98 107.16 37.9238 107.784 37.82C108.411 37.7111 109.018 37.5091 109.586 37.2207C110.151 36.932 110.667 36.554 111.113 36.1009C111.563 35.6518 111.939 35.1343 112.229 34.5674C112.514 33.9977 112.711 33.3877 112.814 32.7583C112.919 32.1296 112.978 31.4939 112.989 30.8565C112.993 30.5614 112.993 30.2756 112.993 29.9807C113 29.6355 113 29.2923 113 28.9416V9.05932C113 8.71142 113 8.36631 112.993 8.02212C112.993 7.73082 112.993 7.43858 112.989 7.14727C112.978 6.5098 112.919 5.87408 112.814 5.24537C112.711 4.61632 112.514 4.00663 112.229 3.43722C111.646 2.29444 110.722 1.36423 109.586 0.777405C109.018 0.48979 108.411 0.28903 107.784 0.181755C107.16 0.0770491 106.528 0.0209088 105.896 0.0138334C105.608 0.00919743 105.313 0.00363043 105.025 0.00177793C104.686 -0.00012207 104.341 -0.00012207 104.001 -0.00012207V1.42968e-06Z" fill="black"/>
<path id="Vector_2" d="M7.97453 37.1688C7.68682 37.1688 7.40606 37.1651 7.1206 37.1586C6.52926 37.1509 5.9393 37.0991 5.35556 37.0037C4.81125 36.9094 4.28396 36.734 3.79108 36.4832C3.30272 36.2345 2.8573 35.9084 2.47188 35.5174C2.08088 35.131 1.75535 34.6829 1.5082 34.1907C1.25832 33.6954 1.0854 33.1645 0.995439 32.6164C0.898292 32.0275 0.845732 31.432 0.838211 30.8351C0.832224 30.6348 0.824387 29.9677 0.824387 29.9677V8.02217C0.824387 8.02217 0.832734 7.36533 0.838259 7.17236C0.84546 6.57641 0.897714 5.98187 0.99457 5.39389C1.08469 4.84434 1.25776 4.31186 1.50777 3.8149C1.75401 3.3231 2.07773 2.87462 2.46637 2.48685C2.85458 2.09539 3.30143 1.76762 3.79062 1.5155C4.28236 1.26554 4.80865 1.09134 5.35186 0.998755C5.93752 0.902393 6.52953 0.850295 7.12293 0.842898L7.975 0.831299H105.02L105.883 0.843364C106.471 0.850393 107.057 0.902026 107.638 0.997824C108.186 1.09158 108.718 1.26698 109.215 1.51828C110.195 2.02639 110.993 2.83025 111.496 3.81722C111.742 4.31075 111.912 4.83888 112.001 5.38369C112.099 5.97649 112.154 6.5757 112.165 7.17654C112.168 7.44558 112.168 7.73457 112.168 8.02217C112.176 8.37842 112.176 8.71751 112.176 9.05937V28.9416C112.176 29.2867 112.176 29.6235 112.168 29.9631C112.168 30.272 112.168 30.555 112.164 30.8463C112.153 31.4364 112.1 32.0249 112.003 32.6071C111.915 33.1591 111.743 33.6942 111.493 34.1936C111.244 34.6804 110.921 35.1247 110.534 35.51C110.148 35.9031 109.702 36.2311 109.213 36.4814C108.717 36.7341 108.186 36.9102 107.638 37.0037C107.054 37.0996 106.464 37.1514 105.872 37.1586C105.596 37.1651 105.306 37.1688 105.025 37.1688L104.001 37.1707L7.97453 37.1688Z" fill="white"/>
</g>
<g id="&#60;Group&#62;">
<g id="&#60;Group&#62;_2">
<g id="&#60;Group&#62;_3">
<path id="&#60;Path&#62;" d="M23.6046 18.8949C23.6152 18.0704 23.8329 17.2619 24.2375 16.5447C24.6421 15.8275 25.2205 15.225 25.9187 14.7931C25.4751 14.1557 24.8899 13.6312 24.2096 13.2612C23.5292 12.8912 22.7725 12.6858 21.9995 12.6615C20.3505 12.4874 18.7519 13.6542 17.9116 13.6542C17.055 13.6542 15.7613 12.6788 14.3681 12.7076C13.4669 12.7369 12.5887 13.0006 11.8189 13.4728C11.0492 13.9451 10.4142 14.6099 9.97574 15.4025C8.07663 18.7104 9.49319 23.5719 11.3124 26.2458C12.2226 27.5551 13.2864 29.0177 14.6783 28.9658C16.0404 28.909 16.5491 28.092 18.1932 28.092C19.8221 28.092 20.2994 28.9658 21.7195 28.9328C23.1811 28.909 24.1019 27.6177 24.9802 26.296C25.6342 25.363 26.1374 24.3319 26.4713 23.2409C25.6222 22.8796 24.8975 22.2748 24.3878 21.502C23.878 20.7291 23.6056 19.8224 23.6046 18.8949Z" fill="black"/>
<path id="&#60;Path&#62;_2" d="M20.9222 10.903C21.7191 9.94056 22.1117 8.70353 22.0167 7.45459C20.7992 7.58323 19.6746 8.16862 18.8669 9.09412C18.472 9.54625 18.1695 10.0722 17.9768 10.642C17.7841 11.2118 17.7049 11.8142 17.7438 12.4148C18.3527 12.4212 18.9552 12.2884 19.5057 12.0265C20.0563 11.7646 20.5406 11.3805 20.9222 10.903Z" fill="black"/>
</g>
</g>
<g id="Group_4">
<path id="Vector_3" d="M39.946 25.7827H35.4762L34.4028 28.9713H32.5096L36.7433 17.1742H38.7103L42.944 28.9713H41.0185L39.946 25.7827ZM35.9391 24.3113H39.4822L37.7356 19.1364H37.6867L35.9391 24.3113Z" fill="black"/>
<path id="Vector_4" d="M52.0874 24.6712C52.0874 27.3441 50.6654 29.0613 48.5195 29.0613C47.9759 29.0899 47.4353 28.9639 46.9595 28.6978C46.4838 28.4317 46.0921 28.0361 45.8295 27.5565H45.7889V31.8166H44.034V20.3703H45.7326V21.8008H45.7649C46.0396 21.3235 46.4379 20.93 46.9172 20.6623C47.3966 20.3945 47.9392 20.2625 48.4872 20.2803C50.6571 20.2803 52.0874 22.0059 52.0874 24.6712ZM50.2836 24.6712C50.2836 22.9299 49.3891 21.7851 48.0243 21.7851C46.6834 21.7851 45.7815 22.954 45.7815 24.6712C45.7815 26.4043 46.6834 27.5649 48.0243 27.5649C49.3891 27.5649 50.2836 26.4284 50.2836 24.6712H50.2836Z" fill="black"/>
<path id="Vector_5" d="M61.4977 24.6712C61.4977 27.3441 60.0753 29.0613 57.9294 29.0613C57.3858 29.0899 56.8452 28.9639 56.3694 28.6978C55.8937 28.4317 55.5021 28.0361 55.2394 27.5565H55.1988V31.8166H53.4439V20.3703H55.1425V21.8008H55.1748C55.4496 21.3235 55.8478 20.93 56.3272 20.6623C56.8065 20.3945 57.3491 20.2625 57.8971 20.2803C60.067 20.2803 61.4977 22.0059 61.4977 24.6712ZM59.6935 24.6712C59.6935 22.9299 58.799 21.7851 57.4342 21.7851C56.0933 21.7851 55.1914 22.954 55.1914 24.6712C55.1914 26.4043 56.0933 27.5649 57.4342 27.5649C58.799 27.5649 59.6935 26.4284 59.6935 24.6712Z" fill="black"/>
<path id="Vector_6" d="M67.716 25.6844C67.846 26.8543 68.9757 27.6224 70.5194 27.6224C71.9986 27.6224 73.0628 26.8542 73.0628 25.7994C73.0628 24.8837 72.421 24.3354 70.9012 23.9597L69.3815 23.5914C67.2282 23.0681 66.2285 22.055 66.2285 20.4111C66.2285 18.3756 67.9917 16.9775 70.4945 16.9775C72.9733 16.9775 74.672 18.3756 74.7292 20.4111H72.9577C72.8516 19.2338 71.8842 18.5232 70.4705 18.5232C69.0568 18.5232 68.0895 19.2421 68.0895 20.2886C68.0895 21.1227 68.7073 21.6134 70.2188 21.9891L71.5107 22.3083C73.9167 22.8807 74.9154 23.853 74.9154 25.5785C74.9154 27.7856 73.1688 29.1679 70.3894 29.1679C67.7888 29.1679 66.033 27.8181 65.9196 25.6843L67.716 25.6844Z" fill="black"/>
<path id="Vector_7" d="M78.7047 18.3348V20.3703H80.3305V21.7684H78.7047V26.51C78.7047 27.2467 79.0302 27.5899 79.7449 27.5899C79.9379 27.5865 80.1306 27.5729 80.3222 27.5491V28.9388C80.0008 28.9992 79.6742 29.0266 79.3474 29.0205C77.6165 29.0205 76.9415 28.3664 76.9415 26.6983V21.7684H75.6984V20.3703H76.9414V18.3348H78.7047Z" fill="black"/>
<path id="Vector_8" d="M81.2711 24.6713C81.2711 21.9651 82.8554 20.2645 85.3259 20.2645C87.8047 20.2645 89.3817 21.965 89.3817 24.6713C89.3817 27.3849 87.813 29.078 85.3259 29.078C82.8397 29.078 81.2711 27.3849 81.2711 24.6713ZM87.5936 24.6713C87.5936 22.8149 86.7479 21.7192 85.3259 21.7192C83.9039 21.7192 83.0583 22.8232 83.0583 24.6713C83.0583 26.5351 83.9039 27.6224 85.3259 27.6224C86.7479 27.6224 87.5936 26.5351 87.5936 24.6713H87.5936Z" fill="black"/>
<path id="Vector_9" d="M90.8285 20.3703H92.5023V21.8343H92.5429C92.6561 21.377 92.9224 20.973 93.2969 20.69C93.6714 20.407 94.1313 20.2623 94.5993 20.2803C94.8016 20.2796 95.0033 20.3017 95.2006 20.3462V21.9975C94.9453 21.9191 94.679 21.883 94.4121 21.8909C94.1572 21.8805 93.903 21.9257 93.6671 22.0234C93.4311 22.1212 93.219 22.2691 93.0453 22.4571C92.8716 22.6451 92.7403 22.8687 92.6606 23.1125C92.5809 23.3564 92.5546 23.6147 92.5834 23.8697V28.9713H90.8285L90.8285 20.3703Z" fill="black"/>
<path id="Vector_10" d="M103.292 26.4451C103.056 28.0065 101.544 29.078 99.6104 29.078C97.1233 29.078 95.5796 27.4016 95.5796 24.7121C95.5796 22.0142 97.1316 20.2645 99.5367 20.2645C101.902 20.2645 103.39 21.8992 103.39 24.5071V25.1119H97.3511V25.2186C97.3232 25.5352 97.3626 25.854 97.4667 26.1541C97.5707 26.4541 97.737 26.7285 97.9545 26.9589C98.1721 27.1893 98.4358 27.3706 98.7283 27.4905C99.0208 27.6105 99.3353 27.6665 99.651 27.6549C100.066 27.6939 100.482 27.5973 100.838 27.3793C101.193 27.1614 101.47 26.8337 101.625 26.4451L103.292 26.4451ZM97.3594 23.878H101.634C101.649 23.5934 101.607 23.3086 101.508 23.0415C101.409 22.7743 101.256 22.5306 101.059 22.3256C100.862 22.1207 100.625 21.9588 100.363 21.8503C100.101 21.7418 99.8199 21.689 99.5367 21.6951C99.2509 21.6934 98.9676 21.7486 98.7031 21.8576C98.4387 21.9666 98.1983 22.1272 97.9959 22.3302C97.7935 22.5331 97.633 22.7744 97.5238 23.0401C97.4145 23.3058 97.3586 23.5906 97.3594 23.8781V23.878Z" fill="black"/>
</g>
</g>
</g>
<g id="&#60;Group&#62;_4">
<g id="Group_5">
<path id="Vector_11" d="M35.7197 8.2944C36.0876 8.26783 36.4568 8.32375 36.8006 8.45811C37.1444 8.59247 37.4543 8.80193 37.708 9.07137C37.9616 9.34082 38.1526 9.66353 38.2673 10.0162C38.3819 10.3689 38.4173 10.7429 38.3709 11.111C38.3709 12.9219 37.398 13.9629 35.7197 13.9629H33.6844V8.2944H35.7197ZM34.5596 13.1612H35.6219C35.8848 13.1771 36.1479 13.1337 36.392 13.0343C36.6362 12.9349 36.8552 12.782 37.0332 12.5867C37.2112 12.3914 37.3437 12.1587 37.421 11.9054C37.4983 11.6521 37.5185 11.3847 37.4801 11.1225C37.5157 10.8615 37.4935 10.5957 37.415 10.3442C37.3365 10.0928 37.2037 9.86196 37.0261 9.66822C36.8485 9.47449 36.6305 9.32267 36.3878 9.22365C36.145 9.12462 35.8835 9.08084 35.6219 9.09545H34.5596V13.1612Z" fill="black"/>
<path id="Vector_12" d="M39.3595 11.8221C39.3328 11.541 39.3647 11.2573 39.4533 10.9894C39.542 10.7214 39.6853 10.475 39.8741 10.266C40.0629 10.0571 40.293 9.89009 40.5497 9.77582C40.8064 9.66156 41.0841 9.60254 41.3648 9.60254C41.6455 9.60254 41.9231 9.66156 42.1798 9.77582C42.4365 9.89009 42.6667 10.0571 42.8555 10.266C43.0443 10.475 43.1876 10.7214 43.2762 10.9894C43.3648 11.2573 43.3968 11.541 43.37 11.8221C43.3973 12.1035 43.3657 12.3875 43.2773 12.6559C43.1889 12.9243 43.0457 13.1712 42.8569 13.3806C42.668 13.59 42.4377 13.7573 42.1807 13.8718C41.9238 13.9863 41.6458 14.0455 41.3648 14.0455C41.0837 14.0455 40.8058 13.9863 40.5488 13.8718C40.2918 13.7573 40.0615 13.59 39.8727 13.3806C39.6838 13.1712 39.5406 12.9243 39.4522 12.6559C39.3638 12.3875 39.3323 12.1035 39.3595 11.8221ZM42.5069 11.8221C42.5069 10.8948 42.0928 10.3526 41.3662 10.3526C40.6367 10.3526 40.2264 10.8948 40.2264 11.8221C40.2264 12.7568 40.6367 13.2949 41.3662 13.2949C42.0928 13.2949 42.5069 12.7531 42.5069 11.8221H42.5069Z" fill="black"/>
<path id="Vector_13" d="M48.7012 13.9628H47.8306L46.9518 10.8123H46.8854L46.0102 13.9628H45.148L43.9759 9.68506H44.8271L45.5888 12.9493H45.6515L46.5258 9.68506H47.3308L48.205 12.9493H48.2714L49.0295 9.68506H49.8686L48.7012 13.9628Z" fill="black"/>
<path id="Vector_14" d="M50.8544 9.68505H51.6623V10.3646H51.725C51.8314 10.1205 52.0108 9.91594 52.2382 9.77932C52.4657 9.64271 52.7298 9.58089 52.9939 9.60248C53.2008 9.58683 53.4085 9.61821 53.6017 9.6943C53.7949 9.77039 53.9686 9.88924 54.11 10.042C54.2513 10.1948 54.3567 10.3777 54.4183 10.577C54.4798 10.7763 54.496 10.9871 54.4657 11.1935V13.9628H53.6265V11.4055C53.6265 10.7181 53.3296 10.3762 52.7089 10.3762C52.5685 10.3696 52.4282 10.3937 52.2979 10.4467C52.1675 10.4998 52.0501 10.5805 51.9536 10.6835C51.8572 10.7865 51.784 10.9092 51.7391 11.0433C51.6943 11.1773 51.6787 11.3196 51.6936 11.4603V13.9628H50.8544L50.8544 9.68505Z" fill="black"/>
<path id="Vector_15" d="M55.8029 8.01514H56.642V13.9628H55.8029V8.01514Z" fill="black"/>
<path id="Vector_16" d="M57.8086 11.8221C57.7819 11.5409 57.8139 11.2573 57.9025 10.9893C57.9911 10.7213 58.1345 10.4749 58.3233 10.2659C58.5121 10.0569 58.7423 9.88997 58.999 9.7757C59.2557 9.66144 59.5334 9.60242 59.8141 9.60242C60.0948 9.60242 60.3725 9.66144 60.6292 9.7757C60.8859 9.88997 61.1161 10.0569 61.3049 10.2659C61.4937 10.4749 61.6371 10.7213 61.7257 10.9893C61.8143 11.2573 61.8463 11.5409 61.8196 11.8221C61.8468 12.1035 61.8152 12.3875 61.7268 12.6559C61.6384 12.9243 61.4951 13.1711 61.3063 13.3805C61.1174 13.5899 60.8871 13.7572 60.6301 13.8717C60.3731 13.9862 60.0952 14.0454 59.8141 14.0454C59.533 14.0454 59.2551 13.9862 58.9981 13.8717C58.7411 13.7572 58.5108 13.5899 58.3219 13.3805C58.1331 13.1711 57.9898 12.9243 57.9014 12.6559C57.813 12.3875 57.7814 12.1035 57.8086 11.8221ZM60.956 11.8221C60.956 10.8948 60.5419 10.3525 59.8153 10.3525C59.0858 10.3525 58.6755 10.8948 58.6755 11.8221C58.6755 12.7568 59.0858 13.2948 59.8153 13.2948C60.5419 13.2948 60.956 12.753 60.956 11.8221H60.956Z" fill="black"/>
<path id="Vector_17" d="M62.7031 12.7531C62.7031 11.9831 63.273 11.5392 64.2846 11.4761L65.4364 11.4093V11.0401C65.4364 10.5883 65.1395 10.3331 64.5659 10.3331C64.0974 10.3331 63.7728 10.5062 63.6796 10.8086H62.8672C62.953 10.0738 63.64 9.60254 64.6046 9.60254C65.6706 9.60254 66.2719 10.1364 66.2719 11.0401V13.9629H65.4641V13.3617H65.3977C65.2629 13.5774 65.0737 13.7532 64.8493 13.8712C64.6249 13.9892 64.3734 14.0451 64.1204 14.0334C63.9419 14.052 63.7615 14.0329 63.5908 13.9771C63.4201 13.9214 63.263 13.8302 63.1294 13.7096C62.9959 13.589 62.8889 13.4416 62.8155 13.2768C62.7421 13.1121 62.7038 12.9337 62.7031 12.7531ZM65.4364 12.3876V12.03L64.398 12.0967C63.8124 12.1362 63.5468 12.3366 63.5468 12.7137C63.5468 13.0987 63.8788 13.3227 64.3353 13.3227C64.4691 13.3364 64.6042 13.3228 64.7326 13.2828C64.8611 13.2428 64.9802 13.1772 65.0829 13.09C65.1857 13.0027 65.2699 12.8956 65.3306 12.7749C65.3913 12.6543 65.4273 12.5225 65.4364 12.3876Z" fill="black"/>
<path id="Vector_18" d="M67.3748 11.8221C67.3748 10.4704 68.0655 9.6141 69.1398 9.6141C69.4056 9.60178 69.6693 9.66582 69.9002 9.79872C70.1311 9.93161 70.3197 10.1279 70.4438 10.3646H70.5065V8.01514H71.3457V13.9628H70.5416V13.287H70.4752C70.3414 13.5221 70.1463 13.7159 69.911 13.8475C69.6756 13.979 69.4089 14.0433 69.1398 14.0333C68.0581 14.0334 67.3748 13.1771 67.3748 11.8221ZM68.2417 11.8221C68.2417 12.7294 68.6668 13.2754 69.3778 13.2754C70.0851 13.2754 70.5222 12.7216 70.5222 11.8258C70.5222 10.9343 70.0805 10.3725 69.3778 10.3725C68.6714 10.3725 68.2416 10.9222 68.2416 11.8221H68.2417Z" fill="black"/>
<path id="Vector_19" d="M74.8177 11.8221C74.791 11.541 74.8229 11.2573 74.9116 10.9894C75.0002 10.7214 75.1435 10.475 75.3323 10.266C75.5211 10.0571 75.7512 9.89009 76.0079 9.77582C76.2647 9.66156 76.5423 9.60254 76.823 9.60254C77.1037 9.60254 77.3813 9.66156 77.638 9.77582C77.8947 9.89009 78.1249 10.0571 78.3137 10.266C78.5025 10.475 78.6458 10.7214 78.7344 10.9894C78.823 11.2573 78.855 11.541 78.8283 11.8221C78.8555 12.1035 78.8239 12.3875 78.7355 12.6559C78.6472 12.9243 78.5039 13.1712 78.3151 13.3806C78.1262 13.59 77.8959 13.7573 77.6389 13.8718C77.382 13.9863 77.104 14.0455 76.823 14.0455C76.5419 14.0455 76.264 13.9863 76.007 13.8718C75.7501 13.7573 75.5197 13.59 75.3309 13.3806C75.142 13.1712 74.9988 12.9243 74.9104 12.6559C74.8221 12.3875 74.7905 12.1035 74.8177 11.8221ZM77.9651 11.8221C77.9651 10.8948 77.551 10.3526 76.8244 10.3526C76.0949 10.3526 75.6846 10.8948 75.6846 11.8221C75.6846 12.7568 76.095 13.2949 76.8244 13.2949C77.551 13.2949 77.9651 12.7531 77.9651 11.8221Z" fill="black"/>
<path id="Vector_20" d="M79.9542 9.68505H80.7621V10.3646H80.8248C80.9311 10.1205 81.1106 9.91594 81.338 9.77932C81.5655 9.64271 81.8296 9.58089 82.0937 9.60248C82.3006 9.58683 82.5083 9.61821 82.7015 9.6943C82.8947 9.77039 83.0684 9.88924 83.2098 10.042C83.3511 10.1948 83.4565 10.3777 83.5181 10.577C83.5796 10.7763 83.5958 10.9871 83.5655 11.1935V13.9628H82.7263V11.4055C82.7263 10.7181 82.4294 10.3762 81.8087 10.3762C81.6683 10.3696 81.528 10.3937 81.3977 10.4467C81.2673 10.4998 81.1499 10.5805 81.0534 10.6835C80.957 10.7865 80.8838 10.9092 80.8389 11.0433C80.7941 11.1773 80.7785 11.3196 80.7934 11.4603V13.9628H79.9542V9.68505Z" fill="black"/>
<path id="Vector_21" d="M88.3073 8.62V9.70451H89.2286V10.4156H88.3073V12.6153C88.3073 13.0634 88.4908 13.2596 88.9086 13.2596C89.0155 13.2593 89.1224 13.2527 89.2286 13.2401V13.9433C89.0779 13.9705 88.9252 13.9849 88.7721 13.9865C87.8388 13.9865 87.4672 13.6562 87.4672 12.8314V10.4156H86.7922V9.70448H87.4672V8.62H88.3073Z" fill="black"/>
<path id="Vector_22" d="M90.3748 8.01514H91.2067V10.3725H91.273C91.3846 10.1262 91.5689 9.9204 91.801 9.78327C92.033 9.64614 92.3014 9.58431 92.5696 9.60621C92.7754 9.59494 92.9812 9.62951 93.1722 9.70745C93.3632 9.78539 93.5348 9.90478 93.6746 10.0571C93.8145 10.2094 93.9192 10.3909 93.9813 10.5886C94.0435 10.7864 94.0614 10.9955 94.034 11.201V13.9628H93.194V11.4092C93.194 10.726 92.8776 10.3799 92.2847 10.3799C92.1405 10.368 91.9954 10.388 91.8596 10.4384C91.7239 10.4888 91.6007 10.5684 91.4987 10.6717C91.3967 10.775 91.3184 10.8995 91.2692 11.0364C91.2201 11.1733 91.2012 11.3194 91.2141 11.4644V13.9628H90.3749L90.3748 8.01514Z" fill="black"/>
<path id="Vector_23" d="M98.9271 12.8078C98.8131 13.1988 98.5661 13.537 98.2292 13.7632C97.8924 13.9894 97.4872 14.0893 97.0846 14.0454C96.8045 14.0528 96.5261 13.9989 96.2687 13.8872C96.0114 13.7756 95.7813 13.6089 95.5944 13.3988C95.4075 13.1887 95.2683 12.9403 95.1865 12.6706C95.1046 12.401 95.0821 12.1167 95.1204 11.8374C95.0831 11.5573 95.106 11.2723 95.1877 11.0019C95.2694 10.7314 95.4078 10.4818 95.5937 10.2699C95.7796 10.058 96.0086 9.88872 96.2652 9.77357C96.5218 9.65842 96.8 9.60008 97.0809 9.60249C98.2641 9.60249 98.9778 10.4157 98.9778 11.759V12.0536H95.9752V12.1009C95.9621 12.2579 95.9817 12.4159 96.0328 12.5648C96.0839 12.7137 96.1654 12.8502 96.272 12.9656C96.3786 13.081 96.508 13.1727 96.6519 13.2348C96.7959 13.2969 96.9511 13.3281 97.1077 13.3264C97.3084 13.3506 97.5118 13.3143 97.6919 13.2219C97.872 13.1296 98.0208 12.9854 98.1193 12.8078L98.9271 12.8078ZM95.9752 11.4292H98.1229C98.1335 11.2856 98.1141 11.1414 98.066 11.0058C98.0179 10.8703 97.9421 10.7463 97.8435 10.6419C97.745 10.5376 97.6258 10.4551 97.4936 10.3998C97.3615 10.3446 97.2193 10.3177 97.0763 10.321C96.9311 10.3192 96.7871 10.3466 96.6527 10.4016C96.5182 10.4567 96.3961 10.5383 96.2935 10.6415C96.1909 10.7448 96.1098 10.8677 96.0552 11.003C96.0005 11.1383 95.9733 11.2832 95.9752 11.4292H95.9752Z" fill="black"/>
</g>
</g>
</g>
</g>
<defs>
<clipPath id="clip0_1071_67848">
<rect width="113" height="38" fill="white"/>
</clipPath>
</defs>
</svg>
