<svg xmlns="http://www.w3.org/2000/svg" width="93" height="33" fill="none"><rect width="93" height="33" fill="#fff" rx="5"/><circle cx="16" cy="17" r="13" fill="#99D485" fill-opacity=".8"/><path fill="#fff" d="M13.42 20.8v-8.4h5.034v1.08h-3.9v2.442h2.628v1.074h-2.628v2.724h4.158v1.08z"/><circle cx="46.5" cy="17" r="13" fill="#A1A1A1" fill-opacity=".8"/><path fill="#fff" d="M43.895 20.5v-8.4h1.182l1.248 4.926q.066.252.114.462.048.204.072.396.024-.192.072-.396.054-.21.114-.462l1.266-4.926h1.14v8.4h-1.02v-5.442q.006-.222.024-.396-.042.18-.096.372l-.096.372-1.338 5.094h-.156l-1.338-5.094a6 6 0 0 0-.096-.372l-.096-.372q.012.174.018.396.006.216.006.348V20.5z"/><circle cx="77" cy="17" r="13" fill="#A1A1A1" fill-opacity=".8"/><path fill="#fff" d="M74.741 20.5v-8.4h1.134v3.516h2.94V12.1h1.134v8.4h-1.134v-3.816h-2.94V20.5z"/></svg>