<svg width="15" height="20" viewBox="0 0 15 20" fill="none" xmlns="http://www.w3.org/2000/svg">
<g id="diffIcon">
<path id="Line 15" d="M10.4314 17.4244V19.4244H14.4314V17.4244H10.4314ZM14.4314 2.3075C14.4314 1.20293 13.536 0.307499 12.4314 0.307499C11.3268 0.307499 10.4314 1.20293 10.4314 2.3075H14.4314ZM14.4314 17.4244V2.3075H10.4314V17.4244H14.4314Z" fill="black"/>
<path id="Line 16" d="M5.21558 17.4244V19.4244H9.21558V17.4244H5.21558ZM9.21558 8.12171C9.21558 7.01714 8.32015 6.12171 7.21558 6.12171C6.11101 6.12171 5.21558 7.01714 5.21558 8.12171H9.21558ZM9.21558 17.4244V8.12171H5.21558V17.4244H9.21558Z" fill="black"/>
<path id="Line 17" d="M0 17.4244V19.4244H4V17.4244H0ZM4 12.7731C4 11.6685 3.10457 10.7731 2 10.7731C0.89543 10.7731 0 11.6685 0 12.7731H4ZM4 17.4244V12.7731H0L0 17.4244H4Z" fill="black"/>
</g>
</svg>
