<svg width="19" height="25" viewBox="0 0 19 25" fill="none" xmlns="http://www.w3.org/2000/svg">
<path d="M16.8687 0C17.0844 0 17.2906 0.0495704 17.4875 0.148711C17.7969 0.291915 18.043 0.517735 18.2258 0.826173C18.4086 1.13461 18.5 1.4761 18.5 1.85063V23.1494C18.5 23.5239 18.4086 23.8654 18.2258 24.1738C18.043 24.4823 17.7969 24.7081 17.4875 24.8513C17.3094 24.9394 17.1031 24.9835 16.8687 24.9835C16.4187 24.9835 16.0297 24.8072 15.7016 24.4547L9.5 17.4488L3.29844 24.4547C2.96094 24.8182 2.57187 25 2.13125 25C1.91562 25 1.70938 24.9504 1.5125 24.8513C1.20312 24.7081 0.957031 24.4823 0.774219 24.1738C0.591406 23.8654 0.5 23.5239 0.5 23.1494V1.85063C0.5 1.4761 0.591406 1.13461 0.774219 0.826173C0.957031 0.517735 1.20312 0.291915 1.5125 0.148711C1.70938 0.0495704 1.91562 0 2.13125 0H16.8687Z" fill="#6D6D99"/>
</svg>
