<svg xmlns="http://www.w3.org/2000/svg" width="24" height="24" fill="none"><path fill="#fff" fill-rule="evenodd" d="M2.838 6.047A4.5 4.5 0 0 0 1.79 8.938c0 .631.119 1.235.327 1.81h3.886l1.515-2.472.947 3.041 1.16-1.367h2.902v.82h-2.465l-1.973 2.327-.842-2.704-.721 1.176H0v-.82h1.18a6 6 0 0 1-.285-1.81c0-1.263.457-2.485 1.24-3.4C2.92 4.624 4.05 4 5.382 4c1.568 0 2.76.806 3.565 1.943C9.753 4.806 10.945 4 12.512 4c1.332 0 2.463.623 3.248 1.54A5.26 5.26 0 0 1 17 8.938c0 2.702-2.033 4.957-3.956 6.497a22 22 0 0 1-3.867 2.46l-.018.009-.005.002h-.002l-.205-.364-.194.37-.003-.002-.006-.003-.022-.01-.084-.038a20.289 20.289 0 0 1-1.38-.724c-.872-.503-2.017-1.243-3.094-2.19a12.7 12.7 0 0 1-1.62-1.693.39.39 0 0 1 .103-.573c.2-.132.48-.09.624.095.45.574.97 1.102 1.512 1.58 1.02.895 2.112 1.602 2.951 2.085a19 19 0 0 0 1.207.64l.113-.058a21.102 21.102 0 0 0 3.401-2.204c1.88-1.505 3.65-3.551 3.65-5.879a4.5 4.5 0 0 0-1.049-2.891c-.65-.76-1.54-1.226-2.544-1.226-1.388 0-2.464.829-3.163 2.134l-.402.75-.401-.75C7.847 5.65 6.77 4.821 5.382 4.821c-1.004 0-1.893.466-2.544 1.226m6.11 11.495-.195.37.2.088.199-.093z" clip-rule="evenodd"/></svg>