<svg width="14" height="14" viewBox="0 0 14 14" fill="none" xmlns="http://www.w3.org/2000/svg">
<g clip-path="url(#clip0_1175_21)">
<path d="M0.4375 7C0.4375 8.74048 1.1289 10.4097 2.35961 11.6404C3.59032 12.8711 5.25952 13.5625 7 13.5625C8.74048 13.5625 10.4097 12.8711 11.6404 11.6404C12.8711 10.4097 13.5625 8.74048 13.5625 7C13.5625 5.25952 12.8711 3.59032 11.6404 2.35961C10.4097 1.1289 8.74048 0.4375 7 0.4375C5.25952 0.4375 3.59032 1.1289 2.35961 2.35961C1.1289 3.59032 0.4375 5.25952 0.4375 7Z" stroke="#B6B6CC" stroke-linecap="round" stroke-linejoin="round"/>
<path d="M6.99992 7H4.08325" stroke="#B6B6CC" stroke-linecap="round" stroke-linejoin="round"/>
<path d="M7 7L8.71208 9.96508" stroke="#B6B6CC" stroke-linecap="round" stroke-linejoin="round"/>
<path d="M0.4375 7H1.86433" stroke="#B6B6CC" stroke-linecap="round" stroke-linejoin="round"/>
<path d="M1.31299 3.72461L2.54965 4.43686" stroke="#B6B6CC" stroke-linecap="round" stroke-linejoin="round"/>
<path d="M3.70654 1.32373L4.42288 2.55748" stroke="#B6B6CC" stroke-linecap="round" stroke-linejoin="round"/>
<path d="M13.5626 7H12.1357" stroke="#B6B6CC" stroke-linecap="round" stroke-linejoin="round"/>
<path d="M12.6869 3.72461L11.4502 4.43686" stroke="#B6B6CC" stroke-linecap="round" stroke-linejoin="round"/>
<path d="M10.2935 1.32373L9.57715 2.55748" stroke="#B6B6CC" stroke-linecap="round" stroke-linejoin="round"/>
<path d="M10.2755 12.6869L9.56323 11.4502" stroke="#B6B6CC" stroke-linecap="round" stroke-linejoin="round"/>
<path d="M12.6764 10.2929L11.4426 9.57715" stroke="#B6B6CC" stroke-linecap="round" stroke-linejoin="round"/>
<path d="M7.00699 0.4375L7.00464 1.86433" stroke="#B6B6CC" stroke-linecap="round" stroke-linejoin="round"/>
</g>
<defs>
<clipPath id="clip0_1175_21">
<rect width="14" height="14" fill="white"/>
</clipPath>
</defs>
</svg>
