<svg xmlns="http://www.w3.org/2000/svg" width="400" height="160"><g fill-rule="evenodd"><path fill="#5454ac" d="M50.708 38.455c-.389.035-.708.125-.708.199s-.255.177-.566.228c-.534.086-.91.316-1.626.993-.169.16-.365.292-.435.292-.213 0-1.04.834-1.04 1.05 0 .111-.14.291-.312.398s-.365.406-.43.663c-.065.258-.192.515-.284.571-.091.057-.207.414-.258.794s-.158.69-.238.69c-.081 0-.144 16.873-.144 38.584 0 21.71.063 38.583.144 38.583s.188.317.24.705.174.731.272.764c.097.032.177.201.177.375 0 .608 2.559 3.156 3.17 3.156.181 0 .33.074.33.165 0 .09.3.212.667.271.366.059.666.172.666.252 0 .083 64.621.145 149.667.145s149.667-.062 149.667-.145c0-.08.3-.193.666-.252s.667-.181.667-.271.149-.165.33-.165c.611 0 3.17-2.548 3.17-3.156 0-.174.08-.343.177-.375.098-.033.22-.377.272-.764.052-.388.16-.705.24-.705.081 0 .144-16.873.144-38.583 0-21.711-.063-38.584-.144-38.584s-.187-.31-.238-.69-.167-.737-.258-.794c-.092-.056-.219-.313-.284-.571s-.258-.556-.43-.663-.312-.287-.312-.398c0-.216-.827-1.05-1.04-1.05-.07 0-.266-.132-.435-.292-.693-.656-1.069-.892-1.576-.99-.293-.057-.586-.186-.652-.286-.112-.172-297.368-.315-299.256-.144m298.979 2.734c1.269.596 2.21 1.486 2.766 2.617l.464.944v38.089c0 37.323-.007 38.103-.324 38.833-.706 1.627-1.94 2.711-3.69 3.243-1.246.377-296.56.377-297.806 0-1.75-.532-2.984-1.616-3.69-3.243-.317-.73-.324-1.51-.324-38.833V44.75l.359-.767c.687-1.469 1.969-2.563 3.606-3.075.579-.181 26.71-.214 149.202-.189l148.5.031zM92.333 52.612 90 53.1c-.687.144-1.437.322-1.667.395s-.904.266-1.5.428c-2.223.602-6.58 2.151-8.364 2.974-.521.24-1.009.439-1.083.443-.207.009-3.219 4.606-3.219 4.912 0 .048-.194.395-.431.771-.766 1.212-2.841 5.46-3.734 7.644-.206.504-.473 1.141-.591 1.416-.315.728-1.811 5.318-2.146 6.584a98 98 0 0 1-.432 1.583c-.251.863-1.011 4.777-1.181 6.083-.09.688-.248 1.888-.352 2.667-.217 1.619-.284 12.751-.084 13.705.25 1.186 7.736 5.82 13.034 8.069 2.8 1.189 6.615 2.559 7.125 2.559.266 0 1.746-2.128 3.187-4.583 1.145-1.951 1.205-2.441.326-2.656-.712-.174-5.095-2.324-5.438-2.667-.494-.495 1.017-1.802 1.665-1.44.166.092.677.325 1.135.516.458.192.983.414 1.167.493.183.08.708.271 1.166.425.459.155.984.342 1.167.417s.783.263 1.333.418 1.338.377 1.75.495c6.711 1.92 16.104 2.096 22.667.424 3.356-.855 5.637-1.607 8.328-2.745 1.666-.704 1.384-.656 1.799-.305l.692.582c.191.159.348.359.348.444 0 .325-4.34 2.572-5.96 3.086-.508.161-.473.597.126 1.571.275.447.5.854.5.906 0 .501 2.929 4.619 3.286 4.619.296 0 2.462-.716 3.323-1.099.289-.129.641-.234.782-.234s.303-.075.359-.167c.057-.091.206-.166.332-.166s.74-.231 1.365-.514a198 198 0 0 1 1.72-.767c3.627-1.578 11.77-6.426 12.078-7.191.455-1.133.521-10.584.097-13.945-.474-3.759-.709-5.174-1.3-7.833-.5-2.248-1.7-6.431-2.2-7.667-.074-.183-.267-.671-.428-1.083-.161-.413-.383-.975-.495-1.25a50 50 0 0 1-.418-1.084c-.863-2.331-4.241-8.635-6.159-11.495l-.947-1.412-2.156-.888-2.322-.957c-1.37-.556-6.257-2.017-8.083-2.416-4.282-.934-3.832-1.062-5.023 1.438l-1.001 2.103-.613-.105c-3.966-.679-13.057-.678-17.062.002l-.616.104-1.046-2.1c-1.2-2.408-1.056-2.292-2.473-1.995m138.118 8.467c-.165.121-.284.431-.284.741 0 .804 1.221.728 1.3-.081.061-.627-.533-1.013-1.016-.66m-18.811 4.963c-.063 5.448-.108 5.668-1.266 6.217-1.339.635-2.546.443-3.352-.535-.438-.531-.515-.565-.835-.364-1.408.879 1.507 2.565 3.726 2.155 2.52-.466 2.917-1.585 2.919-8.223l.001-4.125h-1.136zm6.36-1.384c-2.897 1.54-2.947 7.023-.078 8.478 3.718 1.886 7.34-1.916 5.864-6.153-.793-2.275-3.689-3.439-5.786-2.325m9.833.259v.583h2.334v6.833h-2.334V73.5h6v-1.152l-1.208-.049-1.208-.049-.045-3.958-.045-3.959h-3.494zm9.834 4.01v4.594l.541-.052.542-.052.042-3.25c.056-4.333.407-4.983 2.594-4.801 1.865.154 2.114.738 2.114 4.962V73.5h1v-3.467c0-4.011-.219-4.845-1.422-5.419-.948-.452-2.714-.383-3.479.136-.736.5-.766.504-.766.101 0-.33-.306-.518-.847-.518-.307 0-.319.177-.319 4.594m22.721-4.264c-2.992 1.439-2.949 7.156.065 8.595.93.444 2.91.412 3.829-.062 2.659-1.369 2.896-6.577.376-8.279-.986-.666-3.146-.794-4.27-.254m9.064-.226c-.52.52.039 7.191.674 8.043.85 1.14 3.205 1.519 4.354.701.538-.383.841-.31.851.205.001.075.209.112.461.083l.458-.052v-9l-.453-.053c-.597-.068-.614.028-.669 3.857l-.045 3.139-.622.57c-1.007.922-2.704.803-3.411-.239-.257-.377-.312-.933-.383-3.858l-.084-3.416-.506-.05c-.278-.027-.559.004-.625.07m9.548.473v.59h1.833v6.833H279V73.5h2.822c2.605 0 2.83-.024 2.921-.31.215-.677-.039-.841-1.383-.892l-1.277-.048-.046-2.229c-.075-3.548.861-4.653 3.838-4.539.439.017.458.055.461.893.003 1.054.157 1.339.683 1.265.459-.065.706-2.585.301-3.073-.546-.658-3.766-.122-4.565.76q-.699.773-.787-.285l-.051-.625-1.459-.048L279 64.32zm-57.566.74c2.29 1.396 1.844 6.057-.654 6.833-2.578.801-4.62-2.14-3.587-5.166.606-1.776 2.708-2.602 4.241-1.667m42.657.188c1.949 1.819 1.391 5.949-.897 6.634-2.898.868-4.928-2.663-3.322-5.781.721-1.401 3.114-1.884 4.219-.853M93.595 78.11c5.71 1.92 7.2 9.724 2.686 14.07-4.583 4.412-11.781.631-11.781-6.189 0-5.424 4.585-9.398 9.095-7.881m27.607.433c4.873 2.409 5.884 9.49 1.921 13.453-6.278 6.278-15.352-2.605-10.795-10.569 1.844-3.224 5.672-4.467 8.874-2.884m102.965 2.684c-6.856 1.489-7.261 9.459-.647 12.709l3.222 1.584c3.082 1.515 3.983 2.501 3.885 4.252-.221 3.955-6.869 3.76-8.645-.253-.256-.578-.54-.636-1.351-.276-.301.133-1.016.406-1.589.605-1.201.419-1.226.495-.584 1.798 3.836 7.778 16.277 6.011 16.287-2.313.004-3.549-1.336-5.025-7.323-8.067-4.105-2.086-4.951-2.926-4.432-4.401.913-2.594 5.107-2.655 6.688-.097.192.311.455.565.585.565.282 0 2.2-.619 2.61-.842.159-.087.398-.158.532-.158.456 0 .44-.32-.067-1.324-1.001-1.983-2.948-3.435-5.152-3.843-1.165-.215-2.865-.19-4.019.061m21.618-.056c-5.984.943-9.363 9.126-7.294 17.662.1.413.246.9.325 1.084.079.183.281.67.448 1.083 2.793 6.9 12.385 7.576 15.574 1.099.645-1.311.774-1.128-1.36-1.941-2.062-.786-1.847-.77-2.12-.153-1.945 4.393-7.34 2.997-8.714-2.255-1.68-6.425.773-12.75 4.944-12.75 1.443 0 3.547 1.248 3.584 2.125.033.774.45.762 2.23-.063 2.009-.931 2.04-.989 1.199-2.278-1.924-2.952-5.004-4.214-8.816-3.613m20.048.061c-2.731.608-4.847 2.728-6.174 6.185-2.605 6.787-.091 16.463 4.809 18.511 7.121 2.975 12.909-2.477 12.928-12.178.005-2.594-.059-3.112-.689-5.5-1.412-5.361-5.749-8.159-10.874-7.018m62.729.014c-.147.382.051 8.778.258 10.921.101 1.054.277 3.079.39 4.5l.207 2.583 1.101.049 1.101.048.115-.965c.422-3.526.649-7.336.715-12.007l.076-5.375h-1.935c-1.551 0-1.952.049-2.028.246m-151.985.296c-.044.114-.06 5.683-.037 12.375l.043 12.166 3.584.053c3.59.053 5.15-.081 6.646-.573 2.933-.965 5.039-3.054 6.364-6.313 1.563-3.844.883-11.203-1.245-13.473a29 29 0 0 1-.81-.975c-1.305-1.625-3.708-2.846-6.475-3.291-1.62-.261-7.968-.237-8.07.031m21.869-.099c-.062.062-.113.886-.113 1.83v1.718l2.542.046 2.542.046.043 8.704.043 8.704-2.543.046-2.543.046-.048 1.794-.047 1.793 7.214-.043 7.214-.044v-3.5l-2.542-.046-2.541-.046V85h5.178l-.048-1.792-.047-1.791-7.095-.044c-3.903-.024-7.147.008-7.209.07m82.297.099c-.043.114-.06 5.683-.036 12.375l.043 12.166h4l.044-4.791.044-4.792 1.54.005 1.539.005 2.374 4.828 2.374 4.829h2.251c1.238 0 2.251-.049 2.251-.109s-.984-2.104-2.187-4.542-2.287-4.666-2.409-4.951l-.223-.518.919-.465c3.186-1.612 4.756-5.251 3.819-8.85-.798-3.063-2.457-4.533-5.89-5.221-1.324-.265-10.35-.239-10.453.031m20.924 12.208v12.417h3.708c3.694 0 5.385-.175 6.792-.702 9.215-3.454 9.348-19.873.189-23.308-1.601-.6-3.519-.818-7.231-.821l-3.458-.003zm-31.878-8.497c3.3 1.646 4.504 9.536 2.213 14.497-1.77 3.833-6.099 3.925-7.846.167-1.809-3.892-1.434-10.676.744-13.459 1.058-1.352 3.425-1.935 4.889-1.205m-83.78.599c5.222 2.892 5.052 13.378-.259 15.891-.869.411-1.158.458-2.981.481l-2.019.026-.043-8.474-.043-8.475 2.293.065c2.072.059 2.366.106 3.052.486m105.271-.171c2.04.988 2.481 4.135.825 5.891-.734.778-1.462.926-4.563.927l-2.709.001v-7.167h2.864c2.563 0 2.94.037 3.583.348m19.801.209c5.143 2.839 4.966 13.283-.269 15.836-.943.459-3.751.784-4.707.544l-.438-.11V85.301l2.291.065c2.124.061 2.353.099 3.123.524m17.959 15.609c-2.325 1.418-1.185 5.168 1.57 5.168 2.635 0 3.761-3.61 1.587-5.087-.795-.541-2.338-.58-3.157-.081"/><path fill="#a4a4d4" d="M125.792 40.792c40.814.023 107.602.023 148.416 0 40.815-.023 7.421-.042-74.208-.042s-115.023.019-74.208.042m-77.301 1.666-.574.625.625-.574c.581-.535.701-.676.574-.676-.028 0-.309.282-.625.625m302.842-.041c.311.32.603.583.649.583s-.171-.263-.482-.583c-.311-.321-.603-.584-.649-.584s.171.263.482.584M47.082 83c0 20.671.019 29.127.043 18.792.024-10.336.024-27.248 0-37.584-.024-10.335-.043-1.879-.043 18.792m305.833 0c0 20.671.02 29.127.043 18.792.024-10.336.024-27.248 0-37.584-.023-10.335-.043-1.879-.043 18.792M116.102 52.47c-.046.075.137.104.407.064s.491-.101.491-.136c0-.127-.815-.062-.898.072m-24.602.197c-.33.105-.347.133-.083.133.183 0 .521-.06.75-.133.33-.106.347-.134.083-.134-.183 0-.521.06-.75.134m25.847-.106c.038.034.37.107.736.163.465.071.566.056.334-.05-.32-.145-1.213-.239-1.07-.113m-22.729 1.684c.246.502.475.884.509.85.075-.075-.766-1.762-.878-1.762-.043 0 .123.411.369.912m26.965-.745c.184.079.446.143.584.143.157 0 .126-.053-.084-.143a1.8 1.8 0 0 0-.583-.143c-.158 0-.127.053.083.143m-35.5.5c-.21.09-.241.143-.083.143.138 0 .4-.064.583-.143.21-.09.241-.143.084-.143-.138 0-.4.064-.584.143m-2.833.923c-.417.2-.431.223-.083.139.472-.116 1.003-.386.75-.383-.092.002-.392.111-.667.244m-2.208.749c-.558.224-.454.338.125.136.275-.096.5-.204.5-.241 0-.099-.203-.065-.625.105m33.297.313c-.139.336-.347.518-.647.564l-.442.068.454.025c.421.023 1.153-.841.914-1.079-.04-.041-.166.149-.279.422m13.994-.389c0 .113.866.427.949.345.037-.038-.16-.149-.44-.246-.28-.098-.509-.142-.509-.099m-29 .571c-.916.112-.916.112-.166.127a9 9 0 0 0 1.5-.119c.977-.174.063-.18-1.334-.008m9.834.002c.758.141 2.447.216 2.319.103-.038-.034-.744-.102-1.569-.152-1.058-.064-1.279-.049-.75.049m-13.358.373c.084.084.33.125.547.091.333-.053.31-.076-.153-.153-.331-.055-.487-.03-.394.062m34.858.041c.229.131.491.239.583.239s-.021-.108-.25-.239-.492-.238-.583-.238c-.092 0 .021.107.25.238m-52.917.506c-.419.202-.432.225-.083.141.229-.056.488-.167.575-.249.216-.202.097-.176-.492.108m-1.045.84c-.206.314-.342.571-.301.571.116 0 .806-1.012.737-1.081-.034-.034-.23.195-.436.51m134.834 7.613.039 4.541.047-4.448.047-4.449.622-.065.623-.065-.709-.028L211.5 61zM136 62.667c.187.366.378.666.423.666.046 0-.069-.3-.256-.666s-.378-.667-.424-.667.07.3.257.667m94.833-.334-.583.123.532.022c.292.012.578-.053.635-.145.056-.091.079-.156.051-.144s-.314.077-.635.144m-11.545 1.954c.296.037.821.037 1.167.001.345-.036.103-.066-.538-.067-.642 0-.925.029-.629.066m21.5 0c.296.037.821.037 1.167.001.345-.036.103-.066-.538-.067-.642 0-.925.029-.629.066m20.92.001c.344.036.907.036 1.25 0 .344-.036.063-.065-.625-.065s-.968.029-.625.065m23.413-.001c.296.037.821.037 1.167.001s.104-.066-.538-.067c-.642 0-.925.029-.629.066m-57.412.63c.002.366.036.497.076.289a1.8 1.8 0 0 0-.004-.666c-.042-.16-.074.01-.072.377m3.696 3.333c0 2.2.024 3.077.053 1.949a92 92 0 0 0 0-4c-.029-1.072-.053-.149-.053 2.051m8.048-3.582c-.311.244-.447.278-.509.125-.051-.127-.09-.094-.098.082-.017.377.023.371.753-.125.338-.229.539-.417.447-.417s-.359.151-.593.335m36.797 4.249c0 2.521.056 4.583.125 4.583s.125-2.062.125-4.583-.056-4.584-.125-4.584-.125 2.063-.125 4.584m5.742-3.871c.081.687.084.69.141.141.032-.309-.006-.626-.083-.704-.078-.077-.104.176-.058.563m5.312-.514c.155.198.205.704.167 1.693-.03.776.002 1.376.071 1.333.282-.175.137-2.841-.167-3.079-.262-.206-.269-.2-.071.053m-49.731 4.385c0 2.383.023 3.335.052 2.115s.028-3.17-.001-4.334c-.028-1.163-.051-.165-.051 2.219m-20.722-3.495c-.285.324-.518.639-.518.7s.057.04.127-.047c.069-.087.346-.402.614-.7.269-.298.445-.542.391-.542s-.33.265-.614.589m5.854-.171c.251.275.576.649.724.832.148.184.116.071-.072-.25-.187-.321-.513-.695-.724-.832-.334-.217-.325-.185.072.25m42.628.207c.218.298.422.542.454.542.127 0-.286-.625-.56-.847-.18-.146-.14-.03.106.305m-46.759.135c-.319.255-.319.256.009.105.184-.084.446-.195.584-.246.216-.08.214-.094-.01-.106-.143-.007-.406.104-.583.247m23.888.166c.712.498.784.855.88 4.324l.091 3.334.034-3.114c.02-1.887-.037-3.3-.145-3.584-.202-.534-.795-1.219-1.055-1.219-.096 0-.008.116.195.259m21.236-.085c.155.091.473.407.707.704.233.296.425.485.426.419.004-.21-1.025-1.297-1.223-1.292-.105.003-.065.079.09.169m22.442.784c.031.527.135 1.034.233 1.125.122.116.143.073.068-.138-.059-.168-.108-.674-.108-1.125s-.056-.82-.125-.82c-.068 0-.099.431-.068.958m-26.145-.033c-.202.326-.338.621-.303.656s.233-.232.441-.592c.47-.817.359-.868-.138-.064m23.088-.258c-.275.182-.425.33-.333.328.167-.002 1.073-.652.917-.657-.046-.001-.309.147-.584.329m-211.389.423c-.28.613-.226.744.076.187.141-.26.225-.504.187-.542s-.157.122-.263.355m167.204.148c-.05.131-.063.412-.029.625.046.285.084.222.146-.238.088-.647.042-.8-.117-.387m5.672 3.429c0 1.879.025 2.648.054 1.708.03-.94.03-2.477 0-3.417-.029-.939-.054-.171-.054 1.709m20.371-2.667c.132.719.227.854.223.319-.001-.221-.076-.515-.166-.652-.116-.176-.132-.077-.057.333m-47.836.042c-.133.498-.111 2.466.032 2.827.062.157.113-.499.113-1.459 0-1.909 0-1.909-.145-1.368m49.289 1.375c.001.916.029 1.27.062.786.034-.485.034-1.235 0-1.667-.035-.432-.062-.036-.062.881m-43.651.007c.001 1.184.017 1.252.15.634a3.4 3.4 0 0 0-.002-1.327c-.129-.546-.15-.45-.148.693m1.313-.091c0 .688.029.969.065.625a7 7 0 0 0 0-1.25c-.036-.343-.065-.062-.065.625m58.01 1.084c0 1.283.026 1.786.058 1.117.032-.668.031-1.718-.001-2.333s-.058-.068-.057 1.216M215.723 69c0 .688.029.969.065.625a7 7 0 0 0 0-1.25c-.036-.344-.065-.062-.065.625m43.662-.083c.001.55.032.755.069.455s.036-.75-.002-1-.068-.005-.067.545m5.638 1.028a3.4 3.4 0 0 1-.119.666c-.091.289-.086.29.094.009.105-.163.158-.463.119-.666-.072-.37-.072-.37-.094-.009m-52.332.305a8 8 0 0 1-.115.917l-.085.416.179-.411c.098-.225.15-.638.115-.916l-.065-.506zm45.499.083c0 .138.065.4.143.584.091.21.144.241.144.083 0-.138-.065-.4-.144-.583-.09-.21-.143-.241-.143-.084m11.155.181c.006.221.08.553.163.736.105.232.12.131.049-.333-.118-.774-.229-.985-.212-.403m-129.254.528c.062.206.182.448.266.538.083.089.068-.08-.035-.375-.212-.606-.406-.744-.231-.163m71.086.159a61 61 0 0 0-.302.716c-.037.091.096-.076.294-.373.198-.296.334-.618.302-.715s-.165.07-.294.372m48.496-.354c.003.13.2.461.437.736l.431.5-.383-.666c-.484-.843-.493-.854-.485-.57m-42.339.106c-.001.268.982 1.38 1.22 1.38.103 0 .014-.121-.198-.269-.211-.148-.528-.505-.703-.792s-.319-.431-.319-.319m-10.52.52c.186.26.469.579.63.708.161.13.039-.083-.27-.473-.636-.8-.872-.954-.36-.235m9.187-.376c0 .187.629 1.236.741 1.236.044 0-.081-.281-.278-.625-.441-.77-.464-.801-.463-.611m48.457.326c-.416.556-.362.712.061.174.194-.246.325-.474.292-.506s-.192.117-.353.332m9.971.395-.488.599.563-.537c.309-.295.529-.564.487-.599-.041-.034-.294.207-.562.537m-52.813.104c-.257.226-.402.411-.321.411s.323-.187.538-.416c.498-.531.388-.528-.217.005m37.182-.005c.094.183.385.52.645.749l.474.416-.499-.583c-.79-.923-.801-.933-.62-.582m6.463.541c-.36.461-.389.538-.11.294.335-.292.775-.919.647-.919-.027 0-.268.282-.537.625m-59.297-.208c.095.183.385.521.646.749l.473.416-.498-.582c-.791-.924-.802-.934-.621-.583m63.869.066c0 .155.981 1.1 1.043 1.005.026-.039-.198-.308-.498-.598s-.545-.473-.545-.407m-47.404.522c-.36.272-.585.493-.5.491.157-.005 1.39-.987 1.238-.987-.046.001-.378.224-.738.496m5.28.079c.002.366.036.497.076.289a1.8 1.8 0 0 0-.004-.666c-.042-.16-.074.01-.072.377m6.166 0c.002.366.036.497.076.289.04-.207.039-.507-.003-.666s-.074.01-.073.377m-25.248-.299c.207.04.507.038.667-.003.159-.042-.011-.075-.377-.073-.367.002-.497.036-.29.076m11 0c.207.04.507.038.667-.003.159-.042-.011-.075-.377-.073-.367.002-.497.036-.29.076m42.415-.003c.16.042.423.042.583 0s.029-.076-.292-.076-.452.034-.291.076m-54.624.888c.135.217 1.807.332 2.415.165.557-.152.55-.155-.166-.077a6.3 6.3 0 0 1-1.538-.065c-.433-.082-.753-.092-.711-.023m10.915-.005c.138.09.432.165.653.166.535.004.399-.091-.319-.223-.411-.075-.51-.059-.334.057m2.084.102-1 .224.908-.089c.499-.049 1.024-.157 1.166-.24.324-.189.176-.175-1.074.105m40.25-.116c.137.08.662.189 1.166.241.694.073.775.062.334-.044-1.075-.259-1.762-.349-1.5-.197m10.612.019c.076.072.55.174 1.054.228 1.093.117.936.012-.304-.203-.489-.085-.826-.096-.75-.025M67.762 76.429c-.061.244-.079.476-.04.515s.121-.128.183-.373c.061-.244.079-.476.04-.515s-.122.128-.183.373m74.595.904c0 .138.064.4.143.584.09.21.143.241.143.083 0-.138-.064-.4-.143-.583-.09-.21-.143-.241-.143-.084m-75.095.762c-.061.244-.079.476-.04.516.039.039.121-.129.183-.373.061-.244.079-.476.04-.515s-.122.128-.183.372m22.869-.125c-.157.062.534.113 1.536.113 1.001 0 1.692-.051 1.535-.113s-.848-.113-1.535-.113c-.688 0-1.379.051-1.536.113m26.667 0c-.157.062.534.113 1.535.113 1.002 0 1.693-.051 1.536-.113s-.848-.113-1.536-.113c-.687 0-1.378.051-1.535.113m-29.065 1.175a9 9 0 0 0-1.15 1.038c-.354.397-.257.342.334-.187.458-.411 1.021-.874 1.25-1.029.229-.156.371-.287.316-.292-.055-.004-.392.207-.75.47m8.684.855c.451.458.858.833.904.833s-.286-.375-.738-.833c-.451-.458-.858-.833-.904-.833s.286.375.738.833m16.941.073c-.472.499-.858.962-.858 1.028s.023.09.051.052c.029-.038.452-.501.941-1.028s.852-.958.806-.958-.469.408-.94.906m9.635-.198c.409.435.765.792.792.792.125 0-.007-.15-.743-.841l-.792-.743zm-56.14-.18a3 3 0 0 1-.116.583c-.09.289-.086.29.095.008.105-.163.157-.425.115-.583-.068-.258-.077-.259-.094-.008m76.342.888c-.003.184.06.484.138.667.183.425.183-.013 0-.583-.107-.335-.134-.352-.138-.084m82.513.372c.344.036.907.036 1.25 0 .344-.036.063-.066-.625-.066s-.968.03-.625.066m20.375.051c-.39.073-.045.089.834.038.825-.049 1.531-.116 1.569-.149.119-.105-1.701-.021-2.403.111m20.764-.112c.038.033.857.098 1.82.145 1.113.054 1.507.035 1.083-.051-.658-.134-3.037-.211-2.903-.094m61.653.064c0 .069.898.102 1.997.074l1.998-.052.047 4.469.047 4.468.039-4.542.039-4.542h-2.084c-1.145 0-2.083.057-2.083.125m-104.667.206c-.17.109-.037.127.417.058.824-.127.964-.223.319-.219-.267.001-.598.074-.736.161m25.042-.049c.16.042.423.042.583 0 .161-.042.029-.076-.291-.076-.321 0-.452.034-.292.076m16.625.049c-.17.109-.037.127.417.058.824-.127.964-.223.319-.219-.267.001-.599.074-.736.161m-81.083.336c.275.07.725.127 1 .128.42 0 .394-.022-.167-.138-.844-.174-1.526-.166-.833.01m13.786 1.708.047 1.875 2.542.046 2.541.046v8.565c0 6.697-.045 8.584-.208 8.65-.124.05-.09.089.085.097.277.012.291-.475.25-8.695l-.043-8.709-2.552-.046-2.552-.046.052-1.829c.028-1.006-.007-1.829-.079-1.829s-.109.844-.083 1.875m14.599-.042.052 1.834h-2.594c-1.426 0-2.593.056-2.594.125s1.181.087 2.625.042l2.626-.084.047-1.875c.026-1.031-.012-1.875-.084-1.875-.071 0-.107.825-.078 1.833m51.323-1.488c-.344.181-.625.367-.625.413 0 .074 1.316-.541 1.486-.695.192-.173-.309-.01-.861.282m16.452-.136c-.044.114-.06 5.721-.037 12.458l.043 12.25h4.334l.083-4.875c.046-2.681.028-4.875-.039-4.875s-.142 2.156-.167 4.792l-.044 4.791h-4V93.708c0-6.806-.021-12.375-.047-12.375s-.083.094-.126.209M291 81.5c.229.073.604.132.833.13.375-.002.366-.016-.083-.13-.705-.179-1.31-.179-.75 0m10.582 12.25.001 12.5 3.542.005 3.542.005-3.499-.05-3.499-.05-.045-12.455-.044-12.455zm8.001-12.24c.845.174 1.527.166.834-.01a5 5 0 0 0-1-.128c-.421 0-.394.022.166.138m-66.833.755-.5.429.583-.376c.749-.483.751-.485.57-.484-.084.001-.378.194-.653.431m-22.103.686c-.462.432-.916.938-1.01 1.125s.064.062.352-.278c.289-.34.801-.846 1.139-1.125.338-.278.557-.506.486-.506-.07 0-.506.353-.967.784m31.52-.738c0 .032.243.236.541.454.336.246.452.286.306.106-.222-.274-.847-.687-.847-.56m21.221.509c.351.322.901.873 1.223 1.223l.586.638-.523-.7a7.3 7.3 0 0 0-1.223-1.224l-.701-.523zm20.862-.19c.275.211.8.637 1.167.945q.658.554-.149-.215c-.448-.426-.973-.852-1.167-.945-.193-.093-.126.004.149.215m-195.988.301c.062.23.181.529.266.667.107.174.121.123.043-.167a3 3 0 0 0-.266-.666c-.107-.174-.12-.123-.043.166m45.416.014c.007.222.08.553.163.736.105.233.12.132.05-.333-.118-.774-.23-.985-.213-.403m44.989-.134c0 .036.424.357.943.715.519.357 1.231 1.014 1.583 1.459s.64.726.64.625c0-.261-1.994-2.202-2.634-2.563-.293-.166-.532-.272-.532-.236m52.55.833c-.458.484-.921 1.065-1.029 1.292l-.198.412.295-.417c.163-.229.663-.81 1.113-1.291.449-.482.78-.875.734-.875s-.458.395-.915.879m20.785-.298c-.309.319-.53.606-.491.637s.325-.23.633-.581c.701-.797.611-.833-.142-.056m51.665-.539c0 .044.318.287.708.54.39.252 1.116.881 1.613 1.397.738.764.806.808.368.237-.624-.813-2.689-2.483-2.689-2.174m-247.75 1.124c-.064.379-.082.724-.039.767s.128-.235.189-.617.078-.727.038-.766c-.039-.04-.124.237-.188.616m187.583-.556c0 .09.206.347.458.569l.459.404-.417-.5a13 13 0 0 1-.458-.569c-.023-.039-.042.005-.042.096m-168.907.816c-.063.334-.081.641-.04.682.04.041.125-.2.188-.534.062-.335.08-.642.04-.682-.041-.041-.126.199-.188.534m26.669-.164c-.061.244-.079.476-.04.515s.121-.128.183-.373c.061-.244.079-.476.04-.515s-.122.128-.183.373M98.75 85.833c0 .928.049 1.513.108 1.302.06-.212.109-.798.109-1.302s-.049-1.09-.109-1.301c-.059-.212-.108.374-.108 1.301m162.314-1.458c-.574.973-.612 1.056-.319.708.338-.403.63-.916.521-.916-.044 0-.135.093-.202.208m-135.651 1.509c.002.899.052 1.461.112 1.25.138-.489.135-1.736-.007-2.384-.06-.276-.107.231-.105 1.134m107.87-.969c.152.319.306.551.342.515.077-.076-.429-1.097-.543-1.097-.042 0 .048.262.201.582m-7.491.036c.206.04.543.04.75 0s.037-.072-.375-.072c-.413 0-.582.032-.375.072m70.903.558c.097.279.208.477.246.439.082-.082-.232-.948-.345-.948-.043 0 .001.229.099.509m-152.489.074c0 .275.057.725.127 1 .177.693.185.011.01-.833-.116-.561-.138-.587-.137-.167m36.542 8.25.002 8.417 1.417.01 1.416.009-1.373-.057-1.374-.058-.045-8.369-.046-8.368zm42.837-8.001c-.263.274-.445.519-.406.544s.308-.198.598-.498.473-.545.407-.545c-.067 0-.336.225-.599.499m21.213.21c-.404.389-.505.513-.224.275.28-.238.695-.557.921-.708.227-.152.328-.276.225-.276s-.518.319-.922.709m40.069 2.833c-.019 1.994.023 3.625.091 3.625.069 0 .106-1.068.082-2.375-.081-4.455-.14-4.879-.173-1.25m5.849-3.286c.347.127.872.4 1.166.607.337.236.453.272.313.097-.26-.324-1.526-.965-1.873-.948-.131.007.046.116.394.244m15.028 8.161c0 4.675.021 6.611.048 4.303.026-2.308.026-6.133 0-8.5-.027-2.367-.048-.478-.048 4.197m-55.418-7.5c.402.458.766.871.808.917.043.045-.001-.067-.098-.25-.096-.184-.46-.596-.808-.917-.602-.554-.597-.542.098.25m-31.567.009c-.062.335-.08.642-.04.682.041.041.126-.199.188-.534.063-.334.081-.641.04-.682-.04-.041-.125.2-.188.534m-32.426-.107c.23.187.492.341.584.342.178.001-.123-.23-.667-.511q-.331-.171.083.169m42.907.236c.256.337.5.612.541.612.116 0-.606-.975-.819-1.107-.104-.064.021.159.278.495m35.666.057c-.256.337-.381.559-.277.495.213-.132.935-1.107.819-1.107-.041 0-.285.276-.542.612m46.426-.327c.228.164.716.558 1.083.875l.668.576-.536-.579c-.296-.318-.783-.712-1.084-.875-.527-.286-.532-.286-.131.003m-245.807.236c-.014.241-.062.691-.108 1l-.083.563.176-.56c.096-.307.145-.757.108-1l-.068-.44zm173.58.369c-.303.726-.503 1.382-.39 1.277.139-.128.791-1.833.701-1.833-.043 0-.183.25-.311.556m57.923-.306c-.002.183.06.483.139.666.182.425.182-.013 0-.583-.108-.335-.135-.351-.139-.083m-74.129.677c-.059.235-.042.574.039.754.109.246.145.141.145-.427 0-.865-.034-.925-.184-.327m-138.387.253c.006.222.079.553.162.736.106.233.121.132.05-.333-.118-.774-.229-.985-.212-.403m26.666.167c.007.221.08.553.163.736.105.232.12.131.05-.333-.118-.774-.23-.985-.213-.403m118.765-.139c.101.164.584.155.853-.015.132-.084-.006-.131-.358-.123-.314.007-.537.069-.495.138m-85.408.708c-.003.275.053.875.124 1.334.106.681.132.727.14.25a8.5 8.5 0 0 0-.124-1.334c-.097-.545-.135-.613-.14-.25m114.727.179c-.061.244-.079.476-.04.515s.121-.128.183-.372c.061-.244.079-.476.04-.516-.039-.039-.122.129-.183.373m33.654.751c-.001.63.05 1.016.113.858.155-.39.161-1.576.01-1.813-.067-.105-.123.324-.123.955m-194.564-.328c-.103.295-.158.565-.122.601.036.035.149-.177.251-.471.103-.295.158-.565.122-.601-.035-.035-.148.177-.251.471m120.348-.268c0 .183.06.521.133.75.106.33.134.347.134.083 0-.183-.06-.521-.134-.75-.105-.33-.133-.347-.133-.083m19.633.583c-.103.385-.156.733-.116.773s.154-.247.253-.637.151-.737.116-.772-.149.251-.253.636m4.519.019c-.103.294-.158.564-.122.6s.149-.176.251-.471c.103-.294.158-.565.122-.6-.035-.036-.148.176-.251.471m-177.647.148c0 .32.035.452.077.291.041-.16.041-.423 0-.583-.042-.16-.077-.029-.077.292m128.23-.084c.137.613.233.746.229.32a1.2 1.2 0 0 0-.172-.57c-.123-.182-.139-.115-.057.25m30.232-.014c.379.421 1 .864 1 .715 0-.034-.319-.312-.709-.619-.621-.489-.657-.5-.291-.096m48.861.264c.009.433.271 1.145.277.75a2 2 0 0 0-.138-.666c-.088-.205-.142-.237-.139-.084m4.484.181c.006.221.079.553.162.736.106.232.121.131.05-.333-.118-.774-.229-.985-.212-.403m51.528.403c-.004.366.05 1.079.12 1.583.109.792.127.826.133.25.004-.367-.05-1.079-.119-1.583-.11-.793-.128-.826-.134-.25m-65.267.285c-.056.21-.095.531-.087.715s.083.04.167-.317c.162-.693.093-1.042-.08-.398M64.942 91.776c-.133 2.174-.114 7.466.033 9.391.06.779.108-1.415.108-4.875S65.076 90 65.067 90s-.065.799-.125 1.776m193.816-1.018c-.064.425-.082.807-.041.848.042.042.128-.272.192-.697s.082-.807.04-.849c-.041-.041-.128.272-.191.698m55.51-.341c.137.612.233.746.229.319a1.2 1.2 0 0 0-.171-.569c-.124-.183-.139-.115-.058.25m-76.321.335c-.061.365-.102.89-.092 1.165.011.275.085.05.165-.5.163-1.119.099-1.706-.073-.665m4.49-.329a1.9 1.9 0 0 0-.087.632c.011.229.068.148.154-.221.146-.619.106-.862-.067-.411m54.658.339c-.061.244-.079.476-.04.515s.122-.128.183-.372.079-.476.04-.516c-.039-.039-.121.129-.183.373m21.777-.012c.001.275.058.725.128 1 .176.693.184.011.01-.833-.116-.561-.138-.587-.138-.167m-206.407 0c.097.183.612.746 1.143 1.25l.966.917-1.071-1.167c-.59-.642-1.104-1.204-1.143-1.25-.04-.046.008.067.105.25m-26.5.167c.097.183.574.708 1.059 1.166l.883.834-.987-1.084-1.059-1.166c-.04-.046.007.066.104.25m103.478.333c.056.367.129.698.162.736.127.143.032-.749-.113-1.069-.105-.233-.12-.132-.049.333m4.51.333c.051.55.12 1.032.153 1.07.117.134.026-1.241-.109-1.653-.085-.259-.101-.038-.044.583m25.679-.666c.097.183.573.708 1.059 1.166l.882.834-.986-1.084-1.059-1.166c-.04-.046.006.066.104.25m-74.757.666c.002.367.036.497.076.29s.039-.507-.003-.667c-.042-.159-.074.011-.073.377m128.042 2.167c0 1.523.048 2.596.108 2.385s.108-1.285.108-2.385-.048-2.173-.108-2.385-.108.862-.108 2.385m59.458-2.167c.002.367.036.497.076.29s.039-.507-.003-.667c-.042-.159-.074.011-.073.377m-55.003.25c0 .321.034.452.076.292s.042-.423 0-.583c-.042-.161-.076-.029-.076.291m-14.308 2c0 1.146.027 1.615.059 1.042.033-.573.033-1.51 0-2.083-.032-.573-.059-.104-.059 1.041m69.154-.583c.001.55.032.755.069.455a4.4 4.4 0 0 0-.001-1c-.038-.25-.069-.005-.068.545m-142.497.5c.001.642.031.884.067.538a6.2 6.2 0 0 0-.001-1.167c-.037-.296-.066-.013-.066.629m125 0c.001.642.031.884.067.538a6.2 6.2 0 0 0-.001-1.167c-.037-.296-.066-.013-.066.629m-83.554-.531c0 .041.275.285.612.541s.559.382.494.278c-.131-.213-1.106-.935-1.106-.819m97.712.781c0 .412.032.581.072.375s.04-.544 0-.75-.072-.038-.072.375m-183.812 2.083c.001 1.467.026 2.045.057 1.284s.031-1.961 0-2.667-.057-.083-.057 1.383m150.1-1.869c-.413.388-.938.839-1.167 1.003-.402.287-.397.287.126.004.473-.257 2.073-1.728 1.867-1.717-.042.002-.414.321-.826.71m-204.292-.158a5 5 0 0 0 1.583 0c.701-.13.61-.147-.791-.147s-1.492.017-.792.147m26.667 0a5 5 0 0 0 1.583 0c.7-.13.609-.147-.792-.147s-1.492.017-.791.147m214.497 1.111c0 .32.034.452.076.291.042-.16.042-.423 0-.583s-.076-.029-.076.292m-138.012.104c-.015.286-.064.774-.11 1.083l-.083.563.176-.559c.096-.308.146-.795.109-1.084l-.066-.524zm135.025.479c.001.55.032.755.069.455a4.5 4.5 0 0 0-.002-1c-.038-.25-.068-.005-.067.545m-103.038-.52c.17.154 1.486.768 1.486.693 0-.094-1.258-.756-1.438-.756-.065 0-.086.028-.048.063m7.492.02c.001.092.155.354.342.583q.34.415.169.084c-.281-.544-.512-.845-.511-.667m43.869.5c.002.367.036.497.076.29s.039-.508-.003-.667-.074.01-.073.377m41.542.417c-.065.47-.083.89-.04.933s.13-.308.192-.781c.063-.472.081-.891.04-.932s-.128.31-.192.78m-129.392-.306a3.8 3.8 0 0 1-.121.75c-.091.289-.085.289.094.01.105-.163.159-.501.121-.75l-.069-.454zm48.325.153c.009.313.079.757.156.986.089.269.105.092.044-.5-.109-1.049-.225-1.331-.2-.486m76.576.278c-.061.343-.148.775-.193.958-.064.259-.048.278.074.083.175-.281.433-1.666.31-1.666-.044 0-.13.281-.191.625m-55.646.458c.053.458.124.865.158.903.117.131.029-.903-.113-1.32-.095-.281-.11-.145-.045.417m-16.444-.236c.001.221.076.515.166.653.116.176.132.077.057-.334-.132-.718-.227-.854-.223-.319m-13.919-.074c.848.753 1.161.973.834.586-.182-.215-.481-.467-.666-.562-.184-.094-.26-.105-.168-.024m34.761.407c.007.222.08.553.163.736.105.233.12.132.05-.333-.118-.774-.23-.985-.213-.403m29.689.399c.199.411.391.718.426.683.075-.075-.598-1.429-.711-1.429-.043 0 .086.336.285.746m-15.774.347c-.063.334-.081.641-.04.682.04.041.125-.2.188-.534.062-.335.08-.642.04-.682-.041-.041-.126.199-.188.534m52.112-.093c0 .321.035.452.077.292a1.4 1.4 0 0 0 0-.584c-.042-.16-.077-.029-.077.292m2.549.638-.133 1.221-1.136-.055c-.625-.029-1.076.006-1.002.08.074.073.614.111 1.2.083l1.067-.05.127-1c.069-.55.1-1.113.068-1.25-.032-.138-.118.299-.191.971m-59.159-.543c-.061.244-.079.476-.04.516.039.039.122-.129.183-.373s.079-.476.04-.515-.121.128-.183.372m-79.065.435c-.099.39-.151.738-.116.773s.149-.251.253-.636c.103-.386.156-.733.116-.773s-.154.246-.253.636m49.208.053c.066.275.191.574.278.663s.072-.098-.036-.416c-.253-.747-.395-.892-.242-.247m-4.47.334c.137.612.233.746.229.319a1.2 1.2 0 0 0-.171-.569c-.124-.183-.139-.115-.058.25m-3.38.833c.001.642.031.884.067.538a6.3 6.3 0 0 0-.001-1.167c-.037-.296-.067-.013-.066.629m17.279.389c.137.085.437.204.666.265.29.078.341.065.167-.043a3 3 0 0 0-.667-.265c-.289-.078-.34-.065-.166.043m12.097.569c.521 1.036 1.966 2.305 2.603 2.285.119-.003-.046-.12-.367-.258-.752-.326-1.61-1.152-2.018-1.943-.177-.344-.36-.625-.406-.625s.038.243.188.541m-46.374.051c-.055.143-.017.424.084.625.167.332.174.322.082-.11q-.1-.476.13-.623c.174-.11.178-.147.017-.148-.117-.002-.258.114-.313.256m12.479.35c-.103.335-.121.541-.04.458.163-.167.417-1.067.3-1.067-.04 0-.157.274-.26.609m29.222-.234c.062.206.182.448.266.538.083.089.068-.079-.035-.375-.212-.606-.406-.743-.231-.163m-114.716.375c.002.367.036.497.076.29s.039-.508-.003-.667-.074.01-.073.377m172.458.25c-.187.367-.302.667-.256.667s.236-.3.423-.667.303-.667.257-.667-.237.3-.424.667m-62.372-.295c.274.132.352.278.284.53-.09.332-.085.333.104.03.203-.327-.153-.782-.589-.754-.097.006-.007.093.201.194m-10.461.545c.311.321.603.583.649.583s-.171-.262-.482-.583-.603-.583-.649-.583.171.262.482.583m5.491.375-.574.625.625-.574c.343-.316.625-.598.625-.625 0-.128-.141-.008-.676.574m78.996-.246c-1.119.754-1.758 2.675-1.188 3.572.07.11.103-.303.072-.917-.092-1.847.691-2.708 2.621-2.883l1.091-.099-1.017-.026c-.81-.021-1.131.051-1.579.353m-110.485.625c.189.37.837 1.176 1.442 1.792l1.098 1.121-1.02-1.131c-.562-.622-1.173-1.428-1.358-1.791-.186-.364-.375-.662-.421-.662s.071.302.259.671m11.081-.233c-.299.255-.361.356-.153.253.306-.152.879-.7.715-.685-.034.004-.287.198-.562.432m80.75-.008c-.504.217-.804.394-.666.395.296.002 1.666-.601 1.666-.733 0-.05-.018-.083-.041-.073zm-226.291.559c-.824.597-.9.711-.682 1.019.139.197.154.187.077-.051-.112-.347 1.152-1.355 1.521-1.214.124.048.18.013.124-.078-.156-.253-.31-.205-1.04.324m40.826-.347c-.138.087-.031.136.299.136s.436-.049.298-.136c-.118-.075-.253-.137-.298-.137-.046 0-.18.062-.299.137m66.799-.016c0 .099-.39.618-.867 1.153-.598.67-.671.791-.236.388.767-.708 1.342-1.483 1.204-1.621-.056-.056-.101-.02-.101.08m-47.014.749c-.049.358-.024.563.06.479.081-.081.12-.362.087-.625-.055-.441-.067-.429-.147.146m83.68-.277c-.546.223-.551.232-.083.142.275-.053.571-.166.658-.251.2-.196.143-.185-.575.109m78.292-.142c.39.035 1.027.035 1.417 0 .389-.035.07-.064-.709-.064s-1.098.029-.708.064m-58.542.211c-.453.115-.461.128-.083.135.229.005.567-.056.75-.135.411-.177.027-.177-.667 0m-49.88 1.875.047 1.875h14.667l.047-1.736c.027-.954-.011-1.794-.083-1.867s-.131.672-.131 1.653v1.783l-7.219.044-7.219.043.053-1.835c.028-1.01-.007-1.836-.079-1.835-.072 0-.109.844-.083 1.875m117.13-.841c-.596.56-.783.789-.416.508.636-.488 1.726-1.551 1.573-1.534-.041.004-.561.466-1.157 1.026M86.5 102.722c0 .044.242.163.538.266s.464.119.375.035c-.19-.177-.913-.416-.913-.301m174.663.606c.194.273.438.548.542.612s-.021-.158-.278-.495c-.557-.73-.767-.823-.264-.117m72.216.505c0 .413.032.582.072.375s.04-.543 0-.75-.072-.037-.072.375m-92.129.334c.451.458.858.833.904.833s-.286-.375-.737-.833c-.452-.459-.859-.834-.904-.834s.286.375.737.834m-157.583-.589c0 .046.375.273.833.505.458.233.833.385.833.339s-.375-.273-.833-.505c-.458-.233-.833-.385-.833-.339m59.769.504c-.448.309-.898.653-1 .764s.283-.112.856-.495 1.041-.731 1.041-.774c0-.114-.015-.105-.897.505m130.397.298c-.412.388-.937.84-1.166 1.004-.402.286-.397.287.126.003.473-.256 2.073-1.727 1.867-1.716-.042.002-.414.321-.827.709m-20.675.078-.575.625.625-.574c.582-.535.702-.676.575-.676-.028 0-.309.282-.625.625m-161.075.209c.184.078.446.143.584.143.157 0 .126-.053-.084-.143a1.8 1.8 0 0 0-.583-.144c-.158 0-.127.053.083.144m25.334 0c-.21.09-.241.143-.084.143.138 0 .4-.065.584-.143.21-.091.241-.144.083-.144-.138 0-.4.065-.583.144m114.666.27c-.299.255-.361.357-.153.254.306-.152.879-.701.715-.685-.034.003-.287.197-.562.431m30.532-.085c.201.219.613.541.917.716.694.399.6.297-.449-.49-.491-.368-.683-.461-.468-.226m50.843-.007c-.343.181-.625.367-.625.412 0 .046.3-.07.667-.257s.667-.376.667-.42c0-.109-.002-.109-.709.265m-245.846.168c.207.251 1.221.889 1.221.769 0-.039-.318-.281-.708-.538s-.62-.361-.513-.231m18.888.07c.229.131.492.239.583.239.092 0-.02-.108-.25-.239-.229-.131-.491-.238-.583-.238s.021.107.25.238m7.417.084c.183.078.445.143.583.143.158 0 .127-.053-.083-.143a1.8 1.8 0 0 0-.584-.144c-.157 0-.126.053.084.144m21.583.007c-.183.124-.115.139.25.058.613-.137.746-.233.319-.229a1.2 1.2 0 0 0-.569.171m-1.667.326c-.569.12-.571.123-.083.133.275.006.65-.054.833-.133.401-.172.069-.172-.75 0m27.122.256c-.342.232-.622.459-.622.502 0 .044.3-.118.667-.361.582-.385.779-.564.622-.564-.025 0-.325.191-.667.423M328 105.385c0 .029.244.273.542.542l.541.49-.489-.542c-.456-.505-.594-.618-.594-.49m-232.153.176c.038.034.37.107.736.163.465.071.566.056.334-.05-.32-.145-1.213-.239-1.07-.113m201.239.24.109.384-2.332-.051c-1.283-.028-2.297.006-2.254.074.042.069 1.123.125 2.401.125 2.394 0 2.571-.055 2.143-.666-.136-.195-.151-.165-.067.134M88 105.722c0 .044.242.163.538.266s.464.119.375.035c-.19-.177-.913-.416-.913-.301m-18.75.364c.183.15.483.345.667.435l.333.164-.333-.271a4.3 4.3 0 0 0-.667-.435l-.333-.164zm29-.095c.514.14 1.693.225 1.569.113-.038-.034-.519-.104-1.069-.155-.658-.061-.829-.047-.5.042m12.5.009-.667.119.584.004a5.2 5.2 0 0 0 1.083-.123c.678-.173-.036-.173-1 0m74.167 0c-.449.114-.458.128-.084.13.23.002.605-.057.834-.13.56-.179-.045-.179-.75 0m125 0c-.449.114-.458.128-.084.13.23.002.605-.057.834-.13.56-.179-.045-.179-.75 0m-133.272.212c.071.07 1.698.108 3.617.083l3.488-.046-3.617-.083c-1.989-.045-3.559-.025-3.488.046m-87.228.538c0 .303.056.517.125.474.068-.042.125-.256.125-.474s-.057-.432-.125-.474c-.069-.043-.125.171-.125.474m30.812-.339a.73.73 0 0 0-.008.459c.047.117.092.051.099-.148s.107-.399.222-.445c.163-.066.162-.087-.006-.097-.117-.007-.255.097-.307.231m-16.429.046c.76.031 1.96.031 2.666 0s.084-.056-1.383-.056c-1.466 0-2.044.026-1.283.056m120.783.043c.705.179 1.311.179.75 0a3.2 3.2 0 0 0-.833-.13c-.374.002-.366.016.083.13m3.584 0c-.33.106-.348.133-.084.133.184 0 .521-.06.75-.133.33-.106.348-.133.084-.133-.184 0-.521.06-.75.133m17.416 0c.275.07.688.127.917.127.372 0 .363-.014-.083-.127a4.5 4.5 0 0 0-.917-.127c-.372 0-.363.014.083.127m3.167 0c-.449.114-.458.128-.083.13a3.2 3.2 0 0 0 .833-.13c.56-.179-.045-.179-.75 0m17.167 0c.705.179 1.31.179.75 0a3.2 3.2 0 0 0-.834-.13c-.374.002-.365.016.084.13m3.75 0c-.335.107-.352.134-.084.138.184.003.484-.059.667-.138.425-.183-.013-.183-.583 0m-130.875.595c-.623.338-.585.479.041.155.275-.142.5-.294.5-.338 0-.107-.018-.101-.541.183m-51.587 3.863c-.431.623-.571.875-.487.875.039 0 .27-.3.512-.666.493-.746.472-.926-.025-.209m44.17-.119c-.558.224-.454.338.125.136.275-.096.5-.204.5-.241 0-.099-.203-.065-.625.105m-50.042 1.3c.138.085.438.204.667.265.29.078.34.065.167-.043a3 3 0 0 0-.667-.265c-.29-.078-.34-.065-.167.043m46.709.033c-.558.224-.454.338.125.136.275-.096.5-.204.5-.241 0-.099-.203-.065-.625.105m-4.404.413c.245.5.813.961 1.061.862q.22-.088-.062-.101c-.154-.007-.479-.256-.722-.554s-.368-.391-.277-.207m-75.471 10.467c0 .029.243.273.541.542l.542.489-.49-.541c-.456-.505-.593-.619-.593-.49m303.073.49-.49.541.542-.489c.505-.456.618-.594.489-.594-.029 0-.272.244-.541.542M51.465 125.03c.373.148 296.697.148 297.07 0 .157-.062-66.684-.113-148.535-.113s-148.692.051-148.535.113"/><path fill="#f4f4f4" d="M51.417 41.033c-1.789.586-3.064 1.604-3.72 2.967-.404.84-.437 76.976-.034 77.766.754 1.479 2.091 2.589 3.47 2.88 1.265.268 296.469.268 297.734 0 1.379-.291 2.716-1.401 3.47-2.88.403-.79.37-76.926-.034-77.766-.671-1.396-1.984-2.423-3.815-2.984-.792-.243-296.33-.226-297.071.017M93.98 52.596c.382.485 1.853 3.466 1.853 3.754 0 .121.165.15.459.081 3.456-.81 13.879-.815 17.212-.008.398.096.481-.018 1.5-2.036l1.079-2.137.584.028c.68.032 2.328.316 3.166.545.321.088 1.109.284 1.75.435.642.152 1.317.339 1.5.416s.594.191.912.254c.317.063.692.171.833.24.14.069.668.253 1.172.409.504.157 1.067.344 1.25.417s.896.339 1.583.591c.688.252 1.475.556 1.75.674 1.874.809 2.374 1.091 2.682 1.514.475.65 2.392 3.76 3.07 4.982l.83 1.495c1.025 1.851 2.638 5.294 3.357 7.167.176.458.388.983.471 1.166.082.184.392 1.084.688 2 .295.917.594 1.817.664 2s.173.521.229.75c.055.23.219.829.363 1.334.827 2.899 1.464 6.217 1.743 9.083.09.917.242 2.154.34 2.75.408 2.501.02 12.716-.5 13.123-.837.658-5.6 3.746-6.52 4.227-.596.312-1.121.608-1.167.658-.136.149-4.506 2.267-5.5 2.665-.504.202-1.141.459-1.416.572s-.763.3-1.084.416-.819.315-1.108.442-.609.23-.711.23-.315.071-.475.158-.698.285-1.198.441l-.909.284-.557-.644c-.71-.822-2.473-3.666-3.576-5.77-.426-.814-.239-1.134.894-1.528.962-.334 4.349-1.98 4.887-2.375.323-.237.318-.254-.199-.737-.526-.492-1.002-.622-1.306-.357-.35.305-4.813 2.028-5.254 2.028a.7.7 0 0 0-.413.149c-.159.15-.336.197-3.241.853-.871.197-1.846.428-2.167.514-4.263 1.141-14.326.832-19.75-.606-.55-.145-1.3-.336-1.667-.424a8 8 0 0 1-1-.303 19 19 0 0 0-1.333-.448c-.55-.167-1.071-.363-1.158-.436a.77.77 0 0 0-.417-.133c-.142-.001-.473-.113-.736-.25-.262-.137-.544-.249-.626-.249s-.537-.187-1.012-.417c-1.069-.515-2.301-.197-2.301.595 0 .119 3.706 1.984 5.083 2.559.367.154.779.342.917.419.414.232.249 1.037-.448 2.181a31 31 0 0 0-.778 1.33c-.449.93-2.453 3.848-2.711 3.947-.2.077-1.447-.289-2.068-.608-.141-.071-.514-.187-.828-.256-.315-.069-.688-.183-.828-.254a16 16 0 0 0-1.006-.416c-4.401-1.684-9.533-4.393-13.666-7.213-.871-.595-1.704-1.184-1.851-1.311-.823-.708-.762-11.989.093-17.223.486-2.977.597-3.603.748-4.25l.431-1.833c.15-.642.333-1.282.406-1.423.072-.141.187-.588.256-.994.069-.405.181-.852.25-.993.07-.141.254-.669.411-1.173.156-.505.345-1.067.419-1.25s.378-1.009.674-1.834.604-1.571.684-1.658a.64.64 0 0 0 .145-.375c0-.441 3.471-7.556 3.846-7.883.052-.046.139-.202.192-.346.686-1.868 3.196-5.118 4.296-5.563.412-.166 1.145-.48 1.629-.697s.975-.394 1.092-.394a.64.64 0 0 0 .37-.142c.265-.236 5.241-1.812 7.159-2.267a42 42 0 0 0 1.666-.426c.275-.082.913-.2 1.417-.262.504-.063 1.029-.176 1.167-.253.465-.26.974-.152 1.313.279m137.468 8.433c.475.447.488.798.046 1.273-.424.454-.894.465-1.327.031-.905-.904.348-2.18 1.281-1.304m-18.533 5.054-.002 5.167-.48.804c-1.439 2.414-5.481 2.472-6.666.097-.304-.609-.265-.711.396-1.041.476-.237.501-.228.923.325.628.824 2.195 1.387 2.497.898.057-.091.235-.166.396-.166.16 0 .512-.23.781-.511l.49-.511.046-4.947c.053-5.762-.009-5.399.911-5.333l.71.052zm9.27-1.488c2.112 1.333 2.804 4.432 1.556 6.967-.491.997-1.774 2.105-2.439 2.105-.158 0-.477.087-.711.193-.453.207-1.9-.032-2.76-.455-2.885-1.42-2.999-7.032-.178-8.813 1.198-.757 3.331-.755 4.532.003m21.3.037c1.15.924 1.251 1.338 1.317 5.41l.06 3.625h-.747c-.97 0-.948.085-.948-3.729v-3.201l-.474-.567c-.431-.517-.557-.569-1.391-.577-2.056-.021-2.302.495-2.302 4.829v3.245h-1.5v-9.5h.682c.541 0 .701.068.769.331.085.325.095.326.526.019.991-.702 3.064-.643 4.008.115m20.947-.127c2.792 1.553 3.057 6.841.431 8.606-4.267 2.867-8.793-2.236-6.233-7.028 1.009-1.888 3.853-2.662 5.802-1.578m23.035-.155c.353.219.373.329.33 1.817l-.047 1.583-.733.052c-.889.064-1.011-.087-1.014-1.26l-.003-.875h-.646c-2.292 0-3.187 1.244-3.187 4.43v2.056l1.375.049 1.375.048v1.333l-3.042.046-3.042.045v-1.507h1.834v-6.5h-1.834v-1.5h3.334v1.395l.458-.427c1.128-1.053 3.731-1.475 4.842-.785M231.5 68.16v3.993l1.292.048 1.291.049.052.712.051.712-3.301-.045-3.302-.046V72.25l1.209-.049 1.208-.049v-6.471l-1.208-.049c-1.19-.048-1.21-.056-1.263-.521-.104-.912-.035-.944 2.049-.944h1.922zm39.333-.493c.075 3.078.117 3.461.417 3.869.795 1.079 2.673 1.03 3.341-.088.276-.46.33-.978.406-3.865l.086-3.333h1.5v9.333l-.71.052c-.521.037-.736-.018-.809-.208-.087-.227-.153-.23-.54-.024-2.319 1.232-4.745.169-5.169-2.266-.206-1.181-.261-6.675-.069-6.867.065-.065.421-.097.791-.07l.673.05zm-51.75-2.054c-1.867.518-2.551 4.226-1.097 5.95.557.66 2.045 1.101 2.641.782.159-.084.413-.192.564-.238.544-.165 1.165-1.23 1.346-2.307.48-2.851-1.149-4.826-3.454-4.187m42.341-.001c-1.118.316-2.096 2.182-1.877 3.577.719 4.562 5.453 4.325 5.453-.272 0-2.47-1.53-3.884-3.576-3.305M89.042 78.664c-1.756.813-2.888 2.14-4.108 4.817-.233.512-.239 4.345-.007 4.869 1.383 3.123 2.48 4.259 5.123 5.3.752.296 2.599.222 3.604-.145 4.548-1.663 6.319-6.953 3.96-11.829-1.395-2.882-5.635-4.371-8.572-3.012m27.037-.188c-2.066.844-3.18 2.089-4.484 5.008-.721 1.615.002 5.727 1.307 7.433.991 1.296 1.491 1.661 3.804 2.777.551.266 2.673.155 3.614-.189 7.687-2.81 6.039-15.41-2.004-15.321-1.036.011-1.793.11-2.237.292m112.195 2.452c2.732.634 6.005 3.616 5.695 5.189-.099.499-4.136 1.724-4.136 1.254 0-.28-1.452-1.659-2.025-1.924-2.366-1.091-5.113.488-4.486 2.579.158.529.423.827 1.428 1.609.092.071 1.104.597 2.25 1.169 6.6 3.295 7.97 4.745 7.991 8.458.011 2.12-.374 3.385-1.365 4.478-.161.177-.293.381-.293.453 0 .536-3.017 2.141-4.633 2.464-4.639.927-9.693-1.892-10.941-6.105-.127-.43.036-.539 1.586-1.057.59-.197 1.308-.464 1.597-.593.732-.328.87-.3 1.103.223 1.853 4.147 8.288 4.536 8.288.501 0-2.001-.346-2.277-6.833-5.437-3.806-1.854-5.646-4.945-4.825-8.106 1-3.847 5.294-6.153 9.599-5.155m20.799-.075c2.467.454 4.329 1.683 5.684 3.751.916 1.398.912 1.62-.036 2.062l-1.804.844c-.55.258-1.085.493-1.19.521s-.473-.36-.821-.864c-.986-1.432-1.922-1.993-3.323-1.993-2.329 0-4.05 1.86-4.85 5.243-.545 2.301-.328 6.34.438 8.166 1.115 2.659 2.421 3.751 4.485 3.75 1.488-.001 2.766-.901 3.57-2.513.229-.46.662-.592 1.171-.356.194.089.691.292 1.103.45s.88.354 1.039.436c.16.083.394.15.522.15 1.611 0-1.343 4.332-3.749 5.497-1.818.881-5.48 1.068-6.95.354l-1.107-.535c-2.226-1.074-3.805-3.3-5.071-7.149-.571-1.737-.6-8.065-.043-9.525.082-.216.244-.692.358-1.059 1.611-5.151 5.909-8.09 10.574-7.23m20.658-.009c4.428 1.147 6.565 3.738 7.685 9.323.457 2.277.206 7.87-.403 9.005-.076.141-.192.504-.259.808-1.103 5.026-7.088 8.241-11.837 6.36a78 78 0 0 1-.75-.3c-1.711-.69-3.582-2.934-4.69-5.623-.344-.835-.879-3.67-1.063-5.636-.115-1.233.31-5.489.587-5.864.067-.092.175-.467.239-.834.555-3.15 3.678-6.537 6.517-7.068.417-.078.805-.188.862-.245.17-.17 2.373-.117 3.112.074m63.064 3.906c.025 2.2-.036 4.938-.134 6.083s-.25 3.021-.337 4.167a137 137 0 0 1-.282 3.25l-.125 1.167-1.234.049c-1.56.063-1.527.105-1.696-2.243-.078-1.085-.254-3.473-.391-5.306-.256-3.415-.355-10.936-.147-11.144.064-.064 1.058-.095 2.209-.069l2.092.046zm-147.481-3.39c.607.107 1.174.257 1.261.334.087.076.291.139.453.139 2.115 0 5.461 3.6 6.655 7.16.664 1.979.781 8.126.169 8.912-.076.098-.182.411-.236.696-.408 2.157-2.831 5.322-4.885 6.381-2.372 1.224-3.582 1.426-8.564 1.431l-3.75.004L176.374 94c-.024-6.829-.008-12.51.036-12.625.106-.278 7.337-.29 8.904-.015m27.589-.092c.336.129.392 3.537.064 3.865-.138.138-.971.2-2.667.2h-2.467v16.992l2.625.046 2.625.046.048 1.809c.066 2.522.9 2.274-7.648 2.274h-7.31l-.094-.375c-.051-.206-.071-1.125-.044-2.042l.048-1.666 2.542-.046 2.542-.046V85.333h-2.483c-2.109 0-2.497-.039-2.583-.263-.202-.527-.112-3.704.107-3.793.301-.121 14.38-.13 14.695-.009m78.691.072c2.961.518 4.939 2.334 5.71 5.243.96 3.62-.681 7.628-3.721 9.089-.458.22-.865.422-.904.449-.039.026.272.741.692 1.589 3.393 6.858 4.154 8.498 4.011 8.642-.09.089-1.17.137-2.479.111l-2.32-.046-2.426-4.834-2.426-4.833-1.282-.049-1.282-.048v4.736c0 5.64.249 5.138-2.524 5.075l-2.06-.047L280.54 94c-.023-6.829-.007-12.51.037-12.625.101-.265 9.529-.296 11.017-.035m18.559.004c.603.098 1.247.24 1.43.316.184.076.682.262 1.107.412 2.64.937 5.021 3.694 5.958 6.9.591 2.022.685 2.68.685 4.778 0 1.98-.064 2.456-.618 4.583-1.532 5.88-5.668 8.276-14.048 8.137l-3.25-.053-.043-12.49c-.034-9.881.001-12.517.167-12.622.311-.198 7.344-.166 8.612.039m-43.603 4.093c-1.157.571-2.717 2.763-2.717 3.819 0 .189-.093.438-.208.552-.155.155-.208 1.194-.208 4.025s.053 3.871.208 4.025c.115.115.208.374.208.575 0 1.814 2.232 3.9 4.172 3.9 1.967 0 4.162-1.955 4.162-3.707 0-.124.067-.297.149-.384.505-.533.736-4.917.383-7.242-.681-4.482-3.383-6.927-6.149-5.563m-85.717 8.307v8.295l2.125-.074c3.582-.126 5.253-1.521 6.234-5.204.537-2.015.361-5.633-.35-7.178-.084-.183-.278-.612-.431-.954-.923-2.059-2.474-2.936-5.439-3.078l-2.139-.102zm104.334-4.831v3.459l2.793-.064c3.934-.09 4.779-.674 4.784-3.305.006-2.77-.798-3.353-4.781-3.468l-2.796-.081zM306 93.745v8.295l2.042-.077c3.376-.129 4.993-1.388 6.055-4.713.444-1.39.456-5.753.02-7-1.181-3.373-2.683-4.535-6.075-4.701l-2.042-.1zM331.511 101c1.641.456 2.567 2.36 1.911 3.929-1.459 3.491-6.415 1.963-5.814-1.793.126-.791 1.234-2.053 1.915-2.183.717-.136 1.386-.12 1.988.047"/><path fill="#cccce4" d="M47.249 82.917c0 20.808.019 29.345.043 18.971s.023-27.399 0-37.833c-.024-10.434-.043-1.947-.043 18.862m305.5 0c0 20.808.019 29.345.043 18.971s.023-27.399 0-37.833c-.024-10.434-.043-1.947-.043 18.862m-236.77-30.459c-.208.265-.202.271.064.062.194-.152.505-.196.917-.13.428.069.545.051.373-.059-.4-.255-1.106-.189-1.354.127m-12.014 3.332c.576.033 1.476.033 2 0 .523-.033.052-.06-1.048-.06-1.1.001-1.529.028-.952.06m-2.844.164c.296.036.821.037 1.167.001s.104-.066-.538-.067-.925.029-.629.066m6.334 0c.295.036.82.037 1.166.001s.104-.066-.538-.067c-.641-.001-.924.029-.628.066m-10.705.387c-.232.105-.131.12.333.05.367-.056.698-.129.736-.163.144-.126-.749-.032-1.069.113m114.662 4.693c-.046.121-.063 2.319-.037 4.885l.047 4.664.039-4.791L211.5 61h1.328l.048 4.5.049 4.5-.004-4.542-.004-4.541-.71-.052q-.71-.051-.795.169m16.199 3.244c-.152.152-.141 1.184.014 1.28.069.042.125-.254.125-.657 0-.404-.006-.734-.014-.734a1 1 0 0 0-.125.111m41.63.103c-.045.117-.062 1.561-.036 3.208l.046 2.994.083-3.208c.081-3.147.072-3.426-.093-2.994m1.425 2.835.083 3.034.046-2.904c.026-1.598-.012-2.963-.083-3.034s-.091 1.236-.046 2.904m4.408-2.835c-.046.119-.062 1.45-.036 2.959l.046 2.743.083-2.958c.081-2.905.072-3.175-.093-2.744m1.223-.089c.167.118.203 1.158.167 4.755-.026 2.532.01 4.546.08 4.475.267-.266.063-9.238-.211-9.313-.19-.051-.199-.032-.036.083m11.404 1.736c-.024 1.105-.1 1.637-.243 1.695-.163.066-.162.087.006.097.331.021.388-.312.327-1.917l-.056-1.486zm-70.795-.82-.489.542.541-.49c.298-.269.542-.512.542-.541 0-.129-.138-.016-.594.489m2.608.185c.038.033.369.106.736.162.454.07.587.051.417-.057-.228-.145-1.315-.244-1.153-.105m21.333 0c.038.032.332.107.653.166.41.075.509.059.333-.057-.226-.148-1.151-.251-.986-.109m45.205 1.19c.001.55.032.755.069.456.037-.3.036-.75-.002-1-.038-.251-.068-.006-.067.544m-42.816 3.75c0 1.696.025 2.39.055 1.542s.03-2.235 0-3.083-.055-.155-.055 1.541m-19.012-1.416c0 .733.03 1.012.065.62a8.3 8.3 0 0 0-.001-1.333c-.036-.341-.065-.021-.064.713m3.387 3.361c-.152.152-.141 1.184.014 1.28.069.042.125-.254.125-.657 0-.404-.006-.734-.014-.734a1 1 0 0 0-.125.111m57.214.601c.081.687.085.69.141.141.032-.309-.005-.626-.083-.704-.077-.077-.104.176-.058.563m-78.992-.494c0 .029.244.273.542.542l.542.49-.49-.542c-.456-.505-.594-.618-.594-.49m67 1.448c-.576.122-.577.123-.083.143.275.01.612-.054.75-.143.278-.179.185-.179-.667 0m-64.125.115c.161.042.423.042.584 0s.029-.076-.292-.076-.452.034-.292.076m11 0c.161.042.423.042.584 0s.029-.076-.292-.076-.452.034-.292.076m42.334 0c.16.042.423.042.583 0s.029-.076-.292-.076-.452.034-.291.076M91.125 78.121c.298.037.785.037 1.083 0s.055-.068-.541-.068-.84.031-.542.068m26.667 0c.298.037.785.037 1.083 0s.054-.068-.542-.068-.839.031-.541.068m-30.886 1.921-.489.541.541-.489c.298-.269.542-.513.542-.542 0-.129-.138-.015-.594.49m9.427.041c.311.321.603.584.649.584s-.171-.263-.482-.584-.603-.583-.649-.583.171.262.482.583m17.24-.041-.49.541.542-.489c.298-.269.542-.513.542-.542 0-.129-.138-.015-.594.49m9.427.041c.311.321.603.584.649.584s-.171-.263-.482-.584-.603-.583-.649-.583.171.262.482.583m102.708.705c.344.036.907.036 1.25 0 .344-.036.063-.065-.625-.065s-.968.029-.625.065m21.42-.001c.3.038.75.037 1-.001s.005-.069-.545-.068-.755.032-.455.069m19.421.012c-.11.07.34.103 1 .073 1.804-.081 2.03-.157.534-.18-.733-.011-1.423.037-1.534.107m61.859.079c-.044.116-.059 2.085-.033 4.375l.048 4.164.038-4.301.039-4.301 2.151.051c1.183.028 2.116-.006 2.074-.074-.143-.23-4.227-.149-4.317.086m-151.998.497c-.044.115-.06 5.796-.036 12.625l.043 12.417 3.547.045c1.951.024 3.771-.013 4.044-.084.274-.07-1.304-.103-3.505-.073l-4.003.055V81.339l4.125-.047 4.125-.048-4.13-.039c-3.18-.029-4.149.01-4.21.17m25.56-.083c2.045.026 5.345.026 7.333-.001 1.988-.026.314-.048-3.72-.048s-5.659.022-3.613.049m81.238-.001c1.444.028 3.807.028 5.25 0 1.444-.027.263-.05-2.625-.05s-4.068.023-2.625.05m20.427 0c1.128.029 2.928.029 4 0 1.071-.029.148-.053-2.052-.052-2.2 0-3.077.023-1.948.052m-105.572 1.876c0 1.054.027 1.485.06.958s.033-1.39 0-1.917-.06-.096-.06.959m15 0c0 1.054.027 1.485.06.958s.033-1.39 0-1.917-.06-.096-.06.959M262 83.083c-.405.413-.699.75-.653.75s.415-.337.82-.75c.405-.412.698-.75.652-.75s-.414.338-.819.75m11.667-.364c0 .029.243.272.541.541l.542.49-.49-.542c-.456-.505-.593-.618-.593-.489m21.826.656c.691.736.84.868.84.743 0-.027-.356-.383-.791-.792l-.792-.743zm19.84.344c0 .029.244.272.542.541l.542.49-.49-.542c-.456-.505-.594-.618-.594-.489m-89.539 1.399c.207.04.507.038.666-.003.16-.042-.01-.075-.377-.073-.366.002-.497.036-.289.076M111.217 86c0 .504.031.71.069.458a3.7 3.7 0 0 0 0-.916c-.038-.252-.069-.046-.069.458m89.448-.711 2.499.053.045 8.454.046 8.454-.003-8.5-.002-8.5-2.542-.007-2.542-.006zm8.377.002c.71.031 1.873.031 2.583 0 .71-.032.129-.057-1.292-.057s-2.002.025-1.291.057m-110.333.626c.002.366.036.497.076.289a1.8 1.8 0 0 0-.004-.666c-.042-.16-.074.01-.072.377m82.838-.461a11 11 0 0 0 1.5-.001c.387-.035.028-.063-.797-.063-.825.001-1.141.03-.703.064m103.527.09c-.045.118-.061 1.711-.036 3.542l.045 3.329 2.334.007 2.333.006-2.292-.053-2.291-.053V85.46l2.708.066c1.49.037 2.483.017 2.208-.043-.983-.216-4.92-.166-5.009.063m20.836-.004c-.044.114-.061 3.883-.037 8.375l.044 8.166 1.583.009 1.583.009-1.541-.056-1.542-.057V85.513l1.375-.056 1.375-.056-1.38-.034c-.977-.024-1.404.027-1.46.175M144.542 86.75c.002.367.036.497.076.29s.038-.508-.003-.667c-.042-.159-.075.01-.073.377m74.011.75c0 .596.031.84.068.542a5.3 5.3 0 0 0 0-1.084c-.037-.298-.068-.054-.068.542m-93.364-.222a3.4 3.4 0 0 1-.118.667c-.091.289-.086.289.094.009.105-.164.158-.464.119-.667-.072-.37-.072-.37-.095-.009m-59.984.555c0 .321.035.452.077.292s.041-.423 0-.583c-.042-.161-.077-.029-.077.291m232.343 1.084c.001.458.033.626.072.372a3 3 0 0 0-.003-.833c-.039-.205-.071.002-.069.461m-4.673 0c.002.366.036.497.076.289.04-.207.039-.507-.003-.666s-.074.01-.073.377m-99.107.833c.137.613.233.746.229.319a1.2 1.2 0 0 0-.171-.569c-.124-.183-.139-.115-.058.25M144.95 91c.052.504.122.948.156.986.117.134.026-1.073-.112-1.486-.089-.269-.105-.092-.044.5m132.5.167c.052.504.122.948.156.986.117.133.026-1.073-.112-1.486-.089-.269-.105-.092-.044.5m-4.741-.084c.002.367.036.497.076.29a1.8 1.8 0 0 0-.004-.667c-.042-.159-.074.011-.072.377m59.843.334c.001.55.032.755.069.455s.036-.75-.002-1-.068-.005-.067.545m-267.68.25c0 .32.034.452.076.291.042-.16.042-.423 0-.583s-.076-.029-.076.292m193.67.25c.002.366.036.497.076.289a1.8 1.8 0 0 0-.003-.666c-.042-.16-.075.01-.073.377m4.691 1.833c.001 1.375.026 1.915.058 1.201a33 33 0 0 0-.001-2.5c-.031-.661-.057-.076-.057 1.299M319.212 92c0 .412.033.581.072.375.04-.206.04-.544 0-.75-.039-.206-.072-.038-.072.375m-76.84.5c0 .321.034.452.076.292a1.4 1.4 0 0 0 0-.584c-.042-.16-.076-.029-.076.292m72.19 1.25c.001 1.008.028 1.399.061.869a17 17 0 0 0 0-1.833c-.034-.478-.061-.044-.061.964m-76.834.083c0 .963.028 1.357.062.875a16 16 0 0 0 0-1.75c-.034-.481-.062-.087-.062.875M64.739 96.25c0 2.2.023 3.077.052 1.949a92 92 0 0 0 0-4c-.029-1.072-.053-.149-.052 2.051m129.485-2.5c0 .733.03 1.013.065.621a8.4 8.4 0 0 0-.001-1.334c-.036-.341-.065-.02-.064.713m-4.671-.083c0 .596.031.839.068.541a5.3 5.3 0 0 0 0-1.083c-.037-.298-.068-.054-.068.542m68.835.083c.001.642.031.884.067.538a6.3 6.3 0 0 0-.001-1.167c-.037-.296-.067-.013-.066.629m70.329.083c0 .504.031.711.069.459a3.7 3.7 0 0 0 0-.917c-.038-.252-.069-.046-.069.458m-86.505 0c0 .413.033.582.072.375.04-.206.04-.543 0-.75-.039-.206-.072-.037-.072.375m-9.712.219c0 .029.244.273.542.542l.541.489-.489-.541c-.456-.505-.594-.619-.594-.49m86.712 1.448c0 .412.033.581.072.375.04-.206.04-.544 0-.75-.039-.206-.072-.038-.072.375m13 0c0 .412.033.581.072.375.04-.206.04-.544 0-.75-.039-.206-.072-.038-.072.375m-73.667.167c0 .412.033.581.073.375a2.4 2.4 0 0 0 0-.75c-.04-.207-.073-.038-.073.375m14.16.666c0 .321.035.452.077.292s.041-.423 0-.583c-.042-.161-.077-.029-.077.291m59.34.667c0 .412.033.581.073.375a2.4 2.4 0 0 0 0-.75c-.04-.206-.073-.038-.073.375m-47.046 4.417-.082 4.833h-2.193c-1.206 0-2.158.056-2.115.125.149.241 4.166.146 4.373-.104.135-.162.177-1.606.144-4.958l-.045-4.73zm44.043-3.5c.002.366.036.497.076.289a1.8 1.8 0 0 0-.003-.666c-.042-.16-.075.01-.073.377M221.5 98.79c.137.054.348.216.468.362.184.225.189.208.035-.11-.1-.207-.31-.369-.467-.362-.232.01-.239.031-.036.11m8.881.793c.001.459.034.626.072.373a3 3 0 0 0-.002-.833c-.04-.205-.071.002-.07.46m-85.339 1.167c.002.367.036.497.076.29s.038-.508-.003-.667c-.042-.159-.075.01-.073.377m-80.17.083c0 .321.034.452.076.292s.042-.423 0-.583c-.042-.161-.076-.029-.076.291m185.201.542-.49.542.542-.49c.505-.456.618-.594.49-.594-.029 0-.273.244-.542.542m14.76-.49c0 .029.244.273.542.542l.542.49-.49-.542c-.456-.505-.594-.618-.594-.49m65.292.066c.206.04.544.04.75 0s.037-.072-.375-.072c-.413 0-.581.032-.375.072m-148.5 1.172c.481.034 1.269.034 1.75 0s.088-.061-.875-.061-1.356.027-.875.061m16.447.43c-.046.121-.062 1.002-.035 1.958l.049 1.739.082-1.959c.081-1.936.068-2.167-.096-1.738m14.845 1.754v1.943l-7.417.086-7.417.086 7.342.039c5.532.029 7.391-.01 7.542-.161.222-.222.29-3.724.075-3.858-.069-.042-.125.797-.125 1.865m34.377-1.856c.207.04.507.039.666-.003s-.01-.074-.377-.073c-.366.002-.497.036-.289.076m20.417.002c.253.038.628.037.833-.002.205-.04-.002-.071-.461-.07-.458.001-.626.034-.372.072m-76.971.922-.49.542.542-.49c.505-.456.618-.594.489-.594-.029 0-.272.244-.541.542m124.918.083-.575.625.625-.574c.582-.535.702-.676.575-.676-.028 0-.309.282-.625.625m17.887.375c0 .413.033.582.073.375a2.4 2.4 0 0 0 0-.75c-.04-.206-.073-.037-.073.375m-6.006 0c0 .321.034.452.076.292s.042-.423 0-.583c-.042-.161-.076-.029-.076.291m-138.122.604c-.3.255-.361.357-.153.254.305-.152.878-.701.715-.685-.034.003-.287.197-.562.431M94.75 105.5c.183.079.446.143.583.143.158 0 .127-.053-.083-.143a1.8 1.8 0 0 0-.583-.143c-.158 0-.127.053.083.143m18.167.333c-.462.118-.468.129-.084.145.23.009.529-.056.667-.145.284-.183.137-.183-.583 0m184.416.314c0 .153-.597.191-2.401.153-1.32-.027-2.366.006-2.323.075.125.201 4.689.151 4.815-.053.06-.098.064-.223.009-.278s-.1-.008-.1.103m-188.166.186c-.57.12-.572.123-.084.133.275.006.65-.054.834-.133.4-.172.068-.172-.75 0m192.311.045c.071.071 1.773.108 3.784.083l3.655-.045-3.784-.083c-2.081-.046-3.726-.025-3.655.045m-200.936.07c.16.042.423.042.583 0s.029-.076-.292-.076c-.32 0-.452.034-.291.076m3.921.174c.392.035.992.035 1.333-.001s.021-.064-.713-.064c-.733.001-1.012.03-.62.065m121.412.167c.435.035 1.148.035 1.583 0 .436-.034.079-.062-.791-.062-.871 0-1.227.028-.792.062m21-.001c.344.036.906.036 1.25 0s.063-.065-.625-.065-.969.029-.625.065m20.333.001c.436.035 1.148.035 1.584 0 .435-.034.079-.062-.792-.062s-1.227.028-.792.062M85.74 113.35c-.067.108-.329.142-.635.084-.374-.072-.451-.054-.272.064.363.237.763.205 1-.081.114-.138.166-.25.114-.25s-.145.082-.207.183m38.588.21c.08.081.351.07.616-.023.467-.166.465-.168-.143-.144-.343.013-.552.087-.473.167m1.547 11.398c40.769.023 107.481.023 148.25 0s7.413-.042-74.125-.042-114.894.019-74.125.042"/><path fill="#bbbbdc" d="M103.882 55.957c.622.032 1.597.032 2.167 0 .569-.033.059-.059-1.132-.059-1.192 0-1.658.027-1.035.059m124.832 8.333c.531.033 1.356.033 1.834-.001.478-.033.044-.06-.965-.06s-1.399.028-.869.061m8.897-.012a.46.46 0 0 0-.108.291q.002.178.125-.012c.068-.107.348-.227.623-.267l.499-.073-.514-.025c-.283-.014-.564.025-.625.086m32.097.004c.161.041.423.041.584 0 .16-.042.029-.077-.292-.077s-.452.035-.292.077m9.236-.004a.46.46 0 0 0-.108.291c.001.113.051.105.13-.02.078-.123.677-.223 1.539-.258l1.412-.056-1.431-.034c-.787-.019-1.48.016-1.542.077m-.069 1.055c.047.173.336.266.93.301l.862.05v6.465l-.862.051c-.594.034-.883.128-.93.3-.046.174-.024.19.074.052.077-.108.514-.221.971-.25l.83-.052v-6.667l-.83-.052c-.457-.029-.894-.141-.971-.25-.098-.137-.12-.121-.074.052m-49.917.288 1.042.061v6.469l-1.084.062-1.084.062 1.126-.013 1.125-.012v-6.667L229 65.572l-1.083-.011zm56.25-.006c.161.042.423.042.584 0s.029-.076-.292-.076-.452.034-.292.076m-40.472 4.718c0 1.696.025 2.39.055 1.542s.03-2.235 0-3.083-.055-.155-.055 1.541m-5.865.209-.038 2.958h-.569c-.313 0-.608-.077-.654-.171s-.066-.075-.043.042c.059.299 1.245.379 1.355.091.048-.123.064-1.496.036-3.051l-.05-2.828zm27.681-1.625c.001.55.032.755.069.455s.036-.75-.002-1-.068-.005-.067.545m-43.843 0c.002.366.036.497.076.289a1.8 1.8 0 0 0-.004-.666c-.042-.16-.074.01-.072.377m9.333 3.371c.343.036.906.036 1.25 0s.062-.065-.625-.065-.969.029-.625.065m50.754.001c.392.035.992.035 1.333-.001.342-.036.021-.065-.712-.064-.734 0-1.013.03-.621.065m-3.92 1.044c.057.21.545.251 3.054.257l2.987.006-2.91-.052c-2.055-.037-2.952-.112-3.054-.256-.105-.148-.126-.136-.077.045m-35.396.214c.08.08.361.119.625.086.44-.055.429-.067-.147-.146-.358-.05-.562-.024-.478.06m-14.188.077c.848.03 2.235.03 3.083 0s.154-.055-1.542-.055-2.389.025-1.541.055m46.168-.006c.208.04.508.038.667-.003.159-.042-.01-.075-.377-.073s-.497.036-.29.076m57.279 11.465c0 2.292.023 3.253.052 2.135a100 100 0 0 0 0-4.167c-.028-1.174-.052-.259-.052 2.032m-31.367 8.615c-.021 6.847.018 12.484.086 12.526.114.07.112-8.744-.003-20.474-.024-2.475-.061 1.102-.083 7.948M84.555 85.917c0 .641.031.883.067.538a6.2 6.2 0 0 0-.002-1.167c-.037-.296-.066-.013-.065.629m162.656-.797c.253.038.628.037.833-.003.205-.039-.002-.071-.461-.069-.458.001-.626.033-.372.072m20.331-.001a3.6 3.6 0 0 0 .916 0c.252-.038.046-.069-.458-.069s-.71.031-.458.069M125.383 86c0 .504.032.71.07.458a3.7 3.7 0 0 0 0-.916c-.038-.252-.07-.046-.07.458m82.365 7.917.002 8.5 2.609.083c1.436.046 2.575.027 2.532-.042-.042-.068-1.197-.125-2.566-.125h-2.489l-.045-8.458-.046-8.458zm89.639-5.084c0 .596.03.84.067.542a5.3 5.3 0 0 0 0-1.083c-.037-.298-.067-.055-.067.541M220 91.552c0 .029.244.273.542.542l.541.489-.489-.541c-.456-.505-.594-.619-.594-.49m-74.952 1.198c.001.458.033.626.072.373a3 3 0 0 0-.003-.834c-.039-.205-.071.003-.069.461m132.514 1.083c0 .963.027 1.357.061.875.034-.481.034-1.268 0-1.75-.034-.481-.061-.087-.061.875m-19.005-.083c.001.733.03 1.013.065.621a8.4 8.4 0 0 0-.001-1.334c-.036-.341-.064-.02-.064.713m60.664 0c.001.642.031.884.067.538a6.2 6.2 0 0 0-.001-1.167c-.037-.296-.066-.013-.066.629m-227.929.201c.206.04.543.04.75 0s.037-.072-.375-.072c-.413 0-.582.032-.375.072m26.666 0c.207.04.544.04.75 0 .207-.04.038-.072-.375-.072-.412 0-.581.032-.375.072m167.838 2.671c.392.035.992.035 1.333-.001.342-.036.021-.064-.712-.064-.734.001-1.013.03-.621.065m-140.748 2.795c.001.458.033.626.072.372a3 3 0 0 0-.003-.833c-.039-.205-.071.002-.069.461m42.276 1.041-.574.625.625-.574c.582-.535.702-.676.574-.676-.027 0-.309.282-.625.625m12.134 1.999c.665.032 1.752.032 2.417 0s.121-.057-1.208-.057-1.873.025-1.209.057m68.25.158c.161.042.423.042.584 0s.029-.076-.292-.076-.452.034-.292.076m-166.081 3.836c.207.04.507.039.667-.003.159-.042-.011-.074-.377-.073-.367.002-.497.036-.29.076m6.248-.003c.16.042.423.042.583 0 .161-.042.029-.076-.291-.076-.321 0-.452.034-.292.076"/></g></svg>