<svg xmlns="http://www.w3.org/2000/svg" width="14" height="14" fill="none"><g stroke="#fff" stroke-linecap="round" stroke-linejoin="round" clip-path="url(#a)"><path d="M.438 7a6.563 6.563 0 1 0 13.125 0A6.563 6.563 0 0 0 .438 7M7 7H4.083M7 7l1.712 2.965M.438 7h1.426M1.313 3.725l1.237.712M3.707 1.324l.716 1.233M13.563 7h-1.427M12.687 3.725l-1.237.712M10.294 1.324l-.717 1.233M10.275 12.687l-.712-1.237M12.676 10.293l-1.233-.716M7.007.438l-.002 1.426"/></g><defs><clipPath id="a"><path fill="#fff" d="M0 0h14v14H0z"/></clipPath></defs></svg>