<svg width="14" height="14" viewBox="0 0 14 14" fill="none" xmlns="http://www.w3.org/2000/svg">
<g id="clockIcon" clip-path="url(#clip0_1505_28)">
<path id="Vector" d="M0.4375 7C0.4375 8.74048 1.1289 10.4097 2.35961 11.6404C3.59032 12.8711 5.25952 13.5625 7 13.5625C8.74048 13.5625 10.4097 12.8711 11.6404 11.6404C12.8711 10.4097 13.5625 8.74048 13.5625 7C13.5625 5.25952 12.8711 3.59032 11.6404 2.35961C10.4097 1.1289 8.74048 0.4375 7 0.4375C5.25952 0.4375 3.59032 1.1289 2.35961 2.35961C1.1289 3.59032 0.4375 5.25952 0.4375 7Z" stroke="white" stroke-linecap="round" stroke-linejoin="round"/>
<path id="Vector_2" d="M7.00004 7H4.08337" stroke="white" stroke-linecap="round" stroke-linejoin="round"/>
<path id="Vector_3" d="M7 7L8.71208 9.96508" stroke="white" stroke-linecap="round" stroke-linejoin="round"/>
<path id="Vector_4" d="M0.4375 7H1.86433" stroke="white" stroke-linecap="round" stroke-linejoin="round"/>
<path id="Vector_5" d="M1.31311 3.72461L2.54978 4.43686" stroke="white" stroke-linecap="round" stroke-linejoin="round"/>
<path id="Vector_6" d="M3.70654 1.32361L4.42288 2.55736" stroke="white" stroke-linecap="round" stroke-linejoin="round"/>
<path id="Vector_7" d="M13.5625 7H12.1356" stroke="white" stroke-linecap="round" stroke-linejoin="round"/>
<path id="Vector_8" d="M12.6869 3.72461L11.4502 4.43686" stroke="white" stroke-linecap="round" stroke-linejoin="round"/>
<path id="Vector_9" d="M10.2935 1.32361L9.57715 2.55736" stroke="white" stroke-linecap="round" stroke-linejoin="round"/>
<path id="Vector_10" d="M10.2754 12.6869L9.56311 11.4502" stroke="white" stroke-linecap="round" stroke-linejoin="round"/>
<path id="Vector_11" d="M12.6764 10.2929L11.4426 9.57715" stroke="white" stroke-linecap="round" stroke-linejoin="round"/>
<path id="Vector_12" d="M7.00699 0.4375L7.00464 1.86433" stroke="white" stroke-linecap="round" stroke-linejoin="round"/>
</g>
<defs>
<clipPath id="clip0_1505_28">
<rect width="14" height="14" fill="white"/>
</clipPath>
</defs>
</svg>
