<svg width="36" height="19" viewBox="0 0 36 19" fill="none" xmlns="http://www.w3.org/2000/svg">
<path d="M12 16.7752C12 16.437 12.158 16.1127 12.4393 15.8736C12.7206 15.6345 13.1022 15.5002 13.5 15.5002H22.5C22.8978 15.5002 23.2794 15.6345 23.5607 15.8736C23.842 16.1127 24 16.437 24 16.7752C24 17.1133 23.842 17.4376 23.5607 17.6768C23.2794 17.9159 22.8978 18.0502 22.5 18.0502H13.5C13.1022 18.0502 12.7206 17.9159 12.4393 17.6768C12.158 17.4376 12 17.1133 12 16.7752ZM6 9.1252C6 8.78704 6.15804 8.46274 6.43934 8.22363C6.72064 7.98453 7.10218 7.85019 7.5 7.85019H28.5C28.8978 7.85019 29.2794 7.98453 29.5607 8.22363C29.842 8.46274 30 8.78704 30 9.1252C30 9.46335 29.842 9.78765 29.5607 10.0268C29.2794 10.2659 28.8978 10.4002 28.5 10.4002H7.5C7.10218 10.4002 6.72064 10.2659 6.43934 10.0268C6.15804 9.78765 6 9.46335 6 9.1252ZM0 1.4752C0 1.13704 0.158036 0.812743 0.43934 0.573634C0.720645 0.334526 1.10218 0.200195 1.5 0.200195H34.5C34.8978 0.200195 35.2794 0.334526 35.5607 0.573634C35.842 0.812743 36 1.13704 36 1.4752C36 1.81335 35.842 2.13765 35.5607 2.37676C35.2794 2.61586 34.8978 2.7502 34.5 2.7502H1.5C1.10218 2.7502 0.720645 2.61586 0.43934 2.37676C0.158036 2.13765 0 1.81335 0 1.4752Z" fill="#B6B6CC"/>
</svg>
