<svg width="36" height="21" viewBox="0 0 36 21" fill="none" xmlns="http://www.w3.org/2000/svg">
<path d="M12 19.5C12 19.1022 12.158 18.7206 12.4393 18.4393C12.7206 18.158 13.1022 18 13.5 18H22.5C22.8978 18 23.2794 18.158 23.5607 18.4393C23.842 18.7206 24 19.1022 24 19.5C24 19.8978 23.842 20.2794 23.5607 20.5607C23.2794 20.842 22.8978 21 22.5 21H13.5C13.1022 21 12.7206 20.842 12.4393 20.5607C12.158 20.2794 12 19.8978 12 19.5ZM6 10.5C6 10.1022 6.15804 9.72064 6.43934 9.43934C6.72064 9.15804 7.10218 9 7.5 9H28.5C28.8978 9 29.2794 9.15804 29.5607 9.43934C29.842 9.72064 30 10.1022 30 10.5C30 10.8978 29.842 11.2794 29.5607 11.5607C29.2794 11.842 28.8978 12 28.5 12H7.5C7.10218 12 6.72064 11.842 6.43934 11.5607C6.15804 11.2794 6 10.8978 6 10.5ZM0 1.5C0 1.10218 0.158036 0.720645 0.43934 0.43934C0.720645 0.158036 1.10218 0 1.5 0H34.5C34.8978 0 35.2794 0.158036 35.5607 0.43934C35.842 0.720645 36 1.10218 36 1.5C36 1.89782 35.842 2.27936 35.5607 2.56066C35.2794 2.84196 34.8978 3 34.5 3H1.5C1.10218 3 0.720645 2.84196 0.43934 2.56066C0.158036 2.27936 0 1.89782 0 1.5Z" fill="black"/>
</svg>
