<svg xmlns="http://www.w3.org/2000/svg" width="126" height="37" fill="none"><rect width="125" height="36" x=".5" y=".5" fill="#fff" rx="4.5"/><rect width="125" height="36" x=".5" y=".5" stroke="#000" rx="4.5"/><path fill="#000" d="M63.594 20.12c-2.196 0-3.985 1.655-3.985 3.934 0 2.265 1.79 3.934 3.985 3.934 2.196 0 3.985-1.669 3.985-3.934-.001-2.28-1.79-3.934-3.985-3.934m0 6.32c-1.203 0-2.24-.984-2.24-2.385 0-1.416 1.037-2.385 2.24-2.385s2.24.968 2.24 2.385c0 1.4-1.037 2.384-2.24 2.384M54.9 20.12c-2.196 0-3.985 1.655-3.985 3.934 0 2.265 1.79 3.934 3.985 3.934 2.196 0 3.985-1.669 3.985-3.934 0-2.28-1.79-3.934-3.986-3.934m0 6.32c-1.204 0-2.24-.984-2.24-2.385 0-1.416 1.037-2.385 2.24-2.385s2.24.968 2.24 2.385c0 1.4-1.037 2.384-2.24 2.384m-10.34-5.112v1.669h4.03c-.12.938-.436 1.624-.917 2.1-.586.581-1.504 1.222-3.113 1.222-2.48 0-4.42-1.982-4.42-4.44 0-2.46 1.94-4.442 4.42-4.442 1.338 0 2.316.522 3.037 1.193l1.188-1.178c-1.008-.954-2.345-1.683-4.225-1.683-3.398 0-6.255 2.741-6.255 6.11 0 3.367 2.857 6.109 6.255 6.109 1.834 0 3.218-.597 4.3-1.714 1.112-1.103 1.459-2.653 1.459-3.905 0-.386-.03-.744-.09-1.042H44.56m42.288 1.296c-.33-.879-1.339-2.504-3.399-2.504-2.045 0-3.744 1.595-3.744 3.934 0 2.205 1.684 3.934 3.94 3.934 1.818 0 2.871-1.103 3.308-1.744l-1.353-.894c-.451.656-1.068 1.087-1.956 1.087-.886 0-1.518-.402-1.924-1.192l5.308-2.175zm-5.414 1.311c-.045-1.52 1.188-2.294 2.076-2.294.692 0 1.278.343 1.474.834zM77.12 27.75h1.744V16.187H77.12zM74.262 21h-.06c-.39-.463-1.143-.88-2.089-.88-1.985 0-3.804 1.729-3.804 3.95 0 2.205 1.819 3.919 3.804 3.919.947 0 1.699-.417 2.09-.894h.06v.566c0 1.505-.812 2.31-2.12 2.31-1.068 0-1.73-.76-2-1.4l-1.519.626c.436 1.042 1.593 2.324 3.519 2.324 2.045 0 3.774-1.192 3.774-4.098v-7.064h-1.654V21m-1.999 5.44c-1.203 0-2.21-1-2.21-2.37 0-1.387 1.007-2.4 2.21-2.4 1.188 0 2.12 1.013 2.12 2.4 0 1.37-.932 2.37-2.12 2.37M95.02 16.186h-4.173V27.75h1.74v-4.38h2.432c1.93 0 3.829-1.385 3.829-3.592s-1.898-3.591-3.828-3.591m.045 5.573h-2.477v-3.964h2.477a2.01 2.01 0 0 1 2.04 1.982c0 .896-.738 1.982-2.04 1.982m10.763-1.66c-1.261 0-2.567.55-3.107 1.77l1.545.639c.331-.64.947-.848 1.592-.848.9 0 1.816.535 1.831 1.487v.12c-.315-.179-.991-.446-1.816-.446-1.666 0-3.363.907-3.363 2.603 0 1.547 1.366 2.543 2.897 2.543 1.17 0 1.816-.52 2.221-1.13h.06v.892h1.682v-4.434c.001-2.051-1.547-3.197-3.542-3.197m-.211 6.337c-.569 0-1.365-.284-1.365-.983 0-.892.991-1.235 1.847-1.235.764 0 1.125.164 1.59.387a2.105 2.105 0 0 1-2.072 1.83m9.877-6.085-1.996 5.013h-.06l-2.072-5.013h-1.876l3.107 7.007-1.771 3.898h1.816l4.789-10.905zM99.808 27.75h1.741V16.187h-1.741zM44.257 9.475q0 1.162-.695 1.853-.791.82-2.058.82-1.213 0-2.06-.832-.849-.834-.849-2.065 0-1.232.849-2.066.847-.834 2.06-.833.603 0 1.15.232.546.233.875.62l-.492.488q-.555-.659-1.533-.658-.885 0-1.53.616t-.645 1.6.645 1.6q.645.615 1.53.616.938 0 1.564-.62.405-.403.47-1.123h-2.034v-.667h2.713q.041.218.04.419M48.56 7.157h-2.55v1.76h2.3v.666h-2.3v1.76h2.55v.682h-3.27v-5.55h3.27zM51.594 12.025h-.72V7.157H49.31v-.682h3.848v.682h-1.564zM55.942 12.025v-5.55h.72v5.55zM59.853 12.025h-.72V7.157H57.57v-.682h3.848v.682h-1.564zM68.702 11.308q-.826.84-2.054.84t-2.052-.84q-.825-.84-.825-2.058t.825-2.058q.825-.841 2.052-.842 1.22 0 2.05.846.83.844.829 2.054 0 1.217-.825 2.058m-3.575-.465q.621.624 1.521.623.9 0 1.522-.623.621-.624.622-1.593 0-.969-.622-1.593a2.06 2.06 0 0 0-1.522-.623q-.9 0-1.521.623-.62.624-.622 1.593.001.969.622 1.593M70.537 12.025v-5.55h.875l2.722 4.317h.03l-.03-1.07V6.476h.72v5.55h-.752l-2.848-4.527h-.03l.03 1.07v3.457z"/><path stroke="#000" stroke-miterlimit="10" stroke-width=".2" d="M44.257 9.475q0 1.162-.695 1.853-.791.82-2.058.82-1.213 0-2.06-.832-.849-.834-.849-2.065 0-1.232.849-2.066.847-.834 2.06-.833.603 0 1.15.232.546.233.875.62l-.492.488q-.555-.659-1.533-.658-.885 0-1.53.616t-.645 1.6.645 1.6q.645.615 1.53.616.938 0 1.564-.62.405-.403.47-1.123h-2.034v-.667h2.713q.041.218.04.419ZM48.56 7.157h-2.55v1.76h2.3v.666h-2.3v1.76h2.55v.682h-3.27v-5.55h3.27zM51.594 12.025h-.72V7.157H49.31v-.682h3.848v.682h-1.564zM55.942 12.025v-5.55h.72v5.55zM59.853 12.025h-.72V7.157H57.57v-.682h3.848v.682h-1.564zM68.702 11.308q-.826.84-2.054.84t-2.052-.84q-.825-.84-.825-2.058t.825-2.058q.825-.841 2.052-.842 1.22 0 2.05.846.83.844.829 2.054 0 1.217-.825 2.058Zm-3.575-.465q.621.624 1.521.623.9 0 1.522-.623.621-.624.622-1.593 0-.969-.622-1.593a2.06 2.06 0 0 0-1.522-.623q-.9 0-1.521.623-.62.624-.622 1.593.001.969.622 1.593ZM70.537 12.025v-5.55h.875l2.722 4.317h.03l-.03-1.07V6.476h.72v5.55h-.752l-2.848-4.527h-.03l.03 1.07v3.457z"/><path fill="#000" fill-rule="evenodd" d="M24.1 13.147 13.377 6.984a2.7 2.7 0 0 0-1.387-.38c-1.034 0-1.944.613-2.392 1.474l.086.085 9.722 9.633zM9.305 9.195v18.61l9.39-9.305zM9.6 28.922c.448.861 1.358 1.474 2.392 1.474.496 0 .962-.133 1.361-.367l.032-.018 10.734-6.14-4.71-4.667-9.723 9.633zm15.42-5.566 4.352-2.49a2.66 2.66 0 0 0 1.413-2.344 2.65 2.65 0 0 0-1.397-2.335l-.01-.007L25 13.664 20.118 18.5z" clip-rule="evenodd"/></svg>