<svg width="14" height="12" viewBox="0 0 14 12" fill="none" xmlns="http://www.w3.org/2000/svg">
<path d="M12.3037 1.05412C11.9829 0.749496 11.602 0.50789 11.1828 0.343105C10.7635 0.178321 10.3142 0.0935885 9.86049 0.0937502C9.40676 0.093912 8.95751 0.178965 8.53842 0.344048C8.11933 0.509132 7.7386 0.751009 7.41801 1.05586L6.99952 1.45804L6.58452 1.05673L6.58182 1.05417C6.26114 0.74969 5.88044 0.508165 5.46144 0.343383C5.04245 0.178601 4.59338 0.093789 4.13987 0.093789C3.68635 0.093789 3.23728 0.178601 2.81829 0.343383C2.3993 0.508165 2.01859 0.74969 1.69791 1.05417L1.51148 1.23118C0.863841 1.84609 0.5 2.68009 0.5 3.54971C0.5 4.41933 0.863841 5.25333 1.51148 5.86825L6.43189 10.5399L6.98755 11.0927L7.00079 11.0801L7.01517 11.0938L7.53578 10.5722L12.4902 5.86817C13.1368 5.25277 13.5 4.41895 13.5 3.54963C13.5 2.68032 13.1368 1.8465 12.4902 1.2311L12.3037 1.05412ZM11.8795 5.28855L7.00079 9.92085L2.12193 5.28855C1.6362 4.82736 1.36332 4.20186 1.36332 3.54965C1.36332 2.89744 1.6362 2.27194 2.12193 1.81075L2.30839 1.63374C2.79388 1.17278 3.45228 0.913714 4.13887 0.913469C4.82546 0.913224 5.48406 1.17182 5.96992 1.63243L6.99766 2.62602L8.03029 1.63374C8.2708 1.40538 8.55633 1.22424 8.87058 1.10065C9.18482 0.977066 9.52162 0.913456 9.86176 0.913456C10.2019 0.913456 10.5387 0.977066 10.8529 1.10065C11.1672 1.22424 11.4527 1.40538 11.6932 1.63374L11.8797 1.81072C12.3647 2.27229 12.637 2.89767 12.637 3.54966C12.637 4.20165 12.3646 4.82701 11.8795 5.28855Z" fill="#D9D9D9"/>
</svg>
