<svg xmlns="http://www.w3.org/2000/svg" width="21" height="21" fill="none"><g fill="#fff" clip-path="url(#a)"><path d="M10.292 2.3c2.672 0 2.989.013 4.04.06.976.042 1.503.206 1.855.343.465.18.8.399 1.148.746.352.352.567.684.746 1.149.137.351.301.882.344 1.855.047 1.055.059 1.371.059 4.04 0 2.671-.012 2.987-.059 4.038-.043.977-.207 1.504-.344 1.856-.18.465-.398.8-.746 1.148a3.1 3.1 0 0 1-1.148.746c-.352.137-.883.301-1.856.344-1.054.047-1.37.059-4.039.059-2.672 0-2.988-.012-4.039-.059-.976-.043-1.504-.207-1.855-.344-.465-.18-.801-.398-1.149-.746a3.1 3.1 0 0 1-.746-1.148c-.137-.352-.3-.883-.344-1.856-.046-1.054-.058-1.37-.058-4.039 0-2.672.012-2.988.058-4.039.043-.976.207-1.504.344-1.855.18-.465.399-.801.746-1.149a3.1 3.1 0 0 1 1.149-.746c.351-.137.883-.3 1.855-.344 1.051-.046 1.367-.058 4.04-.058m0-1.8c-2.715 0-3.054.012-4.12.059-1.063.046-1.794.218-2.427.464A4.9 4.9 0 0 0 1.972 2.18 4.9 4.9 0 0 0 .816 3.95C.57 4.585.398 5.311.35 6.374.304 7.445.292 7.785.292 10.5s.012 3.055.059 4.121c.047 1.063.219 1.793.465 2.426.258.66.597 1.219 1.156 1.773a4.9 4.9 0 0 0 1.77 1.153c.636.246 1.363.418 2.425.465 1.067.046 1.407.058 4.121.058s3.055-.012 4.121-.058c1.063-.047 1.793-.22 2.426-.465a4.9 4.9 0 0 0 1.77-1.153 4.9 4.9 0 0 0 1.152-1.77c.246-.636.418-1.363.465-2.425.047-1.066.059-1.406.059-4.121s-.012-3.055-.059-4.121c-.047-1.063-.219-1.793-.465-2.426a4.7 4.7 0 0 0-1.144-1.777 4.9 4.9 0 0 0-1.77-1.153C16.206.781 15.48.61 14.417.563 13.347.511 13.007.5 10.292.5"/><path d="M10.292 5.363A5.14 5.14 0 0 0 5.156 10.5c0 2.836 2.3 5.137 5.136 5.137s5.137-2.301 5.137-5.137-2.3-5.137-5.137-5.137m0 8.469a3.333 3.333 0 1 1 .001-6.665 3.333 3.333 0 0 1 0 6.665M16.831 5.16a1.2 1.2 0 1 1-2.399 0 1.2 1.2 0 0 1 2.4 0"/></g><defs><clipPath id="a"><path fill="#fff" d="M.292.5h20v20h-20z"/></clipPath></defs></svg>