<svg xmlns="http://www.w3.org/2000/svg" width="21" height="21" fill="none"><path fill="#FDFDFD" d="M11.338 8.95c.277-.309.504-.626.792-.895.873-.825 1.91-1.24 3.12-1.232.664.008 1.321.052 1.96.239 1.463.422 2.317 1.433 2.72 2.863.306 1.075.362 2.176.362 3.281.004 2.333-.007 4.663 0 6.996 0 .216-.06.276-.276.272a193 193 0 0 0-3.601 0c-.213 0-.258-.063-.258-.265.007-2.217.007-4.438 0-6.655 0-.557-.037-1.113-.194-1.654-.287-.997-1-1.505-2.042-1.449-1.425.075-2.164.78-2.347 2.229-.045.347-.064.69-.064 1.041q-.002 3.237.008 6.473c0 .217-.053.28-.273.277q-1.814-.018-3.628 0c-.194 0-.25-.053-.25-.247q.006-6.407 0-12.815c0-.213.067-.261.269-.257 1.15.007 2.3.01 3.445 0 .213 0 .265.067.261.265-.011.511-.004 1.022-.004 1.53zM4.761 13.833q-.001 3.17.004 6.339c0 .235-.056.306-.302.302-1.202-.015-2.4-.011-3.602 0-.194 0-.25-.048-.25-.246.007-4.278.003-8.556 0-12.837 0-.176.04-.24.231-.24 1.217.008 2.437.012 3.654 0 .235 0 .265.09.265.288-.007 2.132 0 4.263 0 6.39zM5.09 2.915a2.407 2.407 0 0 1-2.4 2.408 2.415 2.415 0 0 1-2.397-2.39A2.413 2.413 0 0 1 2.697.527 2.403 2.403 0 0 1 5.089 2.91z"/></svg>