<svg xmlns="http://www.w3.org/2000/svg" width="22" height="22" fill="none" viewBox="0 0 29 29"><g filter="url(#a)"><path stroke="#fff" stroke-width=".3" d="M28.438 14.595C28.438 5.115 20.145 1 14.72 1 9.107 1 1 5.24 1 14.595 1 23.949 8.857 28.5 14.906 28.5c4.116 0 13.532-3.33 13.532-13.906Z"/><path stroke="#fff" stroke-width=".3" d="M7.984 2.809C6.114 3.993 12.037 5.24 14.72 5.24c4.178 0 7.982-1.31 6.735-2.432M21.392 26.692c1.87-1.184-3.374-2.494-6.673-2.494-4.178 0-8.044 1.31-6.735 2.432"/><path stroke="#fff" stroke-width=".3" d="M26.542 8.11c0 .387-.28.79-.874 1.185-.587.39-1.447.748-2.523 1.05-2.15.606-5.13.982-8.426.982s-6.275-.376-8.425-.981c-1.077-.303-1.937-.66-2.524-1.051-.593-.394-.874-.798-.874-1.186s.28-.791.874-1.186c.587-.39 1.447-.748 2.524-1.05 2.15-.605 5.129-.981 8.425-.981s6.276.376 8.426.98c1.076.303 1.936.66 2.523 1.051.594.395.874.798.874 1.186ZM26.542 21.454c0 .388-.28.792-.874 1.186-.587.39-1.447.748-2.523 1.051-2.15.605-5.13.98-8.426.98s-6.275-.375-8.425-.98c-1.077-.303-1.937-.66-2.524-1.05-.593-.395-.874-.8-.874-1.187s.28-.791.874-1.186c.587-.39 1.447-.748 2.524-1.05 2.15-.605 5.129-.981 8.425-.981s6.276.376 8.426.98c1.076.303 1.936.66 2.523 1.051.594.395.874.799.874 1.186Z"/><path stroke="#fff" stroke-width=".3" d="M28.288 14.72c0 .456-.33.925-1.01 1.38-.677.45-1.665.861-2.898 1.209-2.467.695-5.882 1.127-9.66 1.127-3.78 0-7.195-.432-9.661-1.127-1.234-.348-2.222-.76-2.898-1.21-.681-.454-1.011-.923-1.011-1.38s.33-.926 1.011-1.38c.676-.45 1.664-.861 2.898-1.21 2.466-.694 5.882-1.126 9.66-1.126s7.194.432 9.66 1.127c1.234.348 2.222.759 2.898 1.21.682.453 1.011.923 1.011 1.38Z"/><path stroke="#fff" stroke-width=".3" d="M14.72 1c-.437-.062-1.946 26.39 0 27.439"/><path stroke="#fff" stroke-width=".3" d="M14.969 1c1.185.936.81 22.138-.312 27.5"/><path stroke="#fff" stroke-width=".3" d="M15.966 1.063c-6.049 0-13.656 19.58-5.113 26.814"/><path stroke="#fff" stroke-width=".3" d="M11.975 1.312C6.612 4.679 7.797 23.325 15.093 28.5"/><path stroke="#fff" stroke-width=".3" d="M16.091 1.063C7.423 1.936-2.367 12.662 4.804 24.26"/><path stroke="#fff" stroke-width=".3" d="M17.151 28.251c-8.107.25-13.532-4.801-14.966-7.857"/><path stroke="#fff" stroke-width=".3" d="M16.777 1.187c-5.113 0-9.79 2.183-10.476 2.806C1.062 9.606 1.624 24.76 15.84 28.44"/><path stroke="#fff" stroke-width=".3" d="M12.35 1.25C19.396-.56 24.51 23.2 17.338 28.19"/><path stroke="#fff" stroke-width=".3" d="M17.775 1.374c6.86 1.871 5.986 22.388-3.68 27.127"/><path stroke="#fff" stroke-width=".3" d="M10.978 1.561c11.536-2.806 25.505 20.143 3.118 26.94"/><path stroke="#fff" stroke-width=".3" d="M22.14 26.256c6.049-5.176 5.55-18.231 2.682-20.766-4-3.535-6.985-3.991-12.223-4.303"/><path fill="#fff" d="M18.96 27.753c.187 0-2.307.748-4.179.748-1.62 0-3.99-.624-3.866-.624.187 0 2.12.125 3.867.063 1.933 0 3.99-.187 4.178-.187M18.336 1.499c.312.125-1.62 0-3.617 0s-3.741.125-3.492 0C11.414 1.405 12.911 1 14.719 1c1.435 0 3.176.323 3.617.499"/></g><g filter="url(#b)"><path fill="#fff" d="M15.26 25.854 7 4h3.958l4.474 11.874 2.925-7.744h4.13z"/><path stroke="#fff" d="M15.26 25.854 7 4h3.958l4.474 11.874 2.925-7.744h4.13z"/></g><defs><filter id="a" width="27.738" height="31.801" x=".85" y=".85" color-interpolation-filters="sRGB" filterUnits="userSpaceOnUse"><feFlood flood-opacity="0" result="BackgroundImageFix"/><feBlend in="SourceGraphic" in2="BackgroundImageFix" result="shape"/><feColorMatrix in="SourceAlpha" result="hardAlpha" values="0 0 0 0 0 0 0 0 0 0 0 0 0 0 0 0 0 0 127 0"/><feOffset dy="4"/><feGaussianBlur stdDeviation="2"/><feComposite in2="hardAlpha" k2="-1" k3="1" operator="arithmetic"/><feColorMatrix values="0 0 0 0 0 0 0 0 0 0 0 0 0 0 0 0 0 0 0.08 0"/><feBlend in2="shape" result="effect1_innerShadow_1141_1207"/></filter><filter id="b" width="24.955" height="31.722" x="2.276" y="3.5" color-interpolation-filters="sRGB" filterUnits="userSpaceOnUse"><feFlood flood-opacity="0" result="BackgroundImageFix"/><feColorMatrix in="SourceAlpha" result="hardAlpha" values="0 0 0 0 0 0 0 0 0 0 0 0 0 0 0 0 0 0 127 0"/><feOffset dy="4"/><feGaussianBlur stdDeviation="2"/><feComposite in2="hardAlpha" operator="out"/><feColorMatrix values="0 0 0 0 0 0 0 0 0 0 0 0 0 0 0 0 0 0 0.25 0"/><feBlend in2="BackgroundImageFix" result="effect1_dropShadow_1141_1207"/><feBlend in="SourceGraphic" in2="effect1_dropShadow_1141_1207" result="shape"/></filter></defs></svg>