<svg xmlns="http://www.w3.org/2000/svg" width="400" height="160"><g fill-rule="evenodd"><path fill="#5454ac" d="M53.708 38.455c-.389.035-.708.125-.708.2s-.3.184-.667.242c-.366.059-.666.181-.666.272 0 .09-.15.164-.334.164-.183 0-.333.075-.333.167s-.09.167-.199.167c-.183 0-1.481 1.277-2.182 2.148a2.4 2.4 0 0 0-.395.858c-.054.268-.154.453-.223.411-.147-.091-.33.896-.332 1.791-.002.344-.077.625-.169.625-.111 0-.167 12.583-.167 37.417 0 20.601.064 37.416.143 37.416s.187.538.242 1.194c.055.657.169 1.238.252 1.292.084.054.21.285.281.514s.259.529.416.667.34.424.408.638c.067.213.161.348.208.301.116-.115.534.281.447.424-.037.062.083.161.268.22.184.058.335.176.335.262 0 .085.105.155.233.155.127 0 .275.112.328.25s.248.25.434.25.339.074.339.165c0 .09.3.212.666.271s.667.172.667.252c0 .083 64.693.145 149.833.145 85.141 0 149.834-.062 149.834-.145 0-.08.3-.193.666-.252s.667-.173.667-.253.188-.194.417-.251c.229-.058.416-.179.416-.269 0-.089.081-.163.18-.163.234 0 1.654-1.419 1.654-1.654 0-.098.073-.179.163-.179s.211-.188.268-.417.171-.417.251-.417c.081 0 .195-.3.254-.666s.172-.667.252-.667.145-.375.145-.833c0-.459.074-.834.165-.834.109 0 .166-12.802.168-37.416.001-24.942-.054-37.417-.166-37.417-.092 0-.167-.375-.167-.833 0-.459-.075-.834-.167-.834-.091 0-.166-.144-.166-.319 0-.913-2.222-3.847-2.913-3.847-.14 0-.254-.075-.254-.167s-.113-.167-.25-.167-.25-.071-.25-.159c0-.087-.281-.211-.625-.274s-.679-.198-.744-.299c-.112-.174-297.013-.319-298.923-.146M352.5 41.182c1.658.78 2.544 1.811 3.081 3.582.43 1.418.373 75.151-.059 76.461-.641 1.942-1.823 3.078-3.855 3.706-1.175.363-296.539.347-297.736-.016-1.828-.555-3.155-1.742-3.763-3.366-.331-.886-.335-1.253-.335-38.632V45.179l.359-.959c.601-1.605 2.181-2.972 3.891-3.367.405-.093 58.919-.143 149.084-.128l148.416.025zM76.204 51.411c-.972.305-1.8.97-2.247 1.807l-.374.699v55.84l.534 1.08c.978 1.977 2.272 3.007 4.516 3.597 1.298.342 54.305.335 55.734-.006 2.468-.59 4.239-2.337 4.905-4.837.313-1.176.336-38.772.024-39.822-.638-2.15-2.184-2.769-6.91-2.769H129l-.004-6.375c-.004-7.646-.06-7.876-2.165-8.982l-.748-.393-24.583-.032c-20.174-.026-24.711.009-25.296.193m49.885 2.861.406.438.044 27.603c.032 19.797.097 27.698.229 27.937.496.897.732 1.401.732 1.567 0 .132-6.769.182-24.208.179-27.017-.004-24.846.091-26.076-1.139-1.242-1.242-1.128 1.56-1.176-28.874l-.044-27.266.347-.442.348-.442h48.992zm-44.347 5.336-.409.441v5.57c0 5.51.05 6.075.567 6.42.101.067 8.771.123 19.267.123s19.166-.056 19.266-.123c.517-.345.567-.909.567-6.452v-5.602l-.409-.409-.409-.409H82.151zm36.574 2.288c.133.161.177 1.348.146 3.958l-.045 3.729-17.209.043L84 69.668v-3.889c0-2.14.05-3.94.111-4.001.243-.243 34.002-.127 34.205.118M172 68.181c-4.819 1.248-7.167 3.878-7.167 8.029 0 3.831 1.962 6.202 7.167 8.659 6.801 3.212 8.019 4.369 7.592 7.215-.526 3.506-5.985 4.18-9.166 1.132-.638-.611-1.029-1.128-2.036-2.694-.022-.033-.812.219-1.757.56s-1.96.7-2.258.797c-1.113.363-.121 2.57 2.195 4.882 7.228 7.216 20.265 1.836 18.187-7.505-.722-3.244-2.673-5.06-8.757-8.151-5.359-2.723-5.917-3.197-5.917-5.034 0-3.547 5.105-4.366 7.932-1.273.45.493.818.964.818 1.049 0 .26.342.188 2.619-.55 2.474-.801 2.369-.656 1.599-2.214-1.822-3.683-6.958-5.962-11.051-4.902m52.667.012c-5.632 1.538-8.791 5.898-9.823 13.557-.752 5.587 1.35 12.647 4.632 15.557 4.283 3.797 10.847 3.733 14.662-.143 2.248-2.284 3.195-5.478 3.195-10.777v-2.554H226.5v4.825l2.708.046 2.709.046-.031 1.083c-.094 3.352-1.85 5.238-4.886 5.245-3.559.009-5.501-2.341-6.654-8.049-.463-2.292-.122-6.352.751-8.946 1.971-5.858 7.25-6.948 10.294-2.125.245.39.524.709.619.709.129 0 4.095-2.166 4.469-2.44.298-.219-2.424-3.536-3.741-4.56-1.725-1.341-5.819-2.089-8.071-1.474m-33.334 2.553v2.247l3.125.045 3.125.045.043 10.959.043 10.958h-6.336v4.667H209.5V95H203V84.101c0-9.784.027-10.909.264-11 .145-.055 1.607-.101 3.25-.101h2.986v-4.5h-18.167zm51.079-2.042c-.045.117-.062 7.113-.038 15.546l.043 15.333h4.666l.043-10.458c.024-5.752.099-10.457.167-10.455s.39.546.715 1.208c.325.663 1.535 3.043 2.689 5.289 1.9 3.695 3.346 6.514 6.369 12.416l1.024 2 2.372.047 2.371.046V68.491l-2.375.046-2.375.046v10.375c0 5.707-.055 10.375-.123 10.375-.228 0-.885-1.23-4.538-8.5a6238 6238 0 0 0-4.908-9.75l-1.264-2.5-2.378-.046c-1.811-.035-2.398.005-2.46.167m41.203-.097c-.063.063-.115 4.828-.115 10.587 0 11.845.077 12.839 1.186 15.389 3.278 7.538 15.689 7.316 18.673-.333 1.063-2.725 1.153-3.995 1.102-15.667l-.044-10-2.542-.046-2.542-.046-.001 9.38c-.002 12.272-.142 13.731-1.49 15.564-2.017 2.744-7.12 2.093-8.465-1.078-.581-1.369-.606-1.838-.7-12.774l-.094-11-2.426-.046c-1.334-.025-2.478.006-2.542.07m26.26.003c-.298.121-.306 30.559-.008 30.857.137.137.952.2 2.583.2h2.383V93.93c0-3.155.046-5.855.101-6 .089-.23.603-.263 4.043-.263 7.484 0 10.984-2.279 11.863-7.723.963-5.973-2.192-10.445-7.955-11.272-1.185-.17-12.607-.224-13.01-.062m-173.426 1.459.468.402v19.306c0 18.509-.013 19.33-.311 19.89-1.661 3.123-5.727 3.158-7.192.061l-.414-.874V89.371c0-10.715.05-19.532.111-19.593.366-.366 6.874-.108 7.338.291m186.757 3.752c3.054 1.47 3.415 6.502.596 8.282-1.226.774-7.562 1.305-8.646.724-.329-.175-.52-8.451-.214-9.249.187-.487 7.176-.281 8.264.243M88.409 78.076c-.525.525-.535 1.248-.023 1.728l.385.363h31.411l.409-.409c.225-.225.409-.604.409-.841 0-.238-.184-.616-.409-.841l-.409-.409H88.818zm-6.747 6.764c-.383.537-.363.988.067 1.577.241.329.462.333 19.346.377l19.103.044.411-.412c.502-.502.524-1.07.066-1.654l-.346-.439H82.023zm.017 6.598c-.45.573-.436.938.057 1.511l.402.468h19.09c18.895 0 19.094-.004 19.347-.334.452-.588.495-1.077.137-1.556l-.331-.444-19.178-.042-19.178-.042zm.444 6.175c-.694.187-.934 1.216-.445 1.903l.345.484h7.879c8.87 0 8.498.055 8.498-1.261 0-1.198.318-1.153-8.281-1.18-4.236-.014-7.835.01-7.996.054m22.416.057c-.643.263-.726.845-.673 4.707l.051 3.643.416.319c.397.305.784.32 8.101.324l7.684.004.441-.409.441-.409v-3.739c0-3.433-.026-3.772-.319-4.133l-.318-.394-7.723-.033c-4.434-.02-7.884.032-8.101.12m13.882 2.705c.051.206.071 1.125.044 2.042l-.048 1.666-5.814.044c-6.849.052-6.27.24-6.27-2.031 0-2.293-.583-2.096 6.197-2.096h5.797zm-36.679 4.233c-.527.569-.518 1.071.031 1.619l.439.44h7.785c8.778 0 8.403.057 8.403-1.28 0-1.253.229-1.22-8.51-1.22h-7.739z"/><path fill="#f4f4f4" d="M54.25 41.039c-1.975.671-2.946 1.439-3.697 2.922l-.47.929v76.027l.364.765c.713 1.502 1.988 2.606 3.418 2.958 1.02.252 296.669.274 297.758.022 1.821-.42 3.293-1.929 3.769-3.863.411-1.67.423-73.972.013-75.741-.409-1.763-1.976-3.526-3.402-3.826a6 6 0 0 1-.803-.244c-.551-.223-296.292-.173-296.95.051m72.833 10.452c2.094 1.282 2.14 1.47 2.213 8.967l.062 6.375h3.474c4.923 0 6.189.65 6.818 3.5.27 1.222.172 37.983-.104 39.25-.52 2.388-2.57 4.416-5.129 5.076-.913.236-54.869.233-55.917-.002-1.55-.349-4.167-2.19-4.167-2.932 0-.124-.075-.225-.166-.225s-.167-.094-.168-.208c-.001-.115-.105-.408-.232-.652-.604-1.157-.622-2.115-.569-29.64l.052-26.917.393-.747c.61-1.162 1.597-1.97 2.663-2.18.336-.067 11.748-.11 25.361-.097l24.75.024zm-50.379 2.768-.371.26v27.31c0 30.171-.085 27.711 1 28.841 1.129 1.175-1.174 1.075 25.803 1.125l24.22.045-.256-.462c-.81-1.46-.767.19-.767-29.124V54.882l-.408-.441-.409-.441h-24.221c-21.652 0-24.26.028-24.591.259m43.515 4.761c.952.486.94.397.944 6.74.004 6.416.006 6.404-1.043 6.659-.203.05-8.87.07-19.259.044l-18.89-.046-.402-.468-.402-.468.003-5.782c.004-6.249-.007-6.166.913-6.672.477-.262 37.624-.27 38.136-.007m-36.052 6.73v3.75h34V62h-34zm92.132 2.173c1.26.251 1.525.337 2.701.883 1.824.846 4.5 3.665 4.5 4.74 0 .147.075.314.167.371.338.209.168.756-.292.938a12 12 0 0 0-.714.308c-.14.071-.513.185-.828.254s-.687.187-.828.262-.664.264-1.163.42l-.908.283-.258-.399c-2.105-3.255-6.709-3.901-8.121-1.14-1.091 2.133-.12 3.227 5.237 5.899 7.34 3.66 9.276 5.803 9.269 10.258-.005 2.759-.618 4.438-2.251 6.167-3.205 3.393-9.815 4.213-13.848 1.718-.342-.212-.699-.385-.792-.385s-.172-.056-.174-.125-.362-.381-.8-.695c-1.403-1.004-3.696-4.337-3.696-5.373 0-.344.006-.347 2.417-1.233 2.75-1.01 2.468-1.016 3.139.07 1.965 3.184 5.685 4.673 8.352 3.345 2.284-1.138 2.683-4.184.768-5.86-1.297-1.135-1.661-1.342-6.093-3.471-3.232-1.553-6.25-3.78-6.25-4.612 0-.117-.063-.213-.141-.213s-.274-.318-.437-.708-.38-.888-.483-1.109c-.239-.507-.248-3.998-.011-4.532 1.398-3.158 2.477-4.238 5.656-5.661 1.298-.581 4.039-.767 5.882-.4m52.808.01c2.753.558 4.943 2.089 6.64 4.638 1.09 1.639 1.108 1.768.295 2.19-.344.179-1.387.756-2.317 1.282-2.041 1.155-1.851 1.151-2.538.057-2.222-3.54-5.409-3.97-8.154-1.1-.588.615-1.866 3.096-1.866 3.623 0 .171-.069.382-.152.469-.257.267-.585 3.056-.588 4.991-.004 2.881.45 5.121 1.479 7.295 2.598 5.493 9.761 4.293 9.761-1.635v-.91h-5.342l.046-2.625.046-2.625 5.405-.044c4.214-.034 5.435.003 5.539.167.372.586.034 8.24-.384 8.702-.079.087-.144.319-.144.514 0 2.171-3.501 5.895-6.5 6.915-10.17 3.458-18.09-7.616-15.178-21.222 1.581-7.384 7.579-11.976 13.952-10.682m-19.44 2.9v2.5h-6.334v21.5h6.334v5h-18.5v-5h6.333v-21.5h-6.333v-5h18.5zm39.193.417a3866 3866 0 0 1 5.166 10.228l3.724 7.394.043-10.269.043-10.27H263v31.509l-2.532-.046-2.533-.046-.904-1.75a2596 2596 0 0 1-5.653-11l-2.938-5.75-1.023-2-.084 10.25-.083 10.25h-5.167l-.043-15.5c-.023-8.525-.006-15.596.038-15.713.062-.162.699-.201 2.71-.166l2.629.046zm40.024 7.875c.066 12.51.117 12.957 1.651 14.526 1.589 1.625 4.975 1.655 6.752.059 1.644-1.475 1.876-3.443 1.878-15.922l.002-9.463 2.708.046 2.708.046.051 10.833c.035 7.602-.006 11.107-.139 11.75-.326 1.585-.667 2.806-.918 3.286-.133.255-.242.518-.243.583-.004.512-1.833 2.787-2.803 3.487-2.766 1.995-7.522 2.595-10.614 1.339-3.62-1.471-5.172-3.451-6.427-8.195-.212-.802-.446-21.988-.251-22.764l.101-.403h5.486zm34.241-10.623c.848.089 1.673.228 1.833.31.161.081.778.363 1.372.626 6.155 2.729 6.645 12.709.825 16.814-1.91 1.347-3.731 1.714-8.611 1.734l-3.373.014-.044 5.875-.044 5.875h-5.5l-.043-15.5c-.023-8.525-.007-15.594.037-15.708.099-.26 11.154-.293 13.548-.04m-193.792 20.99c0 20.699-.033 19.831.799 20.958 1.573 2.127 5.214 1.554 6.277-.989.395-.947.392-38.803-.004-39.199-.221-.221-.794-.262-3.667-.262h-3.405zm185.873-11.367.044 4.458 2.833.049c5.606.096 7.415-.983 7.418-4.427.003-3.477-1.607-4.538-6.884-4.538h-3.456zm-194.384-.141c.453.636.445 1.471-.018 1.964l-.362.385h-15.945c-15.045 0-15.96-.016-16.212-.295-.643-.71-.637-1.568.017-2.232.262-.266 1.384-.287 16.228-.296l15.947-.01zm-.085 6.503c.586.551.596 1.529.021 2.104l-.41.409-19.132-.005c-20.256-.006-19.428.026-19.855-.776-.428-.803.033-1.943.851-2.103.204-.04 8.859-.064 19.233-.053l18.862.02zm.072 6.68c.501.602.464 1.454-.09 2.032l-.448.468h-38.13l-.487-.488c-.656-.655-.655-1.37.002-2.027l.489-.489 19.159.043 19.158.044zm-23.272 6.174c1.219.338 1.563 1.765.617 2.561l-.513.431H82.192l-.53-.53c-.893-.893-.531-2.18.695-2.47.857-.202 14.448-.196 15.18.008m22.488-.004c1.09.303 1.142.518 1.142 4.746 0 5.403.865 4.917-8.75 4.917-9.621 0-8.75.493-8.75-4.957 0-4.21.042-4.401 1.049-4.692.743-.215 14.539-.227 15.309-.014m-13.358 4.746v1.75h11.5v-3.5h-11.5zm-8.402 2.301c.687.799.489 1.89-.428 2.364-.737.381-14.943.376-15.747-.006-.919-.436-1.196-1.517-.587-2.292.468-.594.223-.578 8.72-.555l7.639.022z"/><path fill="#a4a4d4" d="M128.708 40.792c40.769.023 107.482.023 148.25 0s7.413-.042-74.125-.042-114.893.019-74.125.042m-77.384 1.666-.574.625.625-.574c.344-.316.625-.597.625-.625 0-.127-.141-.007-.676.574m302.343-.573c0 .029.243.273.541.542l.542.49-.49-.542c-.456-.505-.593-.618-.593-.49m2.082 41.032c0 20.716.019 29.167.043 18.778s.023-27.339 0-37.667c-.024-10.328-.043-1.828-.043 18.889M76 51.341c-.183.123-.115.139.25.057.613-.137.746-.232.319-.229a1.2 1.2 0 0 0-.569.172m-2.562 2.867c-.136.508-.1 54.774.037 55.26.06.212.108-12.219.108-27.625 0-15.405-.01-28.01-.022-28.01s-.067.169-.123.375m2.907.064c-.19.242-.345.523-.344.625 0 .103.144-.049.319-.337s.419-.563.541-.612c.141-.056.151-.093.026-.102-.108-.007-.352.185-.542.426M126.333 81.8l.084 27.283.042-27.157c.023-14.937-.014-27.215-.083-27.284-.07-.069-.089 12.152-.043 27.158m2.703-21.008c-.02 3.414.02 6.208.089 6.208.114 0 .111-4.766-.006-10.25-.025-1.192-.063.627-.083 4.042m-37.328-1.667c5.202.024 13.715.024 18.917 0s.946-.044-9.458-.044-14.661.02-9.459.044m-9.995.25c-.284.367-.414.721-.142.385.144-.178.356-.383.471-.456q.204-.13.02-.135c-.103-.001-.26.091-.349.206m10.912 2.417c4.698.024 12.385.024 17.083 0 4.698-.025.855-.045-8.541-.045s-13.24.02-8.542.045m25.708 3.992c-.046 2.126-.025 3.809.045 3.738s.108-1.811.083-3.867l-.045-3.738zm19.539 2.066c.251.187.651.579.889.87s.354.372.259.178c-.184-.372-1.281-1.402-1.484-1.393-.066.003.086.159.336.345m33.628.317c-.33.105-.347.133-.083.133.183 0 .521-.06.75-.133.33-.106.347-.134.083-.134-.183 0-.521.06-.75.134m4.833 0c.57.182 1.008.182.584 0a2 2 0 0 0-.667-.139c-.268.004-.252.031.083.139m48 0c-.335.107-.351.134-.083.138.183.003.483-.06.667-.138.424-.183-.014-.183-.584 0m-33.13 2.618-.036 2.368 3.234.049c1.779.026 3.199-.008 3.157-.077-.043-.069-1.459-.125-3.146-.125h-3.069l-.052-2.292-.051-2.291zm50.964 13.298c0 8.571.056 15.584.125 15.584.068 0 .125-7.013.125-15.584s-.057-15.583-.125-15.583c-.069 0-.125 7.012-.125 15.583m15.743-15.375c-.044.115-.06 4.634-.037 10.042l.044 9.833.083-10.041c.046-5.523.062-10.042.036-10.042-.025 0-.082.094-.126.208m25.5 0c-.044.115-.06 4.671-.037 10.125l.044 9.917.083-10.125c.046-5.569.062-10.125.036-10.125-.025 0-.082.094-.126.208m5.257 10.509.083 10.7.043-10.574c.024-5.816-.014-10.631-.083-10.7-.07-.07-.089 4.689-.043 10.574m10.578-.967c0 5.408.021 7.597.047 4.863s.025-7.159 0-9.833-.047-.438-.047 4.97m22.936-9.689c.038.033.481.103.986.155.591.062.769.046.5-.044-.413-.138-1.62-.228-1.486-.111m-112.645 2.231L209.5 73h-2.986c-1.643 0-3.105.046-3.25.101-.284.109-.422 21.899-.139 21.899.069 0 .125-4.894.125-10.875V73.25l3.132-.045c2.361-.035 3.151-.098 3.213-.26.046-.117.059-1.147.03-2.288l-.053-2.074zm53.377 13.291c0 8.525.021 11.988.045 7.696.025-4.292.025-11.267 0-15.5-.024-4.233-.045-.721-.045 7.804M167.9 69.812a9 9 0 0 0-1.15 1.038c-.355.396-.258.342.333-.188.459-.41 1.021-.873 1.25-1.029s.372-.286.317-.291-.392.207-.75.47m12.183-.116c.275.21.845.683 1.265 1.051.609.533.582.491-.128-.201-.492-.479-1.061-.952-1.265-1.051-.232-.113-.184-.037.128.201m40.625.126c-.371.269-.728.575-.792.679-.09.146 1.214-.77 1.57-1.103.258-.241-.217.018-.778.424m-91.597-.044c-.152.152-.136 39.091.017 39.331.067.106.102-8.686.078-19.538l-.043-19.731 3.46-.049 3.46-.048-3.43-.038c-1.887-.021-3.481.012-3.542.073M234 70.75c.311.321.603.583.649.583s-.171-.262-.482-.583-.603-.583-.649-.583.171.262.482.583m94.523.5c.308.367.734.892.945 1.167s.308.342.215.148c-.093-.193-.519-.718-.945-1.166q-.769-.806-.215-.149M139.581 89.5c0 10.313.02 14.531.044 9.375s.024-13.594 0-18.75-.044-.937-.044 9.375m-2.667.167c0 10.312.02 14.531.044 9.375.025-5.157.025-13.594 0-18.75-.024-5.157-.044-.938-.044 9.375M81.942 72.208c.043.069 8.694.125 19.225.125s19.181-.056 19.224-.125c.042-.068-8.609-.125-19.224-.125s-19.267.057-19.225.125m91.766.74c.161.042.423.042.584 0s.029-.076-.292-.076-.452.034-.292.076m53.973.112c.038.033.294.11.569.172.365.081.433.066.25-.058-.225-.152-.987-.258-.819-.114m1.236.38c.848.753 1.161.973.834.586-.182-.215-.481-.467-.666-.562-.184-.094-.26-.105-.168-.024m86.017.157c-.055.145-.101 2.242-.101 4.661 0 5.279-.383 4.755 3.448 4.708l2.802-.034-3-.101c-1.65-.055-3.02-.115-3.044-.132s-.024-2.076 0-4.574l.044-4.542 3.167-.089 3.167-.088-3.191-.037c-2.777-.031-3.203-.002-3.292.228m6.913-.038c.038.033.332.108.653.167.41.075.509.058.333-.057-.226-.148-1.151-.251-.986-.11m-144.156 1.035c.42.464.852 1.007.959 1.208s.324.356.481.345c.234-.015.239-.032.026-.089-.142-.038-.38-.274-.529-.522-.148-.249-.592-.753-.985-1.119l-.715-.667zm146.142-.375c0 .029.244.272.542.541l.542.49-.49-.542c-.456-.505-.594-.618-.594-.489M164.724 76.25c0 .733.03 1.013.065.621a8.4 8.4 0 0 0-.001-1.334c-.036-.341-.065-.02-.064.713m66.116-1c0 .092.154.354.342.583q.34.416.168.084c-.281-.544-.512-.845-.51-.667m-60.792.833c.001.459.033.626.072.373a3 3 0 0 0-.003-.833c-.039-.205-.071.002-.069.46m61.597.459c.253.322.613.381.77.127.059-.095-.008-.123-.158-.065-.144.055-.392-.002-.551-.127-.262-.205-.268-.199-.061.065M331.058 78c0 .779.029 1.098.064.708a9.6 9.6 0 0 0 0-1.416c-.035-.39-.064-.071-.064.708m-115.796.595c-.061.244-.079.476-.04.516.039.039.121-.129.183-.373.061-.244.079-.476.04-.515s-.122.128-.183.372m5.321 1.072c-.063.288-.08.558-.038.601s.126-.163.184-.455c.139-.695.004-.83-.146-.146m110.273.166a7 7 0 0 1-.113.834l-.086.416.179-.41c.099-.226.15-.601.113-.833l-.066-.423zm-210.331.042c-.162.163-3.68.227-15.992.293l-15.783.085 15.69.04c15.387.04 15.697.034 16.083-.287.217-.181.352-.331.302-.334s-.185.088-.3.203m204.557.629c-.063.199-.425.674-.803 1.054-.392.394-.51.577-.275.425.481-.312 1.435-1.6 1.291-1.743-.054-.054-.15.065-.213.264m-110.326.919c-.064.516-.082.973-.04 1.015.042.043.13-.345.194-.861.065-.516.083-.973.041-1.015-.043-.043-.13.345-.195.861m5.462 1.16c.001.55.032.755.069.456.038-.3.037-.75-.001-1-.038-.251-.069-.006-.068.544m-41.885-.34c0 .046.3.237.667.424s.667.302.667.256-.3-.236-.667-.423-.667-.303-.667-.257m1.5.809c0 .041.544.47 1.209.954.664.485 1.114.767.999.628-.234-.283-2.208-1.697-2.208-1.582m149.277.99c-.526.732-.543.78-.108.291.491-.549.908-1.166.789-1.166-.029 0-.336.393-.681.875m-102.703-.159c-.046.119-.063 1.263-.037 2.542l.047 2.325 2.699.046 2.699.046.067.663.067.664-.016-.709-.016-.71-2.709-.046-2.708-.046v-4.82l5.458-.046 5.459-.047-5.464-.039c-4.353-.031-5.48.005-5.546.177m-134.782.409c5.248.024 13.835.024 19.083 0 5.248-.025.954-.045-9.541-.045s-14.79.02-9.542.045M220.22 85.5c0 .596.03.84.067.542a5.3 5.3 0 0 0 0-1.084c-.037-.298-.067-.054-.067.542m-37.387.083c.311.321.603.584.649.584s-.171-.263-.482-.584-.603-.583-.649-.583.171.262.482.583M82.224 86.872c.106.068 8.668.106 19.026.086s16.433-.056 13.5-.08c-13.697-.113-32.699-.116-32.526-.006m132.648.461c0 .321.034.452.076.292s.042-.423 0-.583c-.042-.161-.076-.029-.076.291m109.211 0c-.21.091-.241.144-.083.144.137 0 .4-.065.583-.144.21-.09.241-.143.084-.143-.138 0-.4.065-.584.143m-7.291.458a81 81 0 0 0 3.75 0c1.031-.029.187-.053-1.875-.053-2.063 0-2.907.024-1.875.053m-138.459.792c.311.321.603.584.649.584s-.171-.263-.482-.584-.603-.583-.649-.583.171.263.482.583m136.575 5.25c0 3.254.023 4.586.05 2.959s.027-4.29 0-5.917-.05-.296-.05 2.958m-130.306-5.25c.137.613.232.746.229.32a1.2 1.2 0 0 0-.172-.57c-.123-.182-.139-.115-.057.25m72.936.241c.327.554.629.626.626.148-.002-.309-.035-.338-.16-.139-.135.214-.196.202-.432-.084-.262-.317-.264-.314-.034.075m-42.343.426c-.003.183.06.483.138.667.183.424.183-.014 0-.584-.107-.335-.134-.351-.138-.083m89.184.583c0 .413.032.582.072.375s.04-.543 0-.75-.072-.037-.072.375m-67.282.514c-.062.472-.08.892-.039.933s.127-.31.192-.78.082-.89.039-.933-.129.308-.192.78m-57.547.986c0 .504.031.711.069.459a3.6 3.6 0 0 0 0-.917c-.038-.252-.069-.046-.069.458m52.139-.555a3.4 3.4 0 0 1-.118.667c-.091.289-.086.289.094.009.105-.164.158-.464.119-.667-.072-.37-.072-.37-.095-.009m67.073.317c-.061.244-.079.476-.04.516.039.039.121-.129.183-.373.061-.244.079-.476.04-.515s-.122.128-.183.372m5.443.072c0 .32.035.452.077.291.041-.16.041-.423 0-.583-.042-.16-.077-.029-.077.292m-222.509.052c-.2.212-.363.447-.363.523 0 .075.156-.061.346-.303l.345-.439h38.285l.346.439c.19.242.345.357.345.257 0-.907 1.021-.863-19.836-.863H82.058zm202.009.281c0 .321.035.452.077.292a1.4 1.4 0 0 0 0-.584c-.042-.16-.077-.029-.077.292m-120.036.847c.002.222.077.515.167.653.115.176.132.077.056-.333-.131-.719-.226-.855-.223-.32m20.926 1.082c-.061.244-.079.476-.04.515s.122-.128.183-.373c.061-.244.079-.476.04-.515s-.121.128-.183.373m38.572.154c.311.321.603.584.648.584s-.171-.263-.482-.584-.603-.583-.648-.583.171.263.482.583m-52.347-.022c.222.273.847.686.847.56 0-.032-.244-.237-.542-.455-.335-.245-.452-.285-.305-.105m7.43.551c-.367.328-.517.52-.333.425.309-.16 1.229-1.046 1.07-1.03-.039.004-.37.276-.737.605m51.667 0c-.367.328-.517.52-.334.425.309-.16 1.23-1.046 1.071-1.03-.039.004-.371.276-.737.605m60.736-.051c.222.273.847.686.847.56 0-.032-.244-.237-.542-.455-.335-.245-.451-.285-.305-.105m-99.42 3.272c0 1.329.026 1.873.057 1.209.032-.665.032-1.752 0-2.417-.031-.665-.057-.121-.057 1.208m18.333-.083c0 1.283.026 1.786.058 1.118.032-.669.031-1.719-.001-2.334-.032-.614-.058-.067-.057 1.216m16.892-2.129c.298.037.786.037 1.084 0s.054-.068-.542-.068-.84.031-.542.068m67 0c.298.037.786.037 1.084 0s.054-.068-.542-.068-.84.031-.542.068m-127.958.701c0 .147 1.814 1.926 1.871 1.835.025-.041-.386-.494-.913-1.007-.527-.514-.958-.887-.958-.828m17 1.165c-.596.615-1.271 1.246-1.5 1.403l-.417.286.417-.199c.481-.23 2.289-1.916 2.522-2.351.222-.415.183-.383-1.022.861m103.993.388c.691.736.84.868.84.743 0-.027-.356-.383-.791-.792l-.792-.743zm-204.269.086c-.106.067 3.356.122 7.693.122s7.798-.055 7.692-.122-3.567-.123-7.692-.123-7.587.056-7.693.123m22.5 0c-.106.067 3.356.122 7.693.122s7.798-.055 7.692-.122-3.567-.123-7.692-.123-7.587.056-7.693.123m115.058.224c.2.219.613.541.916.716.694.399.601.298-.448-.489-.491-.368-.683-.462-.468-.227m13.754.107c-.398.389-.405.408-.044.127.711-.554.745-.586.627-.586-.062 0-.325.207-.583.459M98.4 98.739c0 .331-.139.742-.325.961l-.325.383.36-.304c.419-.353.626-1.018.428-1.372-.094-.167-.138-.061-.138.332m73.183 1.094c.184.079.446.144.584.144.157 0 .126-.053-.084-.144a1.9 1.9 0 0 0-.583-.143c-.158 0-.127.053.083.143m5.667 0c-.425.183.013.183.583 0 .335-.107.352-.134.084-.138a2 2 0 0 0-.667.138m46.5 0c.183.079.446.144.583.144.158 0 .127-.053-.083-.144a1.9 1.9 0 0 0-.583-.143c-.158 0-.127.053.083.143m72.833 0c-.21.091-.241.144-.083.144.137 0 .4-.065.583-.144.21-.09.241-.143.084-.143-.138 0-.4.065-.584.143m-210.447.292c2.138.026 5.588.026 7.667 0 2.079-.027.33-.048-3.886-.048s-5.918.021-3.781.048m20.397.075c-.296.296-.272 3.532.028 3.782.163.135 1.89.177 6.042.145l5.814-.044.048-1.666c.027-.917.007-1.836-.044-2.042l-.094-.375h-5.797c-4.286 0-5.849.052-5.997.2m118.842-.085c.16.042.423.042.583 0 .161-.042.029-.076-.291-.076-.321 0-.452.034-.292.076m67 0c.16.042.423.042.583 0 .161-.042.029-.076-.291-.076-.321 0-.452.034-.292.076m-174.078 2.012.047 1.877-5.88-.044-5.881-.043-.048-1.655c-.026-.91-.009-1.755.038-1.877.069-.181 1.172-.214 5.881-.179l5.796.044zm-36.337 2.052c-.159.093-.376.334-.481.536-.157.301-.112.284.24-.09l.432-.458h7.739c8.75 0 8.51-.035 8.51 1.231q0 .612.138.361c.211-.376-.027-1.059-.496-1.428-.48-.378-15.452-.519-16.082-.152m57.311 5.342c-.059.293-.076.563-.038.601s.12-.167.184-.455c.063-.288.08-.559.038-.601-.043-.043-.126.162-.184.455m-3.615 1.16c-.419.45-.71.819-.647.819.129 0 1.491-1.443 1.491-1.58 0-.14-.046-.099-.844.761m-5.573.126c.181.215.481.468.665.562.354.181.303.126-.497-.538-.481-.4-.487-.401-.168-.024m1.171.843c.089.088.388.213.663.278.645.153.5.011-.247-.241-.318-.108-.506-.124-.416-.037m2.746.114c-.546.224-.551.233-.083.142.275-.053.571-.166.658-.251.2-.195.142-.184-.575.109m3.491 1.028-.574.625.625-.575c.343-.316.625-.597.625-.625 0-.127-.141-.007-.676.575m-61.824.269c0 .045.225.243.5.439s.5.319.5.273-.225-.244-.5-.44c-.275-.195-.5-.318-.5-.272m2.75 1.439c.183.079.445.143.583.143.158 0 .127-.053-.083-.143a1.8 1.8 0 0 0-.584-.143c-.157 0-.126.053.084.143m55.583 0c-.335.107-.351.134-.083.138.183.003.483-.059.666-.138.425-.183-.013-.183-.583 0m-84.138 5.917c-.003.183.059.483.138.666.183.425.183-.013 0-.583-.107-.335-.134-.351-.138-.083m.753 2.046c.163.301.557.788.875 1.084l.579.536-.576-.668a20 20 0 0 1-.875-1.083c-.289-.401-.289-.396-.003.131m303.983.35a5.3 5.3 0 0 1-1.063 1.083c-.338.241-.528.437-.423.437.24 0 1.618-1.329 1.875-1.808.304-.569.099-.417-.389.288m-225.973 2.312c40.815.023 107.602.023 148.417 0s7.42-.042-74.209-.042-115.023.019-74.208.042"/><path fill="#cccce4" d="m51.491 42.458-.574.625.664-.583c.366-.321.697-.602.737-.625.039-.023-.002-.042-.091-.042s-.42.282-.736.625m-1.576 40.459c0 20.35.02 28.65.043 18.445.024-10.206.024-26.856 0-37-.023-10.145-.043-1.795-.043 18.555m39.14-31.792c6.767.024 17.792.024 24.5 0s1.17-.044-12.305-.044-18.963.02-12.195.044m.07 2.833c6.623.024 17.46.024 24.083 0s1.204-.044-12.041-.044-18.665.02-12.042.044M73.248 81.583c0 14.942.02 21.03.044 13.529s.024-19.726 0-27.167c-.024-7.44-.044-1.303-.044 13.638m3 .167c0 14.85.02 20.9.044 13.445s.024-19.605 0-27-.044-1.295-.044 13.555m52.994-20.833c0 3.3.022 4.673.049 3.052s.028-4.321 0-6c-.027-1.679-.049-.352-.049 2.948m-37.534-1.959c5.202.025 13.715.025 18.917 0 5.202-.024.946-.044-9.458-.044s-14.661.02-9.459.044m-10.466 6.709c0 3.254.022 4.585.049 2.958s.028-4.29 0-5.917c-.027-1.627-.049-.295-.049 2.959m2.833-3.622c-.045.117-.06 1.861-.033 3.876l.048 3.662.038-3.791.039-3.792h33.993l.05 3.75.05 3.75-.005-3.792-.005-3.791-17.047-.043c-13.716-.034-17.062-.001-17.128.171m51.772 4.848c.038.033.295.11.57.172.365.082.432.066.25-.057-.225-.153-.987-.259-.82-.115m2.153.826c0 .029.244.272.542.541l.541.49-.489-.542c-.456-.505-.594-.618-.594-.489m34.667.115c-.321.068.129.085 1 .038.87-.047 1.614-.112 1.652-.145.125-.108-2.053-.02-2.652.107m53.347-.107c.038.033.744.098 1.569.144s1.275.028 1-.04c-.506-.127-2.697-.215-2.569-.104m-30.21.731c2.596.026 6.796.026 9.333 0s.413-.047-4.72-.047c-5.134 0-7.21.021-4.613.047m46.273.084c-.206.539.009 31.181.219 31.223.117.024.135.005.042-.041-.115-.057-.171-5.187-.171-15.65V68.508l2.625-.05 2.625-.05-2.631-.038c-1.978-.027-2.649.015-2.709.172m17.056-.085c.761.031 1.961.031 2.667 0s.083-.056-1.383-.056c-1.467 0-2.045.026-1.284.056m25.584.001c.806.03 2.081.03 2.833-.001s.092-.056-1.467-.055c-1.558 0-2.173.025-1.366.056m17.079-.002 2.713.052-.046 11.32c-.026 6.226.01 11.166.08 10.978.069-.188.107-5.302.083-11.365l-.043-11.024-2.75-.007-2.75-.007zm7.813.002c-.071.114 4.678.111 10.391-.005 1.237-.026-.577-.063-4.032-.083s-6.317.02-6.359.088m-26.364 10.209c0 5.545.021 7.814.047 5.041s.025-7.31 0-10.083-.047-.504-.047 5.042m-154.001-8.625c-.044.114-.06 8.908-.036 19.541l.043 19.334.041-19.465.041-19.465 3.485.048c1.916.027 3.449-.008 3.406-.077-.142-.23-6.892-.15-6.98.084m104.839.625c.452.458.859.833.904.833s-.286-.375-.737-.833c-.451-.459-.858-.834-.904-.834s.286.375.737.834m-94.5 18.932c0 10.682.049 19.248.109 19.036.145-.515.149-37.806.005-38.17-.063-.157-.114 8.453-.114 19.134m188.91-18.557c.409.435.765.791.792.791.125 0-.007-.149-.743-.84l-.792-.743zM136.747 89.667c0 10.495.02 14.789.045 9.541s.024-13.835 0-19.083c-.025-5.248-.045-.954-.045 9.542m29.554-18.542c-.293.342-.514.708-.426.708.034 0 .229-.225.432-.5.402-.543.398-.678-.006-.208m-74.496 1.333c5.254.025 13.804.025 19 0 5.195-.024.895-.044-9.555-.044s-14.7.02-9.445.044m81.903.657c.161.042.423.042.584 0s.029-.076-.292-.076-.452.034-.292.076m29.537 10.968c0 5.959.021 8.372.047 5.363s.025-7.884 0-10.833c-.026-2.95-.047-.488-.047 5.47M316.7 73.624c.797.03 2.147.031 3 0 .852-.03.2-.055-1.45-.055s-2.348.024-1.55.055m-140.2.073c1.624 1.474 1.909 1.7 1.25.993-.367-.394-.817-.796-1-.892-.183-.097-.296-.142-.25-.101m138.535 4.428c-.019 2.498.021 4.542.09 4.542s.106-1.331.082-2.958c-.081-5.596-.137-6.116-.172-1.584m7.298-4.403c0 .044.242.163.538.266s.465.119.375.035c-.19-.177-.913-.416-.913-.301m8.893 4.361c-.001.825.028 1.184.062.797.035-.387.036-1.062.001-1.5s-.063-.122-.063.703m-166.559-.01c0 .224.061.445.136.492s.104-.137.065-.407c-.088-.596-.201-.643-.201-.085m82.578 1.135c-.13.35-.17 20.617-.04 20.487.11-.11.274-20.695.165-20.695-.026 0-.082.094-.125.208m-26.706 1.959c0 .32.034.452.076.291.042-.16.042-.423 0-.583s-.076-.029-.076.292M214.566 84c0 1.329.026 1.873.058 1.208.031-.664.031-1.752 0-2.416-.032-.665-.058-.121-.058 1.208m14.653-.375c1.541.027 4.016.027 5.5 0 1.484-.028.223-.05-2.802-.05s-4.239.022-2.698.05m8.184 3.292c0 1.741.025 2.431.055 1.533s.03-2.324-.001-3.167c-.03-.843-.054-.108-.054 1.634M91.888 84.125c5.209.024 13.684.024 18.833 0s.887-.044-9.471-.044-14.571.02-9.362.044M81.205 85.5c0 .321.035.452.077.292a1.4 1.4 0 0 0 0-.584c-.042-.16-.077-.029-.077.292m139.337 1.583c.002.367.036.497.076.29s.038-.507-.003-.667c-.042-.159-.075.011-.073.377m104.375.173c-.419.202-.433.224-.084.14.23-.055.488-.167.575-.248.216-.202.098-.176-.491.108m-1.584.411c-.343.11-.358.136-.083.147.183.008.446-.058.583-.147.292-.189.09-.189-.5 0m-24.288.833c0 .412.033.581.073.375a2.4 2.4 0 0 0 0-.75c-.04-.206-.073-.038-.073.375m16.035-.458c-.133.359-.17 11.764-.038 11.682.068-.042.125-2.696.125-5.897v-5.82l3.541-.049 3.542-.048-3.547-.038c-2.714-.03-3.565.01-3.623.17m-83.371 1.375c.002.366.036.497.076.289a1.8 1.8 0 0 0-.004-.666c-.042-.16-.074.01-.072.377m51.679.5c.001.641.031.883.067.538a6.3 6.3 0 0 0-.001-1.167c-.037-.296-.067-.013-.066.629m-104.097.957c.089 1.512.168 1.704.187.459.009-.596-.043-1.177-.116-1.293s-.106.26-.071.834m-9.993.876c.098.183.612.746 1.143 1.25l.966.917-1.071-1.167a281 281 0 0 1-1.143-1.25c-.039-.046.008.067.105.25m-88.093.417c0 .32.035.452.077.291.041-.16.041-.423 0-.583-.042-.16-.077-.029-.077.292m103.818-.056a3.4 3.4 0 0 1-.119.667c-.091.289-.086.29.094.009.105-.163.158-.463.119-.667-.072-.37-.072-.37-.094-.009m98.667.222c0 .138.065.4.143.584.091.21.144.241.144.083 0-.138-.065-.4-.144-.583-.09-.21-.143-.241-.143-.084m-60.523 1.084c.311.32.603.583.648.583s-.171-.263-.482-.583c-.311-.321-.603-.584-.648-.584s.171.263.482.584m7.094.208c-.36.46-.389.538-.11.294.335-.292.775-.919.647-.919-.027 0-.268.281-.537.625m-55.86 1.433c.345.082.946.079 1.394-.006.729-.138.683-.149-.606-.143-1.145.005-1.285.031-.788.149m52.057-.104c.298.037.786.037 1.084 0s.054-.067-.542-.067-.84.03-.542.067m67 0c.298.037.786.037 1.084 0s.054-.067-.542-.067-.84.03-.542.067m-7.041 2.546c.358.367.688.667.734.667s-.21-.3-.568-.667-.688-.667-.734-.667.21.3.568.667m-200.042-.209c1.994.027 5.256.027 7.25 0 1.994-.026.362-.048-3.625-.048s-5.619.022-3.625.048m22.428.001c2.046.026 5.346.026 7.333-.001 1.988-.026.314-.048-3.719-.048-4.034 0-5.66.022-3.614.049m-27.598 1.541c0 .321.035.452.077.292s.041-.423 0-.583c-.042-.161-.077-.029-.077.291m16.927.873-.451.467-7.824-.045c-4.304-.024-7.79.012-7.748.08.043.069 3.559.125 7.815.125h7.737l.545-.486c.299-.267.506-.513.461-.547-.046-.033-.287.15-.535.406m11.399.585c1.53.028 4.08.028 5.667 0 1.587-.027.335-.049-2.781-.05-3.117 0-4.416.023-2.886.05m66.344-.009c.16.041.423.041.583 0 .161-.042.029-.077-.291-.077-.321 0-.452.035-.292.077m-57.673 1.758-.035 1.789-5.792.046-5.792.046 5.797.04c4.678.031 5.813-.003 5.882-.181.046-.121.059-.965.029-1.875l-.055-1.655zm-31.994 1.918c2.086.027 5.498.027 7.584 0 2.085-.026.379-.048-3.792-.048s-5.877.022-3.792.048m-5.003 1.375c0 .321.035.452.077.292s.041-.423 0-.583c-.042-.161-.077-.029-.077.291m8.795 1.5-7.583.089 7.5.036c4.624.023 7.596-.025 7.75-.125.137-.089.175-.145.083-.125s-3.579.077-7.75.125m18.72.125c2.091.027 5.466.027 7.5 0 2.033-.026.322-.048-3.803-.048s-5.789.022-3.697.048m30.475 3.367c-.098.28-.142.508-.099.508.113 0 .427-.865.345-.948-.038-.038-.149.16-.246.44M133 111.841c-.183.123-.115.139.25.057.613-.137.746-.232.319-.229a1.2 1.2 0 0 0-.569.172m-41.279.117c6.585.024 17.31.024 23.834 0s1.137-.044-11.972-.044-18.446.02-11.862.044m45.696.991c-.459.424-.684.689-.5.591.317-.171 1.563-1.381 1.407-1.367-.041.004-.449.353-.907.776m-44.709 1.843c7.586.024 19.998.024 27.584 0s1.379-.044-13.792-.044-21.377.02-13.792.044m36 10.166c40.769.023 107.482.023 148.25 0s7.413-.042-74.125-.042-114.893.019-74.125.042"/><path fill="#b5b5d8" d="M76.081 81.583c0 14.667.02 20.642.044 13.279.024-7.364.024-19.364 0-26.667s-.044-1.278-.044 13.388m44.994-15.916c0 3.162.022 4.456.05 2.875a204 204 0 0 0 0-5.75c-.028-1.582-.05-.288-.05 2.875m9.892 1.291c.945.03 2.445.029 3.334-.001.888-.029.116-.054-1.718-.054-1.833.001-2.56.025-1.616.055m42.741.997c.344.036.907.036 1.25 0 .344-.036.063-.066-.625-.066s-.968.03-.625.066m52.667 0c.344.036.906.036 1.25 0s.063-.066-.625-.066-.969.03-.625.066M309.58 84c0 8.479.02 11.948.045 7.708.025-4.239.025-11.177 0-15.416s-.045-.771-.045 7.708M92.625 69.625c4.698.025 12.385.025 17.083 0s.855-.045-8.541-.045-13.24.02-8.542.045m113.792 3.542-3.167.094 3.115.036c1.937.023 3.154-.027 3.218-.13.057-.092.08-.151.052-.131s-1.477.079-3.218.131m19.958-.048c.252.039.665.039.917 0 .252-.038.046-.069-.459-.069-.504 0-.71.031-.458.069m-31.917.171 3.042.051v21.485l-3.042.051-3.041.051 3.083-.006 3.083-.005V73.25l-3.083-.006-3.083-.005zm-29.91 2.96c.001.458.033.626.072.373a3 3 0 0 0-.003-.834c-.039-.205-.071.003-.069.461m161.005 1.917c0 .595.031.839.068.541a5.3 5.3 0 0 0 0-1.083c-.037-.298-.068-.054-.068.542m-228.928-.542c4.331.025 11.419.025 15.75 0s.787-.045-7.875-.045-12.206.02-7.875.045m70.042 3.927c0 .029.243.273.541.542l.542.489-.49-.541c-.456-.505-.593-.619-.593-.49M316.7 82.791c.797.03 2.147.03 3 0 .852-.03.2-.055-1.45-.055-1.65-.001-2.348.024-1.55.055M220.205 84c0 .321.035.452.077.292a1.4 1.4 0 0 0 0-.584c-.042-.16-.077-.029-.077.292m-35.153 6.917c.001.55.032.755.069.455s.036-.75-.002-1-.068-.005-.067.545m-93.164-.125c5.209.024 13.684.024 18.833 0 5.149-.025.887-.045-9.471-.045s-14.571.02-9.362.045m-.18 2.833c5.202.024 13.715.024 18.917 0s.946-.044-9.458-.044-14.661.02-9.459.044m113.176 1.333c.898.03 2.323.03 3.166-.001.843-.03.108-.054-1.633-.054s-2.432.025-1.533.055m-101.146 7.125c0 2.109.024 2.948.053 1.866a84 84 0 0 0 0-3.833c-.029-1.026-.053-.141-.053 1.967m17.333 0c.001 2.109.024 2.948.054 1.866a83 83 0 0 0-.001-3.833c-.029-1.026-.053-.141-.053 1.967m79.346-2.416-9.167.087 9.115.04c5.94.026 9.151-.019 9.218-.127.057-.092.08-.149.052-.127s-4.177.078-9.218.127m60.166 0-2.333.097 2.282.035c1.38.021 2.322-.032 2.385-.132.056-.092.079-.151.051-.133-.028.019-1.101.079-2.385.133m-17.049.123c.615.032 1.665.032 2.334.001.668-.032.165-.058-1.118-.059s-1.83.026-1.216.058m67.682.001c.715.031 1.84.031 2.5-.001.66-.031.076-.057-1.299-.057-1.375.001-1.916.026-1.201.058m-204.644.596c-.047.121-.063.965-.036 1.875l.05 1.655.082-1.876c.081-1.856.068-2.082-.096-1.654m67.723-.1c.299.038.749.037 1-.001.25-.038.005-.069-.545-.068s-.755.032-.455.069m51.997 0c.298.037.785.037 1.083 0s.054-.067-.542-.067-.839.03-.541.067m67.166 0c.298.037.786.037 1.084 0s.054-.067-.542-.067-.84.03-.542.067m-207.322 6.505c2.138.026 5.588.026 7.667-.001 2.079-.026.33-.048-3.886-.048-4.217.001-5.918.022-3.781.049m22.5 0c2.138.026 5.588.026 7.667-.001 2.079-.026.33-.048-3.886-.048-4.217.001-5.918.022-3.781.049"/></g></svg>