<svg id="svg" version="1.1" xmlns="http://www.w3.org/2000/svg" xmlns:xlink="http://www.w3.org/1999/xlink" width="400" height="160" viewBox="0, 0, 400,160"><g id="svgg"><path id="path0" d="M53.708 38.455 C 53.319 38.490,53.000 38.580,53.000 38.655 C 53.000 38.730,52.700 38.839,52.333 38.897 C 51.967 38.956,51.667 39.078,51.667 39.169 C 51.667 39.259,51.517 39.333,51.333 39.333 C 51.150 39.333,51.000 39.408,51.000 39.500 C 51.000 39.592,50.910 39.667,50.801 39.667 C 50.618 39.667,49.320 40.944,48.619 41.815 C 48.455 42.018,48.278 42.404,48.224 42.673 C 48.170 42.941,48.070 43.126,48.001 43.084 C 47.854 42.993,47.671 43.980,47.669 44.875 C 47.667 45.219,47.592 45.500,47.500 45.500 C 47.389 45.500,47.333 58.083,47.333 82.917 C 47.333 103.518,47.397 120.333,47.476 120.333 C 47.554 120.333,47.663 120.871,47.718 121.527 C 47.773 122.184,47.887 122.765,47.970 122.819 C 48.054 122.873,48.180 123.104,48.251 123.333 C 48.323 123.563,48.510 123.862,48.667 124.000 C 48.824 124.138,49.007 124.424,49.075 124.638 C 49.142 124.851,49.236 124.986,49.283 124.939 C 49.399 124.824,49.817 125.220,49.730 125.363 C 49.693 125.425,49.813 125.524,49.998 125.583 C 50.182 125.641,50.333 125.759,50.333 125.845 C 50.333 125.930,50.438 126.000,50.566 126.000 C 50.693 126.000,50.841 126.112,50.894 126.250 C 50.946 126.388,51.142 126.500,51.328 126.500 C 51.514 126.500,51.667 126.574,51.667 126.665 C 51.667 126.755,51.967 126.877,52.333 126.936 C 52.700 126.995,53.000 127.108,53.000 127.188 C 53.000 127.271,117.693 127.333,202.833 127.333 C 287.974 127.333,352.667 127.271,352.667 127.188 C 352.667 127.108,352.967 126.995,353.333 126.936 C 353.700 126.877,354.000 126.763,354.000 126.683 C 354.000 126.602,354.188 126.489,354.417 126.432 C 354.646 126.374,354.833 126.253,354.833 126.163 C 354.833 126.074,354.914 126.000,355.013 126.000 C 355.247 126.000,356.667 124.581,356.667 124.346 C 356.667 124.248,356.740 124.167,356.830 124.167 C 356.920 124.167,357.041 123.979,357.098 123.750 C 357.156 123.521,357.269 123.333,357.349 123.333 C 357.430 123.333,357.544 123.033,357.603 122.667 C 357.661 122.300,357.775 122.000,357.855 122.000 C 357.935 122.000,358.000 121.625,358.000 121.167 C 358.000 120.708,358.074 120.333,358.165 120.333 C 358.274 120.333,358.331 107.531,358.333 82.917 C 358.334 57.975,358.279 45.500,358.167 45.500 C 358.075 45.500,358.000 45.125,358.000 44.667 C 358.000 44.208,357.925 43.833,357.833 43.833 C 357.742 43.833,357.667 43.689,357.667 43.514 C 357.667 42.601,355.445 39.667,354.754 39.667 C 354.614 39.667,354.500 39.592,354.500 39.500 C 354.500 39.408,354.387 39.333,354.250 39.333 C 354.113 39.333,354.000 39.262,354.000 39.174 C 354.000 39.087,353.719 38.963,353.375 38.900 C 353.031 38.837,352.696 38.702,352.631 38.601 C 352.519 38.427,55.618 38.282,53.708 38.455 M352.500 41.182 C 354.158 41.962,355.044 42.993,355.581 44.764 C 356.011 46.182,355.954 119.915,355.522 121.225 C 354.881 123.167,353.699 124.303,351.667 124.931 C 350.492 125.294,55.128 125.278,53.931 124.915 C 52.103 124.360,50.776 123.173,50.168 121.549 C 49.837 120.663,49.833 120.296,49.833 82.917 L 49.833 45.179 50.192 44.220 C 50.793 42.615,52.373 41.248,54.083 40.853 C 54.488 40.760,113.002 40.710,203.167 40.725 L 351.583 40.750 352.500 41.182 M76.204 51.411 C 75.232 51.716,74.404 52.381,73.957 53.218 L 73.583 53.917 73.583 81.837 L 73.583 109.757 74.117 110.837 C 75.095 112.814,76.389 113.844,78.633 114.434 C 79.931 114.776,132.938 114.769,134.367 114.428 C 136.835 113.838,138.606 112.091,139.272 109.591 C 139.585 108.415,139.608 70.819,139.296 69.769 C 138.658 67.619,137.112 67.000,132.386 67.000 L 129.000 67.000 128.996 60.625 C 128.992 52.979,128.936 52.749,126.831 51.643 L 126.083 51.250 101.500 51.218 C 81.326 51.192,76.789 51.227,76.204 51.411 M126.089 54.272 L 126.495 54.710 126.539 82.313 C 126.571 102.110,126.636 110.011,126.768 110.250 C 127.264 111.147,127.500 111.651,127.500 111.817 C 127.500 111.949,120.731 111.999,103.292 111.996 C 76.275 111.992,78.446 112.087,77.216 110.857 C 75.974 109.615,76.088 112.417,76.040 81.983 L 75.996 54.717 76.343 54.275 L 76.691 53.833 101.187 53.833 L 125.683 53.833 126.089 54.272 M81.742 59.608 L 81.333 60.049 81.333 65.619 C 81.333 71.129,81.383 71.694,81.900 72.039 C 82.001 72.106,90.671 72.162,101.167 72.162 C 111.662 72.162,120.333 72.106,120.433 72.039 C 120.950 71.694,121.000 71.130,121.000 65.587 L 121.000 59.985 120.591 59.576 L 120.182 59.167 101.166 59.167 L 82.151 59.167 81.742 59.608 M118.316 61.896 C 118.449 62.057,118.493 63.244,118.462 65.854 L 118.417 69.583 101.208 69.626 L 84.000 69.668 84.000 65.779 C 84.000 63.639,84.050 61.839,84.111 61.778 C 84.354 61.535,118.113 61.651,118.316 61.896 M172.000 68.181 C 167.181 69.429,164.833 72.059,164.833 76.210 C 164.833 80.041,166.795 82.412,172.000 84.869 C 178.801 88.081,180.019 89.238,179.592 92.084 C 179.066 95.590,173.607 96.264,170.426 93.216 C 169.788 92.605,169.397 92.088,168.390 90.522 C 168.368 90.489,167.578 90.741,166.633 91.082 C 165.689 91.423,164.673 91.782,164.375 91.879 C 163.262 92.242,164.254 94.449,166.570 96.761 C 173.798 103.977,186.835 98.597,184.757 89.256 C 184.035 86.012,182.084 84.196,176.000 81.105 C 170.641 78.382,170.083 77.908,170.083 76.071 C 170.083 72.524,175.188 71.705,178.015 74.798 C 178.465 75.291,178.833 75.762,178.833 75.847 C 178.833 76.107,179.175 76.035,181.452 75.297 C 183.926 74.496,183.821 74.641,183.051 73.083 C 181.229 69.400,176.093 67.121,172.000 68.181 M224.667 68.193 C 219.035 69.731,215.876 74.091,214.844 81.750 C 214.092 87.337,216.194 94.397,219.476 97.307 C 223.759 101.104,230.323 101.040,234.138 97.164 C 236.386 94.880,237.333 91.686,237.333 86.387 L 237.333 83.833 231.917 83.833 L 226.500 83.833 226.500 86.246 L 226.500 88.658 229.208 88.704 L 231.917 88.750 231.886 89.833 C 231.792 93.185,230.036 95.071,227.000 95.078 C 223.441 95.087,221.499 92.737,220.346 87.029 C 219.883 84.737,220.224 80.677,221.097 78.083 C 223.068 72.225,228.347 71.135,231.391 75.958 C 231.636 76.348,231.915 76.667,232.010 76.667 C 232.139 76.667,236.105 74.501,236.479 74.227 C 236.777 74.008,234.055 70.691,232.738 69.667 C 231.013 68.326,226.919 67.578,224.667 68.193 M191.333 70.746 L 191.333 72.993 194.458 73.038 L 197.583 73.083 197.626 84.042 L 197.669 95.000 194.501 95.000 L 191.333 95.000 191.333 97.333 L 191.333 99.667 200.417 99.667 L 209.500 99.667 209.500 97.333 L 209.500 95.000 206.250 95.000 L 203.000 95.000 203.000 84.101 C 203.000 74.317,203.027 73.192,203.264 73.101 C 203.409 73.046,204.871 73.000,206.514 73.000 L 209.500 73.000 209.500 70.750 L 209.500 68.500 200.417 68.500 L 191.333 68.500 191.333 70.746 M242.412 68.704 C 242.367 68.821,242.350 75.817,242.374 84.250 L 242.417 99.583 244.750 99.583 L 247.083 99.583 247.126 89.125 C 247.150 83.373,247.225 78.668,247.293 78.670 C 247.361 78.672,247.683 79.216,248.008 79.878 C 248.333 80.541,249.543 82.921,250.697 85.167 C 252.597 88.862,254.043 91.681,257.066 97.583 L 258.090 99.583 260.462 99.630 L 262.833 99.676 262.833 84.083 L 262.833 68.491 260.458 68.537 L 258.083 68.583 258.083 78.958 C 258.083 84.665,258.028 89.333,257.960 89.333 C 257.732 89.333,257.075 88.103,253.422 80.833 C 251.418 76.846,249.210 72.458,248.514 71.083 L 247.250 68.583 244.872 68.537 C 243.061 68.502,242.474 68.542,242.412 68.704 M283.615 68.607 C 283.552 68.670,283.500 73.435,283.500 79.194 C 283.500 91.039,283.577 92.033,284.686 94.583 C 287.964 102.121,300.375 101.899,303.359 94.250 C 304.422 91.525,304.512 90.255,304.461 78.583 L 304.417 68.583 301.875 68.537 L 299.333 68.491 299.332 77.871 C 299.330 90.143,299.190 91.602,297.842 93.435 C 295.825 96.179,290.722 95.528,289.377 92.357 C 288.796 90.988,288.771 90.519,288.677 79.583 L 288.583 68.583 286.157 68.537 C 284.823 68.512,283.679 68.543,283.615 68.607 M309.875 68.610 C 309.577 68.731,309.569 99.169,309.867 99.467 C 310.004 99.604,310.819 99.667,312.450 99.667 L 314.833 99.667 314.833 93.930 C 314.833 90.775,314.879 88.075,314.934 87.930 C 315.023 87.700,315.537 87.667,318.977 87.667 C 326.461 87.667,329.961 85.388,330.840 79.944 C 331.803 73.971,328.648 69.499,322.885 68.672 C 321.700 68.502,310.278 68.448,309.875 68.610 M136.449 70.069 L 136.917 70.471 136.917 89.777 C 136.917 108.286,136.904 109.107,136.606 109.667 C 134.945 112.790,130.879 112.825,129.414 109.728 L 129.000 108.854 129.000 89.371 C 129.000 78.656,129.050 69.839,129.111 69.778 C 129.477 69.412,135.985 69.670,136.449 70.069 M323.206 73.821 C 326.260 75.291,326.621 80.323,323.802 82.103 C 322.576 82.877,316.240 83.408,315.156 82.827 C 314.827 82.652,314.636 74.376,314.942 73.578 C 315.129 73.091,322.118 73.297,323.206 73.821 M88.409 78.076 C 87.884 78.601,87.874 79.324,88.386 79.804 L 88.771 80.167 104.477 80.167 L 120.182 80.167 120.591 79.758 C 120.816 79.533,121.000 79.154,121.000 78.917 C 121.000 78.679,120.816 78.301,120.591 78.076 L 120.182 77.667 104.500 77.667 L 88.818 77.667 88.409 78.076 M81.662 84.840 C 81.279 85.377,81.299 85.828,81.729 86.417 C 81.970 86.746,82.191 86.750,101.075 86.794 L 120.178 86.838 120.589 86.426 C 121.091 85.924,121.113 85.356,120.655 84.772 L 120.309 84.333 101.166 84.333 L 82.023 84.333 81.662 84.840 M81.679 91.438 C 81.229 92.011,81.243 92.376,81.736 92.949 L 82.138 93.417 101.228 93.417 C 120.123 93.417,120.322 93.413,120.575 93.083 C 121.027 92.495,121.070 92.006,120.712 91.527 L 120.381 91.083 101.203 91.041 L 82.025 90.999 81.679 91.438 M82.123 97.613 C 81.429 97.800,81.189 98.829,81.678 99.516 L 82.023 100.000 89.902 100.000 C 98.772 100.000,98.400 100.055,98.400 98.739 C 98.400 97.541,98.718 97.586,90.119 97.559 C 85.883 97.545,82.284 97.569,82.123 97.613 M104.539 97.670 C 103.896 97.933,103.813 98.515,103.866 102.377 L 103.917 106.020 104.333 106.339 C 104.730 106.644,105.117 106.659,112.434 106.663 L 120.118 106.667 120.559 106.258 L 121.000 105.849 121.000 102.110 C 121.000 98.677,120.974 98.338,120.681 97.977 L 120.363 97.583 112.640 97.550 C 108.206 97.530,104.756 97.582,104.539 97.670 M118.421 100.375 C 118.472 100.581,118.492 101.500,118.465 102.417 L 118.417 104.083 112.603 104.127 C 105.754 104.179,106.333 104.367,106.333 102.096 C 106.333 99.803,105.750 100.000,112.530 100.000 L 118.327 100.000 118.421 100.375 M81.742 104.608 C 81.215 105.177,81.224 105.679,81.773 106.227 L 82.212 106.667 89.997 106.667 C 98.775 106.667,98.400 106.724,98.400 105.387 C 98.400 104.134,98.629 104.167,89.890 104.167 L 82.151 104.167 81.742 104.608 " stroke="none" fill="#5454ac" fill-rule="evenodd"></path><path id="path1" d="M54.250 41.039 C 52.275 41.710,51.304 42.478,50.553 43.961 L 50.083 44.890 50.083 82.903 L 50.083 120.917 50.447 121.682 C 51.160 123.184,52.435 124.288,53.865 124.640 C 54.885 124.892,350.534 124.914,351.623 124.662 C 353.444 124.242,354.916 122.733,355.392 120.799 C 355.803 119.129,355.815 46.827,355.405 45.058 C 354.996 43.295,353.429 41.532,352.003 41.232 C 351.772 41.183,351.411 41.074,351.200 40.988 C 350.649 40.765,54.908 40.815,54.250 41.039 M127.083 51.491 C 129.177 52.773,129.223 52.961,129.296 60.458 L 129.358 66.833 132.832 66.833 C 137.755 66.833,139.021 67.483,139.650 70.333 C 139.920 71.555,139.822 108.316,139.546 109.583 C 139.026 111.971,136.976 113.999,134.417 114.659 C 133.504 114.895,79.548 114.892,78.500 114.657 C 76.950 114.308,74.333 112.467,74.333 111.725 C 74.333 111.601,74.258 111.500,74.167 111.500 C 74.075 111.500,74.000 111.406,73.999 111.292 C 73.998 111.177,73.894 110.884,73.767 110.640 C 73.163 109.483,73.145 108.525,73.198 81.000 L 73.250 54.083 73.643 53.336 C 74.253 52.174,75.240 51.366,76.306 51.156 C 76.642 51.089,88.054 51.046,101.667 51.059 L 126.417 51.083 127.083 51.491 M76.704 54.259 L 76.333 54.519 76.333 81.829 C 76.333 112.000,76.248 109.540,77.333 110.670 C 78.462 111.845,76.159 111.745,103.136 111.795 L 127.356 111.840 127.100 111.378 C 126.290 109.918,126.333 111.568,126.333 82.254 L 126.333 54.882 125.925 54.441 L 125.516 54.000 101.295 54.000 C 79.643 54.000,77.035 54.028,76.704 54.259 M120.219 59.020 C 121.171 59.506,121.159 59.417,121.163 65.760 C 121.167 72.176,121.169 72.164,120.120 72.419 C 119.917 72.469,111.250 72.489,100.861 72.463 L 81.971 72.417 81.569 71.949 L 81.167 71.481 81.170 65.699 C 81.174 59.450,81.163 59.533,82.083 59.027 C 82.560 58.765,119.707 58.757,120.219 59.020 M84.167 65.750 L 84.167 69.500 101.167 69.500 L 118.167 69.500 118.167 65.750 L 118.167 62.000 101.167 62.000 L 84.167 62.000 84.167 65.750 M176.299 67.923 C 177.559 68.174,177.824 68.260,179.000 68.806 C 180.824 69.652,183.500 72.471,183.500 73.546 C 183.500 73.693,183.575 73.860,183.667 73.917 C 184.005 74.126,183.835 74.673,183.375 74.855 C 183.123 74.954,182.802 75.093,182.661 75.163 C 182.521 75.234,182.148 75.348,181.833 75.417 C 181.519 75.486,181.146 75.604,181.005 75.679 C 180.865 75.754,180.341 75.943,179.842 76.099 L 178.934 76.382 178.676 75.983 C 176.571 72.728,171.967 72.082,170.555 74.843 C 169.464 76.976,170.435 78.070,175.792 80.742 C 183.132 84.402,185.068 86.545,185.061 91.000 C 185.056 93.759,184.443 95.438,182.810 97.167 C 179.605 100.560,172.995 101.380,168.962 98.885 C 168.620 98.673,168.263 98.500,168.170 98.500 C 168.076 98.500,167.998 98.444,167.996 98.375 C 167.994 98.306,167.634 97.994,167.196 97.680 C 165.793 96.676,163.500 93.343,163.500 92.307 C 163.500 91.963,163.506 91.960,165.917 91.074 C 168.667 90.064,168.385 90.058,169.056 91.144 C 171.021 94.328,174.741 95.817,177.408 94.489 C 179.692 93.351,180.091 90.305,178.176 88.629 C 176.879 87.494,176.515 87.287,172.083 85.158 C 168.851 83.605,165.833 81.378,165.833 80.546 C 165.833 80.429,165.770 80.333,165.692 80.333 C 165.614 80.333,165.418 80.015,165.255 79.625 C 165.093 79.235,164.875 78.737,164.772 78.516 C 164.533 78.009,164.524 74.518,164.761 73.984 C 166.159 70.826,167.238 69.746,170.417 68.323 C 171.715 67.742,174.456 67.556,176.299 67.923 M229.107 67.933 C 231.860 68.491,234.050 70.022,235.747 72.571 C 236.837 74.210,236.855 74.339,236.042 74.761 C 235.698 74.940,234.655 75.517,233.725 76.043 C 231.684 77.198,231.874 77.194,231.187 76.100 C 228.965 72.560,225.778 72.130,223.033 75.000 C 222.445 75.615,221.167 78.096,221.167 78.623 C 221.167 78.794,221.098 79.005,221.015 79.092 C 220.758 79.359,220.430 82.148,220.427 84.083 C 220.423 86.964,220.877 89.204,221.906 91.378 C 224.504 96.871,231.667 95.671,231.667 89.743 L 231.667 88.833 228.996 88.833 L 226.325 88.833 226.371 86.208 L 226.417 83.583 231.822 83.539 C 236.036 83.505,237.257 83.542,237.361 83.706 C 237.733 84.292,237.395 91.946,236.977 92.408 C 236.898 92.495,236.833 92.727,236.833 92.922 C 236.833 95.093,233.332 98.817,230.333 99.837 C 220.163 103.295,212.243 92.221,215.155 78.615 C 216.736 71.231,222.734 66.639,229.107 67.933 M209.667 70.833 L 209.667 73.333 206.500 73.333 L 203.333 73.333 203.333 84.083 L 203.333 94.833 206.500 94.833 L 209.667 94.833 209.667 97.333 L 209.667 99.833 200.417 99.833 L 191.167 99.833 191.167 97.333 L 191.167 94.833 194.333 94.833 L 197.500 94.833 197.500 84.083 L 197.500 73.333 194.333 73.333 L 191.167 73.333 191.167 70.833 L 191.167 68.333 200.417 68.333 L 209.667 68.333 209.667 70.833 M248.860 71.250 C 249.653 72.808,251.978 77.411,254.026 81.478 L 257.750 88.872 257.793 78.603 L 257.836 68.333 260.418 68.333 L 263.000 68.333 263.000 84.088 L 263.000 99.842 260.468 99.796 L 257.935 99.750 257.031 98.000 C 254.965 94.001,253.184 90.536,251.378 87.000 C 250.325 84.938,249.002 82.350,248.440 81.250 L 247.417 79.250 247.333 89.500 L 247.250 99.750 244.667 99.750 L 242.083 99.750 242.040 84.250 C 242.017 75.725,242.034 68.654,242.078 68.537 C 242.140 68.375,242.777 68.336,244.788 68.371 L 247.417 68.417 248.860 71.250 M288.884 79.125 C 288.950 91.635,289.001 92.082,290.535 93.651 C 292.124 95.276,295.510 95.306,297.287 93.710 C 298.931 92.235,299.163 90.267,299.165 77.788 L 299.167 68.325 301.875 68.371 L 304.583 68.417 304.634 79.250 C 304.669 86.852,304.628 90.357,304.495 91.000 C 304.169 92.585,303.828 93.806,303.577 94.286 C 303.444 94.541,303.335 94.804,303.334 94.869 C 303.330 95.381,301.501 97.656,300.531 98.356 C 297.765 100.351,293.009 100.951,289.917 99.695 C 286.297 98.224,284.745 96.244,283.490 91.500 C 283.278 90.698,283.044 69.512,283.239 68.736 L 283.340 68.333 286.083 68.333 L 288.826 68.333 288.884 79.125 M323.125 68.502 C 323.973 68.591,324.798 68.730,324.958 68.812 C 325.119 68.893,325.736 69.175,326.330 69.438 C 332.485 72.167,332.975 82.147,327.155 86.252 C 325.245 87.599,323.424 87.966,318.544 87.986 L 315.171 88.000 315.127 93.875 L 315.083 99.750 312.333 99.750 L 309.583 99.750 309.540 84.250 C 309.517 75.725,309.533 68.656,309.577 68.542 C 309.676 68.282,320.731 68.249,323.125 68.502 M129.333 89.492 C 129.333 110.191,129.300 109.323,130.132 110.450 C 131.705 112.577,135.346 112.004,136.409 109.461 C 136.804 108.514,136.801 70.658,136.405 70.262 C 136.184 70.041,135.611 70.000,132.738 70.000 L 129.333 70.000 129.333 89.492 M315.206 78.125 L 315.250 82.583 318.083 82.632 C 323.689 82.728,325.498 81.649,325.501 78.205 C 325.504 74.728,323.894 73.667,318.617 73.667 L 315.161 73.667 315.206 78.125 M120.822 77.984 C 121.275 78.620,121.267 79.455,120.804 79.948 L 120.442 80.333 104.497 80.333 C 89.452 80.333,88.537 80.317,88.285 80.038 C 87.642 79.328,87.648 78.470,88.302 77.806 C 88.564 77.540,89.686 77.519,104.530 77.510 L 120.477 77.500 120.822 77.984 M120.737 84.487 C 121.323 85.038,121.333 86.016,120.758 86.591 L 120.348 87.000 101.216 86.995 C 80.960 86.989,81.788 87.021,81.361 86.219 C 80.933 85.416,81.394 84.276,82.212 84.116 C 82.416 84.076,91.071 84.052,101.445 84.063 L 120.307 84.083 120.737 84.487 M120.809 91.167 C 121.310 91.769,121.273 92.621,120.719 93.199 L 120.271 93.667 101.206 93.667 L 82.141 93.667 81.654 93.179 C 80.998 92.524,80.999 91.809,81.656 91.152 L 82.145 90.663 101.304 90.706 L 120.462 90.750 120.809 91.167 M97.537 97.341 C 98.756 97.679,99.100 99.106,98.154 99.902 L 97.641 100.333 89.917 100.333 L 82.192 100.333 81.662 99.803 C 80.769 98.910,81.131 97.623,82.357 97.333 C 83.214 97.131,96.805 97.137,97.537 97.341 M120.025 97.337 C 121.115 97.640,121.167 97.855,121.167 102.083 C 121.167 107.486,122.032 107.000,112.417 107.000 C 102.796 107.000,103.667 107.493,103.667 102.043 C 103.667 97.833,103.709 97.642,104.716 97.351 C 105.459 97.136,119.255 97.124,120.025 97.337 M106.667 102.083 L 106.667 103.833 112.417 103.833 L 118.167 103.833 118.167 102.083 L 118.167 100.333 112.417 100.333 L 106.667 100.333 106.667 102.083 M98.265 104.384 C 98.952 105.183,98.754 106.274,97.837 106.748 C 97.100 107.129,82.894 107.124,82.090 106.742 C 81.171 106.306,80.894 105.225,81.503 104.450 C 81.971 103.856,81.726 103.872,90.223 103.895 L 97.862 103.917 98.265 104.384 " stroke="none" fill="#f4f4f4" fill-rule="evenodd"></path><path id="path2" d="M128.708 40.792 C 169.477 40.815,236.190 40.815,276.958 40.792 C 317.727 40.769,284.371 40.750,202.833 40.750 C 121.296 40.750,87.940 40.769,128.708 40.792 M51.324 42.458 L 50.750 43.083 51.375 42.509 C 51.719 42.193,52.000 41.912,52.000 41.884 C 52.000 41.757,51.859 41.877,51.324 42.458 M353.667 41.885 C 353.667 41.914,353.910 42.158,354.208 42.427 L 354.750 42.917 354.260 42.375 C 353.804 41.870,353.667 41.757,353.667 41.885 M355.749 82.917 C 355.749 103.633,355.768 112.084,355.792 101.695 C 355.815 91.306,355.815 74.356,355.792 64.028 C 355.768 53.700,355.749 62.200,355.749 82.917 M76.000 51.341 C 75.817 51.464,75.885 51.480,76.250 51.398 C 76.863 51.261,76.996 51.166,76.569 51.169 C 76.394 51.171,76.137 51.248,76.000 51.341 M73.438 54.208 C 73.302 54.716,73.338 108.982,73.475 109.468 C 73.535 109.680,73.583 97.249,73.583 81.843 C 73.583 66.438,73.573 53.833,73.561 53.833 C 73.549 53.833,73.494 54.002,73.438 54.208 M76.345 54.272 C 76.155 54.514,76.000 54.795,76.001 54.897 C 76.001 55.000,76.145 54.848,76.320 54.560 C 76.496 54.272,76.739 53.997,76.861 53.948 C 77.002 53.892,77.012 53.855,76.887 53.846 C 76.779 53.839,76.535 54.031,76.345 54.272 M126.333 81.800 L 126.417 109.083 126.459 81.926 C 126.482 66.989,126.445 54.711,126.376 54.642 C 126.306 54.573,126.287 66.794,126.333 81.800 M129.036 60.792 C 129.016 64.206,129.056 67.000,129.125 67.000 C 129.239 67.000,129.236 62.234,129.119 56.750 C 129.094 55.558,129.056 57.377,129.036 60.792 M91.708 59.125 C 96.910 59.149,105.423 59.149,110.625 59.125 C 115.827 59.101,111.571 59.081,101.167 59.081 C 90.763 59.081,86.506 59.101,91.708 59.125 M81.713 59.375 C 81.429 59.742,81.299 60.096,81.571 59.760 C 81.715 59.582,81.927 59.377,82.042 59.304 C 82.178 59.218,82.185 59.171,82.062 59.169 C 81.959 59.168,81.802 59.260,81.713 59.375 M92.625 61.792 C 97.323 61.816,105.010 61.816,109.708 61.792 C 114.406 61.767,110.563 61.747,101.167 61.747 C 91.771 61.747,87.927 61.767,92.625 61.792 M118.333 65.784 C 118.287 67.910,118.308 69.593,118.378 69.522 C 118.449 69.451,118.486 67.711,118.461 65.655 L 118.416 61.917 118.333 65.784 M137.872 67.850 C 138.123 68.037,138.523 68.429,138.761 68.720 C 138.999 69.012,139.115 69.092,139.020 68.898 C 138.836 68.526,137.739 67.496,137.536 67.505 C 137.470 67.508,137.622 67.664,137.872 67.850 M171.500 68.167 C 171.170 68.272,171.153 68.300,171.417 68.300 C 171.600 68.300,171.938 68.240,172.167 68.167 C 172.497 68.061,172.514 68.033,172.250 68.033 C 172.067 68.033,171.729 68.093,171.500 68.167 M176.333 68.167 C 176.903 68.349,177.341 68.349,176.917 68.167 C 176.733 68.088,176.433 68.026,176.250 68.028 C 175.982 68.032,175.998 68.059,176.333 68.167 M224.333 68.167 C 223.998 68.274,223.982 68.301,224.250 68.305 C 224.433 68.308,224.733 68.245,224.917 68.167 C 225.341 67.984,224.903 67.984,224.333 68.167 M191.203 70.785 L 191.167 73.153 194.401 73.202 C 196.180 73.228,197.600 73.194,197.558 73.125 C 197.515 73.056,196.099 73.000,194.412 73.000 L 191.343 73.000 191.291 70.708 L 191.240 68.417 191.203 70.785 M242.167 84.083 C 242.167 92.654,242.223 99.667,242.292 99.667 C 242.360 99.667,242.417 92.654,242.417 84.083 C 242.417 75.512,242.360 68.500,242.292 68.500 C 242.223 68.500,242.167 75.512,242.167 84.083 M257.910 68.708 C 257.866 68.823,257.850 73.342,257.873 78.750 L 257.917 88.583 258.000 78.542 C 258.046 73.019,258.062 68.500,258.036 68.500 C 258.011 68.500,257.954 68.594,257.910 68.708 M283.410 68.708 C 283.366 68.823,283.350 73.379,283.373 78.833 L 283.417 88.750 283.500 78.625 C 283.546 73.056,283.562 68.500,283.536 68.500 C 283.511 68.500,283.454 68.594,283.410 68.708 M288.667 79.217 L 288.750 89.917 288.793 79.343 C 288.817 73.527,288.779 68.712,288.710 68.643 C 288.640 68.573,288.621 73.332,288.667 79.217 M299.245 78.250 C 299.245 83.658,299.266 85.847,299.292 83.113 C 299.317 80.379,299.317 75.954,299.292 73.280 C 299.266 70.605,299.245 72.842,299.245 78.250 M322.181 68.561 C 322.219 68.594,322.662 68.664,323.167 68.716 C 323.758 68.778,323.936 68.762,323.667 68.672 C 323.254 68.534,322.047 68.444,322.181 68.561 M209.536 70.792 L 209.500 73.000 206.514 73.000 C 204.871 73.000,203.409 73.046,203.264 73.101 C 202.980 73.210,202.842 95.000,203.125 95.000 C 203.194 95.000,203.250 90.106,203.250 84.125 L 203.250 73.250 206.382 73.205 C 208.743 73.170,209.533 73.107,209.595 72.945 C 209.641 72.828,209.654 71.798,209.625 70.657 L 209.572 68.583 209.536 70.792 M262.913 84.083 C 262.913 92.608,262.934 96.071,262.958 91.779 C 262.983 87.487,262.983 80.512,262.958 76.279 C 262.934 72.046,262.913 75.558,262.913 84.083 M167.900 69.812 C 167.543 70.075,167.025 70.542,166.750 70.850 C 166.395 71.246,166.492 71.192,167.083 70.662 C 167.542 70.252,168.104 69.789,168.333 69.633 C 168.563 69.478,168.705 69.347,168.650 69.342 C 168.595 69.337,168.258 69.549,167.900 69.812 M180.083 69.696 C 180.358 69.906,180.928 70.379,181.348 70.747 C 181.957 71.280,181.930 71.238,181.220 70.546 C 180.728 70.067,180.159 69.594,179.955 69.495 C 179.723 69.382,179.771 69.458,180.083 69.696 M220.708 69.822 C 220.337 70.091,219.980 70.397,219.916 70.501 C 219.826 70.647,221.130 69.731,221.486 69.398 C 221.744 69.157,221.269 69.416,220.708 69.822 M129.111 69.778 C 128.959 69.930,128.975 108.869,129.128 109.109 C 129.195 109.215,129.230 100.423,129.206 89.571 L 129.163 69.840 132.623 69.791 L 136.083 69.743 132.653 69.705 C 130.766 69.684,129.172 69.717,129.111 69.778 M234.000 70.750 C 234.311 71.071,234.603 71.333,234.649 71.333 C 234.695 71.333,234.478 71.071,234.167 70.750 C 233.856 70.429,233.564 70.167,233.518 70.167 C 233.472 70.167,233.689 70.429,234.000 70.750 M328.523 71.250 C 328.831 71.617,329.257 72.142,329.468 72.417 C 329.679 72.692,329.776 72.759,329.683 72.565 C 329.590 72.372,329.164 71.847,328.738 71.399 C 328.226 70.862,328.153 70.811,328.523 71.250 M139.581 89.500 C 139.581 99.813,139.601 104.031,139.625 98.875 C 139.649 93.719,139.649 85.281,139.625 80.125 C 139.601 74.969,139.581 79.188,139.581 89.500 M136.914 89.667 C 136.914 99.979,136.934 104.198,136.958 99.042 C 136.983 93.885,136.983 85.448,136.958 80.292 C 136.934 75.135,136.914 79.354,136.914 89.667 M81.942 72.208 C 81.985 72.277,90.636 72.333,101.167 72.333 C 111.698 72.333,120.348 72.277,120.391 72.208 C 120.433 72.140,111.782 72.083,101.167 72.083 C 90.551 72.083,81.900 72.140,81.942 72.208 M173.708 72.948 C 173.869 72.990,174.131 72.990,174.292 72.948 C 174.452 72.906,174.321 72.872,174.000 72.872 C 173.679 72.872,173.548 72.906,173.708 72.948 M227.681 73.060 C 227.719 73.093,227.975 73.170,228.250 73.232 C 228.615 73.313,228.683 73.298,228.500 73.174 C 228.275 73.022,227.513 72.916,227.681 73.060 M228.917 73.440 C 229.765 74.193,230.078 74.413,229.751 74.026 C 229.569 73.811,229.270 73.559,229.085 73.464 C 228.901 73.370,228.825 73.359,228.917 73.440 M314.934 73.597 C 314.879 73.742,314.833 75.839,314.833 78.258 C 314.833 83.537,314.450 83.013,318.281 82.966 L 321.083 82.932 318.083 82.831 C 316.433 82.776,315.063 82.716,315.039 82.699 C 315.015 82.681,315.015 80.623,315.039 78.125 L 315.083 73.583 318.250 73.494 L 321.417 73.406 318.226 73.369 C 315.449 73.338,315.023 73.367,314.934 73.597 M321.847 73.559 C 321.885 73.592,322.179 73.667,322.500 73.726 C 322.910 73.801,323.009 73.784,322.833 73.669 C 322.607 73.521,321.682 73.418,321.847 73.559 M177.691 74.594 C 178.111 75.058,178.543 75.601,178.650 75.802 C 178.757 76.003,178.974 76.158,179.131 76.147 C 179.365 76.132,179.370 76.115,179.157 76.058 C 179.015 76.020,178.777 75.784,178.628 75.536 C 178.480 75.287,178.036 74.783,177.643 74.417 L 176.928 73.750 177.691 74.594 M323.833 74.219 C 323.833 74.248,324.077 74.491,324.375 74.760 L 324.917 75.250 324.427 74.708 C 323.971 74.203,323.833 74.090,323.833 74.219 M164.724 76.250 C 164.724 76.983,164.754 77.263,164.789 76.871 C 164.824 76.479,164.824 75.879,164.788 75.537 C 164.752 75.196,164.723 75.517,164.724 76.250 M230.840 75.250 C 230.840 75.342,230.994 75.604,231.182 75.833 C 231.408 76.110,231.465 76.138,231.350 75.917 C 231.069 75.373,230.838 75.072,230.840 75.250 M170.048 76.083 C 170.049 76.542,170.081 76.709,170.120 76.456 C 170.158 76.203,170.157 75.828,170.117 75.623 C 170.078 75.418,170.046 75.625,170.048 76.083 M231.645 76.542 C 231.898 76.864,232.258 76.923,232.415 76.669 C 232.474 76.574,232.407 76.546,232.257 76.604 C 232.113 76.659,231.865 76.602,231.706 76.477 C 231.444 76.272,231.438 76.278,231.645 76.542 M331.058 78.000 C 331.058 78.779,331.087 79.098,331.122 78.708 C 331.157 78.319,331.157 77.681,331.122 77.292 C 331.087 76.902,331.058 77.221,331.058 78.000 M215.262 78.595 C 215.201 78.839,215.183 79.071,215.222 79.111 C 215.261 79.150,215.343 78.982,215.405 78.738 C 215.466 78.494,215.484 78.262,215.445 78.223 C 215.406 78.183,215.323 78.351,215.262 78.595 M220.583 79.667 C 220.520 79.955,220.503 80.225,220.545 80.268 C 220.588 80.310,220.671 80.105,220.729 79.813 C 220.868 79.118,220.733 78.983,220.583 79.667 M330.856 79.833 C 330.841 80.063,330.790 80.438,330.743 80.667 L 330.657 81.083 330.836 80.673 C 330.935 80.447,330.986 80.072,330.949 79.840 L 330.883 79.417 330.856 79.833 M120.525 79.875 C 120.363 80.038,116.845 80.102,104.533 80.168 L 88.750 80.253 104.440 80.293 C 119.827 80.333,120.137 80.327,120.523 80.006 C 120.740 79.825,120.875 79.675,120.825 79.672 C 120.775 79.669,120.640 79.760,120.525 79.875 M325.082 80.504 C 325.019 80.703,324.657 81.178,324.279 81.558 C 323.887 81.952,323.769 82.135,324.004 81.983 C 324.485 81.671,325.439 80.383,325.295 80.240 C 325.241 80.186,325.145 80.305,325.082 80.504 M214.756 81.423 C 214.692 81.939,214.674 82.396,214.716 82.438 C 214.758 82.481,214.846 82.093,214.910 81.577 C 214.975 81.061,214.993 80.604,214.951 80.562 C 214.908 80.519,214.821 80.907,214.756 81.423 M220.218 82.583 C 220.219 83.133,220.250 83.338,220.287 83.039 C 220.325 82.739,220.324 82.289,220.286 82.039 C 220.248 81.788,220.217 82.033,220.218 82.583 M178.333 82.243 C 178.333 82.289,178.633 82.480,179.000 82.667 C 179.367 82.854,179.667 82.969,179.667 82.923 C 179.667 82.878,179.367 82.687,179.000 82.500 C 178.633 82.313,178.333 82.197,178.333 82.243 M179.833 83.052 C 179.833 83.093,180.377 83.522,181.042 84.006 C 181.706 84.491,182.156 84.773,182.041 84.634 C 181.807 84.351,179.833 82.937,179.833 83.052 M329.110 84.042 C 328.584 84.774,328.567 84.822,329.002 84.333 C 329.493 83.784,329.910 83.167,329.791 83.167 C 329.762 83.167,329.455 83.560,329.110 84.042 M226.407 83.883 C 226.361 84.002,226.344 85.146,226.370 86.425 L 226.417 88.750 229.116 88.796 L 231.815 88.842 231.882 89.505 L 231.949 90.169 231.933 89.460 L 231.917 88.750 229.208 88.704 L 226.500 88.658 226.500 86.248 L 226.500 83.838 231.958 83.792 L 237.417 83.745 231.953 83.706 C 227.600 83.675,226.473 83.711,226.407 83.883 M91.625 84.292 C 96.873 84.316,105.460 84.316,110.708 84.292 C 115.956 84.267,111.662 84.247,101.167 84.247 C 90.671 84.247,86.377 84.267,91.625 84.292 M220.220 85.500 C 220.220 86.096,220.250 86.340,220.287 86.042 C 220.324 85.744,220.324 85.256,220.287 84.958 C 220.250 84.660,220.220 84.904,220.220 85.500 M182.833 85.583 C 183.144 85.904,183.436 86.167,183.482 86.167 C 183.528 86.167,183.311 85.904,183.000 85.583 C 182.689 85.262,182.397 85.000,182.351 85.000 C 182.305 85.000,182.522 85.262,182.833 85.583 M82.224 86.872 C 82.330 86.940,90.892 86.978,101.250 86.958 C 111.608 86.938,117.683 86.902,114.750 86.878 C 101.053 86.765,82.051 86.762,82.224 86.872 M214.872 87.333 C 214.872 87.654,214.906 87.785,214.948 87.625 C 214.990 87.465,214.990 87.202,214.948 87.042 C 214.906 86.881,214.872 87.013,214.872 87.333 M324.083 87.333 C 323.873 87.424,323.842 87.477,324.000 87.477 C 324.137 87.477,324.400 87.412,324.583 87.333 C 324.793 87.243,324.824 87.190,324.667 87.190 C 324.529 87.190,324.267 87.255,324.083 87.333 M316.792 87.791 C 317.823 87.820,319.510 87.820,320.542 87.791 C 321.573 87.762,320.729 87.738,318.667 87.738 C 316.604 87.738,315.760 87.762,316.792 87.791 M178.333 88.583 C 178.644 88.904,178.936 89.167,178.982 89.167 C 179.028 89.167,178.811 88.904,178.500 88.583 C 178.189 88.263,177.897 88.000,177.851 88.000 C 177.805 88.000,178.022 88.263,178.333 88.583 M314.908 93.833 C 314.908 97.087,314.931 98.419,314.958 96.792 C 314.985 95.165,314.985 92.502,314.958 90.875 C 314.931 89.248,314.908 90.579,314.908 93.833 M184.602 88.583 C 184.739 89.196,184.834 89.329,184.831 88.903 C 184.829 88.727,184.752 88.471,184.659 88.333 C 184.536 88.151,184.520 88.218,184.602 88.583 M257.538 88.824 C 257.865 89.378,258.167 89.450,258.164 88.972 C 258.162 88.663,258.129 88.634,258.004 88.833 C 257.869 89.047,257.808 89.035,257.572 88.749 C 257.310 88.432,257.308 88.435,257.538 88.824 M215.195 89.250 C 215.192 89.433,215.255 89.733,215.333 89.917 C 215.516 90.341,215.516 89.903,215.333 89.333 C 215.226 88.998,215.199 88.982,215.195 89.250 M304.379 89.833 C 304.379 90.246,304.411 90.415,304.451 90.208 C 304.491 90.002,304.491 89.665,304.451 89.458 C 304.411 89.252,304.379 89.421,304.379 89.833 M237.097 90.347 C 237.035 90.819,237.017 91.239,237.058 91.280 C 237.099 91.321,237.185 90.970,237.250 90.500 C 237.315 90.030,237.332 89.610,237.289 89.567 C 237.246 89.524,237.160 89.875,237.097 90.347 M179.550 91.333 C 179.550 91.837,179.581 92.044,179.619 91.792 C 179.658 91.540,179.658 91.127,179.619 90.875 C 179.581 90.623,179.550 90.829,179.550 91.333 M231.689 90.778 C 231.677 90.977,231.624 91.277,231.571 91.445 C 231.480 91.734,231.485 91.734,231.665 91.454 C 231.770 91.290,231.823 90.990,231.784 90.787 C 231.712 90.417,231.712 90.417,231.689 90.778 M298.762 91.095 C 298.701 91.339,298.683 91.571,298.722 91.611 C 298.761 91.650,298.843 91.482,298.905 91.238 C 298.966 90.994,298.984 90.762,298.945 90.723 C 298.906 90.683,298.823 90.851,298.762 91.095 M304.205 91.167 C 304.205 91.487,304.240 91.619,304.282 91.458 C 304.323 91.298,304.323 91.035,304.282 90.875 C 304.240 90.715,304.205 90.846,304.205 91.167 M81.696 91.219 C 81.496 91.431,81.333 91.666,81.333 91.742 C 81.333 91.817,81.489 91.681,81.679 91.439 L 82.024 91.000 101.167 91.000 L 120.309 91.000 120.655 91.439 C 120.845 91.681,121.000 91.796,121.000 91.696 C 121.000 90.789,122.021 90.833,101.164 90.833 L 82.058 90.833 81.696 91.219 M283.705 91.500 C 283.705 91.821,283.740 91.952,283.782 91.792 C 283.823 91.631,283.823 91.369,283.782 91.208 C 283.740 91.048,283.705 91.179,283.705 91.500 M163.669 92.347 C 163.671 92.569,163.746 92.862,163.836 93.000 C 163.951 93.176,163.968 93.077,163.892 92.667 C 163.761 91.948,163.666 91.812,163.669 92.347 M184.595 93.429 C 184.534 93.673,184.516 93.905,184.555 93.944 C 184.594 93.983,184.677 93.816,184.738 93.571 C 184.799 93.327,184.817 93.095,184.778 93.056 C 184.739 93.017,184.657 93.184,184.595 93.429 M223.167 93.583 C 223.478 93.904,223.770 94.167,223.815 94.167 C 223.861 94.167,223.644 93.904,223.333 93.583 C 223.022 93.263,222.730 93.000,222.685 93.000 C 222.639 93.000,222.856 93.263,223.167 93.583 M170.820 93.561 C 171.042 93.834,171.667 94.247,171.667 94.121 C 171.667 94.089,171.423 93.884,171.125 93.666 C 170.790 93.421,170.673 93.381,170.820 93.561 M178.250 94.112 C 177.883 94.440,177.733 94.632,177.917 94.537 C 178.226 94.377,179.146 93.491,178.987 93.507 C 178.948 93.511,178.617 93.783,178.250 94.112 M229.917 94.112 C 229.550 94.440,229.400 94.632,229.583 94.537 C 229.892 94.377,230.813 93.491,230.654 93.507 C 230.615 93.511,230.283 93.783,229.917 94.112 M290.653 94.061 C 290.875 94.334,291.500 94.747,291.500 94.621 C 291.500 94.589,291.256 94.384,290.958 94.166 C 290.623 93.921,290.507 93.881,290.653 94.061 M191.233 97.333 C 191.233 98.662,191.259 99.206,191.290 98.542 C 191.322 97.877,191.322 96.790,191.290 96.125 C 191.259 95.460,191.233 96.004,191.233 97.333 M209.566 97.250 C 209.566 98.533,209.592 99.036,209.624 98.368 C 209.656 97.699,209.655 96.649,209.623 96.034 C 209.591 95.420,209.565 95.967,209.566 97.250 M226.458 95.121 C 226.756 95.158,227.244 95.158,227.542 95.121 C 227.840 95.084,227.596 95.053,227.000 95.053 C 226.404 95.053,226.160 95.084,226.458 95.121 M293.458 95.121 C 293.756 95.158,294.244 95.158,294.542 95.121 C 294.840 95.084,294.596 95.053,294.000 95.053 C 293.404 95.053,293.160 95.084,293.458 95.121 M165.500 95.822 C 165.500 95.969,167.314 97.748,167.371 97.657 C 167.396 97.616,166.985 97.163,166.458 96.650 C 165.931 96.136,165.500 95.763,165.500 95.822 M182.500 96.987 C 181.904 97.602,181.229 98.233,181.000 98.390 L 180.583 98.676 181.000 98.477 C 181.481 98.247,183.289 96.561,183.522 96.126 C 183.744 95.711,183.705 95.743,182.500 96.987 M286.493 97.375 C 287.184 98.111,287.333 98.243,287.333 98.118 C 287.333 98.091,286.977 97.735,286.542 97.326 L 285.750 96.583 286.493 97.375 M82.224 97.461 C 82.118 97.528,85.580 97.583,89.917 97.583 C 94.253 97.583,97.715 97.528,97.609 97.461 C 97.503 97.394,94.042 97.338,89.917 97.338 C 85.792 97.338,82.330 97.394,82.224 97.461 M104.724 97.461 C 104.618 97.528,108.080 97.583,112.417 97.583 C 116.753 97.583,120.215 97.528,120.109 97.461 C 120.003 97.394,116.542 97.338,112.417 97.338 C 108.292 97.338,104.830 97.394,104.724 97.461 M219.782 97.685 C 219.982 97.904,220.395 98.226,220.698 98.401 C 221.392 98.800,221.299 98.699,220.250 97.912 C 219.759 97.544,219.567 97.450,219.782 97.685 M233.536 97.792 C 233.138 98.181,233.131 98.200,233.492 97.919 C 234.203 97.365,234.237 97.333,234.119 97.333 C 234.057 97.333,233.794 97.540,233.536 97.792 M98.400 98.739 C 98.400 99.070,98.261 99.481,98.075 99.700 L 97.750 100.083 98.110 99.779 C 98.529 99.426,98.736 98.761,98.538 98.407 C 98.444 98.240,98.400 98.346,98.400 98.739 M171.583 99.833 C 171.767 99.912,172.029 99.977,172.167 99.977 C 172.324 99.977,172.293 99.924,172.083 99.833 C 171.900 99.755,171.637 99.690,171.500 99.690 C 171.342 99.690,171.373 99.743,171.583 99.833 M177.250 99.833 C 176.825 100.016,177.263 100.016,177.833 99.833 C 178.168 99.726,178.185 99.699,177.917 99.695 C 177.733 99.692,177.433 99.755,177.250 99.833 M223.750 99.833 C 223.933 99.912,224.196 99.977,224.333 99.977 C 224.491 99.977,224.460 99.924,224.250 99.833 C 224.067 99.755,223.804 99.690,223.667 99.690 C 223.509 99.690,223.540 99.743,223.750 99.833 M296.583 99.833 C 296.373 99.924,296.342 99.977,296.500 99.977 C 296.637 99.977,296.900 99.912,297.083 99.833 C 297.293 99.743,297.324 99.690,297.167 99.690 C 297.029 99.690,296.767 99.755,296.583 99.833 M86.136 100.125 C 88.274 100.151,91.724 100.151,93.803 100.125 C 95.882 100.098,94.133 100.077,89.917 100.077 C 85.700 100.077,83.999 100.098,86.136 100.125 M106.533 100.200 C 106.237 100.496,106.261 103.732,106.561 103.982 C 106.724 104.117,108.451 104.159,112.603 104.127 L 118.417 104.083 118.465 102.417 C 118.492 101.500,118.472 100.581,118.421 100.375 L 118.327 100.000 112.530 100.000 C 108.244 100.000,106.681 100.052,106.533 100.200 M225.375 100.115 C 225.535 100.157,225.798 100.157,225.958 100.115 C 226.119 100.073,225.987 100.039,225.667 100.039 C 225.346 100.039,225.215 100.073,225.375 100.115 M292.375 100.115 C 292.535 100.157,292.798 100.157,292.958 100.115 C 293.119 100.073,292.987 100.039,292.667 100.039 C 292.346 100.039,292.215 100.073,292.375 100.115 M118.297 102.127 L 118.344 104.004 112.464 103.960 L 106.583 103.917 106.535 102.262 C 106.509 101.352,106.526 100.507,106.573 100.385 C 106.642 100.204,107.745 100.171,112.454 100.206 L 118.250 100.250 118.297 102.127 M81.960 104.179 C 81.801 104.272,81.584 104.513,81.479 104.715 C 81.322 105.016,81.367 104.999,81.719 104.625 L 82.151 104.167 89.890 104.167 C 98.640 104.167,98.400 104.132,98.400 105.398 C 98.400 105.807,98.445 105.925,98.538 105.759 C 98.749 105.383,98.511 104.700,98.042 104.331 C 97.562 103.953,82.590 103.812,81.960 104.179 M139.271 109.521 C 139.212 109.814,139.195 110.084,139.233 110.122 C 139.271 110.160,139.353 109.955,139.417 109.667 C 139.480 109.379,139.497 109.108,139.455 109.066 C 139.412 109.023,139.329 109.228,139.271 109.521 M135.656 110.681 C 135.237 111.131,134.946 111.500,135.009 111.500 C 135.138 111.500,136.500 110.057,136.500 109.920 C 136.500 109.780,136.454 109.821,135.656 110.681 M130.083 110.807 C 130.264 111.022,130.564 111.275,130.748 111.369 C 131.102 111.550,131.051 111.495,130.251 110.831 C 129.770 110.431,129.764 110.430,130.083 110.807 M131.254 111.650 C 131.343 111.738,131.642 111.863,131.917 111.928 C 132.562 112.081,132.417 111.939,131.670 111.687 C 131.352 111.579,131.164 111.563,131.254 111.650 M134.000 111.764 C 133.454 111.988,133.449 111.997,133.917 111.906 C 134.192 111.853,134.488 111.740,134.575 111.655 C 134.775 111.460,134.717 111.471,134.000 111.764 M137.491 112.792 L 136.917 113.417 137.542 112.842 C 137.885 112.526,138.167 112.245,138.167 112.217 C 138.167 112.090,138.026 112.210,137.491 112.792 M75.667 113.061 C 75.667 113.106,75.892 113.304,76.167 113.500 C 76.442 113.696,76.667 113.819,76.667 113.773 C 76.667 113.727,76.442 113.529,76.167 113.333 C 75.892 113.138,75.667 113.015,75.667 113.061 M78.417 114.500 C 78.600 114.579,78.862 114.643,79.000 114.643 C 79.158 114.643,79.127 114.590,78.917 114.500 C 78.733 114.421,78.471 114.357,78.333 114.357 C 78.176 114.357,78.207 114.410,78.417 114.500 M134.000 114.500 C 133.665 114.607,133.649 114.634,133.917 114.638 C 134.100 114.641,134.400 114.579,134.583 114.500 C 135.008 114.317,134.570 114.317,134.000 114.500 M49.862 120.417 C 49.859 120.600,49.921 120.900,50.000 121.083 C 50.183 121.508,50.183 121.070,50.000 120.500 C 49.893 120.165,49.866 120.149,49.862 120.417 M50.615 122.463 C 50.778 122.764,51.172 123.251,51.490 123.547 L 52.069 124.083 51.493 123.415 C 51.176 123.048,50.782 122.560,50.618 122.332 C 50.329 121.931,50.329 121.936,50.615 122.463 M354.598 122.813 C 354.351 123.168,353.873 123.655,353.535 123.896 C 353.197 124.137,353.007 124.333,353.112 124.333 C 353.352 124.333,354.730 123.004,354.987 122.525 C 355.291 121.956,355.086 122.108,354.598 122.813 M128.625 125.125 C 169.440 125.148,236.227 125.148,277.042 125.125 C 317.856 125.102,284.462 125.083,202.833 125.083 C 121.204 125.083,87.810 125.102,128.625 125.125 " stroke="none" fill="#a4a4d4" fill-rule="evenodd"></path><path id="path3" d="M51.491 42.458 L 50.917 43.083 51.581 42.500 C 51.947 42.179,52.278 41.898,52.318 41.875 C 52.357 41.852,52.316 41.833,52.227 41.833 C 52.138 41.833,51.807 42.115,51.491 42.458 M49.915 82.917 C 49.915 103.267,49.935 111.567,49.958 101.362 C 49.982 91.156,49.982 74.506,49.958 64.362 C 49.935 54.217,49.915 62.567,49.915 82.917 M89.055 51.125 C 95.822 51.149,106.847 51.149,113.555 51.125 C 120.262 51.101,114.725 51.081,101.250 51.081 C 87.775 51.081,82.287 51.101,89.055 51.125 M89.125 53.958 C 95.748 53.982,106.585 53.982,113.208 53.958 C 119.831 53.934,114.412 53.914,101.167 53.914 C 87.921 53.914,82.502 53.934,89.125 53.958 M73.248 81.583 C 73.248 96.525,73.268 102.613,73.292 95.112 C 73.316 87.611,73.316 75.386,73.292 67.945 C 73.268 60.505,73.248 66.642,73.248 81.583 M76.248 81.750 C 76.248 96.600,76.268 102.650,76.292 95.195 C 76.316 87.740,76.316 75.590,76.292 68.195 C 76.268 60.800,76.248 66.900,76.248 81.750 M129.242 60.917 C 129.242 64.217,129.264 65.590,129.291 63.969 C 129.319 62.348,129.319 59.648,129.291 57.969 C 129.264 56.290,129.242 57.617,129.242 60.917 M91.708 58.958 C 96.910 58.983,105.423 58.983,110.625 58.958 C 115.827 58.934,111.571 58.914,101.167 58.914 C 90.763 58.914,86.506 58.934,91.708 58.958 M81.242 65.667 C 81.242 68.921,81.264 70.252,81.291 68.625 C 81.319 66.998,81.319 64.335,81.291 62.708 C 81.264 61.081,81.242 62.413,81.242 65.667 M84.075 62.045 C 84.030 62.162,84.015 63.906,84.042 65.921 L 84.090 69.583 84.128 65.792 L 84.167 62.000 101.164 62.000 L 118.160 62.000 118.210 65.750 L 118.260 69.500 118.255 65.708 L 118.250 61.917 101.203 61.874 C 87.487 61.840,84.141 61.873,84.075 62.045 M135.847 66.893 C 135.885 66.926,136.142 67.003,136.417 67.065 C 136.782 67.147,136.849 67.131,136.667 67.008 C 136.442 66.855,135.680 66.749,135.847 66.893 M138.000 67.719 C 138.000 67.748,138.244 67.991,138.542 68.260 L 139.083 68.750 138.594 68.208 C 138.138 67.703,138.000 67.590,138.000 67.719 M172.667 67.834 C 172.346 67.902,172.796 67.919,173.667 67.872 C 174.537 67.825,175.281 67.760,175.319 67.727 C 175.444 67.619,173.266 67.707,172.667 67.834 M226.014 67.727 C 226.052 67.760,226.758 67.825,227.583 67.871 C 228.408 67.917,228.858 67.899,228.583 67.831 C 228.077 67.704,225.886 67.616,226.014 67.727 M195.804 68.458 C 198.400 68.484,202.600 68.484,205.137 68.458 C 207.674 68.432,205.550 68.411,200.417 68.411 C 195.283 68.411,193.207 68.432,195.804 68.458 M242.077 68.542 C 241.871 69.081,242.086 99.723,242.296 99.765 C 242.413 99.789,242.431 99.770,242.338 99.724 C 242.223 99.667,242.167 94.537,242.167 84.074 L 242.167 68.508 244.792 68.458 L 247.417 68.408 244.786 68.370 C 242.808 68.343,242.137 68.385,242.077 68.542 M259.133 68.457 C 259.894 68.488,261.094 68.488,261.800 68.457 C 262.506 68.426,261.883 68.401,260.417 68.401 C 258.950 68.401,258.372 68.427,259.133 68.457 M284.717 68.458 C 285.523 68.488,286.798 68.488,287.550 68.457 C 288.302 68.426,287.642 68.401,286.083 68.402 C 284.525 68.402,283.910 68.427,284.717 68.458 M301.796 68.456 L 304.509 68.508 304.463 79.828 C 304.437 86.054,304.473 90.994,304.543 90.806 C 304.612 90.618,304.650 85.504,304.626 79.441 L 304.583 68.417 301.833 68.410 L 299.083 68.403 301.796 68.456 M309.609 68.458 C 309.538 68.572,314.287 68.569,320.000 68.453 C 321.237 68.427,319.423 68.390,315.968 68.370 C 312.513 68.350,309.651 68.390,309.609 68.458 M283.245 78.667 C 283.245 84.212,283.266 86.481,283.292 83.708 C 283.317 80.935,283.317 76.398,283.292 73.625 C 283.266 70.852,283.245 73.121,283.245 78.667 M129.244 70.042 C 129.200 70.156,129.184 78.950,129.208 89.583 L 129.251 108.917 129.292 89.452 L 129.333 69.987 132.818 70.035 C 134.734 70.062,136.267 70.027,136.224 69.958 C 136.082 69.728,129.332 69.808,129.244 70.042 M234.083 70.667 C 234.535 71.125,234.942 71.500,234.987 71.500 C 235.033 71.500,234.701 71.125,234.250 70.667 C 233.799 70.208,233.392 69.833,233.346 69.833 C 233.300 69.833,233.632 70.208,234.083 70.667 M139.583 89.599 C 139.583 100.281,139.632 108.847,139.692 108.635 C 139.837 108.120,139.841 70.829,139.697 70.465 C 139.634 70.308,139.583 78.918,139.583 89.599 M328.493 71.042 C 328.902 71.477,329.258 71.833,329.285 71.833 C 329.410 71.833,329.278 71.684,328.542 70.993 L 327.750 70.250 328.493 71.042 M136.747 89.667 C 136.747 100.162,136.767 104.456,136.792 99.208 C 136.816 93.960,136.816 85.373,136.792 80.125 C 136.767 74.877,136.747 79.171,136.747 89.667 M166.301 71.125 C 166.008 71.467,165.787 71.833,165.875 71.833 C 165.909 71.833,166.104 71.608,166.307 71.333 C 166.709 70.790,166.705 70.655,166.301 71.125 M91.805 72.458 C 97.059 72.483,105.609 72.483,110.805 72.458 C 116.000 72.434,111.700 72.414,101.250 72.414 C 90.800 72.414,86.550 72.434,91.805 72.458 M173.708 73.115 C 173.869 73.157,174.131 73.157,174.292 73.115 C 174.452 73.073,174.321 73.039,174.000 73.039 C 173.679 73.039,173.548 73.073,173.708 73.115 M203.245 84.083 C 203.245 90.042,203.266 92.455,203.292 89.446 C 203.317 86.437,203.317 81.562,203.292 78.613 C 203.266 75.663,203.245 78.125,203.245 84.083 M316.700 73.624 C 317.497 73.654,318.847 73.655,319.700 73.624 C 320.552 73.594,319.900 73.569,318.250 73.569 C 316.600 73.569,315.902 73.593,316.700 73.624 M176.500 73.697 C 178.124 75.171,178.409 75.397,177.750 74.690 C 177.383 74.296,176.933 73.894,176.750 73.798 C 176.567 73.701,176.454 73.656,176.500 73.697 M315.035 78.125 C 315.016 80.623,315.056 82.667,315.125 82.667 C 315.194 82.667,315.231 81.336,315.207 79.709 C 315.126 74.113,315.070 73.593,315.035 78.125 M322.333 73.722 C 322.333 73.766,322.575 73.885,322.871 73.988 C 323.167 74.091,323.336 74.107,323.246 74.023 C 323.056 73.846,322.333 73.607,322.333 73.722 M331.226 78.083 C 331.225 78.908,331.254 79.267,331.288 78.880 C 331.323 78.493,331.324 77.818,331.289 77.380 C 331.255 76.942,331.226 77.258,331.226 78.083 M164.667 78.073 C 164.667 78.297,164.728 78.518,164.803 78.565 C 164.878 78.611,164.907 78.428,164.868 78.158 C 164.780 77.562,164.667 77.515,164.667 78.073 M247.245 79.208 C 247.115 79.558,247.075 99.825,247.205 99.695 C 247.315 99.585,247.479 79.000,247.370 79.000 C 247.344 79.000,247.288 79.094,247.245 79.208 M220.539 81.167 C 220.539 81.487,220.573 81.619,220.615 81.458 C 220.657 81.298,220.657 81.035,220.615 80.875 C 220.573 80.715,220.539 80.846,220.539 81.167 M214.566 84.000 C 214.566 85.329,214.592 85.873,214.624 85.208 C 214.655 84.544,214.655 83.456,214.624 82.792 C 214.592 82.127,214.566 82.671,214.566 84.000 M229.219 83.625 C 230.760 83.652,233.235 83.652,234.719 83.625 C 236.203 83.597,234.942 83.575,231.917 83.575 C 228.892 83.575,227.678 83.597,229.219 83.625 M237.403 86.917 C 237.403 88.658,237.428 89.348,237.458 88.450 C 237.488 87.551,237.488 86.126,237.457 85.283 C 237.427 84.440,237.403 85.175,237.403 86.917 M91.888 84.125 C 97.097 84.149,105.572 84.149,110.721 84.125 C 115.870 84.101,111.608 84.081,101.250 84.081 C 90.892 84.081,86.679 84.101,91.888 84.125 M81.205 85.500 C 81.205 85.821,81.240 85.952,81.282 85.792 C 81.323 85.631,81.323 85.369,81.282 85.208 C 81.240 85.048,81.205 85.179,81.205 85.500 M220.542 87.083 C 220.544 87.450,220.578 87.580,220.618 87.373 C 220.658 87.166,220.656 86.866,220.615 86.706 C 220.573 86.547,220.540 86.717,220.542 87.083 M324.917 87.256 C 324.498 87.458,324.484 87.480,324.833 87.396 C 325.063 87.341,325.321 87.229,325.408 87.148 C 325.624 86.946,325.506 86.972,324.917 87.256 M323.333 87.667 C 322.990 87.777,322.975 87.803,323.250 87.814 C 323.433 87.822,323.696 87.756,323.833 87.667 C 324.125 87.478,323.923 87.478,323.333 87.667 M299.045 88.500 C 299.045 88.912,299.078 89.081,299.118 88.875 C 299.157 88.669,299.157 88.331,299.118 88.125 C 299.078 87.919,299.045 88.087,299.045 88.500 M315.080 88.042 C 314.947 88.401,314.910 99.806,315.042 99.724 C 315.110 99.682,315.167 97.028,315.167 93.827 L 315.167 88.007 318.708 87.958 L 322.250 87.910 318.703 87.872 C 315.989 87.842,315.138 87.882,315.080 88.042 M231.709 89.417 C 231.711 89.783,231.745 89.914,231.785 89.706 C 231.824 89.499,231.823 89.199,231.781 89.040 C 231.739 88.880,231.707 89.050,231.709 89.417 M283.388 89.917 C 283.389 90.558,283.419 90.800,283.455 90.455 C 283.491 90.109,283.490 89.584,283.454 89.288 C 283.417 88.992,283.387 89.275,283.388 89.917 M179.291 90.874 C 179.380 92.386,179.459 92.578,179.478 91.333 C 179.487 90.737,179.435 90.156,179.362 90.040 C 179.288 89.925,179.256 90.300,179.291 90.874 M169.298 91.750 C 169.396 91.933,169.910 92.496,170.441 93.000 L 171.407 93.917 170.336 92.750 C 169.747 92.108,169.233 91.546,169.193 91.500 C 169.154 91.454,169.201 91.567,169.298 91.750 M81.205 92.167 C 81.205 92.487,81.240 92.619,81.282 92.458 C 81.323 92.298,81.323 92.035,81.282 91.875 C 81.240 91.715,81.205 91.846,81.205 92.167 M185.023 92.111 C 185.010 92.310,184.957 92.610,184.904 92.778 C 184.813 93.067,184.818 93.068,184.998 92.787 C 185.103 92.624,185.156 92.324,185.117 92.120 C 185.045 91.750,185.045 91.750,185.023 92.111 M283.690 92.333 C 283.690 92.471,283.755 92.733,283.833 92.917 C 283.924 93.127,283.977 93.158,283.977 93.000 C 283.977 92.862,283.912 92.600,283.833 92.417 C 283.743 92.207,283.690 92.176,283.690 92.333 M223.167 93.417 C 223.478 93.737,223.770 94.000,223.815 94.000 C 223.861 94.000,223.644 93.737,223.333 93.417 C 223.022 93.096,222.730 92.833,222.685 92.833 C 222.639 92.833,222.856 93.096,223.167 93.417 M230.261 93.625 C 229.901 94.085,229.872 94.163,230.151 93.919 C 230.486 93.627,230.926 93.000,230.798 93.000 C 230.771 93.000,230.530 93.281,230.261 93.625 M174.401 95.058 C 174.746 95.140,175.347 95.137,175.795 95.052 C 176.524 94.914,176.478 94.903,175.189 94.909 C 174.044 94.914,173.904 94.940,174.401 95.058 M226.458 94.954 C 226.756 94.991,227.244 94.991,227.542 94.954 C 227.840 94.917,227.596 94.887,227.000 94.887 C 226.404 94.887,226.160 94.917,226.458 94.954 M293.458 94.954 C 293.756 94.991,294.244 94.991,294.542 94.954 C 294.840 94.917,294.596 94.887,294.000 94.887 C 293.404 94.887,293.160 94.917,293.458 94.954 M286.417 97.500 C 286.775 97.867,287.105 98.167,287.151 98.167 C 287.197 98.167,286.941 97.867,286.583 97.500 C 286.225 97.133,285.895 96.833,285.849 96.833 C 285.803 96.833,286.059 97.133,286.417 97.500 M86.375 97.291 C 88.369 97.318,91.631 97.318,93.625 97.291 C 95.619 97.265,93.987 97.243,90.000 97.243 C 86.013 97.243,84.381 97.265,86.375 97.291 M108.803 97.292 C 110.849 97.318,114.149 97.318,116.136 97.291 C 118.124 97.265,116.450 97.243,112.417 97.243 C 108.383 97.243,106.757 97.265,108.803 97.292 M81.205 98.833 C 81.205 99.154,81.240 99.285,81.282 99.125 C 81.323 98.965,81.323 98.702,81.282 98.542 C 81.240 98.381,81.205 98.513,81.205 98.833 M98.132 99.706 L 97.681 100.173 89.857 100.128 C 85.553 100.104,82.067 100.140,82.109 100.208 C 82.152 100.277,85.668 100.333,89.924 100.333 L 97.661 100.333 98.206 99.847 C 98.505 99.580,98.712 99.334,98.667 99.300 C 98.621 99.267,98.380 99.450,98.132 99.706 M109.531 100.291 C 111.061 100.319,113.611 100.319,115.198 100.291 C 116.785 100.264,115.533 100.242,112.417 100.241 C 109.300 100.241,108.001 100.264,109.531 100.291 M175.875 100.282 C 176.035 100.323,176.298 100.323,176.458 100.282 C 176.619 100.240,176.487 100.205,176.167 100.205 C 175.846 100.205,175.715 100.240,175.875 100.282 M118.202 102.040 L 118.167 103.829 112.375 103.875 L 106.583 103.921 112.380 103.961 C 117.058 103.992,118.193 103.958,118.262 103.780 C 118.308 103.659,118.321 102.815,118.291 101.905 L 118.236 100.250 118.202 102.040 M86.208 103.958 C 88.294 103.985,91.706 103.985,93.792 103.958 C 95.877 103.932,94.171 103.910,90.000 103.910 C 85.829 103.910,84.123 103.932,86.208 103.958 M81.205 105.333 C 81.205 105.654,81.240 105.785,81.282 105.625 C 81.323 105.465,81.323 105.202,81.282 105.042 C 81.240 104.881,81.205 105.013,81.205 105.333 M90.000 106.833 L 82.417 106.922 89.917 106.958 C 94.541 106.981,97.513 106.933,97.667 106.833 C 97.804 106.744,97.842 106.688,97.750 106.708 C 97.658 106.728,94.171 106.785,90.000 106.833 M108.720 106.958 C 110.811 106.985,114.186 106.985,116.220 106.958 C 118.253 106.932,116.542 106.910,112.417 106.910 C 108.292 106.910,106.628 106.932,108.720 106.958 M139.195 110.325 C 139.097 110.605,139.053 110.833,139.096 110.833 C 139.209 110.833,139.523 109.968,139.441 109.885 C 139.403 109.847,139.292 110.045,139.195 110.325 M133.000 111.841 C 132.817 111.964,132.885 111.980,133.250 111.898 C 133.863 111.761,133.996 111.666,133.569 111.669 C 133.394 111.671,133.137 111.748,133.000 111.841 M91.721 111.958 C 98.306 111.982,109.031 111.982,115.555 111.958 C 122.079 111.934,116.692 111.914,103.583 111.914 C 90.475 111.914,85.137 111.934,91.721 111.958 M137.417 112.949 C 136.958 113.373,136.733 113.638,136.917 113.540 C 137.234 113.369,138.480 112.159,138.324 112.173 C 138.283 112.177,137.875 112.526,137.417 112.949 M92.708 114.792 C 100.294 114.816,112.706 114.816,120.292 114.792 C 127.877 114.768,121.671 114.748,106.500 114.748 C 91.329 114.748,85.123 114.768,92.708 114.792 M128.708 124.958 C 169.477 124.981,236.190 124.981,276.958 124.958 C 317.727 124.935,284.371 124.916,202.833 124.916 C 121.296 124.916,87.940 124.935,128.708 124.958 " stroke="none" fill="#cccce4" fill-rule="evenodd"></path><path id="path4" d="M76.081 81.583 C 76.081 96.250,76.101 102.225,76.125 94.862 C 76.149 87.498,76.149 75.498,76.125 68.195 C 76.101 60.892,76.081 66.917,76.081 81.583 M121.075 65.667 C 121.075 68.829,121.097 70.123,121.125 68.542 C 121.152 66.960,121.152 64.373,121.125 62.792 C 121.097 61.210,121.075 62.504,121.075 65.667 M130.967 66.958 C 131.912 66.988,133.412 66.987,134.301 66.957 C 135.189 66.928,134.417 66.903,132.583 66.903 C 130.750 66.904,130.023 66.928,130.967 66.958 M173.708 67.955 C 174.052 67.991,174.615 67.991,174.958 67.955 C 175.302 67.919,175.021 67.889,174.333 67.889 C 173.646 67.889,173.365 67.919,173.708 67.955 M226.375 67.955 C 226.719 67.991,227.281 67.991,227.625 67.955 C 227.969 67.919,227.688 67.889,227.000 67.889 C 226.313 67.889,226.031 67.919,226.375 67.955 M309.580 84.000 C 309.580 92.479,309.600 95.948,309.625 91.708 C 309.650 87.469,309.650 80.531,309.625 76.292 C 309.600 72.052,309.580 75.521,309.580 84.000 M92.625 69.625 C 97.323 69.650,105.010 69.650,109.708 69.625 C 114.406 69.600,110.563 69.580,101.167 69.580 C 91.771 69.580,87.927 69.600,92.625 69.625 M206.417 73.167 L 203.250 73.261 206.365 73.297 C 208.302 73.320,209.519 73.270,209.583 73.167 C 209.640 73.075,209.663 73.016,209.635 73.036 C 209.607 73.056,208.158 73.115,206.417 73.167 M226.375 73.119 C 226.627 73.158,227.040 73.158,227.292 73.119 C 227.544 73.081,227.338 73.050,226.833 73.050 C 226.329 73.050,226.123 73.081,226.375 73.119 M194.458 73.290 L 197.500 73.341 197.500 84.083 L 197.500 94.826 194.458 94.877 L 191.417 94.928 194.500 94.922 L 197.583 94.917 197.583 84.083 L 197.583 73.250 194.500 73.244 L 191.417 73.239 194.458 73.290 M164.548 76.250 C 164.549 76.708,164.581 76.876,164.620 76.623 C 164.658 76.369,164.657 75.994,164.617 75.789 C 164.578 75.584,164.546 75.792,164.548 76.250 M325.553 78.167 C 325.553 78.762,325.584 79.006,325.621 78.708 C 325.658 78.410,325.658 77.923,325.621 77.625 C 325.584 77.327,325.553 77.571,325.553 78.167 M96.625 77.625 C 100.956 77.650,108.044 77.650,112.375 77.625 C 116.706 77.600,113.162 77.580,104.500 77.580 C 95.837 77.580,92.294 77.600,96.625 77.625 M166.667 81.552 C 166.667 81.581,166.910 81.825,167.208 82.094 L 167.750 82.583 167.260 82.042 C 166.804 81.537,166.667 81.423,166.667 81.552 M316.700 82.791 C 317.497 82.821,318.847 82.821,319.700 82.791 C 320.552 82.761,319.900 82.736,318.250 82.736 C 316.600 82.735,315.902 82.760,316.700 82.791 M220.205 84.000 C 220.205 84.321,220.240 84.452,220.282 84.292 C 220.323 84.131,220.323 83.869,220.282 83.708 C 220.240 83.548,220.205 83.679,220.205 84.000 M185.052 90.917 C 185.053 91.467,185.084 91.672,185.121 91.372 C 185.158 91.072,185.157 90.622,185.119 90.372 C 185.081 90.122,185.051 90.367,185.052 90.917 M91.888 90.792 C 97.097 90.816,105.572 90.816,110.721 90.792 C 115.870 90.767,111.608 90.747,101.250 90.747 C 90.892 90.747,86.679 90.767,91.888 90.792 M91.708 93.625 C 96.910 93.649,105.423 93.649,110.625 93.625 C 115.827 93.601,111.571 93.581,101.167 93.581 C 90.763 93.581,86.506 93.601,91.708 93.625 M204.884 94.958 C 205.782 94.988,207.207 94.988,208.050 94.957 C 208.893 94.927,208.158 94.903,206.417 94.903 C 204.675 94.903,203.985 94.928,204.884 94.958 M103.738 102.083 C 103.738 104.192,103.762 105.031,103.791 103.949 C 103.820 102.867,103.820 101.142,103.791 100.116 C 103.762 99.090,103.738 99.975,103.738 102.083 M121.071 102.083 C 121.072 104.192,121.095 105.031,121.125 103.949 C 121.154 102.867,121.154 101.142,121.124 100.116 C 121.095 99.090,121.071 99.975,121.071 102.083 M200.417 99.667 L 191.250 99.754 200.365 99.794 C 206.305 99.820,209.516 99.775,209.583 99.667 C 209.640 99.575,209.663 99.518,209.635 99.540 C 209.607 99.561,205.458 99.618,200.417 99.667 M260.583 99.667 L 258.250 99.764 260.532 99.799 C 261.912 99.820,262.854 99.767,262.917 99.667 C 262.973 99.575,262.996 99.516,262.968 99.534 C 262.940 99.553,261.867 99.613,260.583 99.667 M243.534 99.790 C 244.149 99.822,245.199 99.822,245.868 99.791 C 246.536 99.759,246.033 99.733,244.750 99.732 C 243.467 99.732,242.920 99.758,243.534 99.790 M311.216 99.791 C 311.931 99.822,313.056 99.822,313.716 99.790 C 314.376 99.759,313.792 99.733,312.417 99.733 C 311.042 99.734,310.501 99.759,311.216 99.791 M106.572 100.387 C 106.525 100.508,106.509 101.352,106.536 102.262 L 106.586 103.917 106.668 102.041 C 106.749 100.185,106.736 99.959,106.572 100.387 M174.295 100.287 C 174.594 100.325,175.044 100.324,175.295 100.286 C 175.545 100.248,175.300 100.217,174.750 100.218 C 174.200 100.219,173.995 100.250,174.295 100.287 M226.292 100.287 C 226.590 100.324,227.077 100.324,227.375 100.287 C 227.673 100.250,227.429 100.220,226.833 100.220 C 226.237 100.220,225.994 100.250,226.292 100.287 M293.458 100.287 C 293.756 100.324,294.244 100.324,294.542 100.287 C 294.840 100.250,294.596 100.220,294.000 100.220 C 293.404 100.220,293.160 100.250,293.458 100.287 M86.136 106.792 C 88.274 106.818,91.724 106.818,93.803 106.791 C 95.882 106.765,94.133 106.743,89.917 106.743 C 85.700 106.744,83.999 106.765,86.136 106.792 M108.636 106.792 C 110.774 106.818,114.224 106.818,116.303 106.791 C 118.382 106.765,116.633 106.743,112.417 106.743 C 108.200 106.744,106.499 106.765,108.636 106.792 " stroke="none" fill="#b5b5d8" fill-rule="evenodd"></path></g></svg>