<svg xmlns="http://www.w3.org/2000/svg" width="230" height="231"><path fill="#EBEBEB" d="M188 26c23.301 19.67 38.728 47.333 41.601 77.84 2.33 31.095-7.677 62.133-27.601 86.16-8.308 9.417-17.22 17.504-28 24l-1.732 1.049c-24.72 14.73-55.322 19.832-83.418 12.72A135.5 135.5 0 0 1 70 221l-3.418-1.523c-28.794-13.615-49.279-37.022-60.394-66.664-10.31-30.48-7.623-62.113 6.062-91.063C27.056 33.807 51.797 13.52 81.965 4.066 118.832-6.148 158.515 1.541 188 26M32.68 42.484C12.794 65.998 3.961 94.431 6 125c2.308 23.85 12.316 45.098 28 63l2.172 2.48c20.41 21.677 49.793 33.8 79.328 34.895 29.973-1.07 57.725-13.848 78.5-35.375 20.136-22.714 31.467-52.611 30-83a81 81 0 0 0-1-7c-7.195 6.97-13.514 14.582-19.644 22.485-3.876 4.97-7.936 9.757-12.064 14.519a354 354 0 0 0-10.769 13.105C179 152 179 152 177 154l-3.875-.125c-5.079.43-7.518 3.102-10.812 6.688-10.58 11.404-24.166 17.96-39.817 18.812-18.157.57-33.768-2.509-47.808-14.812A291 291 0 0 1 70 160l-1.71-1.64C56.895 146.423 52.778 129.007 53 113c1.221-17.247 8.356-32.548 20.918-44.457C87.526 57.315 104.381 51.859 122 53c16.122 1.81 29.756 8.237 41 20l1.656 1.563C174.444 84.559 178.284 98.556 180 112c4.054-3.897 7.606-8.055 11.125-12.437l1.707-2.113q6.305-7.826 12.477-15.756c3.538-4.539 3.538-4.539 5.183-6.213 1.666-1.654 1.666-1.654 3.508-4.481-1.869-13.099-14.946-26.103-24-35l-2.27-2.266c-21.382-20.152-49.766-28.377-78.585-28.011-29.108.916-57.162 15.067-76.466 36.761M70.75 79.75C61.607 91.867 56.226 106.681 58 122c2.889 16.646 9.608 30.762 23.25 41.188 13.952 9.68 29.56 13.72 46.313 10.812 12.144-2.8 24.025-8.63 32.437-18v-1h-7l-1 2h-27q-.036-6.168-.055-12.335-.008-2.1-.02-4.2a1698 1698 0 0 1-.023-6.024l-.016-3.665C125 128 125 128 126 127c2-.088 4.002-.107 6.004-.098l3.682.01 3.876.025 3.89.014q4.773.018 9.548.049v2c8.791 1.22 8.791 1.22 16.71-1.945 3.898-4.6 5.766-7.772 5.503-13.976-.347-3.391-1.04-6.663-1.9-9.954l-.548-2.112c-4.234-15.56-13.84-27.404-27.613-35.736C119.524 51.535 89.493 57.6 70.75 79.75M216 77a206 206 0 0 0-4.875 5.625l-1.495 1.776c-3.883 4.643-7.642 9.376-11.36 14.152-4.082 5.238-8.274 10.383-12.48 15.523-4.418 5.42-8.67 10.95-12.864 16.545C171 133 171 133 169 134a98 98 0 0 1-5.008.316l-2.988.127-3.129.12-3.152.13q-3.862.16-7.723.307v-3h-17v20h17v-2l2.336.175c14.716 1.858 14.716 1.858 28.144-2.238 2.231-2.86 3.865-5.713 5.52-8.937a134 134 0 0 1 4.188-5.125l2.23-2.727c3.186-3.889 6.385-7.768 9.582-11.648l3.625-4.402a6101 6101 0 0 1 6.063-7.352 560 560 0 0 0 4.394-5.402 92 92 0 0 1 3.867-4.438c3.275-3.702 3.275-3.702 4.04-8.445A51.4 51.4 0 0 0 217 77z"/><path fill="#EBEBEB" d="M61 40c.254 2.29.254 2.29 0 5-1.723 1.773-1.723 1.773-4.062 3.375C40.789 60.151 33.373 76.606 30 96q-.518 3.498-1 7c-1.875.625-1.875.625-4 1l-2-2c.188-21.439 8.78-39.983 24-55 8.214-7.465 8.214-7.465 14-7m29 73c2.734 1.478 5.016 3.363 7.375 5.375l1.902 1.54c4.545 3.729 4.545 3.729 5.723 6.085.46 6.32.46 6.32-1.027 8.52-2.982 2.237-6.324 3.437-9.785 4.73l-2.12.852c-4.363 1.648-7.462 2.377-12.068.898-1.887-1.148-1.887-1.148-3-3-.363-7.63.807-15.69 3-23 3.8-2.534 5.485-2.551 10-2m-4 6c-1.648 3.664-2.336 6.812-2.625 10.813l-.227 2.957L83 135c2.123 1.354 2.123 1.354 5.04.004l3.585-1.441 3.602-1.434L98 131c.469-4.028.469-4.028-2.117-6.14l-2.758-2.11-2.742-2.14c-2.18-1.797-2.18-1.797-4.383-1.61m60-28c2.658 1.487 4.923 3.357 7.25 5.313l1.89 1.513c2.827 2.3 4.812 4.101 6.86 7.174-.062 3.5-.062 3.5-1 7-3.4 2.41-7.116 4.05-10.937 5.688-1 .436-1.999.873-3.028 1.324-4.213 1.372-7.355 1.836-11.387-.2-2.741-3.014-2.061-5.858-1.906-9.753 1.026-12.167 1.026-12.167 4.008-16.746 3.082-1.798 4.698-1.757 8.25-1.313m-3 6c-3.551 3.551-3.054 8.63-3.062 13.438L140 114c3.662-.627 6.882-1.645 10.313-3.062l2.675-1.098L155 109v-3c-2.414-2.373-2.414-2.373-5.437-4.687l-3.06-2.45c-2.117-1.962-2.117-1.962-3.503-1.863m45 58 5 1c-1.005 12.731-10.406 21.94-19.316 30.129-4.78 3.909-4.78 3.909-8.684 3.746l-2-.875c0-2.125 0-2.125 1-5 3.311-3.103 6.686-5.562 11-7 1.035-1.818 1.035-1.818 2-4q1.657-2.396 3.375-4.75c3.033-4.268 5.427-8.503 7.625-13.25m-63-50h5c.346 5.654-.566 9.03-3 14-6.75-.875-6.75-.875-9-2l-.437 2.938C117 123 117 123 116 124c-5.745-.345-9.251-1.996-14-5v-5c3.47.458 6.674.891 10 2l.688-2.437C114 111 114 111 116.375 110.125c2.492-.119 4.273.091 6.625.875zM55 62c2.688.313 2.688.313 5 1-.228 3.77-1.39 5.63-3.875 8.313C51.919 75.933 50.455 80.982 49 87h-5c-1.682-5.057.007-9.235 2-14 1.776-2.88 3.756-5.47 6-8l1.52-1.742z"/></svg>