<?xml version="1.0" encoding="UTF-8"?>
<svg version="1.1" xmlns="http://www.w3.org/2000/svg" width="230" height="231">
<path d="M0 0 C23.30104355 19.67056934 38.72814618 47.33288059 41.60131836 77.84057617 C43.9309401 108.9348626 33.92381898 139.9725263 14 164 C5.69155247 173.41687483 -3.21997409 181.50385153 -14 188 C-14.57153809 188.34611328 -15.14307617 188.69222656 -15.73193359 189.04882812 C-40.45277211 203.77959939 -71.0543881 208.88067364 -99.1496582 201.76831055 C-105.62044173 199.9627073 -111.86717117 197.7341877 -118 195 C-119.12792969 194.49726563 -120.25585938 193.99453125 -121.41796875 193.4765625 C-150.21230152 179.86237187 -170.69665081 156.4547645 -181.8125 126.8125 C-192.12285064 96.33274289 -189.43450492 64.70047385 -175.75 35.75 C-160.94358852 7.80731456 -136.20335869 -12.48068234 -106.03515625 -21.93359375 C-69.16776444 -32.14765947 -29.48529109 -24.45893946 0 0 Z M-155.32080078 16.484375 C-175.20534807 39.99846451 -184.03830697 68.43130357 -182 99 C-179.69233944 122.85078852 -169.68444273 144.09773449 -154 162 C-153.28328125 162.81855469 -152.5665625 163.63710937 -151.828125 164.48046875 C-131.41735863 186.15731649 -102.03484831 198.27942603 -72.5 199.375 C-42.52672831 198.30452601 -14.77493221 185.52696595 6 164 C26.1356564 141.28649998 37.46703795 111.38864325 36 81 C35.76833428 78.62444473 35.43686368 76.34814228 35 74 C27.80537254 80.96979536 21.48577028 88.58183084 15.35571289 96.48510742 C11.47980498 101.45491964 7.41981029 106.24191941 3.29248047 111.00366211 C-0.41156209 115.28482351 -3.98113386 119.6552845 -7.4765625 124.109375 C-9 126 -9 126 -11 128 C-12.27875 127.95875 -13.5575 127.9175 -14.875 127.875 C-19.95363993 128.30429492 -22.39296255 130.97746007 -25.6875 134.5625 C-36.26732079 145.96738383 -49.85308708 152.52310986 -65.50390625 153.375 C-83.66061652 153.94552425 -99.27190423 150.86633057 -113.3125 138.5625 C-114.89120602 137.05849615 -116.45546613 135.53907615 -118 134 C-118.56460938 133.45859375 -119.12921875 132.9171875 -119.7109375 132.359375 C-131.10406378 120.4237189 -135.22144783 103.00751493 -135 87 C-133.77894216 69.75255806 -126.64378156 54.45171426 -114.08203125 42.54296875 C-100.47418497 31.31520205 -83.61915641 25.85903346 -66 27 C-49.87777089 28.80945332 -36.24383641 35.2372173 -25 47 C-24.18015625 47.7734375 -24.18015625 47.7734375 -23.34375 48.5625 C-13.55581232 58.55869167 -9.71624563 72.55607592 -8 86 C-3.94568239 82.1027685 -0.39372002 77.9450022 3.125 73.5625 C3.68832031 72.86527832 4.25164062 72.16805664 4.83203125 71.44970703 C9.03632347 66.23331412 13.19322826 60.98004233 17.30908203 55.69360352 C20.84728574 51.15541275 20.84728574 51.15541275 22.4921875 49.48144531 C24.15750945 47.8270994 24.15750945 47.8270994 26 45 C24.13124863 31.9011107 11.0541897 18.89736563 2 10 C1.25105469 9.25234375 0.50210938 8.5046875 -0.26953125 7.734375 C-21.6518332 -12.41814706 -50.03601725 -20.64346288 -78.85546875 -20.27734375 C-107.96326505 -19.36131634 -136.01736216 -5.20969281 -155.32080078 16.484375 Z M-117.25 53.75 C-126.39310034 65.86691681 -131.77374425 80.68129966 -130 96 C-127.1110184 112.64603682 -120.39170121 126.76244993 -106.75 137.1875 C-92.7975317 146.86880453 -77.18968254 150.90849618 -60.4375 148 C-48.29330478 145.20052643 -36.41248752 139.37057638 -28 130 C-28 129.67 -28 129.34 -28 129 C-30.31 129 -32.62 129 -35 129 C-35.33 129.66 -35.66 130.32 -36 131 C-44.91 131 -53.82 131 -63 131 C-63.02291394 126.88822073 -63.04283951 122.77660342 -63.05493164 118.66479492 C-63.0599708 117.26504772 -63.06680216 115.8653058 -63.07543945 114.46557617 C-63.0875232 112.45754223 -63.09269807 110.44947043 -63.09765625 108.44140625 C-63.10289307 107.23170166 -63.10812988 106.02199707 -63.11352539 104.77563477 C-63 102 -63 102 -62 101 C-60.00035018 100.91241997 -57.9976389 100.89303424 -55.99609375 100.90234375 C-54.17368164 100.90717773 -54.17368164 100.90717773 -52.31445312 100.91210938 C-51.03505859 100.92048828 -49.75566406 100.92886719 -48.4375 100.9375 C-47.15423828 100.94201172 -45.87097656 100.94652344 -44.54882812 100.95117188 C-41.36583978 100.96300455 -38.18294238 100.97948932 -35 101 C-35 101.66 -35 102.32 -35 103 C-26.20866363 104.21935094 -26.20866363 104.21935094 -18.2890625 101.0546875 C-14.39225729 96.45448785 -12.52359406 93.28342326 -12.78710938 87.07910156 C-13.1343875 83.68756432 -13.82707135 80.41577636 -14.6875 77.125 C-14.86829102 76.42810059 -15.04908203 75.73120117 -15.23535156 75.01318359 C-19.46871788 59.45357912 -29.07559879 47.60858839 -42.84765625 39.27734375 C-68.47618844 25.53450765 -98.50654168 31.59864016 -117.25 53.75 Z M28 51 C26.33486944 52.84946236 24.72168808 54.71749793 23.125 56.625 C22.38515869 57.50418091 22.38515869 57.50418091 21.63037109 58.40112305 C17.74682812 63.04422137 13.98798673 67.77668591 10.27026367 72.55297852 C6.18758222 77.791231 1.99578988 82.93582765 -2.2097168 88.07568359 C-6.62835915 93.49533651 -10.87997358 99.02647867 -15.07421875 104.62109375 C-17 107 -17 107 -19 108 C-20.66565749 108.15222973 -22.33656496 108.24917215 -24.0078125 108.31640625 C-25.48701172 108.37924805 -25.48701172 108.37924805 -26.99609375 108.44335938 C-28.02863281 108.48267578 -29.06117188 108.52199219 -30.125 108.5625 C-31.68541016 108.62727539 -31.68541016 108.62727539 -33.27734375 108.69335938 C-35.85142528 108.7996288 -38.42560508 108.90166583 -41 109 C-41 108.01 -41 107.02 -41 106 C-46.61 106 -52.22 106 -58 106 C-58 112.6 -58 119.2 -58 126 C-52.39 126 -46.78 126 -41 126 C-41 125.34 -41 124.68 -41 124 C-39.84383179 124.08640747 -39.84383179 124.08640747 -38.66430664 124.17456055 C-23.94802059 126.03341492 -23.94802059 126.03341492 -10.51953125 121.9375 C-8.28859995 119.0767065 -6.65461977 116.22428352 -5 113 C-3.64742891 111.25721346 -2.24967413 109.54870368 -0.8125 107.875 C0.29158203 106.52535156 0.29158203 106.52535156 1.41796875 105.1484375 C4.6044233 101.25940734 7.80292977 97.38030307 11 93.5 C12.20836242 92.03257603 13.41669628 90.56512855 14.625 89.09765625 C16.64399807 86.64561245 18.66467469 84.19498051 20.6875 81.74609375 C22.16301259 79.95404383 23.62891661 78.15400914 25.08203125 76.34375 C26.32460938 74.82532458 27.61229519 73.34230416 28.94921875 71.90625 C32.22409074 68.20369216 32.22409074 68.20369216 32.98828125 63.4609375 C32.19156387 59.13954245 30.86041719 54.98660826 29 51 C28.67 51 28.34 51 28 51 Z " fill="#EBEBEB" transform="translate(188,26)"/>
<path d="M0 0 C0.25390625 2.2890625 0.25390625 2.2890625 0 5 C-1.72265625 6.7734375 -1.72265625 6.7734375 -4.0625 8.375 C-20.21092254 20.1514709 -27.62716266 36.60618532 -31 56 C-31.34407038 58.33177425 -31.68034646 60.6647533 -32 63 C-33.875 63.625 -33.875 63.625 -36 64 C-36.66 63.34 -37.32 62.68 -38 62 C-37.81235061 40.56105663 -29.22093181 22.0173073 -14 7 C-5.7855276 -0.4652697 -5.7855276 -0.4652697 0 0 Z " fill="#EBEBEB" transform="translate(61,40)"/>
<path d="M0 0 C2.7344998 1.47837928 5.01571287 3.36281481 7.375 5.375 C8.00277344 5.88289063 8.63054687 6.39078125 9.27734375 6.9140625 C13.82201522 10.64403045 13.82201522 10.64403045 15 13 C15.45964671 19.32014231 15.45964671 19.32014231 13.97265625 21.51953125 C10.99103073 23.75722644 7.64900445 24.95703551 4.1875 26.25 C3.48818359 26.53101563 2.78886719 26.81203125 2.06835938 27.1015625 C-2.29451291 28.75039356 -5.3936884 29.47939935 -10 28 C-11.88671875 26.8515625 -11.88671875 26.8515625 -13 25 C-13.36285662 17.37020405 -12.1930042 9.310014 -10 2 C-6.19926007 -0.53382662 -4.51461981 -0.5514753 0 0 Z M-4 6 C-5.64800856 9.66447432 -6.33580973 12.81203466 -6.625 16.8125 C-6.69976562 17.78832031 -6.77453125 18.76414063 -6.8515625 19.76953125 C-6.90054688 20.50558594 -6.94953125 21.24164063 -7 22 C-4.87739003 23.35444972 -4.87739003 23.35444972 -1.9609375 22.00390625 C-0.77757813 21.52824219 0.40578125 21.05257812 1.625 20.5625 C2.81351563 20.08941406 4.00203125 19.61632812 5.2265625 19.12890625 C6.14179687 18.75636719 7.05703125 18.38382813 8 18 C8.46880253 13.97219661 8.46880253 13.97219661 5.8828125 11.859375 C4.97273438 11.16328125 4.06265625 10.4671875 3.125 9.75 C2.22007813 9.04359375 1.31515625 8.3371875 0.3828125 7.609375 C-1.79699826 5.81343128 -1.79699826 5.81343128 -4 6 Z " fill="#EBEBEB" transform="translate(90,113)"/>
<path d="M0 0 C2.65830112 1.48675299 4.92272137 3.35748733 7.25 5.3125 C7.87390625 5.81201172 8.4978125 6.31152344 9.140625 6.82617188 C11.96688944 9.12555728 13.95161401 10.92742101 16 14 C15.9375 17.5 15.9375 17.5 15 21 C11.59987127 23.4104484 7.88443772 25.04952669 4.0625 26.6875 C3.06347656 27.12449219 2.06445312 27.56148437 1.03515625 28.01171875 C-3.17848524 29.38372814 -6.32016172 29.84829043 -10.3515625 27.8125 C-13.09349991 24.79766834 -12.4130152 21.95418155 -12.2578125 18.05859375 C-11.23231688 5.89248664 -11.23231688 5.89248664 -8.25 1.3125 C-5.1684155 -0.48509096 -3.55173637 -0.44396705 0 0 Z M-3 6 C-6.55140441 9.55140441 -6.05396178 14.63048494 -6.0625 19.4375 C-6.041875 20.613125 -6.02125 21.78875 -6 23 C-2.33827525 22.37321829 0.8818995 21.35548154 4.3125 19.9375 C5.19550781 19.57527344 6.07851562 19.21304688 6.98828125 18.83984375 C7.65214844 18.56269531 8.31601563 18.28554687 9 18 C9 17.01 9 16.02 9 15 C6.58568979 12.6273333 6.58568979 12.6273333 3.5625 10.3125 C2.55316406 9.50425781 1.54382813 8.69601563 0.50390625 7.86328125 C-1.6135219 5.90050133 -1.6135219 5.90050133 -3 6 Z " fill="#EBEBEB" transform="translate(146,91)"/>
<path d="M0 0 C2.475 0.495 2.475 0.495 5 1 C3.99488723 13.73142844 -5.40616835 22.93990177 -14.31640625 31.12890625 C-19.09580535 35.03767478 -19.09580535 35.03767478 -23 34.875 C-23.99 34.441875 -23.99 34.441875 -25 34 C-25 31.875 -25 31.875 -24 29 C-20.68900349 25.89686874 -17.31367669 23.43789223 -13 22 C-11.96523112 20.18168184 -11.96523112 20.18168184 -11 18 C-9.8963973 16.40167884 -8.76949112 14.81930224 -7.625 13.25 C-4.59162807 8.98174806 -2.19757306 4.74675781 0 0 Z " fill="#EBEBEB" transform="translate(188,155)"/>
<path d="M0 0 C1.65 0 3.3 0 5 0 C5.34615998 5.65394631 4.43425238 9.03006806 2 14 C-4.75 13.125 -4.75 13.125 -7 12 C-7.144375 12.969375 -7.28875 13.93875 -7.4375 14.9375 C-8 18 -8 18 -9 19 C-14.74501792 18.65529893 -18.25132118 17.00426619 -23 14 C-23 12.35 -23 10.7 -23 9 C-19.53058454 9.45822468 -16.32604951 9.89131683 -13 11 C-12.773125 10.195625 -12.54625 9.39125 -12.3125 8.5625 C-11 6 -11 6 -8.625 5.125 C-6.13345783 5.00635513 -4.35176707 5.21607764 -2 6 C-1.34 4.02 -0.68 2.04 0 0 Z " fill="#EBEBEB" transform="translate(125,105)"/>
<path d="M0 0 C2.6875 0.3125 2.6875 0.3125 5 1 C4.77154369 4.76952907 3.60979002 6.63089493 1.125 9.3125 C-3.08115545 13.93221031 -4.54553061 18.98196612 -6 25 C-7.65 25 -9.3 25 -11 25 C-12.68196056 19.9425186 -10.99308691 15.76483502 -9 11 C-7.22363973 8.12006987 -5.24363153 5.52992826 -3 3 C-2.49855469 2.42507812 -1.99710938 1.85015625 -1.48046875 1.2578125 C-0.99191406 0.84273437 -0.50335938 0.42765625 0 0 Z " fill="#EBEBEB" transform="translate(55,62)"/>
</svg>
