<svg id="svg" version="1.1" xmlns="http://www.w3.org/2000/svg" xmlns:xlink="http://www.w3.org/1999/xlink" width="400" height="329.9293008641006" viewBox="0, 0, 400,329.9293008641006"><g id="svgg"><path id="path0" d="M184.348 1.423 C 181.714 1.637,179.763 1.848,175.917 2.337 C 175.183 2.430,174.321 2.549,174.000 2.601 C 173.679 2.653,173.004 2.757,172.500 2.831 C 168.859 3.370,162.387 4.790,158.000 6.014 C 157.679 6.103,157.304 6.205,157.167 6.240 C 157.029 6.275,156.579 6.413,156.167 6.547 C 155.754 6.680,154.967 6.919,154.417 7.077 C 153.867 7.235,152.892 7.550,152.250 7.776 C 151.608 8.002,150.483 8.378,149.750 8.612 C 149.017 8.845,148.342 9.093,148.250 9.163 C 148.158 9.233,147.783 9.384,147.417 9.498 C 146.858 9.673,144.209 10.721,142.667 11.378 C 142.438 11.476,142.212 11.568,142.167 11.584 C 141.965 11.652,141.350 11.918,140.500 12.304 C 139.996 12.533,139.546 12.730,139.500 12.741 C 139.454 12.752,138.528 13.190,137.441 13.714 C 136.355 14.238,135.405 14.667,135.330 14.667 C 135.256 14.667,135.169 14.723,135.139 14.792 C 135.108 14.860,134.221 15.350,133.167 15.879 C 132.112 16.408,130.837 17.072,130.333 17.355 C 129.829 17.638,129.004 18.097,128.500 18.375 C 127.996 18.653,127.384 19.020,127.141 19.190 C 126.898 19.361,126.651 19.500,126.592 19.500 C 126.475 19.500,124.536 20.718,124.215 20.994 C 124.105 21.089,123.979 21.167,123.937 21.167 C 123.842 21.167,121.655 22.561,120.668 23.250 C 120.274 23.525,119.832 23.826,119.685 23.919 C 118.717 24.531,117.859 25.136,117.502 25.458 C 117.273 25.665,117.043 25.833,116.989 25.833 C 116.895 25.833,116.006 26.483,113.917 28.081 C 113.367 28.502,112.617 29.074,112.250 29.353 C 111.532 29.900,110.393 30.813,110.094 31.083 C 109.912 31.247,108.178 32.722,106.667 33.998 C 104.640 35.710,97.853 42.377,95.917 44.558 C 95.367 45.178,94.692 45.927,94.417 46.222 C 93.657 47.039,91.604 49.477,90.833 50.478 C 90.604 50.775,90.276 51.183,90.105 51.384 C 89.933 51.585,89.489 52.163,89.118 52.667 C 88.747 53.171,88.250 53.815,88.013 54.099 C 87.777 54.382,87.471 54.786,87.333 54.997 C 87.196 55.207,86.926 55.576,86.734 55.815 C 86.541 56.054,86.021 56.775,85.577 57.417 C 85.134 58.058,84.710 58.608,84.634 58.639 C 84.559 58.670,84.540 58.764,84.592 58.848 C 84.644 58.931,84.622 59.000,84.544 59.000 C 84.466 59.000,84.180 59.374,83.909 59.830 C 83.638 60.287,83.360 60.662,83.292 60.663 C 83.223 60.665,83.167 60.741,83.167 60.833 C 83.167 60.924,82.918 61.356,82.613 61.791 C 82.309 62.227,81.728 63.132,81.322 63.803 C 80.916 64.475,80.453 65.225,80.294 65.470 C 80.134 65.716,79.952 66.029,79.889 66.167 C 79.826 66.304,79.596 66.703,79.378 67.053 C 78.782 68.010,77.766 69.827,76.706 71.833 C 76.392 72.429,76.013 73.142,75.866 73.417 C 75.718 73.692,75.588 73.954,75.577 74.000 C 75.566 74.046,75.139 74.946,74.629 76.000 C 72.437 80.530,71.222 83.424,69.275 88.750 C 68.584 90.638,67.228 94.803,66.832 96.250 C 66.757 96.525,66.569 97.200,66.415 97.750 C 65.967 99.342,65.495 101.162,65.225 102.333 C 65.088 102.929,64.947 103.529,64.911 103.667 C 64.836 103.959,64.312 106.373,63.936 108.167 C 63.792 108.854,63.602 109.904,63.515 110.500 C 63.427 111.096,63.245 112.221,63.110 113.000 C 62.570 116.117,61.769 123.219,61.647 125.971 C 61.534 128.530,61.579 140.849,61.710 143.000 C 61.887 145.913,62.205 149.000,62.673 152.333 C 62.782 153.112,62.888 153.900,62.909 154.083 C 62.950 154.457,63.176 155.906,63.272 156.417 C 63.307 156.600,63.409 157.200,63.499 157.750 C 63.590 158.300,63.777 159.313,63.916 160.000 C 64.055 160.688,64.250 161.662,64.350 162.167 C 64.546 163.152,65.585 167.427,65.830 168.250 C 65.912 168.525,66.106 169.237,66.262 169.833 C 66.418 170.429,66.749 171.554,66.998 172.333 C 67.973 175.396,68.198 176.158,68.142 176.210 C 68.110 176.240,68.216 176.468,68.379 176.716 C 68.541 176.964,68.638 177.167,68.593 177.167 C 68.548 177.167,68.657 177.504,68.833 177.917 C 69.010 178.329,69.123 178.667,69.083 178.667 C 69.044 178.667,69.165 179.023,69.352 179.458 C 69.539 179.894,69.956 180.963,70.280 181.833 C 70.603 182.704,70.981 183.679,71.118 184.000 C 71.255 184.321,71.427 184.733,71.501 184.917 C 71.574 185.100,71.866 185.752,72.150 186.364 C 72.434 186.977,72.667 187.519,72.667 187.568 C 72.667 187.617,73.005 188.372,73.418 189.245 C 73.832 190.118,74.172 190.868,74.175 190.912 C 74.181 191.000,76.537 195.624,77.192 196.833 C 77.575 197.538,78.105 198.461,79.730 201.250 C 81.008 203.443,84.607 209.081,85.074 209.620 C 85.171 209.732,85.513 210.204,85.833 210.670 C 86.356 211.428,88.112 213.825,88.457 214.250 C 88.531 214.342,88.961 214.904,89.412 215.500 C 89.863 216.096,90.574 216.995,90.991 217.497 C 91.408 218.000,91.825 218.510,91.917 218.631 C 92.008 218.752,92.346 219.140,92.667 219.493 C 92.987 219.846,93.513 220.451,93.833 220.836 C 94.923 222.145,96.880 224.341,98.205 225.741 L 99.159 226.750 95.621 226.853 C 92.218 226.952,91.411 227.039,88.667 227.607 C 87.125 227.926,84.639 228.657,84.425 228.854 C 84.338 228.934,84.139 229.000,83.982 229.000 C 83.826 229.000,83.410 229.146,83.057 229.325 C 82.705 229.504,81.978 229.844,81.443 230.080 C 80.907 230.316,80.062 230.770,79.564 231.088 C 79.067 231.406,78.628 231.667,78.588 231.667 C 78.504 231.667,77.028 232.652,76.667 232.950 C 76.529 233.063,75.929 233.542,75.333 234.013 C 72.328 236.390,67.333 242.359,67.333 243.574 C 67.333 243.600,67.095 244.137,66.803 244.769 C 66.512 245.400,66.258 245.992,66.239 246.083 C 66.221 246.175,66.102 246.501,65.976 246.807 L 65.747 247.364 64.949 245.931 C 63.190 242.773,58.202 236.833,57.308 236.833 C 57.230 236.833,57.035 236.702,56.873 236.542 C 55.695 235.369,52.397 233.450,49.000 231.961 C 47.716 231.398,44.421 230.391,43.061 230.146 C 42.523 230.050,41.708 229.900,41.250 229.813 C 38.350 229.265,31.562 229.265,28.667 229.813 C 28.254 229.891,27.392 230.050,26.750 230.165 C 26.108 230.281,25.434 230.453,25.252 230.548 C 25.069 230.643,24.769 230.741,24.585 230.764 C 22.374 231.050,15.415 234.460,13.395 236.250 C 13.291 236.341,12.879 236.679,12.479 237.000 C 11.422 237.848,10.301 238.862,9.957 239.282 C 9.793 239.483,9.416 239.903,9.121 240.217 C 6.458 243.040,3.727 247.746,2.717 251.250 C 2.230 252.942,2.145 253.281,1.842 254.750 C 1.223 257.748,1.128 258.975,1.208 262.917 C 1.251 265.025,1.325 266.900,1.373 267.083 C 1.421 267.267,1.516 267.754,1.583 268.167 C 1.762 269.261,1.776 269.330,2.079 270.594 C 2.881 273.943,5.894 280.528,6.993 281.333 C 7.055 281.379,7.433 281.867,7.831 282.417 C 9.025 284.064,12.643 287.535,14.055 288.390 C 14.346 288.565,14.621 288.758,14.667 288.818 C 14.917 289.147,18.430 291.167,18.752 291.167 C 18.873 291.167,18.997 291.229,19.028 291.306 C 19.187 291.704,24.800 293.685,26.442 293.923 C 26.795 293.974,27.271 294.080,27.500 294.159 C 29.425 294.825,39.445 295.019,41.195 294.424 C 41.317 294.383,41.642 294.316,41.917 294.276 C 42.974 294.121,45.634 293.454,46.750 293.064 C 47.392 292.840,48.045 292.626,48.202 292.589 C 48.817 292.444,52.123 290.868,53.417 290.105 C 55.207 289.048,57.126 287.646,58.500 286.392 C 58.821 286.099,59.236 285.722,59.422 285.555 C 59.764 285.246,62.033 282.653,62.875 281.607 C 63.127 281.294,63.333 280.954,63.333 280.852 C 63.333 280.750,63.400 280.667,63.481 280.667 C 63.562 280.667,63.768 280.385,63.939 280.042 L 64.250 279.417 64.333 285.083 C 64.428 291.494,64.384 291.283,65.812 292.189 L 66.551 292.658 77.707 292.664 C 85.737 292.669,89.045 292.617,89.512 292.477 C 90.055 292.314,91.589 291.000,91.236 291.000 C 91.176 291.000,91.229 290.876,91.355 290.724 C 91.545 290.495,91.590 287.426,91.624 272.516 C 91.670 252.523,91.614 253.485,92.810 252.223 C 93.814 251.164,94.706 250.836,96.602 250.828 C 98.381 250.822,99.457 251.258,100.412 252.372 C 101.543 253.694,101.500 252.911,101.504 272.192 C 101.508 290.245,101.516 290.440,102.250 291.501 C 103.074 292.689,102.823 292.667,115.171 292.667 C 130.036 292.667,128.833 293.332,128.833 285.104 L 128.834 280.083 129.484 281.142 C 129.842 281.724,130.290 282.378,130.480 282.596 C 130.669 282.814,131.005 283.275,131.226 283.621 C 132.315 285.327,135.795 288.785,137.773 290.128 C 139.959 291.611,140.697 292.059,142.026 292.705 C 146.920 295.086,150.687 295.866,156.167 295.633 C 158.829 295.521,159.104 295.496,160.000 295.282 C 160.229 295.228,160.919 295.065,161.533 294.919 C 162.147 294.774,163.009 294.515,163.449 294.342 C 164.203 294.048,164.739 293.860,164.914 293.829 C 164.956 293.821,165.762 293.426,166.704 292.949 L 168.417 292.083 168.461 287.634 L 168.505 283.185 167.711 283.439 C 167.274 283.579,166.767 283.755,166.583 283.831 C 166.255 283.967,164.885 284.285,162.917 284.682 C 160.189 285.232,155.450 284.816,152.244 283.745 C 150.781 283.256,147.949 281.996,147.861 281.795 C 147.831 281.724,147.739 281.667,147.658 281.667 C 147.223 281.667,144.031 279.144,142.648 277.709 C 138.036 272.918,135.749 266.839,136.085 260.260 C 136.141 259.165,136.220 258.215,136.262 258.148 C 136.303 258.081,136.364 257.814,136.397 257.555 C 136.520 256.596,136.708 255.730,136.951 255.000 C 137.088 254.588,137.219 254.175,137.242 254.083 C 137.288 253.898,137.460 253.423,137.665 252.917 C 137.967 252.171,139.239 249.578,139.341 249.500 C 139.401 249.454,139.549 249.229,139.669 249.000 C 139.850 248.655,140.681 247.483,141.417 246.535 C 143.052 244.428,146.485 241.761,149.354 240.369 C 153.864 238.180,160.565 237.436,164.750 238.659 C 167.745 239.535,171.766 241.269,172.499 242.001 C 172.545 242.047,172.883 242.309,173.250 242.581 C 174.367 243.413,174.509 243.538,175.902 244.919 C 179.270 248.257,181.598 252.478,182.321 256.551 C 182.415 257.084,182.531 257.581,182.577 257.657 C 182.913 258.200,183.107 295.723,182.792 299.083 C 182.187 305.527,178.749 311.835,174.000 315.213 C 168.367 319.220,165.769 319.903,155.484 320.080 C 148.366 320.202,148.333 320.199,148.333 319.342 C 148.333 318.612,148.535 318.588,155.650 318.487 C 159.372 318.435,162.567 318.350,162.750 318.299 C 162.933 318.247,163.471 318.153,163.944 318.089 C 165.501 317.878,169.985 316.288,170.333 315.823 C 170.379 315.762,170.585 315.659,170.792 315.595 C 170.998 315.530,171.167 315.408,171.167 315.322 C 171.167 315.237,171.265 315.167,171.385 315.167 C 171.505 315.167,171.749 315.032,171.927 314.868 C 172.105 314.704,172.588 314.334,173.000 314.046 C 174.452 313.032,177.833 309.416,177.833 308.877 C 177.833 308.784,177.927 308.628,178.042 308.531 C 178.615 308.045,180.296 304.170,180.694 302.417 C 180.849 301.733,180.879 301.580,181.156 300.000 C 181.346 298.917,181.294 258.936,181.101 257.917 C 179.434 249.113,172.954 242.159,164.667 240.280 C 162.288 239.741,161.804 239.687,159.488 239.693 C 155.133 239.705,149.191 241.452,147.394 243.249 C 147.274 243.369,146.892 243.641,146.546 243.854 C 146.200 244.067,145.761 244.393,145.571 244.579 C 145.381 244.765,144.930 245.179,144.569 245.500 C 136.133 252.988,135.303 267.916,142.888 275.732 C 143.179 276.032,143.657 276.551,143.951 276.886 C 144.245 277.221,145.108 277.987,145.868 278.587 C 146.628 279.187,147.335 279.746,147.440 279.829 C 147.544 279.911,148.032 280.190,148.523 280.448 C 149.015 280.706,149.454 280.960,149.500 281.013 C 149.889 281.462,153.735 282.697,155.917 283.074 C 158.620 283.540,163.509 283.290,165.333 282.592 C 165.654 282.470,165.954 282.373,166.000 282.378 C 166.172 282.396,167.447 281.938,168.281 281.559 C 170.206 280.685,170.094 280.203,170.232 289.944 C 170.377 300.168,170.334 300.462,168.436 302.320 C 164.708 305.971,163.243 306.209,145.667 306.017 C 142.321 305.980,139.450 306.008,139.288 306.078 C 138.850 306.267,138.964 327.493,139.407 328.098 C 139.704 328.505,141.867 328.583,152.750 328.583 C 165.888 328.583,168.730 328.402,172.250 327.337 C 173.415 326.985,173.548 326.936,174.692 326.434 C 175.027 326.287,175.342 326.167,175.393 326.167 C 175.444 326.167,175.864 325.944,176.326 325.671 C 176.788 325.398,177.167 325.208,177.167 325.247 C 177.167 325.423,181.830 322.371,182.976 321.444 C 184.920 319.873,187.480 317.168,188.679 315.417 C 188.993 314.958,189.291 314.546,189.342 314.500 C 189.443 314.409,189.917 313.632,190.512 312.583 C 192.390 309.275,193.496 306.037,193.928 302.583 C 194.564 297.505,194.809 293.194,194.828 286.750 C 194.834 284.642,194.887 281.961,194.945 280.793 L 195.050 278.669 195.436 279.210 C 195.648 279.507,195.899 279.841,195.994 279.951 C 196.089 280.062,196.167 280.225,196.167 280.312 C 196.167 280.400,196.226 280.497,196.299 280.528 C 196.371 280.558,196.652 280.883,196.924 281.250 C 198.230 283.017,201.651 286.354,203.083 287.260 C 203.358 287.433,203.621 287.624,203.667 287.682 C 204.050 288.173,208.700 290.638,209.750 290.907 C 209.842 290.930,210.029 290.993,210.167 291.045 C 211.582 291.586,213.903 292.098,216.619 292.470 C 219.681 292.888,225.069 292.557,228.792 291.721 L 230.000 291.450 230.000 287.475 C 230.000 285.121,229.936 283.500,229.844 283.500 C 229.758 283.500,229.477 283.580,229.219 283.679 C 225.990 284.907,218.106 284.839,215.625 283.561 C 215.373 283.431,215.167 283.360,215.167 283.403 C 215.167 283.446,214.810 283.329,214.375 283.144 C 213.940 282.958,213.321 282.695,213.000 282.559 C 212.284 282.256,211.113 281.643,211.000 281.512 C 210.954 281.459,210.467 281.124,209.917 280.766 C 206.117 278.299,203.268 274.762,201.314 270.083 C 199.523 265.797,199.384 259.790,200.962 254.917 C 201.111 254.458,201.222 254.067,201.210 254.047 C 201.198 254.027,201.446 253.481,201.761 252.834 C 202.076 252.187,202.333 251.627,202.333 251.589 C 202.333 250.528,206.986 245.125,209.155 243.667 C 209.633 243.346,210.124 242.991,210.247 242.878 C 210.670 242.489,214.418 240.703,215.417 240.414 C 218.421 239.546,218.923 239.464,221.745 239.379 C 226.223 239.243,229.158 239.897,233.000 241.885 C 234.372 242.595,235.060 243.061,237.468 244.911 C 238.113 245.407,238.991 246.312,239.817 247.333 C 240.225 247.838,240.610 248.287,240.671 248.333 C 240.785 248.418,241.586 249.639,241.928 250.250 C 242.031 250.433,242.322 250.949,242.574 251.395 C 243.056 252.248,244.023 254.566,244.251 255.417 C 244.325 255.692,244.406 255.992,244.430 256.083 C 245.209 258.967,245.303 260.954,245.276 273.869 C 245.247 287.330,245.293 286.785,244.211 286.404 L 243.750 286.242 243.651 272.663 C 243.543 257.843,243.576 258.351,242.524 255.237 C 242.246 254.413,241.902 253.517,241.760 253.245 C 241.618 252.973,241.502 252.662,241.501 252.554 C 241.500 252.446,241.406 252.258,241.292 252.137 C 241.177 252.016,240.902 251.579,240.681 251.167 C 239.789 249.503,237.365 246.713,235.757 245.500 C 235.332 245.179,234.781 244.759,234.534 244.566 C 234.286 244.374,233.633 243.968,233.083 243.664 C 232.533 243.361,231.858 242.987,231.583 242.835 C 231.308 242.682,230.933 242.514,230.750 242.461 C 230.567 242.408,229.854 242.162,229.167 241.915 C 225.023 240.423,219.389 240.518,215.083 242.150 C 214.425 242.400,211.111 244.080,210.932 244.254 C 210.832 244.352,210.375 244.687,209.917 244.997 C 205.702 247.854,201.871 254.445,201.486 259.500 C 201.335 261.493,201.446 265.117,201.679 265.764 C 201.748 265.955,201.848 266.389,201.902 266.728 C 201.956 267.068,202.152 267.774,202.337 268.298 C 202.522 268.821,202.703 269.369,202.739 269.515 C 202.871 270.052,203.923 272.111,204.535 273.033 C 204.883 273.555,205.167 274.031,205.167 274.092 C 205.167 274.403,207.937 277.337,209.083 278.240 C 209.542 278.601,209.942 278.957,209.972 279.032 C 210.003 279.106,210.122 279.167,210.238 279.167 C 210.354 279.167,210.584 279.317,210.750 279.500 C 210.916 279.683,211.138 279.833,211.244 279.833 C 211.350 279.833,211.583 279.967,211.760 280.130 C 212.178 280.513,214.670 281.710,215.500 281.925 C 215.637 281.961,216.387 282.185,217.167 282.424 C 220.232 283.361,226.046 283.166,229.500 282.011 C 231.652 281.291,231.500 280.827,231.500 288.117 L 231.500 294.182 231.909 294.591 L 232.318 295.000 243.083 295.000 L 253.848 295.000 254.258 294.591 L 254.667 294.182 254.680 286.716 C 254.687 282.610,254.717 279.325,254.747 279.417 C 254.777 279.508,255.005 280.221,255.253 281.000 C 256.367 284.498,259.105 288.638,261.693 290.734 C 262.119 291.080,262.607 291.487,262.776 291.640 C 263.652 292.429,265.338 293.517,266.208 293.855 C 266.460 293.953,266.667 294.100,266.667 294.183 C 266.667 294.266,266.780 294.333,266.919 294.333 C 267.058 294.333,267.301 294.405,267.461 294.492 C 274.744 298.483,286.195 296.807,294.083 290.597 C 294.267 290.452,294.717 290.104,295.083 289.822 C 295.450 289.541,296.087 288.992,296.500 288.602 C 297.594 287.570,297.615 287.565,298.249 288.193 C 301.041 290.954,304.412 293.582,306.202 294.393 C 309.747 296.000,311.434 296.438,314.750 296.612 C 317.954 296.781,323.410 295.889,324.583 295.005 C 324.675 294.936,324.975 294.826,325.250 294.762 C 325.525 294.697,326.087 294.447,326.500 294.207 C 326.912 293.967,327.250 293.801,327.250 293.838 C 327.250 293.948,329.578 292.294,329.639 292.141 C 329.669 292.063,329.763 292.000,329.846 292.000 C 330.025 292.000,330.560 291.563,331.823 290.386 C 332.333 289.911,332.930 289.368,333.151 289.178 C 333.371 288.988,333.505 288.833,333.448 288.833 C 333.391 288.833,333.586 288.580,333.881 288.271 C 334.610 287.506,335.500 286.384,335.500 286.229 C 335.500 286.159,335.683 285.910,335.906 285.676 C 336.129 285.442,336.541 284.786,336.822 284.218 C 337.103 283.651,337.408 283.140,337.500 283.084 C 337.592 283.027,337.667 282.835,337.667 282.657 C 337.667 282.479,337.746 282.333,337.843 282.333 C 337.940 282.333,337.977 282.264,337.924 282.178 C 337.871 282.093,337.898 281.980,337.984 281.926 C 338.070 281.873,338.377 281.119,338.667 280.250 C 339.223 278.581,339.272 278.551,339.833 279.529 C 340.157 280.093,340.674 280.804,341.042 281.192 C 341.202 281.361,341.333 281.541,341.333 281.591 C 341.333 281.996,346.261 286.790,347.322 287.417 C 347.477 287.508,347.869 287.790,348.193 288.042 C 348.517 288.294,348.842 288.500,348.917 288.500 C 348.991 288.500,349.303 288.691,349.609 288.925 C 349.916 289.159,350.168 289.290,350.169 289.217 C 350.171 289.143,350.227 289.166,350.294 289.267 C 350.562 289.669,354.698 291.416,356.167 291.748 C 359.945 292.601,360.979 292.722,364.500 292.718 C 368.272 292.713,372.269 292.258,373.833 291.655 L 374.250 291.494 374.250 287.580 C 374.250 285.081,374.190 283.668,374.083 283.669 C 373.992 283.670,373.617 283.776,373.250 283.903 C 371.155 284.631,366.203 284.997,363.667 284.610 C 362.410 284.419,359.452 283.661,359.258 283.481 C 359.171 283.400,358.984 283.333,358.842 283.332 C 358.700 283.332,358.369 283.219,358.106 283.082 C 357.843 282.945,357.555 282.833,357.465 282.833 C 357.375 282.833,357.084 282.678,356.817 282.489 C 356.551 282.299,356.333 282.188,356.333 282.241 C 356.333 282.294,356.015 282.137,355.625 281.891 C 354.189 280.984,353.579 280.579,353.403 280.417 C 353.303 280.325,353.003 280.100,352.736 279.917 C 349.288 277.551,345.556 271.647,344.570 267.000 C 344.063 264.608,343.979 260.075,344.406 258.167 C 344.457 257.938,344.544 257.487,344.600 257.167 C 344.847 255.736,346.874 250.677,347.338 250.333 C 347.400 250.287,347.661 249.914,347.918 249.504 C 348.175 249.093,348.486 248.657,348.609 248.533 C 348.733 248.410,348.833 248.252,348.833 248.182 C 348.833 248.020,351.930 244.878,352.590 244.370 C 354.953 242.553,357.887 241.035,360.385 240.340 C 361.691 239.976,361.990 239.906,362.917 239.751 C 363.192 239.705,363.642 239.626,363.917 239.576 C 367.615 238.904,372.567 239.757,376.820 241.797 C 378.967 242.827,382.278 245.318,383.502 246.823 C 383.822 247.217,384.158 247.626,384.250 247.732 C 386.005 249.763,388.004 253.529,388.595 255.917 C 388.663 256.192,388.741 256.492,388.768 256.583 C 389.393 258.688,389.455 260.097,389.485 272.940 C 389.517 286.450,389.517 286.447,388.892 286.605 C 387.776 286.885,387.830 287.589,387.835 272.879 C 387.838 265.601,387.810 259.594,387.773 259.531 C 387.736 259.468,387.659 259.042,387.601 258.583 C 387.543 258.125,387.427 257.487,387.343 257.167 C 387.258 256.846,387.140 256.396,387.081 256.167 C 387.021 255.938,386.910 255.600,386.835 255.417 C 386.615 254.885,386.453 254.432,386.409 254.226 C 386.328 253.850,384.795 250.910,384.509 250.583 C 384.348 250.400,383.972 249.887,383.673 249.444 C 379.041 242.565,368.090 239.108,360.167 242.022 C 359.662 242.208,359.100 242.403,358.917 242.456 C 356.587 243.128,351.924 246.601,350.250 248.910 C 350.067 249.163,349.842 249.458,349.750 249.565 C 349.474 249.887,348.833 250.815,348.833 250.893 C 348.833 250.933,348.533 251.460,348.167 252.063 C 347.800 252.667,347.500 253.204,347.500 253.256 C 347.500 253.309,347.353 253.674,347.174 254.067 C 345.940 256.775,345.221 263.220,345.879 265.667 C 345.916 265.804,346.003 266.217,346.072 266.583 C 346.188 267.194,346.416 268.039,346.634 268.667 C 346.682 268.804,346.729 268.954,346.738 269.000 C 346.763 269.130,347.187 270.176,347.535 270.968 C 347.996 272.017,349.246 274.087,349.739 274.619 C 349.974 274.873,350.167 275.146,350.167 275.228 C 350.167 275.474,353.015 278.226,354.083 279.012 C 354.633 279.417,355.121 279.786,355.167 279.832 C 355.424 280.093,358.836 281.820,359.262 281.906 C 359.439 281.941,359.921 282.078,360.333 282.211 C 362.678 282.964,363.702 283.117,366.667 283.153 C 369.600 283.189,373.932 282.462,374.791 281.790 C 374.931 281.680,375.133 281.716,375.416 281.901 L 375.833 282.174 375.833 288.401 L 375.833 294.628 376.244 294.897 C 376.973 295.375,397.786 295.300,398.399 294.817 L 398.844 294.468 398.790 275.609 C 398.761 265.236,398.690 256.563,398.633 256.333 C 398.576 256.104,398.480 255.467,398.419 254.917 C 398.359 254.367,398.244 253.654,398.163 253.333 C 397.443 250.477,397.246 249.758,396.881 248.667 C 395.211 243.665,391.364 238.376,387.233 235.401 C 386.990 235.226,386.595 234.927,386.354 234.737 C 386.113 234.546,385.804 234.339,385.667 234.277 C 385.529 234.215,385.117 233.975,384.750 233.744 C 379.507 230.440,370.442 228.711,362.667 229.531 C 360.580 229.751,356.214 230.766,355.583 231.178 C 355.492 231.238,355.200 231.339,354.935 231.403 C 354.005 231.625,350.825 233.261,349.200 234.352 C 348.806 234.617,348.450 234.833,348.410 234.833 C 348.343 234.833,347.737 235.323,347.269 235.755 C 347.167 235.850,346.821 236.111,346.500 236.335 C 345.456 237.064,342.495 240.048,341.317 241.558 L 340.167 243.033 340.167 238.133 C 340.167 234.544,340.113 233.180,339.967 233.033 C 339.857 232.923,339.831 232.833,339.909 232.833 C 339.987 232.833,339.878 232.683,339.667 232.500 C 339.184 232.081,317.945 231.978,317.201 232.391 C 316.298 232.892,316.333 232.132,316.333 250.925 C 316.333 269.267,316.334 269.262,315.587 271.049 C 314.735 273.087,312.274 273.807,310.455 272.551 C 309.583 271.949,309.238 271.123,308.867 268.750 C 308.812 268.396,308.641 238.553,308.665 233.398 C 308.666 233.204,308.469 232.848,308.227 232.606 L 307.788 232.167 296.881 232.167 L 285.974 232.167 285.487 232.654 L 285.000 233.141 284.980 249.862 C 284.969 259.059,284.971 266.643,284.983 266.716 C 285.180 267.890,284.055 271.605,283.306 272.253 C 281.827 273.534,279.343 273.418,278.350 272.023 C 277.413 270.708,277.425 270.929,277.373 253.975 L 277.325 238.366 278.288 237.563 C 281.852 234.589,288.924 227.796,291.170 225.190 C 291.672 224.607,292.308 223.887,292.583 223.589 C 292.858 223.292,293.458 222.613,293.917 222.080 C 294.375 221.548,294.825 221.031,294.917 220.931 C 295.008 220.832,295.288 220.475,295.539 220.139 C 295.790 219.804,296.090 219.429,296.207 219.306 C 296.382 219.123,297.816 217.371,298.300 216.750 C 298.904 215.974,300.476 213.823,300.714 213.446 C 300.877 213.187,301.082 212.887,301.169 212.779 C 301.906 211.872,302.287 211.343,303.396 209.686 C 304.095 208.643,304.667 207.758,304.667 207.721 C 304.667 207.683,304.742 207.562,304.833 207.451 C 305.091 207.139,306.167 205.476,306.167 205.389 C 306.167 205.346,306.336 205.072,306.542 204.781 C 307.121 203.962,307.334 203.609,307.441 203.292 C 307.495 203.131,307.605 203.000,307.686 203.000 C 307.767 203.000,307.833 202.922,307.833 202.826 C 307.833 202.730,308.285 201.899,308.838 200.979 C 310.973 197.424,315.706 187.990,315.933 186.836 C 315.960 186.701,316.061 186.563,316.158 186.531 C 316.254 186.499,316.333 186.371,316.333 186.247 C 316.333 186.123,316.421 185.811,316.528 185.553 C 316.635 185.294,316.734 185.046,316.748 185.000 C 316.762 184.954,316.858 184.729,316.962 184.500 C 317.395 183.540,318.154 181.667,318.581 180.500 C 319.064 179.183,319.234 178.738,319.490 178.125 C 319.643 177.757,319.877 176.998,319.888 176.833 C 319.891 176.787,320.076 176.262,320.300 175.667 C 320.523 175.071,320.837 174.133,320.997 173.583 C 321.157 173.033,321.379 172.358,321.489 172.083 C 321.600 171.808,321.678 171.563,321.664 171.537 C 321.650 171.512,321.755 171.099,321.898 170.621 C 322.618 168.210,323.015 166.816,323.261 165.833 C 324.034 162.743,324.284 161.689,324.580 160.250 C 324.712 159.608,324.903 158.708,325.004 158.250 C 325.105 157.792,325.292 156.779,325.419 156.000 C 325.546 155.221,325.682 154.433,325.721 154.250 C 325.761 154.067,325.881 153.354,325.989 152.667 C 326.096 151.979,326.249 151.042,326.329 150.583 C 326.409 150.125,326.475 149.637,326.476 149.500 C 326.477 149.362,326.559 148.575,326.657 147.750 C 326.756 146.925,326.874 145.837,326.920 145.333 C 326.967 144.829,327.042 144.133,327.088 143.787 C 327.473 140.897,327.550 125.796,327.198 122.417 C 326.828 118.864,326.571 116.688,326.441 116.000 C 326.398 115.771,326.311 115.136,326.248 114.589 C 326.185 114.042,326.103 113.442,326.066 113.256 C 326.029 113.069,325.927 112.504,325.840 112.000 C 325.454 109.762,325.163 108.253,324.916 107.208 C 324.770 106.590,324.609 105.896,324.559 105.667 C 324.442 105.128,324.415 105.017,323.995 103.333 C 323.801 102.554,323.612 101.773,323.575 101.598 C 323.539 101.422,323.402 100.935,323.273 100.514 C 323.143 100.094,322.907 99.300,322.748 98.750 C 322.589 98.200,321.903 96.100,321.224 94.083 C 320.544 92.067,319.967 90.342,319.942 90.250 C 319.798 89.726,319.629 89.210,319.505 88.917 C 319.332 88.508,319.119 87.946,319.094 87.833 C 319.060 87.679,317.794 84.421,317.571 83.917 C 317.450 83.642,317.076 82.742,316.740 81.917 C 316.405 81.092,316.076 80.342,316.010 80.250 C 315.943 80.158,315.791 79.821,315.670 79.500 C 315.206 78.264,311.883 71.640,310.613 69.417 C 308.742 66.144,306.630 62.599,306.491 62.500 C 306.426 62.454,306.025 61.854,305.598 61.167 C 304.943 60.111,303.878 58.550,302.621 56.806 C 302.467 56.592,302.058 56.020,301.712 55.535 C 301.163 54.765,300.234 53.565,298.272 51.093 C 297.317 49.890,295.226 47.384,294.567 46.652 C 291.428 43.166,290.244 41.904,288.248 39.917 C 286.318 37.994,284.697 36.469,282.580 34.583 C 281.757 33.850,281.058 33.194,281.028 33.125 C 280.997 33.056,280.901 33.000,280.814 33.000 C 280.727 33.000,280.401 32.745,280.089 32.433 C 279.777 32.122,279.480 31.909,279.428 31.961 C 279.376 32.013,279.333 31.981,279.333 31.890 C 279.333 31.798,278.761 31.280,278.062 30.737 C 277.363 30.194,276.707 29.673,276.604 29.579 C 276.501 29.484,275.967 29.056,275.417 28.628 C 274.867 28.199,274.291 27.738,274.138 27.603 C 273.984 27.469,273.709 27.278,273.526 27.180 C 273.342 27.082,273.093 26.903,272.971 26.782 C 272.850 26.660,272.525 26.417,272.250 26.240 C 271.975 26.064,271.675 25.860,271.583 25.788 C 270.838 25.200,269.472 24.249,268.958 23.958 C 268.615 23.764,268.333 23.544,268.333 23.469 C 268.333 23.395,268.253 23.333,268.156 23.333 C 268.058 23.333,267.732 23.146,267.431 22.917 C 267.131 22.688,266.817 22.499,266.734 22.497 C 266.651 22.496,266.329 22.271,266.019 21.997 C 265.709 21.724,265.352 21.500,265.227 21.500 C 265.102 21.500,265.000 21.444,265.000 21.375 C 265.000 21.306,264.606 21.035,264.125 20.771 C 263.644 20.508,262.987 20.127,262.667 19.924 C 260.020 18.253,250.788 13.294,250.084 13.165 C 250.007 13.151,248.530 12.509,247.583 12.077 C 247.308 11.952,246.483 11.617,245.750 11.333 C 245.017 11.050,244.192 10.714,243.917 10.588 C 241.765 9.601,235.513 7.449,231.250 6.228 C 228.039 5.308,224.870 4.520,223.250 4.239 C 222.975 4.191,222.487 4.084,222.167 4.000 C 221.343 3.786,219.277 3.376,218.000 3.174 C 217.404 3.079,216.729 2.964,216.500 2.919 C 216.067 2.832,213.494 2.459,211.333 2.170 C 209.014 1.859,207.424 1.683,205.917 1.570 C 205.092 1.508,204.229 1.425,204.000 1.385 C 202.772 1.173,187.065 1.203,184.348 1.423 M201.250 7.244 C 201.985 7.299,204.683 7.490,206.083 7.585 C 207.469 7.680,210.824 8.092,212.833 8.414 C 213.063 8.451,213.887 8.566,214.667 8.669 C 215.446 8.771,216.421 8.933,216.833 9.027 C 217.246 9.122,217.825 9.225,218.119 9.257 C 218.414 9.289,219.127 9.426,219.703 9.562 C 220.279 9.698,220.938 9.846,221.167 9.892 C 224.196 10.495,228.763 11.697,232.667 12.919 C 233.446 13.163,234.346 13.434,234.667 13.522 C 234.987 13.610,235.400 13.747,235.583 13.825 C 235.767 13.903,236.329 14.116,236.833 14.299 C 240.707 15.698,243.696 16.897,246.296 18.095 C 246.780 18.318,247.207 18.500,247.246 18.500 C 247.388 18.500,252.138 20.860,253.667 21.691 C 254.537 22.164,255.588 22.731,256.000 22.951 C 256.412 23.171,257.237 23.641,257.833 23.994 C 258.429 24.348,259.235 24.807,259.625 25.015 C 260.015 25.223,260.333 25.443,260.333 25.504 C 260.333 25.566,260.633 25.751,261.000 25.917 C 261.367 26.082,261.667 26.276,261.667 26.347 C 261.667 26.419,261.830 26.529,262.029 26.592 C 262.228 26.656,262.472 26.778,262.571 26.863 C 262.669 26.949,263.237 27.339,263.833 27.730 C 265.815 29.029,266.583 29.568,266.639 29.702 C 266.669 29.774,266.771 29.833,266.864 29.833 C 266.957 29.833,267.630 30.283,268.360 30.833 C 269.090 31.383,269.754 31.833,269.835 31.833 C 269.917 31.833,270.043 31.929,270.117 32.047 C 270.190 32.164,271.029 32.858,271.981 33.588 C 273.867 35.036,274.949 35.920,277.167 37.823 C 277.396 38.019,277.808 38.373,278.083 38.608 C 281.116 41.202,287.830 47.931,289.833 50.385 C 290.063 50.665,290.456 51.095,290.708 51.341 C 290.960 51.586,291.167 51.840,291.167 51.905 C 291.167 51.970,291.260 52.120,291.375 52.239 C 291.813 52.690,292.601 53.609,293.030 54.168 C 293.275 54.488,293.668 54.975,293.901 55.250 C 294.135 55.525,294.385 55.825,294.455 55.917 C 296.180 58.164,297.669 60.157,297.984 60.638 C 298.204 60.974,298.466 61.305,298.567 61.372 C 298.674 61.444,298.681 61.497,298.583 61.500 C 298.481 61.503,298.485 61.552,298.594 61.628 C 298.812 61.778,300.385 64.062,301.205 65.420 C 301.538 65.971,301.966 66.602,302.155 66.820 C 302.345 67.039,302.500 67.285,302.500 67.368 C 302.500 67.451,302.865 68.096,303.310 68.801 C 303.756 69.506,304.697 71.133,305.403 72.417 C 306.108 73.700,306.753 74.862,306.836 75.000 C 307.063 75.379,308.701 78.706,309.573 80.559 C 310.445 82.413,310.443 82.453,309.415 83.547 C 309.003 83.985,308.667 84.416,308.667 84.505 C 308.667 84.594,308.592 84.667,308.500 84.667 C 308.408 84.667,308.333 84.742,308.333 84.833 C 308.333 84.925,308.202 85.139,308.042 85.308 C 307.728 85.640,307.736 85.630,306.253 87.500 C 305.708 88.188,305.184 88.834,305.089 88.936 C 304.542 89.526,304.167 90.021,304.167 90.154 C 304.167 90.237,304.110 90.331,304.042 90.361 C 303.907 90.421,303.219 91.221,302.417 92.250 C 301.962 92.834,300.789 94.303,299.755 95.583 C 299.533 95.858,298.875 96.683,298.294 97.417 C 297.000 99.048,296.655 99.472,296.333 99.822 C 296.196 99.972,295.860 100.392,295.586 100.755 C 294.987 101.553,294.765 101.829,293.976 102.762 C 293.642 103.157,293.008 103.953,292.567 104.532 C 292.126 105.110,291.719 105.621,291.663 105.667 C 291.536 105.769,289.043 108.866,288.583 109.491 C 288.400 109.741,288.119 110.075,287.958 110.234 C 287.798 110.394,287.667 110.579,287.667 110.647 C 287.667 110.715,287.458 110.991,287.202 111.260 C 286.947 111.530,286.329 112.275,285.829 112.917 C 285.330 113.558,284.845 114.164,284.752 114.262 C 284.659 114.361,284.396 114.686,284.167 114.985 C 283.938 115.284,283.671 115.616,283.575 115.723 C 283.296 116.033,278.814 121.636,278.100 122.568 C 277.742 123.035,277.405 123.454,277.349 123.500 C 277.294 123.546,277.037 123.866,276.780 124.212 C 276.522 124.557,276.130 125.045,275.908 125.295 C 275.687 125.545,275.448 125.826,275.378 125.918 C 275.307 126.011,274.951 126.461,274.586 126.918 C 274.220 127.376,273.866 127.825,273.798 127.917 C 273.730 128.008,273.278 128.571,272.794 129.167 C 272.309 129.762,271.624 130.610,271.271 131.051 C 270.489 132.026,270.523 132.058,270.408 130.237 C 270.357 129.419,270.247 128.262,270.164 127.667 C 270.081 127.071,269.967 126.171,269.909 125.667 C 269.808 124.775,269.453 122.686,269.145 121.167 C 269.061 120.754,268.964 120.252,268.929 120.051 C 268.893 119.850,268.816 119.607,268.757 119.512 C 268.698 119.416,268.622 119.093,268.587 118.794 C 268.422 117.357,266.472 111.067,265.569 109.058 C 265.440 108.769,265.333 108.487,265.333 108.431 C 265.333 108.333,264.951 107.441,264.326 106.083 C 264.157 105.717,263.857 105.042,263.660 104.583 C 262.793 102.575,259.575 96.659,259.172 96.333 C 259.115 96.287,258.761 95.758,258.386 95.158 C 257.834 94.275,256.877 92.917,255.866 91.583 C 255.797 91.492,255.518 91.117,255.246 90.750 C 253.221 88.016,248.424 82.866,245.826 80.636 C 245.326 80.207,244.717 79.682,244.472 79.469 C 243.556 78.673,241.036 76.683,240.502 76.333 C 240.292 76.196,239.924 75.929,239.685 75.741 C 238.831 75.069,235.501 72.851,234.667 72.399 C 234.346 72.226,234.046 72.046,234.000 72.000 C 233.954 71.954,233.767 71.835,233.583 71.735 C 233.400 71.635,232.838 71.327,232.333 71.050 C 231.829 70.774,230.742 70.207,229.917 69.791 C 228.583 69.117,227.906 68.798,225.650 67.779 C 222.977 66.572,217.203 64.650,214.083 63.929 C 213.442 63.781,212.692 63.591,212.417 63.507 C 212.142 63.423,211.542 63.307,211.083 63.248 C 210.625 63.189,209.537 63.000,208.667 62.827 C 207.796 62.655,206.221 62.435,205.167 62.340 C 204.112 62.245,203.063 62.129,202.833 62.083 C 200.933 61.702,192.185 61.844,187.667 62.329 C 185.798 62.530,185.385 62.594,182.208 63.175 C 181.681 63.272,181.100 63.373,180.917 63.399 C 180.733 63.426,180.421 63.500,180.222 63.564 C 179.809 63.697,179.394 63.797,178.342 64.015 C 177.934 64.100,177.372 64.242,177.092 64.332 C 176.812 64.422,175.908 64.689,175.083 64.927 C 173.563 65.364,170.665 66.348,169.750 66.737 C 169.475 66.854,168.987 67.048,168.667 67.168 C 168.346 67.288,168.012 67.450,167.925 67.527 C 167.838 67.604,167.674 67.667,167.560 67.667 C 167.203 67.667,162.731 69.802,160.628 70.977 C 158.431 72.204,157.565 72.708,157.333 72.896 C 157.196 73.007,156.878 73.200,156.628 73.326 C 156.377 73.451,156.040 73.675,155.878 73.823 C 155.548 74.126,154.024 75.167,153.910 75.167 C 153.836 75.167,151.821 76.660,151.667 76.828 C 151.621 76.879,151.283 77.119,150.917 77.362 C 150.550 77.605,150.060 77.979,149.828 78.193 C 149.596 78.408,148.996 78.918,148.495 79.327 C 143.257 83.603,136.255 91.766,133.019 97.368 C 131.383 100.200,130.337 102.119,130.335 102.292 C 130.334 102.406,130.277 102.500,130.207 102.500 C 130.138 102.500,129.982 102.744,129.860 103.042 C 129.738 103.340,129.390 104.108,129.087 104.750 C 122.754 118.141,120.713 133.867,123.357 148.917 C 123.534 149.925,123.711 150.900,123.750 151.083 C 123.790 151.267,123.868 151.679,123.925 152.000 C 124.236 153.767,125.893 159.540,126.484 160.917 C 126.563 161.100,127.021 162.262,127.502 163.500 C 128.514 166.103,131.771 172.834,132.180 173.167 C 132.236 173.213,132.387 173.457,132.516 173.711 C 132.860 174.389,135.760 178.929,136.001 179.167 C 136.047 179.213,136.545 179.858,137.107 180.600 C 137.668 181.343,138.244 182.093,138.386 182.267 C 138.528 182.441,139.043 183.076,139.531 183.677 C 141.867 186.563,146.498 191.098,149.732 193.666 C 149.906 193.804,150.281 194.107,150.565 194.340 C 151.378 195.005,154.197 197.087,154.750 197.431 C 155.025 197.602,155.287 197.789,155.333 197.846 C 155.379 197.903,155.754 198.137,156.167 198.365 C 156.579 198.594,157.461 199.130,158.127 199.557 C 158.792 199.984,159.368 200.333,159.405 200.333 C 159.443 200.333,160.130 200.712,160.932 201.175 C 162.155 201.882,163.676 202.666,164.000 202.757 C 164.046 202.769,164.758 203.096,165.583 203.483 C 167.869 204.553,167.966 204.594,169.750 205.253 C 170.667 205.591,171.567 205.932,171.750 206.011 C 172.158 206.185,174.147 206.834,174.522 206.915 C 174.671 206.947,175.136 207.090,175.555 207.232 C 175.974 207.374,176.490 207.523,176.700 207.563 C 176.911 207.602,177.683 207.795,178.417 207.990 C 181.300 208.758,185.626 209.480,190.333 209.979 C 191.796 210.134,201.798 210.107,202.833 209.945 C 203.154 209.895,203.792 209.815,204.250 209.767 C 204.708 209.720,205.683 209.601,206.417 209.503 C 207.150 209.405,208.027 209.289,208.365 209.245 C 209.458 209.103,213.039 208.354,214.667 207.927 C 215.537 207.698,216.438 207.465,216.667 207.409 C 218.604 206.931,223.538 205.161,225.917 204.091 C 226.375 203.885,227.237 203.502,227.833 203.239 C 228.429 202.977,229.479 202.467,230.167 202.107 C 230.854 201.747,231.642 201.338,231.917 201.199 C 232.615 200.844,236.898 198.288,237.000 198.166 C 237.046 198.111,237.367 197.894,237.713 197.683 C 238.059 197.473,238.434 197.210,238.546 197.099 C 238.658 196.989,238.862 196.845,239.000 196.779 C 239.255 196.658,240.211 195.951,242.268 194.363 C 245.978 191.498,250.599 186.969,253.988 182.875 C 254.538 182.211,255.068 181.517,255.166 181.334 C 255.339 181.012,255.514 181.000,260.132 181.000 C 266.363 181.000,266.192 181.056,268.417 178.305 C 269.150 177.399,269.890 176.491,270.061 176.287 C 270.231 176.083,270.569 175.658,270.811 175.343 C 271.052 175.027,271.462 174.539,271.722 174.259 C 271.982 173.979,272.544 173.300,272.972 172.750 C 273.400 172.200,273.862 171.624,274.000 171.469 C 274.137 171.314,274.400 170.990,274.583 170.747 C 274.767 170.505,274.993 170.219,275.086 170.112 C 275.249 169.925,278.138 166.438,279.227 165.115 C 279.515 164.766,279.828 164.391,279.923 164.282 C 280.018 164.173,280.609 163.446,281.236 162.667 C 282.577 161.000,283.352 160.045,283.583 159.777 C 283.675 159.670,284.047 159.208,284.411 158.750 C 284.775 158.292,285.122 157.879,285.183 157.833 C 285.305 157.742,286.136 156.741,286.917 155.745 C 287.192 155.395,287.493 155.027,287.586 154.929 C 287.679 154.830,288.014 154.412,288.331 154.000 C 288.649 153.587,288.950 153.212,289.001 153.167 C 289.052 153.121,289.530 152.558,290.062 151.917 C 290.595 151.275,291.305 150.423,291.640 150.024 C 291.976 149.625,292.325 149.165,292.417 149.002 C 292.508 148.839,292.921 148.329,293.333 147.868 C 293.746 147.407,294.271 146.785,294.500 146.486 C 294.729 146.186,294.992 145.861,295.083 145.762 C 295.175 145.664,295.544 145.208,295.903 144.750 C 296.261 144.292,296.636 143.842,296.736 143.750 C 296.835 143.658,297.359 143.021,297.900 142.333 C 298.441 141.646,298.966 141.008,299.066 140.917 C 299.220 140.777,300.541 139.146,300.958 138.580 C 301.027 138.487,301.346 138.108,301.667 137.738 C 301.987 137.368,302.522 136.732,302.855 136.324 C 303.680 135.314,305.259 133.370,305.803 132.696 C 306.049 132.392,306.424 131.942,306.637 131.696 C 306.850 131.451,307.225 130.987,307.470 130.667 C 307.716 130.346,307.996 130.008,308.092 129.917 C 308.188 129.825,308.563 129.375,308.925 128.917 C 309.589 128.075,310.109 127.444,310.419 127.103 C 310.512 127.000,310.848 126.579,311.165 126.167 C 311.482 125.754,311.783 125.379,311.835 125.333 C 311.886 125.287,312.225 124.875,312.589 124.417 C 312.953 123.958,313.290 123.546,313.339 123.500 C 313.388 123.454,313.860 122.892,314.388 122.250 C 314.916 121.608,315.495 120.908,315.674 120.694 C 315.853 120.480,316.000 120.274,316.000 120.236 C 316.000 120.198,316.131 120.031,316.292 119.866 C 316.452 119.700,316.771 119.332,317.000 119.048 C 317.229 118.763,317.792 118.066,318.250 117.497 C 318.708 116.929,319.354 116.161,319.686 115.792 L 320.288 115.119 320.480 116.435 C 321.718 124.911,321.934 134.818,321.078 143.833 C 320.861 146.126,320.535 148.788,320.334 149.917 C 320.252 150.375,320.140 151.162,320.085 151.667 C 320.030 152.171,319.920 152.921,319.840 153.333 C 319.760 153.746,319.572 154.758,319.421 155.583 C 319.270 156.408,319.078 157.383,318.995 157.750 C 318.913 158.117,318.723 158.979,318.575 159.667 C 318.426 160.354,318.192 161.367,318.055 161.917 C 317.822 162.847,317.513 164.101,317.173 165.500 C 317.095 165.821,316.757 166.983,316.421 168.083 C 316.086 169.183,315.785 170.196,315.753 170.333 C 315.660 170.734,314.335 174.717,314.173 175.083 C 314.092 175.267,313.898 175.792,313.743 176.250 C 313.587 176.708,313.364 177.308,313.248 177.583 C 313.132 177.858,312.982 178.271,312.916 178.500 C 312.849 178.729,312.616 179.313,312.397 179.797 C 312.179 180.281,312.000 180.735,312.000 180.806 C 312.000 180.968,310.442 184.585,309.512 186.583 C 307.473 190.962,307.090 191.766,306.962 191.940 C 306.844 192.102,306.126 193.439,304.872 195.833 C 304.705 196.154,304.234 196.979,303.827 197.667 C 303.420 198.354,303.011 199.051,302.919 199.215 C 302.386 200.157,299.758 204.430,299.669 204.500 C 299.611 204.546,298.978 205.446,298.264 206.500 C 296.317 209.374,295.795 210.109,295.209 210.805 C 295.002 211.050,294.834 211.295,294.834 211.349 C 294.833 211.404,294.675 211.629,294.481 211.849 C 294.287 212.070,293.671 212.850,293.112 213.583 C 292.554 214.317,292.019 215.002,291.923 215.106 C 291.719 215.330,291.454 215.650,290.398 216.951 C 289.967 217.482,289.481 218.067,289.318 218.250 C 289.155 218.433,288.848 218.783,288.636 219.027 C 286.239 221.785,280.069 228.065,277.934 229.919 C 277.302 230.468,276.573 231.104,276.313 231.333 C 276.053 231.563,275.729 231.844,275.594 231.958 C 275.402 232.120,273.032 232.167,264.981 232.167 L 254.615 232.167 254.057 232.592 L 253.500 233.017 253.490 242.217 L 253.480 251.417 253.150 250.250 C 252.969 249.608,252.803 249.008,252.781 248.917 C 252.759 248.825,252.697 248.675,252.643 248.583 C 252.590 248.492,252.493 248.196,252.429 247.927 C 252.256 247.209,250.966 244.525,250.269 243.436 C 249.938 242.918,249.667 242.449,249.667 242.394 C 249.667 242.264,248.032 240.092,247.310 239.264 C 244.403 235.925,240.996 233.499,236.750 231.742 C 231.986 229.772,225.889 228.889,220.026 229.321 C 218.591 229.427,217.304 229.519,217.167 229.525 C 216.629 229.549,214.293 230.092,212.917 230.511 C 209.900 231.431,205.402 233.590,204.363 234.616 C 204.242 234.735,204.087 234.833,204.020 234.833 C 203.952 234.833,203.751 234.967,203.573 235.130 C 203.395 235.293,202.954 235.649,202.593 235.922 C 201.119 237.031,199.262 238.818,197.917 240.419 C 197.458 240.965,196.957 241.552,196.803 241.725 C 195.780 242.870,193.516 246.682,192.755 248.542 C 192.350 249.532,192.313 249.528,191.940 248.458 C 191.598 247.474,190.512 245.128,190.340 245.000 C 190.279 244.954,189.976 244.467,189.669 243.917 C 188.874 242.497,187.561 240.778,186.138 239.297 C 185.893 239.042,185.723 238.833,185.761 238.833 C 185.822 238.833,185.218 238.272,183.164 236.420 C 182.842 236.130,182.354 235.749,182.081 235.575 C 181.807 235.400,181.546 235.218,181.500 235.170 C 181.454 235.122,181.079 234.858,180.667 234.583 C 180.254 234.309,179.879 234.045,179.833 233.997 C 179.787 233.949,179.563 233.815,179.333 233.698 C 179.104 233.582,178.542 233.264,178.083 232.993 C 177.625 232.722,177.078 232.425,176.867 232.334 C 176.656 232.243,176.056 231.975,175.534 231.738 C 169.018 228.781,160.686 227.820,153.333 229.177 C 152.371 229.354,151.433 229.527,151.250 229.560 C 150.079 229.774,146.779 230.861,145.567 231.433 C 145.100 231.653,144.638 231.833,144.539 231.833 C 144.441 231.833,144.336 231.890,144.306 231.958 C 144.275 232.027,143.725 232.341,143.083 232.656 C 139.861 234.238,135.554 237.665,133.022 240.664 C 132.597 241.167,132.078 241.767,131.868 241.998 C 131.658 242.228,131.135 242.942,130.706 243.583 C 130.277 244.225,129.780 244.919,129.601 245.125 C 129.422 245.331,129.331 245.500,129.399 245.500 C 129.467 245.500,129.358 245.731,129.157 246.013 C 128.957 246.295,128.569 246.987,128.296 247.551 C 127.747 248.683,127.554 248.612,127.250 247.167 C 127.183 246.846,127.066 246.506,126.991 246.411 C 126.915 246.317,126.818 246.054,126.775 245.828 C 126.732 245.602,126.624 245.229,126.534 245.000 C 126.261 244.304,125.499 242.604,125.308 242.263 C 125.209 242.087,124.940 241.600,124.710 241.180 C 123.412 238.810,119.708 234.759,117.417 233.204 C 117.050 232.955,116.712 232.706,116.667 232.650 C 116.592 232.560,115.638 231.930,114.750 231.386 C 114.567 231.273,113.517 230.731,112.417 230.181 C 110.121 229.032,109.631 228.624,105.003 223.999 C 101.804 220.802,100.340 219.256,98.917 217.570 C 98.458 217.027,97.933 216.429,97.750 216.240 C 97.567 216.052,97.192 215.607,96.917 215.252 C 96.642 214.897,96.304 214.487,96.167 214.340 C 96.029 214.193,95.694 213.775,95.423 213.411 C 95.151 213.048,94.851 212.665,94.756 212.562 C 94.197 211.953,92.427 209.593,91.086 207.667 C 90.543 206.887,90.056 206.213,90.002 206.167 C 89.949 206.121,89.611 205.633,89.251 205.083 C 88.891 204.533,88.536 204.008,88.461 203.917 C 88.197 203.593,85.322 198.961,84.806 198.028 C 84.519 197.509,84.238 197.046,84.182 197.000 C 84.126 196.954,83.881 196.542,83.638 196.083 C 83.394 195.625,82.922 194.762,82.589 194.167 C 82.075 193.248,78.612 186.264,78.166 185.250 C 76.702 181.915,75.252 178.282,74.575 176.250 C 74.361 175.608,73.987 174.521,73.743 173.833 C 73.499 173.146,73.277 172.471,73.248 172.333 C 73.220 172.196,73.084 171.746,72.946 171.333 C 71.838 168.019,70.253 161.490,69.488 157.083 C 69.393 156.533,69.250 155.821,69.171 155.500 C 69.092 155.179,68.970 154.429,68.899 153.833 C 68.828 153.237,68.761 152.712,68.750 152.667 C 68.739 152.621,68.673 152.096,68.604 151.500 C 68.535 150.904,68.414 150.004,68.334 149.500 C 68.151 148.335,67.986 146.719,67.908 145.333 C 67.875 144.737,67.811 144.025,67.766 143.750 C 67.357 141.249,67.345 127.583,67.750 124.750 C 67.789 124.475,67.863 123.650,67.914 122.917 C 67.998 121.715,68.226 119.503,68.409 118.109 C 68.447 117.820,68.524 117.239,68.579 116.818 C 68.634 116.397,68.712 115.872,68.752 115.651 C 68.791 115.431,68.897 114.763,68.987 114.167 C 69.077 113.571,69.226 112.671,69.319 112.167 C 69.590 110.696,69.661 110.285,69.754 109.667 C 69.996 108.055,71.473 101.865,72.279 99.083 C 72.598 97.983,72.885 96.971,72.916 96.833 C 73.149 95.818,74.716 91.228,74.889 91.055 C 74.950 90.994,75.000 90.813,75.000 90.653 C 75.000 90.492,75.157 89.999,75.348 89.555 C 75.540 89.112,75.722 88.622,75.754 88.465 C 75.786 88.308,75.937 87.895,76.090 87.548 C 76.242 87.201,76.435 86.748,76.517 86.542 C 76.759 85.934,76.955 85.475,77.407 84.453 C 77.642 83.924,77.833 83.460,77.833 83.423 C 77.833 83.272,79.307 80.089,80.778 77.061 C 81.657 75.255,84.065 70.881,85.355 68.750 C 85.521 68.475,85.782 68.027,85.935 67.755 C 86.088 67.483,86.784 66.396,87.481 65.339 C 88.179 64.282,88.787 63.339,88.833 63.244 C 88.938 63.026,92.689 57.779,92.821 57.667 C 92.874 57.621,93.255 57.133,93.667 56.583 C 94.079 56.033,94.455 55.546,94.504 55.500 C 94.552 55.454,94.851 55.079,95.169 54.667 C 95.486 54.254,95.821 53.833,95.914 53.732 C 96.299 53.310,96.961 52.526,97.657 51.665 C 98.064 51.162,98.570 50.591,98.782 50.397 C 98.994 50.203,99.167 49.997,99.167 49.939 C 99.167 49.881,99.298 49.697,99.458 49.530 C 99.619 49.363,100.837 48.079,102.167 46.677 C 103.496 45.275,104.679 44.042,104.795 43.939 C 104.912 43.835,105.668 43.110,106.475 42.327 C 107.282 41.544,108.835 40.119,109.925 39.160 C 111.015 38.201,112.134 37.201,112.412 36.938 C 112.690 36.675,113.104 36.338,113.333 36.190 C 113.563 36.041,114.013 35.683,114.333 35.394 C 114.654 35.105,115.292 34.584,115.750 34.237 C 116.208 33.890,117.351 33.020,118.288 32.303 C 119.226 31.586,120.064 31.000,120.150 31.000 C 120.235 31.000,120.331 30.939,120.361 30.866 C 120.486 30.564,126.821 26.295,128.583 25.325 C 129.133 25.022,129.771 24.648,130.000 24.494 C 130.229 24.340,130.754 24.025,131.167 23.795 C 131.579 23.564,132.479 23.052,133.167 22.656 C 134.669 21.792,142.743 17.762,143.333 17.581 C 143.563 17.511,144.139 17.277,144.614 17.060 C 145.090 16.844,145.522 16.667,145.574 16.667 C 145.627 16.667,145.988 16.523,146.377 16.348 C 147.772 15.718,154.905 13.115,155.750 12.927 C 155.952 12.882,157.931 12.296,159.750 11.743 C 160.483 11.520,161.383 11.267,161.750 11.181 C 165.299 10.346,166.129 10.153,166.417 10.097 C 166.800 10.023,167.464 9.879,168.417 9.664 C 168.783 9.582,169.721 9.391,170.500 9.242 C 171.279 9.092,172.061 8.940,172.238 8.905 C 172.414 8.870,173.132 8.763,173.833 8.667 C 174.535 8.571,175.290 8.454,175.512 8.407 C 176.222 8.259,181.680 7.624,182.167 7.633 C 182.304 7.636,183.017 7.574,183.750 7.495 C 184.483 7.416,186.321 7.302,187.833 7.242 C 189.346 7.182,190.621 7.093,190.667 7.045 C 190.750 6.957,199.664 7.125,201.250 7.244 M127.686 47.307 C 127.446 47.437,127.100 47.628,126.917 47.731 C 126.527 47.951,124.875 49.105,123.917 49.827 C 123.550 50.103,123.025 50.478,122.750 50.659 C 122.475 50.840,122.025 51.182,121.750 51.418 C 121.475 51.655,121.175 51.903,121.083 51.970 C 120.518 52.384,119.376 53.300,119.071 53.583 C 118.874 53.767,118.197 54.367,117.567 54.917 C 115.977 56.305,111.441 60.843,110.243 62.244 C 109.697 62.883,109.100 63.562,108.917 63.754 C 108.455 64.237,106.483 66.697,105.579 67.917 C 105.308 68.283,105.046 68.621,104.998 68.667 C 104.950 68.712,104.465 69.425,103.920 70.250 C 103.375 71.075,102.886 71.787,102.833 71.833 C 102.754 71.902,101.823 73.376,100.882 74.920 C 97.169 81.020,93.599 89.237,91.725 96.000 C 91.585 96.504,91.398 97.179,91.309 97.500 C 91.220 97.821,91.115 98.233,91.076 98.417 C 91.037 98.600,90.925 99.087,90.827 99.500 C 88.975 107.291,87.990 117.205,88.885 119.034 C 90.191 121.703,94.578 120.758,94.460 117.833 C 94.423 116.912,94.729 112.423,94.937 110.833 C 95.075 109.779,95.214 108.692,95.245 108.417 C 95.351 107.479,95.657 105.585,95.838 104.750 C 95.937 104.292,96.126 103.392,96.258 102.750 C 96.494 101.605,96.572 101.265,97.055 99.250 C 97.492 97.425,98.948 92.812,99.424 91.743 C 99.548 91.464,99.882 90.605,100.166 89.835 C 100.450 89.066,100.933 87.906,101.239 87.260 C 101.545 86.613,101.997 85.606,102.242 85.022 C 102.487 84.438,102.883 83.650,103.122 83.272 C 103.361 82.893,103.551 82.566,103.543 82.545 C 103.489 82.397,103.734 81.833,103.853 81.833 C 103.934 81.833,104.000 81.738,104.000 81.621 C 104.000 81.504,104.343 80.857,104.762 80.184 C 105.181 79.511,105.594 78.800,105.681 78.605 C 105.767 78.410,105.968 78.054,106.127 77.814 C 106.287 77.575,106.639 77.012,106.910 76.564 C 107.182 76.116,107.463 75.725,107.535 75.694 C 107.608 75.664,107.667 75.539,107.667 75.417 C 107.667 75.294,107.726 75.169,107.798 75.139 C 107.871 75.108,108.180 74.671,108.487 74.167 C 108.793 73.662,109.098 73.212,109.164 73.167 C 109.230 73.121,109.472 72.783,109.702 72.416 C 109.932 72.048,110.280 71.561,110.476 71.332 C 110.672 71.104,111.404 70.204,112.103 69.333 C 112.803 68.462,113.721 67.337,114.145 66.833 C 114.953 65.872,120.966 59.821,121.673 59.256 C 121.899 59.076,122.758 58.361,123.583 57.666 C 124.408 56.972,125.346 56.222,125.667 56.001 C 125.987 55.780,126.287 55.555,126.333 55.500 C 126.379 55.445,126.679 55.219,127.000 54.997 C 127.321 54.776,127.675 54.505,127.787 54.397 C 127.899 54.288,128.274 54.027,128.621 53.817 C 128.967 53.606,129.287 53.392,129.333 53.341 C 129.379 53.289,129.729 53.044,130.112 52.797 C 133.354 50.696,131.051 45.485,127.686 47.307 M203.167 68.077 C 203.762 68.134,204.588 68.249,205.000 68.333 C 205.412 68.416,206.162 68.531,206.667 68.587 C 207.171 68.643,208.483 68.869,209.583 69.090 C 210.683 69.311,211.771 69.527,212.000 69.570 C 212.494 69.663,214.541 70.229,215.833 70.630 C 216.338 70.786,216.825 70.918,216.917 70.923 C 217.008 70.928,217.247 71.022,217.447 71.133 C 217.648 71.243,217.936 71.333,218.089 71.333 C 218.241 71.333,218.603 71.439,218.891 71.569 C 219.180 71.698,219.829 71.954,220.333 72.137 C 220.838 72.320,221.475 72.564,221.750 72.677 C 222.025 72.791,222.332 72.902,222.432 72.924 C 223.422 73.136,231.775 77.465,232.398 78.089 C 232.532 78.223,232.816 78.410,233.029 78.506 C 233.551 78.739,234.507 79.333,235.099 79.792 C 235.365 79.998,236.221 80.632,237.000 81.201 C 237.779 81.770,238.454 82.276,238.500 82.326 C 238.546 82.376,238.921 82.690,239.333 83.023 C 239.746 83.357,240.245 83.769,240.443 83.940 C 240.641 84.110,241.126 84.512,241.520 84.833 C 242.391 85.543,246.764 89.890,247.305 90.584 C 247.519 90.859,247.969 91.383,248.305 91.750 C 248.642 92.117,249.233 92.829,249.619 93.333 C 250.005 93.837,250.520 94.475,250.762 94.750 C 251.224 95.274,251.623 95.850,253.415 98.574 C 254.469 100.176,255.023 101.052,255.423 101.750 C 256.327 103.325,258.014 106.604,258.553 107.833 C 258.972 108.787,259.520 110.049,259.749 110.583 C 261.050 113.620,262.929 120.061,263.421 123.167 C 263.562 124.060,263.631 124.443,263.751 125.000 C 263.985 126.090,264.326 129.004,264.463 131.083 C 264.529 132.092,264.583 134.386,264.583 136.181 L 264.583 139.445 264.083 140.032 C 263.529 140.683,263.348 140.909,262.504 142.001 C 262.186 142.413,261.882 142.787,261.829 142.833 C 261.696 142.948,258.385 147.074,257.683 148.000 C 257.370 148.412,257.066 148.787,257.007 148.833 C 256.947 148.879,256.681 149.217,256.414 149.583 C 255.416 150.955,256.335 150.833,247.002 150.833 C 239.200 150.833,238.650 150.814,238.563 150.542 C 238.218 149.461,237.536 148.710,236.425 148.188 C 235.234 147.628,209.190 147.634,207.842 148.195 C 206.889 148.591,206.069 149.463,205.727 150.446 C 205.369 151.474,205.404 180.457,205.764 181.500 C 206.068 182.379,206.632 183.017,207.611 183.591 L 208.316 184.004 222.089 183.998 C 238.194 183.991,237.341 184.115,238.452 181.625 L 238.731 181.000 243.218 181.000 L 247.705 181.000 247.073 181.708 C 246.075 182.826,242.498 186.333,241.421 187.250 C 240.882 187.708,240.361 188.159,240.262 188.252 C 240.164 188.345,239.746 188.682,239.333 189.000 C 238.921 189.318,238.501 189.655,238.401 189.748 C 238.301 189.841,237.971 190.104,237.667 190.333 C 237.363 190.563,237.013 190.849,236.890 190.970 C 236.767 191.091,236.667 191.145,236.667 191.089 C 236.667 191.033,236.573 191.068,236.458 191.168 C 235.976 191.586,234.039 192.941,233.500 193.237 C 233.179 193.414,232.879 193.601,232.833 193.654 C 232.787 193.707,232.600 193.839,232.417 193.947 C 232.233 194.056,231.483 194.498,230.750 194.931 C 230.017 195.363,229.154 195.874,228.833 196.066 C 228.512 196.258,228.213 196.420,228.167 196.426 C 228.121 196.433,227.108 196.906,225.917 197.479 C 224.725 198.051,223.581 198.590,223.375 198.676 C 223.169 198.763,222.831 198.907,222.625 198.998 C 221.664 199.418,219.735 200.166,219.609 200.166 C 219.531 200.166,219.231 200.273,218.942 200.402 C 218.653 200.532,217.854 200.800,217.167 200.999 C 216.479 201.198,215.654 201.444,215.333 201.546 C 215.012 201.648,214.675 201.749,214.583 201.771 C 214.492 201.793,213.967 201.933,213.417 202.082 C 212.867 202.232,212.079 202.423,211.667 202.507 C 211.254 202.591,210.392 202.774,209.750 202.914 C 208.743 203.133,207.794 203.293,206.833 203.407 C 206.608 203.434,205.821 203.550,204.417 203.765 C 200.103 204.424,191.338 204.261,186.000 203.423 C 185.862 203.402,185.375 203.330,184.917 203.265 C 182.858 202.970,178.018 201.776,175.401 200.916 C 169.367 198.933,164.172 196.408,158.500 192.702 C 157.721 192.193,157.046 191.733,157.000 191.680 C 156.954 191.627,156.504 191.304,156.000 190.963 C 155.496 190.621,154.858 190.144,154.583 189.901 C 154.308 189.659,153.802 189.272,153.458 189.041 C 153.115 188.811,152.833 188.561,152.833 188.486 C 152.833 188.411,152.495 188.117,152.081 187.832 C 151.237 187.251,146.559 182.649,145.161 181.024 C 144.660 180.441,144.100 179.794,143.917 179.587 C 143.733 179.380,143.438 179.008,143.260 178.761 C 143.083 178.514,142.794 178.148,142.619 177.948 C 142.334 177.622,140.862 175.594,140.117 174.500 C 139.170 173.110,138.045 171.381,137.948 171.167 C 137.886 171.029,137.741 170.768,137.626 170.587 C 136.599 168.973,135.473 166.801,134.123 163.833 C 133.346 162.124,133.191 161.751,132.912 160.917 C 132.759 160.458,132.521 159.821,132.383 159.500 C 131.924 158.431,131.864 158.260,131.333 156.500 C 131.042 155.537,130.742 154.563,130.665 154.333 C 129.764 151.634,128.625 144.909,128.336 140.583 C 127.941 134.663,128.436 127.767,129.678 121.917 C 129.756 121.550,129.900 120.809,129.999 120.270 C 130.097 119.731,130.253 119.150,130.345 118.978 C 130.437 118.807,130.475 118.667,130.431 118.667 C 130.387 118.667,130.416 118.460,130.496 118.208 C 130.576 117.956,130.956 116.737,131.340 115.500 C 131.725 114.263,132.137 113.025,132.256 112.750 C 132.376 112.475,132.751 111.537,133.090 110.667 C 134.098 108.078,135.369 105.376,136.500 103.417 C 136.871 102.775,137.282 102.025,137.415 101.750 C 137.846 100.858,141.193 95.774,141.585 95.417 C 141.685 95.325,141.967 94.949,142.212 94.582 C 142.456 94.215,142.902 93.648,143.203 93.322 C 143.504 92.996,144.009 92.397,144.324 91.990 C 145.477 90.506,149.195 86.705,151.163 85.000 C 151.745 84.496,152.341 83.971,152.487 83.833 C 152.633 83.696,153.239 83.208,153.835 82.750 C 154.430 82.292,154.954 81.879,155.000 81.832 C 155.046 81.786,155.444 81.486,155.885 81.166 C 156.327 80.845,156.889 80.428,157.135 80.239 C 157.382 80.050,157.883 79.715,158.250 79.495 C 158.617 79.276,159.011 79.004,159.126 78.893 C 159.241 78.781,160.014 78.290,160.845 77.803 C 161.675 77.316,162.594 76.775,162.886 76.602 C 163.549 76.208,168.323 73.811,169.333 73.364 C 170.541 72.830,173.144 71.833,173.332 71.833 C 173.427 71.833,173.635 71.761,173.794 71.673 C 174.081 71.513,178.014 70.246,178.718 70.087 C 178.919 70.041,179.383 69.932,179.750 69.843 C 180.811 69.588,182.062 69.309,182.333 69.267 C 182.471 69.245,182.771 69.183,183.000 69.128 C 183.731 68.953,185.233 68.663,185.750 68.598 C 186.025 68.563,186.662 68.486,187.167 68.427 C 187.671 68.369,188.271 68.289,188.500 68.250 C 188.729 68.211,189.592 68.131,190.417 68.071 C 191.242 68.011,191.954 67.926,192.000 67.882 C 192.111 67.776,201.786 67.945,203.167 68.077 M126.107 73.417 C 125.013 73.988,121.501 77.278,119.792 79.333 C 119.449 79.746,118.981 80.308,118.751 80.583 C 118.522 80.858,118.334 81.134,118.334 81.196 C 118.333 81.259,118.235 81.409,118.114 81.530 C 117.994 81.651,117.675 82.113,117.406 82.556 C 117.137 83.000,116.790 83.562,116.634 83.806 C 116.010 84.787,114.521 87.824,114.088 89.000 C 113.834 89.688,113.566 90.400,113.492 90.583 C 113.346 90.942,112.958 92.143,112.899 92.417 C 112.879 92.508,112.742 93.033,112.594 93.583 C 112.445 94.133,112.284 94.846,112.236 95.167 C 112.187 95.487,112.102 95.900,112.048 96.083 C 111.621 97.509,111.613 99.362,112.029 100.166 C 113.204 102.437,116.813 102.108,117.494 99.667 C 117.583 99.346,117.733 98.558,117.827 97.917 C 118.181 95.488,118.691 93.605,119.656 91.167 C 120.256 89.650,120.409 89.333,120.541 89.333 C 120.610 89.333,120.667 89.231,120.667 89.107 C 120.667 87.627,125.845 81.107,128.833 78.823 C 130.081 77.870,130.308 77.478,130.407 76.103 C 130.554 74.067,127.963 72.449,126.107 73.417 M313.858 91.000 C 314.042 91.504,314.602 93.154,315.102 94.667 C 315.603 96.179,316.081 97.567,316.164 97.750 C 316.247 97.933,316.477 98.646,316.673 99.333 C 316.870 100.021,317.182 101.108,317.366 101.750 C 317.549 102.392,317.715 103.008,317.734 103.120 C 317.753 103.232,317.820 103.376,317.884 103.440 C 317.948 103.503,318.000 103.698,318.000 103.871 C 318.000 104.045,318.103 104.539,318.230 104.969 C 318.356 105.398,318.544 106.108,318.647 106.547 L 318.835 107.343 317.712 108.713 C 317.094 109.467,316.550 110.121,316.503 110.167 C 316.455 110.212,315.929 110.850,315.333 111.583 C 314.737 112.317,314.125 113.067,313.972 113.250 C 313.413 113.922,312.571 114.967,312.083 115.594 C 311.555 116.275,310.725 117.267,310.372 117.639 C 310.257 117.762,309.957 118.137,309.708 118.473 C 309.458 118.809,309.138 119.196,308.997 119.333 C 308.856 119.471,308.482 119.921,308.166 120.333 C 307.850 120.746,307.553 121.121,307.504 121.167 C 307.430 121.238,305.511 123.588,305.124 124.083 C 305.052 124.175,304.803 124.475,304.571 124.750 C 303.989 125.438,303.257 126.324,302.111 127.727 C 300.636 129.533,300.100 130.184,299.917 130.393 C 299.825 130.498,299.530 130.877,299.262 131.237 C 298.993 131.596,298.468 132.239,298.095 132.666 C 297.722 133.093,297.192 133.723,296.917 134.067 C 296.312 134.822,296.094 135.087,295.312 136.025 C 294.979 136.424,293.417 138.325,291.842 140.250 C 290.266 142.175,288.852 143.900,288.698 144.083 C 288.544 144.267,288.193 144.685,287.917 145.013 C 287.642 145.342,287.229 145.860,287.000 146.165 C 286.771 146.470,286.507 146.801,286.413 146.901 C 286.320 147.001,285.945 147.458,285.580 147.917 C 285.215 148.375,284.835 148.825,284.736 148.917 C 284.636 149.008,284.261 149.458,283.903 149.917 C 283.544 150.375,283.212 150.787,283.167 150.833 C 283.121 150.879,282.602 151.517,282.014 152.250 C 281.426 152.983,280.859 153.658,280.754 153.750 C 280.650 153.842,280.259 154.329,279.887 154.833 C 279.514 155.337,279.031 155.947,278.813 156.187 C 278.595 156.427,278.303 156.764,278.164 156.937 C 276.155 159.424,274.688 161.201,274.231 161.701 C 273.921 162.041,273.667 162.370,273.667 162.433 C 273.667 162.496,273.451 162.754,273.186 163.006 C 272.922 163.259,272.568 163.698,272.400 163.983 C 272.232 164.267,272.040 164.500,271.972 164.500 C 271.905 164.500,271.621 164.832,271.342 165.238 C 271.063 165.643,270.718 166.092,270.575 166.234 C 270.433 166.377,269.907 167.001,269.406 167.622 C 268.905 168.242,268.342 168.930,268.154 169.151 C 267.966 169.371,267.351 170.121,266.787 170.818 C 266.223 171.514,265.720 172.121,265.668 172.167 C 265.617 172.213,265.315 172.588,264.997 173.000 C 264.680 173.412,264.164 174.031,263.850 174.375 L 263.280 175.000 248.057 175.000 L 232.833 175.000 232.833 176.500 L 232.833 178.000 222.167 178.000 L 211.500 178.000 211.500 165.917 L 211.500 153.833 222.167 153.833 L 232.833 153.833 232.833 155.333 L 232.833 156.833 245.092 156.833 C 258.462 156.833,258.209 156.851,259.000 155.884 C 259.137 155.716,259.462 155.317,259.720 154.998 C 259.979 154.678,260.378 154.192,260.607 153.917 C 260.836 153.642,261.395 152.941,261.849 152.360 C 262.303 151.778,262.766 151.205,262.879 151.087 C 262.991 150.968,263.383 150.474,263.750 149.990 C 264.117 149.505,264.568 148.953,264.753 148.763 C 264.938 148.572,265.312 148.117,265.584 147.750 C 266.158 146.974,266.416 146.650,267.034 145.921 C 267.283 145.628,268.011 144.720,268.654 143.903 C 269.297 143.085,269.906 142.320,270.007 142.202 C 270.108 142.084,270.717 141.334,271.360 140.536 C 273.329 138.090,273.564 137.798,274.135 137.096 C 274.811 136.265,274.932 136.111,275.662 135.166 C 275.981 134.754,276.281 134.379,276.329 134.333 C 276.579 134.095,277.988 132.340,278.335 131.833 C 278.554 131.512,278.852 131.137,278.997 131.000 C 279.141 130.862,280.032 129.775,280.977 128.583 C 281.922 127.392,282.819 126.266,282.972 126.083 C 283.125 125.899,283.511 125.412,283.829 124.999 C 284.147 124.587,284.451 124.212,284.503 124.167 C 284.555 124.121,284.955 123.633,285.392 123.083 C 285.829 122.533,286.426 121.788,286.718 121.427 C 287.011 121.066,288.541 119.154,290.119 117.177 C 291.698 115.201,293.294 113.208,293.667 112.750 C 294.040 112.292,294.773 111.388,295.297 110.742 C 295.821 110.095,296.493 109.270,296.791 108.908 C 297.089 108.546,297.651 107.831,298.041 107.318 C 298.431 106.806,299.260 105.756,299.882 104.985 C 300.505 104.214,301.218 103.328,301.466 103.016 C 302.337 101.919,302.745 101.416,302.832 101.333 C 302.879 101.287,303.114 100.987,303.354 100.667 C 303.593 100.346,304.060 99.783,304.391 99.417 C 304.722 99.050,304.994 98.698,304.996 98.634 C 304.998 98.570,305.169 98.332,305.375 98.106 C 305.986 97.436,306.905 96.305,307.071 96.017 C 307.156 95.870,307.314 95.675,307.422 95.583 C 307.614 95.420,308.944 93.773,310.235 92.101 C 310.593 91.636,310.968 91.174,311.068 91.073 C 311.168 90.972,311.625 90.394,312.083 89.788 L 312.917 88.686 313.220 89.385 C 313.387 89.769,313.674 90.496,313.858 91.000 M225.334 106.947 C 221.785 107.687,219.679 110.475,219.066 115.250 C 219.030 115.525,218.920 116.313,218.820 117.000 C 218.721 117.688,218.572 118.775,218.489 119.417 C 218.281 121.033,218.187 121.682,218.090 122.167 C 217.944 122.888,217.716 124.488,217.389 127.083 C 217.342 127.450,217.210 128.313,217.094 129.000 C 216.744 131.075,216.779 133.428,217.176 134.500 C 217.363 135.004,217.558 135.548,217.611 135.708 C 217.663 135.869,217.772 136.000,217.853 136.000 C 217.934 136.000,218.000 136.102,218.000 136.227 C 218.000 136.352,218.448 136.911,218.996 137.469 C 221.435 139.954,224.546 140.469,228.333 139.014 C 229.387 138.609,230.321 138.215,230.408 138.139 C 230.495 138.062,230.662 138.000,230.779 138.000 C 230.896 138.000,231.478 137.777,232.073 137.505 C 232.668 137.232,233.345 136.961,233.579 136.903 C 233.812 136.844,234.044 136.730,234.095 136.648 C 234.145 136.567,234.302 136.500,234.443 136.500 C 234.584 136.500,234.936 136.391,235.225 136.258 C 235.514 136.124,236.156 135.858,236.653 135.666 C 237.150 135.473,237.897 135.161,238.313 134.972 C 238.728 134.782,239.147 134.615,239.243 134.599 C 239.471 134.563,242.000 133.535,242.373 133.328 C 242.532 133.239,242.748 133.167,242.852 133.167 C 244.493 133.167,248.333 129.524,248.333 127.967 C 248.333 127.839,248.415 127.651,248.515 127.551 C 249.503 126.564,248.246 121.705,246.584 120.083 C 246.184 119.693,245.034 118.719,244.518 118.333 C 244.212 118.104,243.726 117.723,243.439 117.486 C 243.152 117.249,242.317 116.597,241.583 116.037 C 240.850 115.477,240.032 114.827,239.766 114.593 C 239.499 114.358,239.237 114.166,239.182 114.166 C 239.128 114.165,238.858 113.956,238.583 113.701 C 238.115 113.267,235.900 111.523,234.808 110.730 C 234.540 110.535,233.979 110.090,233.562 109.741 C 231.888 108.342,230.229 107.346,229.083 107.051 C 228.589 106.924,225.815 106.847,225.334 106.947 M229.990 114.558 C 231.049 115.385,231.954 116.109,232.000 116.167 C 232.046 116.226,232.496 116.579,233.000 116.952 C 233.504 117.325,234.085 117.791,234.292 117.988 C 234.498 118.185,234.667 118.307,234.667 118.259 C 234.667 118.211,234.873 118.358,235.125 118.586 C 235.377 118.813,236.071 119.375,236.667 119.834 C 237.262 120.294,237.862 120.766,238.000 120.885 C 238.137 121.003,238.438 121.223,238.667 121.373 C 238.896 121.524,239.320 121.858,239.610 122.115 C 239.900 122.373,240.343 122.733,240.596 122.917 C 240.848 123.100,241.155 123.349,241.278 123.470 C 241.400 123.591,241.500 123.645,241.500 123.590 C 241.500 123.343,242.669 124.687,242.685 124.953 C 242.793 126.750,242.868 126.688,238.382 128.527 C 238.126 128.632,237.842 128.736,237.750 128.758 C 237.470 128.825,233.769 130.333,233.461 130.505 C 233.301 130.594,233.097 130.667,233.007 130.667 C 232.917 130.667,232.433 130.854,231.932 131.083 C 231.431 131.313,230.978 131.500,230.926 131.500 C 230.873 131.500,230.512 131.640,230.123 131.811 C 229.735 131.981,229.079 132.254,228.667 132.416 C 228.254 132.579,227.692 132.803,227.417 132.914 C 227.142 133.026,226.654 133.215,226.333 133.335 C 226.012 133.455,225.679 133.616,225.592 133.693 C 224.473 134.682,222.456 132.989,222.810 131.359 C 222.902 130.932,223.020 130.171,223.071 129.667 C 223.123 129.162,223.200 128.573,223.243 128.356 C 223.286 128.139,223.367 127.539,223.422 127.023 C 223.478 126.506,223.555 125.969,223.594 125.829 C 223.654 125.614,223.878 124.119,224.091 122.500 C 224.122 122.271,224.226 121.540,224.323 120.875 C 224.666 118.534,224.849 117.243,224.933 116.583 C 225.322 113.529,225.431 113.281,226.546 112.900 C 227.337 112.630,227.810 112.858,229.990 114.558 M207.917 122.929 C 206.657 123.584,206.515 123.906,205.239 129.000 C 205.161 129.312,204.889 130.302,204.656 131.125 C 204.559 131.469,204.472 131.840,204.462 131.951 C 204.452 132.062,204.401 132.127,204.347 132.096 C 204.019 131.906,200.943 130.500,200.856 130.499 C 200.798 130.499,200.229 130.237,199.593 129.916 C 197.380 128.802,195.114 129.276,194.098 131.065 C 193.884 131.442,193.427 132.612,193.083 133.667 C 192.053 136.825,191.800 137.500,191.648 137.500 C 191.506 137.500,186.678 135.195,184.463 134.069 C 181.918 132.777,179.500 133.950,179.500 136.478 C 179.500 137.570,180.563 139.165,181.292 139.166 C 181.406 139.166,181.500 139.242,181.500 139.333 C 181.500 139.425,181.556 139.486,181.625 139.468 C 181.755 139.435,182.457 139.763,187.849 142.386 C 192.681 144.735,192.562 144.699,194.106 144.310 C 195.674 143.916,196.990 141.968,197.584 139.167 C 197.628 138.956,197.915 138.053,198.270 137.000 C 198.317 136.862,198.357 136.712,198.361 136.667 C 198.402 136.051,198.681 136.030,199.720 136.562 C 200.299 136.859,201.030 137.205,201.345 137.331 C 201.659 137.458,202.520 137.839,203.258 138.177 C 207.129 139.954,209.384 138.442,210.229 133.500 C 210.289 133.150,210.502 132.328,210.661 131.833 C 210.734 131.604,210.873 131.117,210.969 130.750 C 211.578 128.423,212.053 126.701,212.173 126.392 C 212.249 126.195,212.283 125.895,212.248 125.725 C 212.213 125.555,212.142 125.145,212.089 124.813 C 211.835 123.214,209.443 122.135,207.917 122.929 M159.496 132.320 C 156.324 132.942,153.785 135.965,153.326 139.667 C 153.179 140.850,152.721 144.165,152.485 145.750 C 152.403 146.300,152.295 147.125,152.245 147.583 C 152.168 148.279,151.669 151.648,151.418 153.167 C 151.268 154.073,150.965 156.457,150.911 157.159 C 150.815 158.403,151.663 161.304,152.241 161.706 C 152.337 161.773,152.351 161.829,152.270 161.831 C 152.039 161.835,153.844 163.539,154.583 164.015 C 155.919 164.875,156.761 165.084,158.833 165.071 C 160.816 165.057,161.059 164.998,163.269 163.991 C 163.661 163.813,164.059 163.667,164.153 163.667 C 164.247 163.667,164.719 163.488,165.203 163.269 C 165.687 163.051,167.433 162.335,169.083 161.678 C 170.733 161.022,172.233 160.416,172.417 160.332 C 172.600 160.248,173.838 159.761,175.167 159.249 C 179.072 157.746,180.157 157.087,181.503 155.400 C 183.388 153.037,183.288 148.304,181.305 146.083 C 181.059 145.808,180.722 145.429,180.554 145.240 C 180.280 144.930,177.389 142.617,176.167 141.729 C 175.899 141.535,175.283 141.047,174.798 140.646 C 174.313 140.245,173.842 139.861,173.750 139.793 C 173.593 139.676,172.381 138.718,171.833 138.279 C 171.696 138.168,171.283 137.854,170.917 137.581 C 170.550 137.309,170.212 137.042,170.167 136.990 C 170.121 136.937,169.633 136.562,169.083 136.156 C 167.788 135.198,167.870 135.264,167.000 134.498 C 166.587 134.135,166.156 133.837,166.042 133.836 C 165.927 133.834,165.833 133.765,165.833 133.681 C 165.833 133.489,163.972 132.586,163.083 132.348 C 162.356 132.152,160.428 132.137,159.496 132.320 M162.250 138.503 C 162.964 138.982,163.723 139.546,164.451 140.138 C 165.467 140.963,167.925 142.888,168.426 143.250 C 168.679 143.433,169.156 143.825,169.485 144.121 C 169.814 144.417,170.129 144.661,170.184 144.663 C 170.239 144.665,170.473 144.835,170.704 145.042 C 170.935 145.248,171.517 145.717,171.998 146.083 C 172.804 146.698,173.752 147.450,174.587 148.139 C 174.772 148.292,175.273 148.679,175.701 149.000 C 177.585 150.412,176.904 153.000,174.650 153.000 C 174.573 153.000,174.113 153.181,173.630 153.402 C 173.146 153.624,172.338 153.955,171.833 154.139 C 171.329 154.322,170.485 154.665,169.958 154.901 C 169.430 155.137,168.943 155.340,168.874 155.353 C 168.635 155.397,168.245 155.538,167.725 155.768 C 167.436 155.896,167.157 156.000,167.105 156.000 C 167.053 156.000,166.614 156.180,166.130 156.400 C 165.646 156.621,164.612 157.043,163.833 157.340 C 163.054 157.636,162.323 157.952,162.208 158.043 C 162.094 158.133,162.000 158.164,162.000 158.110 C 162.000 158.056,161.381 158.279,160.625 158.604 C 157.650 159.883,156.433 158.792,157.145 155.485 C 157.232 155.081,157.352 154.262,157.411 153.667 C 157.470 153.071,157.586 152.208,157.667 151.750 C 157.828 150.847,158.012 149.605,158.407 146.750 C 158.546 145.742,158.782 144.129,158.930 143.167 C 159.078 142.204,159.235 141.042,159.279 140.583 C 159.473 138.540,160.858 137.570,162.250 138.503 M281.400 181.156 C 280.717 181.280,279.733 181.972,279.493 182.497 C 279.388 182.728,278.861 184.004,278.322 185.333 C 276.897 188.847,274.803 192.864,272.902 195.733 C 272.543 196.273,272.110 196.948,271.939 197.233 C 271.767 197.517,271.430 197.982,271.189 198.265 C 270.947 198.549,270.637 198.951,270.500 199.159 C 270.159 199.675,269.205 200.910,268.274 202.041 C 265.458 205.462,261.375 209.285,257.167 212.442 C 255.966 213.342,252.276 215.802,251.921 215.938 C 250.444 216.505,250.448 219.641,251.927 220.769 C 253.096 221.661,256.474 221.013,256.972 219.802 C 257.003 219.727,257.093 219.667,257.173 219.667 C 257.301 219.667,257.617 219.474,258.890 218.622 C 259.157 218.443,260.728 217.266,262.232 216.118 C 262.497 215.916,262.947 215.545,263.232 215.294 C 263.517 215.044,263.798 214.837,263.857 214.836 C 263.916 214.835,264.192 214.627,264.469 214.375 C 264.746 214.123,265.447 213.492,266.028 212.972 C 268.458 210.798,272.054 207.037,273.254 205.417 C 273.526 205.050,273.842 204.690,273.957 204.617 C 274.072 204.543,274.167 204.379,274.167 204.251 C 274.167 204.123,274.302 203.921,274.467 203.801 C 274.799 203.561,277.526 199.738,278.650 197.937 C 279.333 196.843,279.715 196.175,280.617 194.500 C 280.839 194.088,281.164 193.506,281.340 193.208 C 281.516 192.910,281.619 192.667,281.569 192.667 C 281.518 192.667,281.618 192.460,281.789 192.208 C 281.961 191.956,282.245 191.412,282.420 191.000 C 282.595 190.588,282.872 190.004,283.036 189.703 C 283.199 189.403,283.333 189.083,283.333 188.994 C 283.333 188.905,283.521 188.443,283.750 187.968 C 283.979 187.493,284.167 187.036,284.167 186.952 C 284.167 186.869,284.269 186.564,284.393 186.275 C 284.934 185.021,285.000 184.775,285.000 184.000 C 285.000 183.192,284.734 182.333,284.484 182.333 C 284.414 182.333,284.310 182.191,284.255 182.016 C 284.067 181.424,282.507 180.954,281.400 181.156 M98.917 236.585 C 100.704 236.716,103.267 237.327,104.917 238.014 C 105.192 238.128,105.454 238.231,105.500 238.242 C 106.042 238.374,109.132 240.205,109.917 240.858 C 111.649 242.302,112.500 243.057,112.500 243.151 C 112.500 243.213,112.744 243.524,113.042 243.841 C 113.801 244.649,114.692 245.909,115.336 247.083 C 115.638 247.633,115.980 248.233,116.097 248.417 C 116.213 248.600,116.572 249.537,116.894 250.500 C 118.129 254.182,118.155 254.587,118.161 270.154 C 118.167 284.589,118.191 284.172,117.349 284.164 C 116.550 284.156,116.590 284.860,116.491 268.964 L 116.399 254.083 115.961 252.583 C 115.540 251.140,115.252 250.348,114.740 249.225 C 114.608 248.936,114.500 248.652,114.500 248.593 C 114.500 248.534,114.363 248.283,114.195 248.035 C 114.027 247.787,113.538 247.058,113.108 246.417 C 111.544 244.084,107.291 240.333,106.211 240.333 C 106.110 240.333,106.003 240.267,105.972 240.187 C 105.849 239.862,101.631 238.502,99.965 238.250 C 92.590 237.133,85.717 239.615,81.018 245.091 C 80.406 245.804,78.500 248.661,78.500 248.865 C 78.500 248.934,78.324 249.386,78.109 249.870 C 77.598 251.022,77.346 251.674,77.254 252.083 C 77.213 252.267,77.052 252.867,76.897 253.417 C 76.643 254.314,76.607 255.939,76.547 269.208 L 76.480 283.999 76.048 284.107 C 75.023 284.364,75.083 285.284,75.083 269.482 C 75.083 255.850,75.122 254.363,75.515 252.750 C 75.604 252.383,75.717 251.898,75.765 251.672 C 75.813 251.446,75.915 251.183,75.991 251.089 C 76.066 250.994,76.181 250.668,76.247 250.363 C 77.082 246.461,82.477 240.589,87.215 238.426 C 90.030 237.141,94.473 236.240,97.000 236.441 C 97.321 236.467,98.183 236.532,98.917 236.585 M37.167 239.578 C 39.361 239.832,39.477 239.851,40.667 240.159 C 42.579 240.653,45.279 241.773,46.542 242.594 C 46.885 242.817,47.485 243.206,47.875 243.457 C 48.265 243.708,48.705 244.046,48.853 244.207 C 49.001 244.368,49.180 244.500,49.251 244.500 C 49.508 244.500,52.061 247.117,52.990 248.333 C 53.911 249.540,55.749 252.500,55.576 252.500 C 55.530 252.500,55.603 252.669,55.738 252.875 C 56.745 254.412,57.825 259.172,57.830 262.098 C 57.837 265.688,56.708 270.219,55.147 272.867 C 54.883 273.315,54.667 273.717,54.667 273.761 C 54.667 273.805,54.460 274.158,54.208 274.545 C 53.761 275.234,53.592 275.469,53.248 275.881 C 53.155 275.992,52.834 276.396,52.535 276.779 C 50.862 278.922,47.477 281.564,44.871 282.762 C 43.104 283.574,42.068 283.972,41.416 284.090 C 41.050 284.156,40.675 284.266,40.583 284.335 C 40.414 284.462,40.291 284.485,37.917 284.836 C 28.489 286.230,18.710 280.879,14.449 271.995 C 13.462 269.937,13.276 269.370,12.483 266.000 C 11.955 263.756,12.245 258.977,13.090 256.000 C 13.234 255.496,13.368 255.008,13.388 254.917 C 13.409 254.825,13.472 254.675,13.527 254.583 C 13.583 254.492,13.836 253.892,14.090 253.250 C 14.345 252.608,14.711 251.821,14.905 251.500 C 15.099 251.179,15.358 250.718,15.481 250.476 C 15.820 249.806,17.480 247.637,18.417 246.638 C 19.662 245.313,22.743 242.833,23.146 242.833 C 23.234 242.833,23.331 242.766,23.361 242.685 C 23.492 242.335,27.849 240.488,29.062 240.268 C 29.300 240.225,29.557 240.151,29.634 240.104 C 29.921 239.926,32.808 239.507,34.750 239.362 C 34.933 239.348,36.021 239.445,37.167 239.578 M266.014 257.020 C 266.103 272.595,266.140 274.346,266.397 275.250 C 266.554 275.800,266.700 276.325,266.721 276.417 C 266.742 276.508,266.803 276.658,266.857 276.750 C 266.910 276.842,266.999 277.108,267.055 277.341 C 267.450 279.002,269.774 281.406,272.000 282.456 C 273.510 283.169,273.656 283.215,275.667 283.630 C 275.987 283.696,277.637 283.744,279.333 283.736 C 282.349 283.721,282.858 283.659,285.250 283.006 C 285.617 282.906,286.029 282.796,286.167 282.761 C 289.269 281.984,293.661 278.985,295.314 276.515 C 296.588 274.611,296.500 276.053,296.500 257.021 L 296.500 239.970 296.874 239.667 C 297.223 239.384,297.595 239.424,298.000 239.786 C 298.046 239.827,298.121 247.676,298.167 257.229 L 298.250 274.597 298.833 275.563 C 300.871 278.940,305.475 281.971,310.250 283.078 C 312.227 283.536,312.718 283.624,313.667 283.688 C 320.761 284.167,325.415 281.695,327.044 276.583 C 327.853 274.044,327.833 274.537,327.833 256.849 L 327.833 240.013 328.198 239.673 C 328.650 239.252,328.684 239.253,329.143 239.681 L 329.516 240.028 329.453 256.972 C 329.385 275.171,329.427 274.247,328.539 277.088 C 326.449 283.769,318.381 286.927,309.583 284.507 C 309.217 284.406,308.804 284.295,308.667 284.260 C 308.054 284.105,306.677 283.598,305.870 283.232 C 305.386 283.013,304.917 282.833,304.828 282.833 C 304.739 282.833,304.667 282.758,304.667 282.667 C 304.667 282.575,304.572 282.500,304.456 282.500 C 304.340 282.500,303.856 282.237,303.379 281.917 C 302.903 281.596,302.472 281.333,302.422 281.333 C 302.235 281.333,299.877 279.338,299.323 278.711 C 298.484 277.761,297.771 276.839,297.600 276.481 C 297.389 276.041,297.240 276.088,297.000 276.667 C 296.886 276.942,296.727 277.167,296.646 277.167 C 296.566 277.167,296.519 277.226,296.542 277.298 C 296.589 277.447,295.068 279.303,294.633 279.629 C 294.477 279.745,294.252 279.935,294.133 280.051 C 293.653 280.515,291.850 281.831,291.237 282.163 C 290.877 282.358,290.471 282.586,290.333 282.670 C 290.196 282.753,289.708 282.982,289.250 283.179 C 288.792 283.375,288.192 283.635,287.917 283.758 C 287.344 284.013,284.828 284.762,284.083 284.901 C 283.808 284.951,283.358 285.034,283.083 285.084 C 274.377 286.673,266.652 282.971,265.169 276.500 C 265.053 275.996,264.875 275.358,264.773 275.083 C 264.642 274.731,264.572 269.454,264.537 257.250 L 264.486 239.917 264.850 239.621 C 265.169 239.361,265.258 239.354,265.566 239.557 L 265.917 239.791 266.014 257.020 M32.500 241.175 C 31.278 241.322,30.383 241.472,29.972 241.596 C 29.819 241.643,29.556 241.710,29.388 241.747 C 28.903 241.852,27.112 242.489,26.794 242.669 C 26.635 242.760,26.397 242.833,26.266 242.833 C 26.135 242.833,26.003 242.890,25.972 242.958 C 25.942 243.027,25.429 243.334,24.833 243.640 C 23.828 244.157,22.902 244.727,22.087 245.333 C 20.385 246.598,16.000 251.827,16.000 252.591 C 16.000 252.644,15.804 253.114,15.565 253.636 C 14.083 256.862,13.338 262.592,14.005 265.635 C 14.099 266.065,14.259 266.792,14.361 267.250 C 15.196 271.006,17.629 275.171,20.488 277.737 C 20.802 278.019,21.195 278.380,21.361 278.540 C 22.204 279.349,25.249 281.211,26.833 281.885 C 30.820 283.582,36.275 283.925,40.509 282.745 C 41.666 282.422,41.671 282.421,42.167 282.266 C 42.650 282.115,46.043 280.485,46.167 280.345 C 46.212 280.293,46.737 279.916,47.333 279.509 C 50.679 277.220,54.468 272.164,55.085 269.167 C 55.151 268.846,55.259 268.508,55.326 268.417 C 55.542 268.117,55.992 265.788,56.179 264.000 C 56.344 262.417,56.326 261.722,56.062 259.344 C 55.722 256.276,53.869 251.727,52.135 249.703 C 51.878 249.401,51.667 249.098,51.667 249.027 C 51.667 247.866,44.014 242.480,41.833 242.106 C 41.604 242.066,41.229 241.960,41.000 241.869 C 39.226 241.167,35.253 240.842,32.500 241.175 M162.543 251.524 C 163.626 251.877,164.690 252.329,164.833 252.497 C 164.879 252.550,165.309 252.879,165.790 253.227 C 171.227 257.164,171.157 265.250,165.648 269.735 C 165.042 270.229,162.500 271.429,162.500 271.221 C 162.500 271.169,162.399 271.210,162.275 271.313 C 162.150 271.416,161.570 271.544,160.985 271.598 C 160.399 271.652,159.867 271.729,159.801 271.770 C 159.566 271.915,156.399 271.283,155.667 270.944 C 151.485 269.008,149.267 265.705,149.268 261.417 C 149.269 259.399,149.414 258.781,150.380 256.667 C 151.372 254.494,155.010 251.500,156.657 251.500 C 156.835 251.500,157.018 251.439,157.064 251.365 C 157.110 251.291,157.506 251.211,157.944 251.189 C 158.383 251.166,158.781 251.107,158.829 251.058 C 159.006 250.878,161.533 251.195,162.543 251.524 M225.333 251.793 C 225.838 251.944,226.287 252.077,226.333 252.090 C 226.794 252.220,227.766 252.762,228.380 253.231 C 228.796 253.548,229.169 253.776,229.208 253.736 C 229.352 253.592,231.667 256.506,231.667 256.832 C 231.667 256.924,231.733 257.000,231.814 257.000 C 231.895 257.000,232.003 257.131,232.055 257.292 C 232.106 257.452,232.291 257.996,232.466 258.500 C 233.226 260.690,233.259 262.342,232.602 265.159 C 231.915 268.098,228.444 271.373,225.099 272.237 C 222.555 272.894,218.049 272.113,216.559 270.757 C 216.454 270.662,216.127 270.396,215.831 270.167 C 215.536 269.938,215.228 269.675,215.146 269.583 C 215.065 269.492,214.703 269.084,214.343 268.678 C 207.689 261.178,215.670 248.917,225.333 251.793 M36.928 251.682 C 37.472 251.782,37.999 251.932,38.099 252.014 C 38.199 252.096,38.328 252.116,38.386 252.058 C 38.444 252.000,38.588 252.029,38.704 252.123 C 38.821 252.216,39.088 252.345,39.297 252.409 C 40.061 252.644,42.161 254.197,42.860 255.045 C 43.255 255.525,43.631 255.956,43.696 256.003 C 43.879 256.139,44.770 258.004,45.048 258.833 C 46.897 264.348,43.638 270.559,38.000 272.266 C 36.478 272.727,33.989 272.760,32.500 272.341 C 31.813 272.147,31.175 271.970,31.083 271.946 C 30.431 271.781,28.600 270.595,27.821 269.833 C 23.410 265.520,23.317 258.974,27.606 254.579 C 28.605 253.554,30.684 252.273,31.645 252.088 C 31.841 252.050,32.080 251.970,32.176 251.911 C 32.774 251.541,35.460 251.412,36.928 251.682 M368.867 251.739 C 370.086 252.030,371.344 252.495,371.680 252.778 C 371.825 252.900,371.999 253.000,372.067 253.000 C 372.463 253.000,374.371 254.719,375.319 255.930 C 377.384 258.567,377.867 262.892,376.469 266.222 C 375.763 267.904,373.534 270.667,372.884 270.667 C 372.764 270.667,372.667 270.735,372.667 270.818 C 372.667 271.013,370.424 272.094,369.667 272.264 C 369.346 272.335,368.971 272.426,368.833 272.466 C 363.801 273.910,357.388 269.643,356.358 264.165 C 356.013 262.333,356.403 258.782,357.024 258.092 C 357.103 258.005,357.167 257.832,357.167 257.709 C 357.167 256.562,360.694 253.030,362.416 252.453 C 362.691 252.361,362.992 252.231,363.083 252.165 C 363.286 252.020,364.045 251.824,364.833 251.714 C 365.154 251.669,365.448 251.602,365.486 251.566 C 365.650 251.411,367.996 251.531,368.867 251.739 " stroke="none" fill="#ececec" fill-rule="evenodd"></path><path id="path1" d="M128.205 134.500 C 128.205 134.821,128.240 134.952,128.282 134.792 C 128.323 134.631,128.323 134.369,128.282 134.208 C 128.240 134.048,128.205 134.179,128.205 134.500 M128.205 137.500 C 128.205 137.821,128.240 137.952,128.282 137.792 C 128.323 137.631,128.323 137.369,128.282 137.208 C 128.240 137.048,128.205 137.179,128.205 137.500 M95.955 226.787 C 96.250 226.824,96.775 226.824,97.121 226.788 C 97.467 226.752,97.225 226.722,96.583 226.721 C 95.942 226.721,95.659 226.750,95.955 226.787 M285.073 231.375 L 284.583 231.917 285.125 231.427 C 285.630 230.971,285.743 230.833,285.615 230.833 C 285.586 230.833,285.342 231.077,285.073 231.375 M308.747 250.417 C 308.747 259.583,308.767 263.358,308.792 258.804 C 308.816 254.251,308.816 246.751,308.792 242.138 C 308.767 237.524,308.747 241.250,308.747 250.417 M34.625 239.451 C 34.831 239.491,35.169 239.491,35.375 239.451 C 35.581 239.411,35.412 239.379,35.000 239.379 C 34.587 239.379,34.419 239.411,34.625 239.451 M365.964 239.456 C 366.448 239.490,367.198 239.490,367.631 239.456 C 368.063 239.421,367.667 239.394,366.750 239.394 C 365.833 239.395,365.480 239.423,365.964 239.456 M245.246 274.000 C 245.246 280.462,245.266 283.106,245.292 279.875 C 245.317 276.644,245.317 271.356,245.292 268.125 C 245.266 264.894,245.246 267.537,245.246 274.000 M194.892 282.667 C 194.892 283.446,194.920 283.765,194.955 283.375 C 194.990 282.985,194.990 282.348,194.955 281.958 C 194.920 281.569,194.892 281.887,194.892 282.667 M366.121 283.287 C 366.417 283.324,366.942 283.324,367.288 283.288 C 367.634 283.252,367.392 283.222,366.750 283.221 C 366.108 283.221,365.825 283.250,366.121 283.287 M278.208 283.956 C 278.644 283.990,279.356 283.990,279.792 283.956 C 280.227 283.922,279.871 283.893,279.000 283.893 C 278.129 283.893,277.773 283.922,278.208 283.956 M374.238 287.583 C 374.238 289.692,374.262 290.531,374.291 289.449 C 374.320 288.367,374.320 286.642,374.291 285.616 C 374.262 284.590,374.238 285.475,374.238 287.583 M158.961 284.954 C 159.261 284.991,159.711 284.990,159.961 284.952 C 160.212 284.914,159.967 284.884,159.417 284.885 C 158.867 284.886,158.662 284.917,158.961 284.954 M154.208 295.789 C 154.644 295.824,155.356 295.824,155.792 295.789 C 156.227 295.755,155.871 295.727,155.000 295.727 C 154.129 295.727,153.773 295.755,154.208 295.789 M140.375 305.948 C 140.535 305.990,140.798 305.990,140.958 305.948 C 141.119 305.906,140.987 305.872,140.667 305.872 C 140.346 305.872,140.215 305.906,140.375 305.948 M141.542 305.948 C 141.702 305.990,141.965 305.990,142.125 305.948 C 142.285 305.906,142.154 305.872,141.833 305.872 C 141.512 305.872,141.381 305.906,141.542 305.948 M139.058 320.833 C 139.058 321.612,139.087 321.931,139.122 321.542 C 139.157 321.152,139.157 320.515,139.122 320.125 C 139.087 319.735,139.058 320.054,139.058 320.833 M153.288 320.120 C 153.584 320.157,154.109 320.158,154.455 320.122 C 154.800 320.086,154.558 320.055,153.917 320.055 C 153.275 320.054,152.992 320.083,153.288 320.120 " stroke="none" fill="#f0ecec" fill-rule="evenodd"></path><path id="path2" d="M128.205 134.500 C 128.205 134.821,128.240 134.952,128.282 134.792 C 128.323 134.631,128.323 134.369,128.282 134.208 C 128.240 134.048,128.205 134.179,128.205 134.500 M128.205 137.500 C 128.205 137.821,128.240 137.952,128.282 137.792 C 128.323 137.631,128.323 137.369,128.282 137.208 C 128.240 137.048,128.205 137.179,128.205 137.500 M95.955 226.787 C 96.250 226.824,96.775 226.824,97.121 226.788 C 97.467 226.752,97.225 226.722,96.583 226.721 C 95.942 226.721,95.659 226.750,95.955 226.787 M285.073 231.375 L 284.583 231.917 285.125 231.427 C 285.630 230.971,285.743 230.833,285.615 230.833 C 285.586 230.833,285.342 231.077,285.073 231.375 M308.747 250.417 C 308.747 259.583,308.767 263.358,308.792 258.804 C 308.816 254.251,308.816 246.751,308.792 242.138 C 308.767 237.524,308.747 241.250,308.747 250.417 M34.625 239.451 C 34.831 239.491,35.169 239.491,35.375 239.451 C 35.581 239.411,35.412 239.379,35.000 239.379 C 34.587 239.379,34.419 239.411,34.625 239.451 M365.964 239.456 C 366.448 239.490,367.198 239.490,367.631 239.456 C 368.063 239.421,367.667 239.394,366.750 239.394 C 365.833 239.395,365.480 239.423,365.964 239.456 M245.246 274.000 C 245.246 280.462,245.266 283.106,245.292 279.875 C 245.317 276.644,245.317 271.356,245.292 268.125 C 245.266 264.894,245.246 267.537,245.246 274.000 M194.892 282.667 C 194.892 283.446,194.920 283.765,194.955 283.375 C 194.990 282.985,194.990 282.348,194.955 281.958 C 194.920 281.569,194.892 281.887,194.892 282.667 M366.121 283.287 C 366.417 283.324,366.942 283.324,367.288 283.288 C 367.634 283.252,367.392 283.222,366.750 283.221 C 366.108 283.221,365.825 283.250,366.121 283.287 M278.208 283.956 C 278.644 283.990,279.356 283.990,279.792 283.956 C 280.227 283.922,279.871 283.893,279.000 283.893 C 278.129 283.893,277.773 283.922,278.208 283.956 M374.238 287.583 C 374.238 289.692,374.262 290.531,374.291 289.449 C 374.320 288.367,374.320 286.642,374.291 285.616 C 374.262 284.590,374.238 285.475,374.238 287.583 M158.961 284.954 C 159.261 284.991,159.711 284.990,159.961 284.952 C 160.212 284.914,159.967 284.884,159.417 284.885 C 158.867 284.886,158.662 284.917,158.961 284.954 M154.208 295.789 C 154.644 295.824,155.356 295.824,155.792 295.789 C 156.227 295.755,155.871 295.727,155.000 295.727 C 154.129 295.727,153.773 295.755,154.208 295.789 M140.375 305.948 C 140.535 305.990,140.798 305.990,140.958 305.948 C 141.119 305.906,140.987 305.872,140.667 305.872 C 140.346 305.872,140.215 305.906,140.375 305.948 M141.542 305.948 C 141.702 305.990,141.965 305.990,142.125 305.948 C 142.285 305.906,142.154 305.872,141.833 305.872 C 141.512 305.872,141.381 305.906,141.542 305.948 M139.058 320.833 C 139.058 321.612,139.087 321.931,139.122 321.542 C 139.157 321.152,139.157 320.515,139.122 320.125 C 139.087 319.735,139.058 320.054,139.058 320.833 M153.288 320.120 C 153.584 320.157,154.109 320.158,154.455 320.122 C 154.800 320.086,154.558 320.055,153.917 320.055 C 153.275 320.054,152.992 320.083,153.288 320.120 " stroke="none" fill="#f0ecec" fill-rule="evenodd"></path><path id="path3" d="M128.205 134.500 C 128.205 134.821,128.240 134.952,128.282 134.792 C 128.323 134.631,128.323 134.369,128.282 134.208 C 128.240 134.048,128.205 134.179,128.205 134.500 M128.205 137.500 C 128.205 137.821,128.240 137.952,128.282 137.792 C 128.323 137.631,128.323 137.369,128.282 137.208 C 128.240 137.048,128.205 137.179,128.205 137.500 M95.955 226.787 C 96.250 226.824,96.775 226.824,97.121 226.788 C 97.467 226.752,97.225 226.722,96.583 226.721 C 95.942 226.721,95.659 226.750,95.955 226.787 M285.073 231.375 L 284.583 231.917 285.125 231.427 C 285.630 230.971,285.743 230.833,285.615 230.833 C 285.586 230.833,285.342 231.077,285.073 231.375 M308.747 250.417 C 308.747 259.583,308.767 263.358,308.792 258.804 C 308.816 254.251,308.816 246.751,308.792 242.138 C 308.767 237.524,308.747 241.250,308.747 250.417 M34.625 239.451 C 34.831 239.491,35.169 239.491,35.375 239.451 C 35.581 239.411,35.412 239.379,35.000 239.379 C 34.587 239.379,34.419 239.411,34.625 239.451 M365.964 239.456 C 366.448 239.490,367.198 239.490,367.631 239.456 C 368.063 239.421,367.667 239.394,366.750 239.394 C 365.833 239.395,365.480 239.423,365.964 239.456 M245.246 274.000 C 245.246 280.462,245.266 283.106,245.292 279.875 C 245.317 276.644,245.317 271.356,245.292 268.125 C 245.266 264.894,245.246 267.537,245.246 274.000 M194.892 282.667 C 194.892 283.446,194.920 283.765,194.955 283.375 C 194.990 282.985,194.990 282.348,194.955 281.958 C 194.920 281.569,194.892 281.887,194.892 282.667 M366.121 283.287 C 366.417 283.324,366.942 283.324,367.288 283.288 C 367.634 283.252,367.392 283.222,366.750 283.221 C 366.108 283.221,365.825 283.250,366.121 283.287 M278.208 283.956 C 278.644 283.990,279.356 283.990,279.792 283.956 C 280.227 283.922,279.871 283.893,279.000 283.893 C 278.129 283.893,277.773 283.922,278.208 283.956 M374.238 287.583 C 374.238 289.692,374.262 290.531,374.291 289.449 C 374.320 288.367,374.320 286.642,374.291 285.616 C 374.262 284.590,374.238 285.475,374.238 287.583 M158.961 284.954 C 159.261 284.991,159.711 284.990,159.961 284.952 C 160.212 284.914,159.967 284.884,159.417 284.885 C 158.867 284.886,158.662 284.917,158.961 284.954 M154.208 295.789 C 154.644 295.824,155.356 295.824,155.792 295.789 C 156.227 295.755,155.871 295.727,155.000 295.727 C 154.129 295.727,153.773 295.755,154.208 295.789 M140.375 305.948 C 140.535 305.990,140.798 305.990,140.958 305.948 C 141.119 305.906,140.987 305.872,140.667 305.872 C 140.346 305.872,140.215 305.906,140.375 305.948 M141.542 305.948 C 141.702 305.990,141.965 305.990,142.125 305.948 C 142.285 305.906,142.154 305.872,141.833 305.872 C 141.512 305.872,141.381 305.906,141.542 305.948 M139.058 320.833 C 139.058 321.612,139.087 321.931,139.122 321.542 C 139.157 321.152,139.157 320.515,139.122 320.125 C 139.087 319.735,139.058 320.054,139.058 320.833 M153.288 320.120 C 153.584 320.157,154.109 320.158,154.455 320.122 C 154.800 320.086,154.558 320.055,153.917 320.055 C 153.275 320.054,152.992 320.083,153.288 320.120 " stroke="none" fill="#f0ecec" fill-rule="evenodd"></path><path id="path4" d="M128.205 134.500 C 128.205 134.821,128.240 134.952,128.282 134.792 C 128.323 134.631,128.323 134.369,128.282 134.208 C 128.240 134.048,128.205 134.179,128.205 134.500 M128.205 137.500 C 128.205 137.821,128.240 137.952,128.282 137.792 C 128.323 137.631,128.323 137.369,128.282 137.208 C 128.240 137.048,128.205 137.179,128.205 137.500 M95.955 226.787 C 96.250 226.824,96.775 226.824,97.121 226.788 C 97.467 226.752,97.225 226.722,96.583 226.721 C 95.942 226.721,95.659 226.750,95.955 226.787 M285.073 231.375 L 284.583 231.917 285.125 231.427 C 285.630 230.971,285.743 230.833,285.615 230.833 C 285.586 230.833,285.342 231.077,285.073 231.375 M308.747 250.417 C 308.747 259.583,308.767 263.358,308.792 258.804 C 308.816 254.251,308.816 246.751,308.792 242.138 C 308.767 237.524,308.747 241.250,308.747 250.417 M34.625 239.451 C 34.831 239.491,35.169 239.491,35.375 239.451 C 35.581 239.411,35.412 239.379,35.000 239.379 C 34.587 239.379,34.419 239.411,34.625 239.451 M365.964 239.456 C 366.448 239.490,367.198 239.490,367.631 239.456 C 368.063 239.421,367.667 239.394,366.750 239.394 C 365.833 239.395,365.480 239.423,365.964 239.456 M245.246 274.000 C 245.246 280.462,245.266 283.106,245.292 279.875 C 245.317 276.644,245.317 271.356,245.292 268.125 C 245.266 264.894,245.246 267.537,245.246 274.000 M194.892 282.667 C 194.892 283.446,194.920 283.765,194.955 283.375 C 194.990 282.985,194.990 282.348,194.955 281.958 C 194.920 281.569,194.892 281.887,194.892 282.667 M366.121 283.287 C 366.417 283.324,366.942 283.324,367.288 283.288 C 367.634 283.252,367.392 283.222,366.750 283.221 C 366.108 283.221,365.825 283.250,366.121 283.287 M278.208 283.956 C 278.644 283.990,279.356 283.990,279.792 283.956 C 280.227 283.922,279.871 283.893,279.000 283.893 C 278.129 283.893,277.773 283.922,278.208 283.956 M374.238 287.583 C 374.238 289.692,374.262 290.531,374.291 289.449 C 374.320 288.367,374.320 286.642,374.291 285.616 C 374.262 284.590,374.238 285.475,374.238 287.583 M158.961 284.954 C 159.261 284.991,159.711 284.990,159.961 284.952 C 160.212 284.914,159.967 284.884,159.417 284.885 C 158.867 284.886,158.662 284.917,158.961 284.954 M154.208 295.789 C 154.644 295.824,155.356 295.824,155.792 295.789 C 156.227 295.755,155.871 295.727,155.000 295.727 C 154.129 295.727,153.773 295.755,154.208 295.789 M140.375 305.948 C 140.535 305.990,140.798 305.990,140.958 305.948 C 141.119 305.906,140.987 305.872,140.667 305.872 C 140.346 305.872,140.215 305.906,140.375 305.948 M141.542 305.948 C 141.702 305.990,141.965 305.990,142.125 305.948 C 142.285 305.906,142.154 305.872,141.833 305.872 C 141.512 305.872,141.381 305.906,141.542 305.948 M139.058 320.833 C 139.058 321.612,139.087 321.931,139.122 321.542 C 139.157 321.152,139.157 320.515,139.122 320.125 C 139.087 319.735,139.058 320.054,139.058 320.833 M153.288 320.120 C 153.584 320.157,154.109 320.158,154.455 320.122 C 154.800 320.086,154.558 320.055,153.917 320.055 C 153.275 320.054,152.992 320.083,153.288 320.120 " stroke="none" fill="#f0ecec" fill-rule="evenodd"></path></g></svg>