<svg xmlns="http://www.w3.org/2000/svg" width="400" height="329.929"><g fill-rule="evenodd"><path fill="#ececec" d="M184.348 1.423c-2.634.214-4.585.425-8.431.914-.734.093-1.596.212-1.917.264s-.996.156-1.5.23c-3.641.539-10.113 1.959-14.5 3.183-.321.089-.696.191-.833.226-.138.035-.588.173-1 .307-.413.133-1.2.372-1.75.53s-1.525.473-2.167.699-1.767.602-2.5.836-1.408.481-1.5.551-.467.221-.833.335c-.559.175-3.208 1.223-4.75 1.88a16 16 0 0 1-.5.206c-.202.068-.817.334-1.667.72-.504.229-.954.426-1 .437s-.972.449-2.059.973c-1.086.524-2.036.953-2.111.953a.23.23 0 0 0-.191.125c-.031.068-.918.558-1.972 1.087a92 92 0 0 0-2.834 1.476c-.504.283-1.329.742-1.833 1.02a20 20 0 0 0-1.359.815c-.243.171-.49.31-.549.31-.117 0-2.056 1.218-2.377 1.494-.11.095-.236.173-.278.173-.095 0-2.282 1.394-3.269 2.083-.394.275-.836.576-.983.669-.968.612-1.826 1.217-2.183 1.539-.229.207-.459.375-.513.375-.094 0-.983.65-3.072 2.248-.55.421-1.3.993-1.667 1.272-.718.547-1.857 1.46-2.156 1.73-.182.164-1.916 1.639-3.427 2.915-2.027 1.712-8.814 8.379-10.75 10.56-.55.62-1.225 1.369-1.5 1.664-.76.817-2.813 3.255-3.584 4.256-.229.297-.557.705-.728.906-.172.201-.616.779-.987 1.283a38 38 0 0 1-1.105 1.432c-.236.283-.542.687-.68.898-.137.21-.407.579-.599.818-.193.239-.713.96-1.157 1.602-.443.641-.867 1.191-.943 1.222s-.094.125-.042.209.03.152-.048.152-.364.374-.635.83c-.271.457-.549.832-.617.833-.069.002-.125.078-.125.17 0 .091-.249.523-.554.958a46 46 0 0 0-1.291 2.012 89 89 0 0 1-1.028 1.667c-.16.246-.342.559-.405.697s-.293.536-.511.886c-.596.957-1.612 2.774-2.672 4.78a367 367 0 0 1-.84 1.584 6 6 0 0 0-.289.583c-.011.046-.438.946-.948 2-2.192 4.53-3.407 7.424-5.354 12.75-.691 1.888-2.047 6.053-2.443 7.5-.075.275-.263.95-.417 1.5a112 112 0 0 0-1.19 4.583 88 88 0 0 1-.314 1.334c-.075.292-.599 2.706-.975 4.5a47 47 0 0 0-.421 2.333c-.088.596-.27 1.721-.405 2.5-.54 3.117-1.341 10.219-1.463 12.971-.113 2.559-.068 14.878.063 17.029.177 2.913.495 6 .963 9.333.109.779.215 1.567.236 1.75.041.374.267 1.823.363 2.334.035.183.137.783.227 1.333.091.55.278 1.563.417 2.25s.334 1.662.434 2.167c.196.985 1.235 5.26 1.48 6.083.082.275.276.987.432 1.583s.487 1.721.736 2.5c.975 3.063 1.2 3.825 1.144 3.877-.032.03.074.258.237.506s.259.451.214.451.064.337.24.75c.177.412.29.75.25.75s.082.356.269.791.604 1.505.928 2.375c.323.871.701 1.846.838 2.167s.309.733.383.917c.073.183.365.835.649 1.447s.517 1.155.517 1.204.338.804.751 1.677c.414.873.754 1.623.757 1.667.006.088 2.362 4.712 3.017 5.921.383.705.913 1.628 2.538 4.417 1.278 2.193 4.877 7.831 5.344 8.37.097.112.439.584.759 1.05.523.758 2.279 3.155 2.624 3.58.074.092.504.654.955 1.25a68 68 0 0 0 1.579 1.997c.417.503.834 1.013.926 1.134.091.121.429.509.75.862.32.353.846.958 1.166 1.343a125 125 0 0 0 4.372 4.905l.954 1.009-3.538.103c-3.403.099-4.21.186-6.954.754-1.542.319-4.028 1.05-4.242 1.247-.087.08-.286.146-.443.146-.156 0-.572.146-.925.325-.352.179-1.079.519-1.614.755s-1.381.69-1.879 1.008c-.497.318-.936.579-.976.579-.084 0-1.56.985-1.921 1.283-.138.113-.738.592-1.334 1.063-3.005 2.377-8 8.346-8 9.561 0 .026-.238.563-.53 1.195-.291.631-.545 1.223-.564 1.314a7 7 0 0 1-.263.724l-.229.557-.798-1.433c-1.759-3.158-6.747-9.098-7.641-9.098-.078 0-.273-.131-.435-.291-1.178-1.173-4.476-3.092-7.873-4.581-1.284-.563-4.579-1.57-5.939-1.815-.538-.096-1.353-.246-1.811-.333-2.9-.548-9.688-.548-12.583 0-.413.078-1.275.237-1.917.352-.642.116-1.316.288-1.498.383a2.4 2.4 0 0 1-.667.216c-2.211.286-9.17 3.696-11.19 5.486-.104.091-.516.429-.916.75-1.057.848-2.178 1.862-2.522 2.282-.164.201-.541.621-.836.935-2.663 2.823-5.394 7.529-6.404 11.033-.487 1.692-.572 2.031-.875 3.5-.619 2.998-.714 4.225-.634 8.167.043 2.108.117 3.983.165 4.166s.143.671.21 1.084c.179 1.094.193 1.163.496 2.427.802 3.349 3.815 9.934 4.914 10.739.062.046.44.534.838 1.084 1.194 1.647 4.812 5.118 6.224 5.973.291.175.566.368.612.428.25.329 3.763 2.349 4.085 2.349.121 0 .245.062.276.139.159.398 5.772 2.379 7.414 2.617.353.051.829.157 1.058.236 1.925.666 11.945.86 13.695.265.122-.041.447-.108.722-.148 1.057-.155 3.717-.822 4.833-1.212a27 27 0 0 1 1.452-.475c.615-.145 3.921-1.721 5.215-2.484 1.79-1.057 3.709-2.459 5.083-3.713.321-.293.736-.67.922-.837.342-.309 2.611-2.902 3.453-3.948.252-.313.458-.653.458-.755s.067-.185.148-.185.287-.282.458-.625l.311-.625.083 5.666c.095 6.411.051 6.2 1.479 7.106l.739.469 11.156.006c8.03.005 11.338-.047 11.805-.187.543-.163 2.077-1.477 1.724-1.477-.06 0-.007-.124.119-.276.19-.229.235-3.298.269-18.208.046-19.993-.01-19.031 1.186-20.293 1.004-1.059 1.896-1.387 3.792-1.395 1.779-.006 2.855.43 3.81 1.544 1.131 1.322 1.088.539 1.092 19.82.004 18.053.012 18.248.746 19.309.824 1.188.573 1.166 12.921 1.166 14.865 0 13.662.665 13.662-7.563l.001-5.021.65 1.059c.358.582.806 1.236.996 1.454s.525.679.746 1.025c1.089 1.706 4.569 5.164 6.547 6.507 2.186 1.483 2.924 1.931 4.253 2.577 4.894 2.381 8.661 3.161 14.141 2.928 2.662-.112 2.937-.137 3.833-.351l1.533-.363a17 17 0 0 0 1.916-.577c.754-.294 1.29-.482 1.465-.513.042-.008.848-.403 1.79-.88l1.713-.866.044-4.449.044-4.449-.794.254c-.437.14-.944.316-1.128.392-.328.136-1.698.454-3.666.851-2.728.55-7.467.134-10.673-.937-1.463-.489-4.295-1.749-4.383-1.95a.24.24 0 0 0-.203-.128c-.435 0-3.627-2.523-5.01-3.958-4.612-4.791-6.899-10.87-6.563-17.449.056-1.095.135-2.045.177-2.112s.102-.334.135-.593c.123-.959.311-1.825.554-2.555.137-.412.268-.825.291-.917.046-.185.218-.66.423-1.166.302-.746 1.574-3.339 1.676-3.417.06-.046.208-.271.328-.5.181-.345 1.012-1.517 1.748-2.465 1.635-2.107 5.068-4.774 7.937-6.166 4.51-2.189 11.211-2.933 15.396-1.71 2.995.876 7.016 2.61 7.749 3.342.046.046.384.308.751.58 1.117.832 1.259.957 2.652 2.338 3.368 3.338 5.696 7.559 6.419 11.632.094.533.21 1.03.256 1.106.336.543.53 38.066.215 41.426-.605 6.444-4.043 12.752-8.792 16.13-5.633 4.007-8.231 4.69-18.516 4.867-7.118.122-7.151.119-7.151-.738 0-.73.202-.754 7.317-.855 3.722-.052 6.917-.137 7.1-.188.183-.052.721-.146 1.194-.21 1.557-.211 6.041-1.801 6.389-2.266.046-.061.252-.164.459-.228.206-.065.375-.187.375-.273 0-.085.098-.155.218-.155s.364-.135.542-.299a14 14 0 0 1 1.073-.822c1.452-1.014 4.833-4.63 4.833-5.169 0-.093.094-.249.209-.346.573-.486 2.254-4.361 2.652-6.114.155-.684.185-.837.462-2.417.19-1.083.138-41.064-.055-42.083-1.667-8.804-8.147-15.758-16.434-17.637-2.379-.539-2.863-.593-5.179-.587-4.355.012-10.297 1.759-12.094 3.556-.12.12-.502.392-.848.605s-.785.539-.975.725-.641.6-1.002.921c-8.436 7.488-9.266 22.416-1.681 30.232.291.3.769.819 1.063 1.154s1.157 1.101 1.917 1.701l1.572 1.242c.104.082.592.361 1.083.619.492.258.931.512.977.565.389.449 4.235 1.684 6.417 2.061 2.703.466 7.592.216 9.416-.482.321-.122.621-.219.667-.214.172.018 1.447-.44 2.281-.819 1.925-.874 1.813-1.356 1.951 8.385.145 10.224.102 10.518-1.796 12.376-3.728 3.651-5.193 3.889-22.769 3.697-3.346-.037-6.217-.009-6.379.061-.438.189-.324 21.415.119 22.02.297.407 2.46.485 13.343.485 13.138 0 15.98-.181 19.5-1.246 1.165-.352 1.298-.401 2.442-.903.335-.147.65-.267.701-.267s.471-.223.933-.496.841-.463.841-.424c0 .176 4.663-2.876 5.809-3.803 1.944-1.571 4.504-4.276 5.703-6.027.314-.459.612-.871.663-.917.101-.091.575-.868 1.17-1.917 1.878-3.308 2.984-6.546 3.416-10 .636-5.078.881-9.389.9-15.833.006-2.108.059-4.789.117-5.957l.105-2.124.386.541c.212.297.463.631.558.741.095.111.173.274.173.361 0 .088.059.185.132.216.072.03.353.355.625.722 1.306 1.767 4.727 5.104 6.159 6.01.275.173.538.364.584.422.383.491 5.033 2.956 6.083 3.225.092.023.279.086.417.138 1.415.541 3.736 1.053 6.452 1.425 3.062.418 8.45.087 12.173-.749l1.208-.271v-3.975c0-2.354-.064-3.975-.156-3.975-.086 0-.367.08-.625.179-3.229 1.228-11.113 1.16-13.594-.118-.252-.13-.458-.201-.458-.158s-.357-.074-.792-.259l-1.375-.585c-.716-.303-1.887-.916-2-1.047-.046-.053-.533-.388-1.083-.746-3.8-2.467-6.649-6.004-8.603-10.683-1.791-4.286-1.93-10.293-.352-15.166.149-.459.26-.85.248-.87s.236-.566.551-1.213.572-1.207.572-1.245c0-1.061 4.653-6.464 6.822-7.922.478-.321.969-.676 1.092-.789.423-.389 4.171-2.175 5.17-2.464 3.004-.868 3.506-.95 6.328-1.035 4.478-.136 7.413.518 11.255 2.506 1.372.71 2.06 1.176 4.468 3.026.645.496 1.523 1.401 2.349 2.422.408.505.793.954.854 1 .114.085.915 1.306 1.257 1.917l.646 1.145c.482.853 1.449 3.171 1.677 4.022l.179.666c.779 2.884.873 4.871.846 17.786-.029 13.461.017 12.916-1.065 12.535l-.461-.162-.099-13.579c-.108-14.82-.075-14.312-1.127-17.426-.278-.824-.622-1.72-.764-1.992s-.258-.583-.259-.691-.095-.296-.209-.417c-.115-.121-.39-.558-.611-.97-.892-1.664-3.316-4.454-4.924-5.667-.425-.321-.976-.741-1.223-.934-.248-.192-.901-.598-1.451-.902l-1.5-.829a5 5 0 0 0-.833-.374 46 46 0 0 1-1.583-.546c-4.144-1.492-9.778-1.397-14.084.235-.658.25-3.972 1.93-4.151 2.104-.1.098-.557.433-1.015.743-4.215 2.857-8.046 9.448-8.431 14.503-.151 1.993-.04 5.617.193 6.264.069.191.169.625.223.964.054.34.25 1.046.435 1.57.185.523.366 1.071.402 1.217.132.537 1.184 2.596 1.796 3.518.348.522.632.998.632 1.059 0 .311 2.77 3.245 3.916 4.148.459.361.859.717.889.792.031.074.15.135.266.135s.346.15.512.333.388.333.494.333.339.134.516.297c.418.383 2.91 1.58 3.74 1.795.137.036.887.26 1.667.499 3.065.937 8.879.742 12.333-.413 2.152-.72 2-1.184 2 6.106v6.065l.409.409.409.409h21.53l.41-.409.409-.409.013-7.466c.007-4.106.037-7.391.067-7.299l.506 1.583c1.114 3.498 3.852 7.638 6.44 9.734.426.346.914.753 1.083.906.876.789 2.562 1.877 3.432 2.215.252.098.459.245.459.328s.113.15.252.15.382.072.542.159c7.283 3.991 18.734 2.315 26.622-3.895.184-.145.634-.493 1-.775a22 22 0 0 0 1.417-1.22c1.094-1.032 1.115-1.037 1.749-.409 2.792 2.761 6.163 5.389 7.953 6.2 3.545 1.607 5.232 2.045 8.548 2.219 3.204.169 8.66-.723 9.833-1.607.092-.069.392-.179.667-.243.275-.065.837-.315 1.25-.555.412-.24.75-.406.75-.369 0 .11 2.328-1.544 2.389-1.697a.24.24 0 0 1 .207-.141c.179 0 .714-.437 1.977-1.614a64 64 0 0 1 1.328-1.208c.22-.19.354-.345.297-.345s.138-.253.433-.562c.729-.765 1.619-1.887 1.619-2.042 0-.07.183-.319.406-.553s.635-.89.916-1.458c.281-.567.586-1.078.678-1.134.092-.057.167-.249.167-.427s.079-.324.176-.324.134-.069.081-.155a.184.184 0 0 1 .06-.252c.086-.053.393-.807.683-1.676.556-1.669.605-1.699 1.166-.721.324.564.841 1.275 1.209 1.663.16.169.291.349.291.399 0 .405 4.928 5.199 5.989 5.826.155.091.547.373.871.625s.649.458.724.458.386.191.692.425c.307.234.559.365.56.292s.058-.051.125.05c.268.402 4.404 2.149 5.873 2.481 3.778.853 4.812.974 8.333.97 3.772-.005 7.769-.46 9.333-1.063l.417-.161v-3.914c0-2.499-.06-3.912-.167-3.911-.091.001-.466.107-.833.234-2.095.728-7.047 1.094-9.583.707-1.257-.191-4.215-.949-4.409-1.129a.7.7 0 0 0-.416-.149c-.142 0-.473-.113-.736-.25s-.551-.249-.641-.249-.381-.155-.648-.344c-.266-.19-.484-.301-.484-.248s-.318-.104-.708-.35c-1.436-.907-2.046-1.312-2.222-1.474a8 8 0 0 0-.667-.5c-3.448-2.366-7.18-8.27-8.166-12.917-.507-2.392-.591-6.925-.164-8.833.051-.229.138-.68.194-1 .247-1.431 2.274-6.49 2.738-6.834.062-.046.323-.419.58-.829.257-.411.568-.847.691-.971.124-.123.224-.281.224-.351 0-.162 3.097-3.304 3.757-3.812 2.363-1.817 5.297-3.335 7.795-4.03 1.306-.364 1.605-.434 2.532-.589.275-.046.725-.125 1-.175 3.698-.672 8.65.181 12.903 2.221 2.147 1.03 5.458 3.521 6.682 5.026.32.394.656.803.748.909 1.755 2.031 3.754 5.797 4.345 8.185.068.275.146.575.173.666.625 2.105.687 3.514.717 16.357.032 13.51.032 13.507-.593 13.665-1.116.28-1.062.984-1.057-13.726.003-7.278-.025-13.285-.062-13.348s-.114-.489-.172-.948a14 14 0 0 0-.258-1.416l-.262-1a7 7 0 0 0-.246-.75c-.22-.532-.382-.985-.426-1.191-.081-.376-1.614-3.316-1.9-3.643-.161-.183-.537-.696-.836-1.139-4.632-6.879-15.583-10.336-23.506-7.422a28 28 0 0 1-1.25.434c-2.33.672-6.993 4.145-8.667 6.454-.183.253-.408.548-.5.655-.276.322-.917 1.25-.917 1.328 0 .04-.3.567-.666 1.17-.367.604-.667 1.141-.667 1.193s-.147.418-.326.811c-1.234 2.708-1.953 9.153-1.295 11.6.037.137.124.55.193.916.116.611.344 1.456.562 2.084.048.137.095.287.104.333.025.13.449 1.176.797 1.968.461 1.049 1.711 3.119 2.204 3.651.235.254.428.527.428.609 0 .246 2.848 2.998 3.916 3.784.55.405 1.038.774 1.084.82.257.261 3.669 1.988 4.095 2.074.177.035.659.172 1.071.305 2.345.753 3.369.906 6.334.942 2.933.036 7.265-.691 8.124-1.363.14-.11.342-.074.625.111l.417.273v12.454l.411.269c.729.478 21.542.403 22.155-.08l.445-.349-.054-18.859c-.029-10.373-.1-19.046-.157-19.276-.057-.229-.153-.866-.214-1.416-.06-.55-.175-1.263-.256-1.584-.72-2.856-.917-3.575-1.282-4.666-1.67-5.002-5.517-10.291-9.648-13.266a31 31 0 0 1-.879-.664c-.241-.191-.55-.398-.687-.46-.138-.062-.55-.302-.917-.533-5.243-3.304-14.308-5.033-22.083-4.213-2.087.22-6.453 1.235-7.084 1.647-.091.06-.383.161-.648.225-.93.222-4.11 1.858-5.735 2.949-.394.265-.75.481-.79.481-.067 0-.673.49-1.141.922a10 10 0 0 1-.769.58c-1.044.729-4.005 3.713-5.183 5.223l-1.15 1.475v-4.9c0-3.589-.054-4.953-.2-5.1-.11-.11-.136-.2-.058-.2s-.031-.15-.242-.333c-.483-.419-21.722-.522-22.466-.109-.903.501-.868-.259-.868 18.534 0 18.342.001 18.337-.746 20.124a3.42 3.42 0 0 1-5.132 1.502c-.872-.602-1.217-1.428-1.588-3.801-.055-.354-.226-30.197-.202-35.352.001-.194-.196-.55-.438-.792l-.439-.439h-21.814l-.487.487-.487.487-.02 16.721c-.011 9.197-.009 16.781.003 16.854.197 1.174-.928 4.889-1.677 5.537-1.479 1.281-3.963 1.165-4.956-.23-.937-1.315-.925-1.094-.977-18.048l-.048-15.609.963-.803c3.564-2.974 10.636-9.767 12.882-12.373a81 81 0 0 1 1.413-1.601c.275-.297.875-.976 1.334-1.509.458-.532.908-1.049 1-1.149.091-.099.371-.456.622-.792.251-.335.551-.71.668-.833.175-.183 1.609-1.935 2.093-2.556.604-.776 2.176-2.927 2.414-3.304.163-.259.368-.559.455-.667.737-.907 1.118-1.436 2.227-3.093.699-1.043 1.271-1.928 1.271-1.965s.075-.159.166-.27c.258-.312 1.334-1.975 1.334-2.062 0-.043.169-.317.375-.608.579-.819.792-1.172.899-1.489.054-.161.164-.292.245-.292s.147-.078.147-.174.452-.927 1.005-1.847c2.135-3.555 6.868-12.989 7.095-14.143.027-.135.128-.273.225-.305.096-.032.175-.16.175-.284s.088-.436.195-.694c.107-.259.206-.507.22-.553s.11-.271.214-.5a75 75 0 0 0 1.619-4c.483-1.317.653-1.762.909-2.375.153-.368.387-1.127.398-1.292.003-.046.188-.571.412-1.166.223-.596.537-1.534.697-2.084s.382-1.225.492-1.5c.111-.275.189-.52.175-.546-.014-.025.091-.438.234-.916.72-2.411 1.117-3.805 1.363-4.788.773-3.09 1.023-4.144 1.319-5.583.132-.642.323-1.542.424-2a53 53 0 0 0 .415-2.25 67 67 0 0 1 .302-1.75c.04-.183.16-.896.268-1.583.107-.688.26-1.625.34-2.084.08-.458.146-.946.147-1.083.001-.138.083-.925.181-1.75.099-.825.217-1.913.263-2.417s.122-1.2.168-1.546c.385-2.89.462-17.991.11-21.37-.37-3.553-.627-5.729-.757-6.417-.043-.229-.13-.864-.193-1.411a25 25 0 0 0-.182-1.333 76 76 0 0 1-.226-1.256c-.386-2.238-.677-3.747-.924-4.792-.146-.618-.307-1.312-.357-1.541-.117-.539-.144-.65-.564-2.334a94 94 0 0 1-.42-1.735 17 17 0 0 0-.302-1.084c-.13-.42-.366-1.214-.525-1.764s-.845-2.65-1.524-4.667a429 429 0 0 1-1.282-3.833 12 12 0 0 0-.437-1.333c-.173-.409-.386-.971-.411-1.084-.034-.154-1.3-3.412-1.523-3.916-.121-.275-.495-1.175-.831-2s-.664-1.575-.73-1.667c-.067-.092-.219-.429-.34-.75-.464-1.236-3.787-7.86-5.057-10.083-1.871-3.273-3.983-6.818-4.122-6.917-.065-.046-.466-.646-.893-1.333-.655-1.056-1.72-2.617-2.977-4.361l-.909-1.271c-.549-.77-1.478-1.97-3.44-4.442-.955-1.203-3.046-3.709-3.705-4.441-3.139-3.486-4.323-4.748-6.319-6.735a130 130 0 0 0-5.668-5.334c-.823-.733-1.522-1.389-1.552-1.458s-.127-.125-.214-.125-.413-.255-.725-.567-.609-.524-.661-.472-.095.02-.095-.071c0-.092-.572-.61-1.271-1.153a55 55 0 0 1-1.458-1.158 36 36 0 0 0-1.187-.951c-.55-.429-1.126-.89-1.279-1.025a4 4 0 0 0-.612-.423 2.8 2.8 0 0 1-.555-.398c-.121-.122-.446-.365-.721-.542-.275-.176-.575-.38-.667-.452-.745-.588-2.111-1.539-2.625-1.83-.343-.194-.625-.414-.625-.489 0-.074-.08-.136-.177-.136-.098 0-.424-.187-.725-.416-.3-.229-.614-.418-.697-.42-.083-.001-.405-.226-.715-.5-.31-.273-.667-.497-.792-.497s-.227-.056-.227-.125-.394-.34-.875-.604a33 33 0 0 1-1.458-.847c-2.647-1.671-11.879-6.63-12.583-6.759-.077-.014-1.554-.656-2.501-1.088a51 51 0 0 0-1.833-.744 47 47 0 0 1-1.833-.745c-2.152-.987-8.404-3.139-12.667-4.36-3.211-.92-6.38-1.708-8-1.989A16 16 0 0 1 222.167 4c-.824-.214-2.89-.624-4.167-.826a61 61 0 0 1-1.5-.255c-.433-.087-3.006-.46-5.167-.749-2.319-.311-3.909-.487-5.416-.6-.825-.062-1.688-.145-1.917-.185-1.228-.212-16.935-.182-19.652.038m16.902 5.821c.735.055 3.433.246 4.833.341 1.386.095 4.741.507 6.75.829.23.037 1.054.152 1.834.255.779.102 1.754.264 2.166.358.413.095.992.198 1.286.23s1.008.169 1.584.305 1.235.284 1.464.33c3.029.603 7.596 1.805 11.5 3.027.779.244 1.679.515 2 .603s.733.225.916.303.746.291 1.25.474c3.874 1.399 6.863 2.598 9.463 3.796.484.223.911.405.95.405.142 0 4.892 2.36 6.421 3.191.87.473 1.921 1.04 2.333 1.26s1.237.69 1.833 1.043c.596.354 1.402.813 1.792 1.021s.708.428.708.489c0 .062.3.247.667.413s.667.359.667.43.163.182.362.245c.199.064.443.186.542.271.098.086.666.476 1.262.867 1.982 1.299 2.75 1.838 2.806 1.972.03.072.132.131.225.131s.766.45 1.496 1 1.394 1 1.475 1 .208.096.282.214.912.811 1.864 1.541c1.886 1.448 2.968 2.332 5.186 4.235l.916.785c3.033 2.594 9.747 9.323 11.75 11.777.23.28.623.71.875.956.252.245.459.499.459.564s.093.215.208.334a28 28 0 0 1 1.655 1.929c.245.32.638.807.871 1.082.234.275.484.575.554.667 1.725 2.247 3.214 4.24 3.529 4.721.22.336.482.667.583.734.107.072.114.125.016.128-.102.003-.098.052.011.128.218.15 1.791 2.434 2.611 3.792.333.551.761 1.182.95 1.4.19.219.345.465.345.548s.365.728.81 1.433 1.387 2.332 2.093 3.616c.705 1.283 1.35 2.445 1.433 2.583.227.379 1.865 3.706 2.737 5.559s.87 1.894-.158 2.988c-.412.438-.748.869-.748.958a.165.165 0 0 1-.167.162.167.167 0 0 0-.167.166c0 .092-.131.306-.291.475-.314.332-.306.322-1.789 2.192a53 53 0 0 1-1.164 1.436c-.547.59-.922 1.085-.922 1.218 0 .083-.057.177-.125.207-.135.06-.823.86-1.625 1.889-.455.584-1.628 2.053-2.662 3.333-.222.275-.88 1.1-1.461 1.834-1.294 1.631-1.639 2.055-1.961 2.405-.137.15-.473.57-.747.933a35 35 0 0 1-1.61 2.007 55 55 0 0 0-1.409 1.77c-.441.578-.848 1.089-.904 1.135-.127.102-2.62 3.199-3.08 3.824-.183.25-.464.584-.625.743s-.291.345-.291.413-.209.344-.465.613c-.255.27-.873 1.015-1.373 1.657a40 40 0 0 1-1.077 1.345c-.093.099-.356.424-.585.723s-.496.631-.592.738c-.279.31-4.761 5.913-5.475 6.845-.358.467-.695.886-.751.932-.055.046-.312.366-.569.712-.258.345-.65.833-.872 1.083s-.46.531-.53.623c-.071.093-.427.543-.792 1-.366.458-.72.907-.788.999s-.52.654-1.004 1.25c-.485.595-1.17 1.443-1.523 1.884-.782.975-.748 1.007-.863-.814a42 42 0 0 0-.244-2.57c-.083-.596-.197-1.496-.255-2-.101-.892-.456-2.981-.764-4.5a54 54 0 0 1-.216-1.116c-.036-.201-.113-.444-.172-.539s-.135-.419-.17-.718c-.165-1.437-2.115-7.727-3.018-9.736-.129-.289-.236-.571-.236-.627 0-.098-.382-.99-1.007-2.348a74 74 0 0 1-.666-1.5c-.867-2.008-4.085-7.924-4.488-8.25-.057-.046-.411-.575-.786-1.175-.552-.883-1.509-2.241-2.52-3.575l-.62-.833c-2.025-2.734-6.822-7.884-9.42-10.114-.5-.429-1.109-.954-1.354-1.167-.916-.796-3.436-2.786-3.97-3.136-.21-.137-.578-.404-.817-.592-.854-.672-4.184-2.89-5.018-3.342-.321-.173-.621-.353-.667-.399a2.7 2.7 0 0 0-.417-.265l-1.25-.685a101 101 0 0 0-2.416-1.259c-1.334-.674-2.011-.993-4.267-2.012-2.673-1.207-8.447-3.129-11.567-3.85a35 35 0 0 1-1.666-.422c-.275-.084-.875-.2-1.334-.259a47 47 0 0 1-2.416-.421 41 41 0 0 0-3.5-.487c-1.055-.095-2.104-.211-2.334-.257-1.9-.381-10.648-.239-15.166.246-1.869.201-2.282.265-5.459.846-.527.097-1.108.198-1.291.224a5 5 0 0 0-.695.165c-.413.133-.828.233-1.88.451-.408.085-.97.227-1.25.317s-1.184.357-2.009.595c-1.52.437-4.418 1.421-5.333 1.81-.275.117-.763.311-1.083.431-.321.12-.655.282-.742.359a.64.64 0 0 1-.365.14c-.357 0-4.829 2.135-6.932 3.31-2.197 1.227-3.063 1.731-3.295 1.919a5 5 0 0 1-.705.43 4 4 0 0 0-.75.497c-.33.303-1.854 1.344-1.968 1.344-.074 0-2.089 1.493-2.243 1.661-.046.051-.384.291-.75.534-.367.243-.857.617-1.089.831-.232.215-.832.725-1.333 1.134-5.238 4.276-12.24 12.439-15.476 18.041-1.636 2.832-2.682 4.751-2.684 4.924-.001.114-.058.208-.128.208-.069 0-.225.244-.347.542s-.47 1.066-.773 1.708c-6.333 13.391-8.374 29.117-5.73 44.167.177 1.008.354 1.983.393 2.166.04.184.118.596.175.917.311 1.767 1.968 7.54 2.559 8.917.079.183.537 1.345 1.018 2.583 1.012 2.603 4.269 9.334 4.678 9.667.056.046.207.29.336.544.344.678 3.244 5.218 3.485 5.456.046.046.544.691 1.106 1.433a99 99 0 0 0 1.279 1.667l1.145 1.41c2.336 2.886 6.967 7.421 10.201 9.989.174.138.549.441.833.674.813.665 3.632 2.747 4.185 3.091.275.171.537.358.583.415s.421.291.834.519a47 47 0 0 1 1.96 1.192c.665.427 1.241.776 1.278.776.038 0 .725.379 1.527.842 1.223.707 2.744 1.491 3.068 1.582.046.012.758.339 1.583.726 2.286 1.07 2.383 1.111 4.167 1.77a79 79 0 0 1 2 .758c.408.174 2.397.823 2.772.904.149.032.614.175 1.033.317s.935.291 1.145.331c.211.039.983.232 1.717.427 2.883.768 7.209 1.49 11.916 1.989 1.463.155 11.465.128 12.5-.034.321-.05.959-.13 1.417-.178a91 91 0 0 0 2.167-.264l1.948-.258c1.093-.142 4.674-.891 6.302-1.318.87-.229 1.771-.462 2-.518 1.937-.478 6.871-2.248 9.25-3.318a366 366 0 0 1 1.916-.852 47 47 0 0 0 2.334-1.132c.687-.36 1.475-.769 1.75-.908.698-.355 4.981-2.911 5.083-3.033.046-.055.367-.272.713-.483s.721-.473.833-.584.316-.254.454-.32c.255-.121 1.211-.828 3.268-2.416 3.71-2.865 8.331-7.394 11.72-11.488.55-.664 1.08-1.358 1.178-1.541.173-.322.348-.334 4.966-.334 6.231 0 6.06.056 8.285-2.695.733-.906 1.473-1.814 1.644-2.018s.508-.629.75-.944c.241-.316.651-.804.911-1.084s.822-.959 1.25-1.509.89-1.126 1.028-1.281c.137-.155.4-.479.583-.722.184-.242.41-.528.503-.635.163-.187 3.052-3.674 4.141-4.997.288-.349.601-.724.696-.833s.686-.836 1.313-1.615c1.341-1.667 2.116-2.622 2.347-2.89a64 64 0 0 0 .828-1.027c.364-.458.711-.871.772-.917.122-.091.953-1.092 1.734-2.088.275-.35.576-.718.669-.816.093-.099.428-.517.745-.929.318-.413.619-.788.67-.833.051-.046.529-.609 1.061-1.25.533-.642 1.243-1.494 1.578-1.893.336-.399.685-.859.777-1.022s.504-.673.916-1.134.938-1.083 1.167-1.382c.229-.3.492-.625.583-.724.092-.098.461-.554.82-1.012s.733-.908.833-1 .623-.729 1.164-1.417c.541-.687 1.066-1.325 1.166-1.416.154-.14 1.475-1.771 1.892-2.337.069-.093.388-.472.709-.842s.855-1.006 1.188-1.414c.825-1.01 2.404-2.954 2.948-3.628.246-.304.621-.754.834-1 .213-.245.588-.709.833-1.029.246-.321.526-.659.622-.75.096-.092.471-.542.833-1 .664-.842 1.184-1.473 1.494-1.814.093-.103.429-.524.746-.936s.618-.788.67-.834c.051-.046.39-.458.754-.916.364-.459.701-.871.75-.917a48 48 0 0 0 1.049-1.25 357 357 0 0 1 1.286-1.556c.179-.214.326-.42.326-.458s.131-.205.292-.37c.16-.166.479-.534.708-.818l1.25-1.551a52 52 0 0 1 1.436-1.705l.602-.673.192 1.316c1.238 8.476 1.454 18.383.598 27.398-.217 2.293-.543 4.955-.744 6.084a31 31 0 0 0-.249 1.75 25 25 0 0 1-.245 1.666c-.08.413-.268 1.425-.419 2.25a73 73 0 0 1-.426 2.167c-.082.367-.272 1.229-.42 1.917-.149.687-.383 1.7-.52 2.25-.233.93-.542 2.184-.882 3.583a76 76 0 0 1-.752 2.583c-.335 1.1-.636 2.113-.668 2.25-.093.401-1.418 4.384-1.58 4.75-.081.184-.275.709-.43 1.167a26 26 0 0 1-.495 1.333c-.116.275-.266.688-.332.917-.067.229-.3.813-.519 1.297-.218.484-.397.938-.397 1.009 0 .162-1.558 3.779-2.488 5.777-2.039 4.379-2.422 5.183-2.55 5.357-.118.162-.836 1.499-2.09 3.893a54 54 0 0 1-1.045 1.834c-.407.687-.816 1.384-.908 1.548-.533.942-3.161 5.215-3.25 5.285-.058.046-.691.946-1.405 2-1.947 2.874-2.469 3.609-3.055 4.305-.207.245-.375.49-.375.544-.001.055-.159.28-.353.5a51 51 0 0 0-1.369 1.734 48 48 0 0 1-1.189 1.523c-.204.224-.469.544-1.525 1.845a56 56 0 0 1-1.08 1.299c-.163.183-.47.533-.682.777-2.397 2.758-8.567 9.038-10.702 10.892a442 442 0 0 0-1.621 1.414c-.26.23-.584.511-.719.625-.192.162-2.562.209-10.613.209h-10.366l-.558.425-.557.425-.01 9.2-.01 9.2-.33-1.167a92 92 0 0 1-.369-1.333 1.5 1.5 0 0 0-.138-.334c-.053-.091-.15-.387-.214-.656-.173-.718-1.463-3.402-2.16-4.491-.331-.518-.602-.987-.602-1.042 0-.13-1.635-2.302-2.357-3.13-2.907-3.339-6.314-5.765-10.56-7.522-4.764-1.97-10.861-2.853-16.724-2.421-1.435.106-2.722.198-2.859.204-.538.024-2.874.567-4.25.986-3.017.92-7.515 3.079-8.554 4.105-.121.119-.276.217-.343.217-.068 0-.269.134-.447.297s-.619.519-.98.792c-1.474 1.109-3.331 2.896-4.676 4.497-.459.546-.96 1.133-1.114 1.306-1.023 1.145-3.287 4.957-4.048 6.817-.405.99-.442.986-.815-.084-.342-.984-1.428-3.33-1.6-3.458-.061-.046-.364-.533-.671-1.083-.795-1.42-2.108-3.139-3.531-4.62-.245-.255-.415-.464-.377-.464.061 0-.543-.561-2.597-2.413-.322-.29-.81-.671-1.083-.845-.274-.175-.535-.357-.581-.405s-.421-.312-.833-.587c-.413-.274-.788-.538-.834-.586s-.27-.182-.5-.299a31 31 0 0 1-1.25-.705c-.458-.271-1.005-.568-1.216-.659s-.811-.359-1.333-.596c-6.516-2.957-14.848-3.918-22.201-2.561l-2.083.383c-1.171.214-4.471 1.301-5.683 1.873-.467.22-.929.4-1.028.4s-.203.057-.233.125c-.031.069-.581.383-1.223.698-3.222 1.582-7.529 5.009-10.061 8.008a66 66 0 0 1-1.154 1.334c-.21.23-.733.944-1.162 1.585-.429.642-.926 1.336-1.105 1.542s-.27.375-.202.375-.041.231-.242.513-.588.974-.861 1.538c-.549 1.132-.742 1.061-1.046-.384-.067-.321-.184-.661-.259-.756s-.173-.357-.216-.583a5.6 5.6 0 0 0-.241-.828c-.273-.696-1.035-2.396-1.226-2.737-.099-.176-.368-.663-.598-1.083-1.298-2.37-5.002-6.421-7.293-7.976-.367-.249-.705-.498-.75-.554-.075-.09-1.029-.72-1.917-1.264-.183-.113-1.233-.655-2.333-1.205-2.296-1.149-2.786-1.557-7.414-6.182-3.199-3.197-4.663-4.743-6.086-6.429a39 39 0 0 0-1.167-1.33 15 15 0 0 1-.833-.988 18 18 0 0 0-.75-.912 15 15 0 0 1-.744-.929 17 17 0 0 0-.667-.849c-.559-.609-2.329-2.969-3.67-4.895-.543-.78-1.03-1.454-1.084-1.5-.053-.046-.391-.534-.751-1.084a28 28 0 0 0-.79-1.166c-.264-.324-3.139-4.956-3.655-5.889-.287-.519-.568-.982-.624-1.028s-.301-.458-.544-.917c-.244-.458-.716-1.321-1.049-1.916-.514-.919-3.977-7.903-4.423-8.917-1.464-3.335-2.914-6.968-3.591-9-.214-.642-.588-1.729-.832-2.417s-.466-1.362-.495-1.5a14 14 0 0 0-.302-1c-1.108-3.314-2.693-9.843-3.458-14.25a29 29 0 0 0-.317-1.583c-.079-.321-.201-1.071-.272-1.667a39 39 0 0 0-.149-1.166 38 38 0 0 1-.146-1.167 58 58 0 0 0-.27-2 46 46 0 0 1-.426-4.167 20 20 0 0 0-.142-1.583c-.409-2.501-.421-16.167-.016-19 .039-.275.113-1.1.164-1.833.084-1.202.312-3.414.495-4.808l.17-1.291c.055-.421.133-.946.173-1.167.039-.22.145-.888.235-1.484s.239-1.496.332-2c.271-1.471.342-1.882.435-2.5.242-1.612 1.719-7.802 2.525-10.584.319-1.1.606-2.112.637-2.25.233-1.015 1.8-5.605 1.973-5.778.061-.061.111-.242.111-.402s.157-.654.348-1.098c.192-.443.374-.933.406-1.09s.183-.57.336-.917c.152-.347.345-.8.427-1.006.242-.608.438-1.067.89-2.089.235-.529.426-.993.426-1.03 0-.151 1.474-3.334 2.945-6.362.879-1.806 3.287-6.18 4.577-8.311.166-.275.427-.723.58-.995s.849-1.359 1.546-2.416 1.306-2 1.352-2.095c.105-.218 3.856-5.465 3.988-5.577.053-.046.434-.534.846-1.084s.788-1.037.837-1.083.347-.421.665-.833c.317-.413.652-.834.745-.935a53 53 0 0 0 1.743-2.067c.407-.503.913-1.074 1.125-1.268s.385-.4.385-.458.131-.242.291-.409c.161-.167 1.379-1.451 2.709-2.853 1.329-1.402 2.512-2.635 2.628-2.738s.873-.829 1.68-1.612 2.36-2.208 3.45-3.167a159 159 0 0 0 2.487-2.222c.278-.263.692-.6.921-.748s.68-.507 1-.796c.321-.289.959-.81 1.417-1.157s1.601-1.217 2.538-1.934c.938-.717 1.776-1.303 1.862-1.303.085 0 .181-.061.211-.134.125-.302 6.46-4.571 8.222-5.541.55-.303 1.188-.677 1.417-.831s.754-.469 1.167-.699c.412-.231 1.312-.743 2-1.139 1.502-.864 9.576-4.894 10.166-5.075.23-.07.806-.304 1.281-.521.476-.216.908-.393.96-.393.053 0 .414-.144.803-.319 1.395-.63 8.528-3.233 9.373-3.421.202-.045 2.181-.631 4-1.184a43 43 0 0 1 2-.562c3.549-.835 4.379-1.028 4.667-1.084a77 77 0 0 0 2-.433 90 90 0 0 1 2.083-.422c.779-.15 1.561-.302 1.738-.337.176-.035.894-.142 1.595-.238a37 37 0 0 0 1.679-.26c.71-.148 6.168-.783 6.655-.774.137.003.85-.059 1.583-.138s2.571-.193 4.083-.253 2.788-.149 2.834-.197c.083-.088 8.997.08 10.583.199m-73.564 40.063a66 66 0 0 0-.769.424c-.39.22-2.042 1.374-3 2.096-.367.276-.892.651-1.167.832s-.725.523-1 .759a17 17 0 0 1-.667.552c-.565.414-1.707 1.33-2.012 1.613a95 95 0 0 1-1.504 1.334c-1.59 1.388-6.126 5.926-7.324 7.327a58 58 0 0 1-1.326 1.51c-.462.483-2.434 2.943-3.338 4.163-.271.366-.533.704-.581.75-.048.045-.533.758-1.078 1.583s-1.034 1.537-1.087 1.583c-.079.069-1.01 1.543-1.951 3.087-3.713 6.1-7.283 14.317-9.157 21.08l-.416 1.5c-.089.321-.194.733-.233.917-.039.183-.151.67-.249 1.083-1.852 7.791-2.837 17.705-1.942 19.534 1.306 2.669 5.693 1.724 5.575-1.201-.037-.921.269-5.41.477-7 .138-1.054.277-2.141.308-2.416.106-.938.412-2.832.593-3.667.099-.458.288-1.358.42-2 .236-1.145.314-1.485.797-3.5.437-1.825 1.893-6.438 2.369-7.507.124-.279.458-1.138.742-1.908.284-.769.767-1.929 1.073-2.575s.758-1.654 1.003-2.238.641-1.372.88-1.75c.239-.379.429-.706.421-.727-.054-.148.191-.712.31-.712.081 0 .147-.095.147-.212s.343-.764.762-1.437.832-1.384.919-1.579c.086-.195.287-.551.446-.791.16-.239.512-.802.783-1.25.272-.448.553-.839.625-.87.073-.03.132-.155.132-.277s.059-.248.131-.278.382-.468.689-.972c.306-.505.611-.955.677-1s.308-.384.538-.751c.23-.368.578-.855.774-1.084.196-.228.928-1.128 1.627-1.999.7-.871 1.618-1.996 2.042-2.5.808-.961 6.821-7.012 7.528-7.577.226-.18 1.085-.895 1.91-1.59.825-.694 1.763-1.444 2.084-1.665.32-.221.62-.446.666-.501s.346-.281.667-.503.675-.492.787-.6c.112-.109.487-.37.834-.58.346-.211.666-.425.712-.476.046-.052.396-.297.779-.544 3.242-2.101.939-7.312-2.426-5.49m75.481 20.77c.595.057 1.421.172 1.833.256a23 23 0 0 0 1.667.254c.504.056 1.816.282 2.916.503s2.188.437 2.417.48c.494.093 2.541.659 3.833 1.06.505.156.992.288 1.084.293.091.005.33.099.53.21.201.11.489.2.642.2.152 0 .514.106.802.236.289.129.938.385 1.442.568.505.183 1.142.427 1.417.54s.582.225.682.247c.99.212 9.343 4.541 9.966 5.165.134.134.418.321.631.417.522.233 1.478.827 2.07 1.286.266.206 1.122.84 1.901 1.409s1.454 1.075 1.5 1.125.421.364.833.697c.413.334.912.746 1.11.917.198.17.683.572 1.077.893.871.71 5.244 5.057 5.785 5.751.214.275.664.799 1 1.166a28 28 0 0 1 1.314 1.583c.386.504.901 1.142 1.143 1.417.462.524.861 1.1 2.653 3.824 1.054 1.602 1.608 2.478 2.008 3.176.904 1.575 2.591 4.854 3.13 6.083.419.954.967 2.216 1.196 2.75 1.301 3.037 3.18 9.478 3.672 12.584.141.893.21 1.276.33 1.833.234 1.09.575 4.004.712 6.083.066 1.009.12 3.303.12 5.098v3.264l-.5.587c-.554.651-.735.877-1.579 1.969-.318.412-.622.786-.675.832-.133.115-3.444 4.241-4.146 5.167-.313.412-.617.787-.676.833s-.326.384-.593.75c-.998 1.372-.079 1.25-9.412 1.25-7.802 0-8.352-.019-8.439-.291-.345-1.081-1.027-1.832-2.138-2.354-1.191-.56-27.235-.554-28.583.007-.953.396-1.773 1.268-2.115 2.251-.358 1.028-.323 30.011.037 31.054.304.879.868 1.517 1.847 2.091l.705.413 13.773-.006c16.105-.007 15.252.117 16.363-2.373l.279-.625h8.974l-.632.708c-.998 1.118-4.575 4.625-5.652 5.542a62 62 0 0 0-1.159 1.002c-.098.093-.516.43-.929.748-.412.318-.832.655-.932.748s-.43.356-.734.585c-.304.23-.654.516-.777.637s-.223.175-.223.119-.094-.021-.209.079c-.482.418-2.419 1.773-2.958 2.069-.321.177-.621.364-.667.417s-.233.185-.416.293l-1.667.984c-.733.432-1.596.943-1.917 1.135s-.62.354-.666.36-1.059.48-2.25 1.053a123 123 0 0 1-2.542 1.197c-.206.087-.544.231-.75.322-.961.42-2.89 1.168-3.016 1.168-.078 0-.378.107-.667.236-.289.13-1.088.398-1.775.597-.688.199-1.513.445-1.834.547s-.658.203-.75.225-.616.162-1.166.311c-.55.15-1.338.341-1.75.425-.413.084-1.275.267-1.917.407a30 30 0 0 1-2.917.493c-.225.027-1.012.143-2.416.358-4.314.659-13.079.496-18.417-.342-.138-.021-.625-.093-1.083-.158-2.059-.295-6.899-1.489-9.516-2.349-6.034-1.983-11.229-4.508-16.901-8.214-.779-.509-1.454-.969-1.5-1.022s-.496-.376-1-.717c-.504-.342-1.142-.819-1.417-1.062a13 13 0 0 0-1.125-.86c-.343-.23-.625-.48-.625-.555s-.338-.369-.752-.654c-.844-.581-5.522-5.183-6.92-6.808-.501-.583-1.061-1.23-1.244-1.437a13 13 0 0 1-.657-.826 13 13 0 0 0-.641-.813c-.285-.326-1.757-2.354-2.502-3.448-.947-1.39-2.072-3.119-2.169-3.333a6 6 0 0 0-.322-.58c-1.027-1.614-2.153-3.786-3.503-6.754-.777-1.709-.932-2.082-1.211-2.916a22 22 0 0 0-.529-1.417c-.459-1.069-.519-1.24-1.05-3a141 141 0 0 0-.668-2.167c-.901-2.699-2.04-9.424-2.329-13.75-.395-5.92.1-12.816 1.342-18.666.078-.367.222-1.108.321-1.647.098-.539.254-1.12.346-1.292s.13-.311.086-.311-.015-.207.065-.459.46-1.471.844-2.708c.385-1.237.797-2.475.916-2.75.12-.275.495-1.213.834-2.083 1.008-2.589 2.279-5.291 3.41-7.25.371-.642.782-1.392.915-1.667.431-.892 3.778-5.976 4.17-6.333.1-.092.382-.468.627-.835.244-.367.69-.934.991-1.26s.806-.925 1.121-1.332c1.153-1.484 4.871-5.285 6.839-6.99a71 71 0 0 0 1.324-1.167c.146-.137.752-.625 1.348-1.083a38 38 0 0 0 1.165-.918c.046-.046.444-.346.885-.666a74 74 0 0 0 1.25-.927c.247-.189.748-.524 1.115-.744s.761-.491.876-.602c.115-.112.888-.603 1.719-1.09.83-.487 1.749-1.028 2.041-1.201.663-.394 5.437-2.791 6.447-3.238 1.208-.534 3.811-1.531 3.999-1.531.095 0 .303-.072.462-.16.287-.16 4.22-1.427 4.924-1.586.201-.046.665-.155 1.032-.244 1.061-.255 2.312-.534 2.583-.576.138-.022.438-.084.667-.139.731-.175 2.233-.465 2.75-.53.275-.035.912-.112 1.417-.171a34 34 0 0 0 1.333-.177c.229-.039 1.092-.119 1.917-.179s1.537-.145 1.583-.189c.111-.106 9.786.063 11.167.195m-77.06 5.34c-1.094.571-4.606 3.861-6.315 5.916l-1.041 1.25c-.229.275-.417.551-.417.613-.001.063-.099.213-.22.334-.12.121-.439.583-.708 1.026a79 79 0 0 1-.772 1.25c-.624.981-2.113 4.018-2.546 5.194-.254.688-.522 1.4-.596 1.583-.146.359-.534 1.56-.593 1.834-.02.091-.157.616-.305 1.166-.149.55-.31 1.263-.358 1.584-.049.32-.134.733-.188.916-.427 1.426-.435 3.279-.019 4.083 1.175 2.271 4.784 1.942 5.465-.499.089-.321.239-1.109.333-1.75.354-2.429.864-4.312 1.829-6.75.6-1.517.753-1.834.885-1.834.069 0 .126-.102.126-.226 0-1.48 5.178-8 8.166-10.284 1.248-.953 1.475-1.345 1.574-2.72.147-2.036-2.444-3.654-4.3-2.686M313.858 91c.184.504.744 2.154 1.244 3.667.501 1.512.979 2.9 1.062 3.083s.313.896.509 1.583l.693 2.417c.183.642.349 1.258.368 1.37a.7.7 0 0 0 .15.32c.064.063.116.258.116.431 0 .174.103.668.23 1.098.126.429.314 1.139.417 1.578l.188.796-1.123 1.37a76 76 0 0 1-1.209 1.454 62 62 0 0 0-1.17 1.416c-.596.734-1.208 1.484-1.361 1.667-.559.672-1.401 1.717-1.889 2.344-.528.681-1.358 1.673-1.711 2.045-.115.123-.415.498-.664.834a10 10 0 0 1-.711.86c-.141.138-.515.588-.831 1s-.613.788-.662.834c-.074.071-1.993 2.421-2.38 2.916-.072.092-.321.392-.553.667a233 233 0 0 0-2.46 2.977c-1.475 1.806-2.011 2.457-2.194 2.666a21 21 0 0 0-.655.844 30 30 0 0 1-1.167 1.429 52 52 0 0 0-1.178 1.401c-.605.755-.823 1.02-1.605 1.958-.333.399-1.895 2.3-3.47 4.225s-2.99 3.65-3.144 3.833l-.781.93c-.275.329-.688.847-.917 1.152s-.493.636-.587.736-.468.557-.833 1.016-.745.908-.844 1c-.1.091-.475.541-.833 1-.359.458-.691.87-.736.916s-.565.684-1.153 1.417-1.155 1.408-1.26 1.5-.495.579-.867 1.083a23 23 0 0 1-1.074 1.354c-.218.24-.51.577-.649.75-2.009 2.487-3.476 4.264-3.933 4.764-.31.34-.564.669-.564.732s-.216.321-.481.573a5.5 5.5 0 0 0-.786.977c-.168.284-.36.517-.428.517-.067 0-.351.332-.63.738s-.624.854-.767.996c-.142.143-.668.767-1.169 1.388s-1.064 1.308-1.252 1.529-.803.97-1.367 1.667c-.564.696-1.067 1.303-1.119 1.349-.051.046-.353.421-.671.833a26 26 0 0 1-1.147 1.375l-.57.625h-30.447v3H211.5v-24.167h21.333v3h12.259c13.37 0 13.117.018 13.908-.949l.72-.886c.259-.32.658-.806.887-1.081s.788-.976 1.242-1.557c.454-.582.917-1.155 1.03-1.273.112-.119.504-.613.871-1.097.367-.485.818-1.037 1.003-1.227s.559-.646.831-1.013c.574-.776.832-1.1 1.45-1.829.249-.293.977-1.201 1.62-2.018a123 123 0 0 1 1.353-1.701c.101-.118.71-.868 1.353-1.666 1.969-2.446 2.204-2.738 2.775-3.44.676-.831.797-.985 1.527-1.93.319-.412.619-.787.667-.833.25-.238 1.659-1.993 2.006-2.5.219-.321.517-.696.662-.833.144-.138 1.035-1.225 1.98-2.417a321 321 0 0 1 1.995-2.5c.153-.184.539-.671.857-1.084.318-.412.622-.787.674-.832.052-.046.452-.534.889-1.084s1.034-1.295 1.326-1.656 1.823-2.273 3.401-4.25c1.579-1.976 3.175-3.969 3.548-4.427l1.63-2.008c.524-.647 1.196-1.472 1.494-1.834s.86-1.077 1.25-1.59c.39-.512 1.219-1.562 1.841-2.333.623-.771 1.336-1.657 1.584-1.969.871-1.097 1.279-1.6 1.366-1.683.047-.046.282-.346.522-.666.239-.321.706-.884 1.037-1.25.331-.367.603-.719.605-.783s.173-.302.379-.528c.611-.67 1.53-1.801 1.696-2.089.085-.147.243-.342.351-.434.192-.163 1.522-1.81 2.813-3.482.358-.465.733-.927.833-1.028s.557-.679 1.015-1.285l.834-1.102.303.699c.167.384.454 1.111.638 1.615m-88.524 15.947c-3.549.74-5.655 3.528-6.268 8.303-.036.275-.146 1.063-.246 1.75-.099.688-.248 1.775-.331 2.417-.208 1.616-.302 2.265-.399 2.75-.146.721-.374 2.321-.701 4.916-.047.367-.179 1.23-.295 1.917-.35 2.075-.315 4.428.082 5.5a55 55 0 0 1 .435 1.208c.052.161.161.292.242.292s.147.102.147.227.448.684.996 1.242q3.658 3.728 9.337 1.545c1.054-.405 1.988-.799 2.075-.875a.65.65 0 0 1 .371-.139c.117 0 .699-.223 1.294-.495.595-.273 1.272-.544 1.506-.602.233-.059.465-.173.516-.255.05-.081.207-.148.348-.148s.493-.109.782-.242c.289-.134.931-.4 1.428-.592a39 39 0 0 0 1.66-.694c.415-.19.834-.357.93-.373.228-.036 2.757-1.064 3.13-1.271.159-.089.375-.161.479-.161 1.641 0 5.481-3.643 5.481-5.2 0-.128.082-.316.182-.416.988-.987-.269-5.846-1.931-7.468-.4-.39-1.55-1.364-2.066-1.75a35 35 0 0 1-1.079-.847 88 88 0 0 0-1.856-1.449 49 49 0 0 1-1.817-1.444c-.267-.235-.529-.427-.584-.427-.054-.001-.324-.21-.599-.465-.468-.434-2.683-2.178-3.775-2.971-.268-.195-.829-.64-1.246-.989-1.674-1.399-3.333-2.395-4.479-2.69-.494-.127-3.268-.204-3.749-.104m4.656 7.611c1.059.827 1.964 1.551 2.01 1.609s.496.412 1 .785 1.085.839 1.292 1.036c.206.197.375.319.375.271s.206.099.458.327c.252.227.946.789 1.542 1.248.595.46 1.195.932 1.333 1.051s.438.338.667.488c.229.151.653.485.943.742.29.258.733.618.986.802.252.183.559.432.682.553.122.121.222.175.222.12 0-.247 1.169 1.097 1.185 1.363.108 1.797.183 1.735-4.303 3.574-.256.105-.54.209-.632.231-.28.067-3.981 1.575-4.289 1.747-.16.089-.364.162-.454.162s-.574.187-1.075.416c-.501.23-.954.417-1.006.417s-.414.14-.803.311c-.388.17-1.044.443-1.456.605-.413.163-.975.387-1.25.498-.275.112-.763.301-1.084.421s-.654.281-.741.358c-1.119.989-3.136-.704-2.782-2.334.092-.427.21-1.188.261-1.692.052-.505.129-1.094.172-1.311s.124-.817.179-1.333c.056-.517.133-1.054.172-1.194.06-.215.284-1.71.497-3.329.031-.229.135-.96.232-1.625.343-2.341.526-3.632.61-4.292.389-3.054.498-3.302 1.613-3.683.791-.27 1.264-.042 3.444 1.658m-22.073 8.371c-1.26.655-1.402.977-2.678 6.071-.078.312-.35 1.302-.583 2.125a7 7 0 0 0-.194.826c-.01.111-.061.176-.115.145-.328-.19-3.404-1.596-3.491-1.597-.058 0-.627-.262-1.263-.583-2.213-1.114-4.479-.64-5.495 1.149-.214.377-.671 1.547-1.015 2.602-1.03 3.158-1.283 3.833-1.435 3.833-.142 0-4.97-2.305-7.185-3.431-2.545-1.292-4.963-.119-4.963 2.409 0 1.092 1.063 2.687 1.792 2.688.114 0 .208.076.208.167s.056.153.125.135c.13-.033.832.295 6.224 2.918 4.832 2.349 4.713 2.313 6.257 1.924 1.568-.394 2.884-2.342 3.478-5.143.044-.211.331-1.114.686-2.167.047-.138.087-.288.091-.333.041-.616.32-.637 1.359-.105.579.297 1.31.643 1.625.769.314.127 1.175.508 1.913.846 3.871 1.777 6.126.265 6.971-4.677.06-.35.273-1.172.432-1.667.073-.229.212-.716.308-1.083.609-2.327 1.084-4.049 1.204-4.358.076-.197.11-.497.075-.667a28 28 0 0 1-.159-.912c-.254-1.599-2.646-2.678-4.172-1.884m-48.421 9.391c-3.172.622-5.711 3.645-6.17 7.347a379 379 0 0 1-.841 6.083c-.082.55-.19 1.375-.24 1.833-.077.696-.576 4.065-.827 5.584-.15.906-.453 3.29-.507 3.992-.096 1.244.752 4.145 1.33 4.547.096.067.11.123.029.125-.231.004 1.574 1.708 2.313 2.184 1.336.86 2.178 1.069 4.25 1.056 1.983-.014 2.226-.073 4.436-1.08.392-.178.79-.324.884-.324s.566-.179 1.05-.398c.484-.218 2.23-.934 3.88-1.591s3.15-1.262 3.334-1.346c.183-.084 1.421-.571 2.75-1.083 3.905-1.503 4.99-2.162 6.336-3.849 1.885-2.363 1.785-7.096-.198-9.317l-.751-.843c-.274-.31-3.165-2.623-4.387-3.511a36 36 0 0 1-1.369-1.083 55 55 0 0 0-1.048-.853 187 187 0 0 1-1.917-1.514c-.137-.111-.55-.425-.916-.698-.367-.272-.705-.539-.75-.591-.046-.053-.534-.428-1.084-.834-1.295-.958-1.213-.892-2.083-1.658-.413-.363-.844-.661-.958-.662-.115-.002-.209-.071-.209-.155 0-.192-1.861-1.095-2.75-1.333-.727-.196-2.655-.211-3.587-.028m2.754 6.183a30 30 0 0 1 2.201 1.635c1.016.825 3.474 2.75 3.975 3.112.253.183.73.575 1.059.871s.644.54.699.542.289.172.52.379c.231.206.813.675 1.294 1.041a91 91 0 0 1 2.589 2.056c.185.153.686.54 1.114.861 1.884 1.412 1.203 4-1.051 4-.077 0-.537.181-1.02.402-.484.222-1.292.553-1.797.737s-1.348.526-1.875.762c-.528.236-1.015.439-1.084.452-.239.044-.629.185-1.149.415-.289.128-.568.232-.62.232s-.491.18-.975.4-1.518.643-2.297.94-1.51.612-1.625.703-.208.121-.208.067-.619.169-1.375.494c-2.975 1.279-4.192.188-3.48-3.119.087-.404.207-1.223.266-1.818.059-.596.175-1.459.256-1.917.161-.903.345-2.145.74-5 .139-1.008.375-2.621.523-3.583s.305-2.125.349-2.584c.194-2.043 1.579-3.013 2.971-2.08m119.15 42.653c-.683.124-1.667.816-1.907 1.341a161 161 0 0 0-1.171 2.836c-1.425 3.514-3.519 7.531-5.42 10.4-.359.54-.792 1.215-.963 1.5a10 10 0 0 1-.75 1.032c-.242.284-.552.686-.689.894-.341.516-1.295 1.751-2.226 2.882-2.816 3.421-6.899 7.244-11.107 10.401-1.201.9-4.891 3.36-5.246 3.496-1.477.567-1.473 3.703.006 4.831 1.169.892 4.547.244 5.045-.967a.24.24 0 0 1 .201-.135c.128 0 .444-.193 1.717-1.045.267-.179 1.838-1.356 3.342-2.504.265-.202.715-.573 1-.824.285-.25.566-.457.625-.458s.335-.209.612-.461.978-.883 1.559-1.403c2.43-2.174 6.026-5.935 7.226-7.555.272-.367.588-.727.703-.8a.5.5 0 0 0 .21-.366c0-.128.135-.33.3-.45.332-.24 3.059-4.063 4.183-5.864.683-1.094 1.065-1.762 1.967-3.437.222-.412.547-.994.723-1.292s.279-.541.229-.541.049-.207.22-.459c.172-.252.456-.796.631-1.208s.452-.996.616-1.297.297-.62.297-.709.188-.551.417-1.026.417-.932.417-1.016.102-.388.226-.677c.541-1.254.607-1.5.607-2.275 0-.808-.266-1.667-.516-1.667-.07 0-.174-.142-.229-.317-.188-.592-1.748-1.062-2.855-.86M98.917 236.585c1.787.131 4.35.742 6 1.429.275.114.537.217.583.228.542.132 3.632 1.963 4.417 2.616 1.732 1.444 2.583 2.199 2.583 2.293 0 .062.244.373.542.69.759.808 1.65 2.068 2.294 3.242.302.55.644 1.15.761 1.334.116.183.475 1.12.797 2.083 1.235 3.682 1.261 4.087 1.267 19.654.006 14.435.03 14.018-.812 14.01-.799-.008-.759.696-.858-15.2l-.092-14.881-.438-1.5c-.421-1.443-.709-2.235-1.221-3.358-.132-.289-.24-.573-.24-.632s-.137-.31-.305-.558-.657-.977-1.087-1.618c-1.564-2.333-5.817-6.084-6.897-6.084-.101 0-.208-.066-.239-.146-.123-.325-4.341-1.685-6.007-1.937-7.375-1.117-14.248 1.365-18.947 6.841-.612.713-2.518 3.57-2.518 3.774 0 .069-.176.521-.391 1.005-.511 1.152-.763 1.804-.855 2.213-.041.184-.202.784-.357 1.334-.254.897-.29 2.522-.35 15.791l-.067 14.791-.432.108c-1.025.257-.965 1.177-.965-14.625 0-13.632.039-15.119.432-16.732.089-.367.202-.852.25-1.078s.15-.489.226-.583c.075-.095.19-.421.256-.726.835-3.902 6.23-9.774 10.968-11.937 2.815-1.285 7.258-2.186 9.785-1.985.321.026 1.183.091 1.917.144m-61.75 2.993c2.194.254 2.31.273 3.5.581 1.912.494 4.612 1.614 5.875 2.435.343.223.943.612 1.333.863s.83.589.978.75.327.293.398.293c.257 0 2.81 2.617 3.739 3.833.921 1.207 2.759 4.167 2.586 4.167-.046 0 .027.169.162.375 1.007 1.537 2.087 6.297 2.092 9.223.007 3.59-1.122 8.121-2.683 10.769-.264.448-.48.85-.48.894s-.207.397-.459.784c-.447.689-.616.924-.96 1.336-.093.111-.414.515-.713.898-1.673 2.143-5.058 4.785-7.664 5.983-1.767.812-2.803 1.21-3.455 1.328-.366.066-.741.176-.833.245-.169.127-.292.15-2.666.501-9.428 1.394-19.207-3.957-23.468-12.841-.987-2.058-1.173-2.625-1.966-5.995-.528-2.244-.238-7.023.607-10 .144-.504.278-.992.298-1.083.021-.092.084-.242.139-.334.056-.091.309-.691.563-1.333.255-.642.621-1.429.815-1.75s.453-.782.576-1.024c.339-.67 1.999-2.839 2.936-3.838 1.245-1.325 4.326-3.805 4.729-3.805a.25.25 0 0 0 .215-.148c.131-.35 4.488-2.197 5.701-2.417.238-.043.495-.117.572-.164.287-.178 3.174-.597 5.116-.742.183-.014 1.271.083 2.417.216m228.847 17.442c.089 15.575.126 17.326.383 18.23.157.55.303 1.075.324 1.167.021.091.082.241.136.333.053.092.142.358.198.591.395 1.661 2.719 4.065 4.945 5.115 1.51.713 1.656.759 3.667 1.174.32.066 1.97.114 3.666.106 3.016-.015 3.525-.077 5.917-.73.367-.1.779-.21.917-.245 3.102-.777 7.494-3.776 9.147-6.246 1.274-1.904 1.186-.462 1.186-19.494V239.97l.374-.303c.349-.283.721-.243 1.126.119.046.041.121 7.89.167 17.443l.083 17.368.583.966c2.038 3.377 6.642 6.408 11.417 7.515 1.977.458 2.468.546 3.417.61 7.094.479 11.748-1.993 13.377-7.105.809-2.539.789-2.046.789-19.734v-16.836l.365-.34c.452-.421.486-.42.945.008l.373.347-.063 16.944c-.068 18.199-.026 17.275-.914 20.116-2.09 6.681-10.158 9.839-18.956 7.419a71 71 0 0 0-.916-.247c-.613-.155-1.99-.662-2.797-1.028-.484-.219-.953-.399-1.042-.399a.164.164 0 0 1-.161-.166c0-.092-.095-.167-.211-.167s-.6-.263-1.077-.583c-.476-.321-.907-.584-.957-.584-.187 0-2.545-1.995-3.099-2.622-.839-.95-1.552-1.872-1.723-2.23-.211-.44-.36-.393-.6.186-.114.275-.273.5-.354.5s-.127.059-.104.131c.047.149-1.474 2.005-1.909 2.331a6 6 0 0 0-.5.422c-.48.464-2.283 1.78-2.896 2.112-.36.195-.766.423-.904.507-.137.083-.625.312-1.083.509-.458.196-1.058.456-1.333.579-.573.255-3.089 1.004-3.834 1.143l-1 .183c-8.706 1.589-16.431-2.113-17.914-8.584a15 15 0 0 0-.396-1.417c-.131-.352-.201-5.629-.236-17.833l-.051-17.333.364-.296c.319-.26.408-.267.716-.064l.351.234zM32.5 241.175c-1.222.147-2.117.297-2.528.421a9 9 0 0 1-.584.151c-.485.105-2.276.742-2.594.922a1.3 1.3 0 0 1-.528.164c-.131 0-.263.057-.294.125-.03.069-.543.376-1.139.682a20 20 0 0 0-2.746 1.693c-1.702 1.265-6.087 6.494-6.087 7.258 0 .053-.196.523-.435 1.045-1.482 3.226-2.227 8.956-1.56 11.999.094.43.254 1.157.356 1.615.835 3.756 3.268 7.921 6.127 10.487.314.282.707.643.873.803.843.809 3.888 2.671 5.472 3.345 3.987 1.697 9.442 2.04 13.676.86 1.157-.323 1.162-.324 1.658-.479.483-.151 3.876-1.781 4-1.921.045-.052.57-.429 1.166-.836 3.346-2.289 7.135-7.345 7.752-10.342.066-.321.174-.659.241-.75.216-.3.666-2.629.853-4.417.165-1.583.147-2.278-.117-4.656-.34-3.068-2.193-7.617-3.927-9.641-.257-.302-.468-.605-.468-.676 0-1.161-7.653-6.547-9.834-6.921a5 5 0 0 1-.833-.237c-1.774-.702-5.747-1.027-8.5-.694m130.043 10.349c1.083.353 2.147.805 2.29.973.046.053.476.382.957.73 5.437 3.937 5.367 12.023-.142 16.508-.606.494-3.148 1.694-3.148 1.486 0-.052-.101-.011-.225.092-.125.103-.705.231-1.29.285s-1.118.131-1.184.172c-.235.145-3.402-.487-4.134-.826-4.182-1.936-6.4-5.239-6.399-9.527.001-2.018.146-2.636 1.112-4.75.992-2.173 4.63-5.167 6.277-5.167.178 0 .361-.061.407-.135s.442-.154.88-.176c.439-.023.837-.082.885-.131.177-.18 2.704.137 3.714.466m62.79.269 1 .297c.461.13 1.433.672 2.047 1.141.416.317.789.545.828.505.144-.144 2.459 2.77 2.459 3.096 0 .092.066.168.147.168s.189.131.241.292.236.704.411 1.208c.76 2.19.793 3.842.136 6.659-.687 2.939-4.158 6.214-7.503 7.078-2.544.657-7.05-.124-8.54-1.48a18 18 0 0 0-.728-.59c-.295-.229-.603-.492-.685-.584l-.803-.905c-6.654-7.5 1.327-19.761 10.99-16.885m-188.405-.111c.544.1 1.071.25 1.171.332s.229.102.287.044.202-.029.318.065c.117.093.384.222.593.286.764.235 2.864 1.788 3.563 2.636.395.48.771.911.836.958.183.136 1.074 2.001 1.352 2.83 1.849 5.515-1.41 11.726-7.048 13.433-1.522.461-4.011.494-5.5.075-.687-.194-1.325-.371-1.417-.395-.652-.165-2.483-1.351-3.262-2.113-4.411-4.313-4.504-10.859-.215-15.254.999-1.025 3.078-2.306 4.039-2.491.196-.038.435-.118.531-.177.598-.37 3.284-.499 4.752-.229m331.939.057c1.219.291 2.477.756 2.813 1.039.145.122.319.222.387.222.396 0 2.304 1.719 3.252 2.93 2.065 2.637 2.548 6.962 1.15 10.292-.706 1.682-2.935 4.445-3.585 4.445-.12 0-.217.068-.217.151 0 .195-2.243 1.276-3 1.446-.321.071-.696.162-.834.202-5.032 1.444-11.445-2.823-12.475-8.301-.345-1.832.045-5.383.666-6.073a.66.66 0 0 0 .143-.383c0-1.147 3.527-4.679 5.249-5.256.275-.092.576-.222.667-.288.203-.145.962-.341 1.75-.451.321-.045.615-.112.653-.148.164-.155 2.51-.035 3.381.173"/><path fill="#f0ecec" d="M128.205 134.5c0 .321.035.452.077.292a1.4 1.4 0 0 0 0-.584c-.042-.16-.077-.029-.077.292m0 3c0 .321.035.452.077.292a1.4 1.4 0 0 0 0-.584c-.042-.16-.077-.029-.077.292m-32.25 89.287c.295.037.82.037 1.166.001s.104-.066-.538-.067c-.641 0-.924.029-.628.066m189.118 4.588-.49.542.542-.49c.505-.456.618-.594.49-.594-.029 0-.273.244-.542.542m23.674 19.042c0 9.166.02 12.941.045 8.387.024-4.553.024-12.053 0-16.666-.025-4.614-.045-.888-.045 8.279M34.625 239.451c.206.04.544.04.75 0s.037-.072-.375-.072c-.413 0-.581.032-.375.072m331.339.005c.484.034 1.234.034 1.667 0 .432-.035.036-.062-.881-.062-.917.001-1.27.029-.786.062M245.246 274c0 6.462.02 9.106.046 5.875s.025-8.519 0-11.75-.046-.588-.046 5.875m-50.354 8.667c0 .779.028 1.098.063.708a9.6 9.6 0 0 0 0-1.417c-.035-.389-.063-.071-.063.709m171.229.62c.296.037.821.037 1.167.001s.104-.066-.538-.067c-.642 0-.925.029-.629.066m-87.913.669c.436.034 1.148.034 1.584 0 .435-.034.079-.063-.792-.063s-1.227.029-.792.063m96.03 3.627c0 2.109.024 2.948.053 1.866a84 84 0 0 0 0-3.833c-.029-1.026-.053-.141-.053 1.967m-215.277-2.629c.3.037.75.036 1-.002.251-.038.006-.068-.544-.067s-.755.032-.456.069m-4.753 10.835c.436.035 1.148.035 1.584 0 .435-.034.079-.062-.792-.062s-1.227.028-.792.062m-13.833 10.159c.16.042.423.042.583 0 .161-.042.029-.076-.291-.076-.321 0-.452.034-.292.076m1.167 0c.16.042.423.042.583 0s.029-.076-.292-.076-.452.034-.291.076m-2.484 14.885c0 .779.029 1.098.064.709a9.6 9.6 0 0 0 0-1.417c-.035-.39-.064-.071-.064.708m14.23-.713c.296.037.821.038 1.167.002.345-.036.103-.067-.538-.067-.642-.001-.925.028-.629.065"/><path fill="#f0ecec" d="M128.205 134.5c0 .321.035.452.077.292a1.4 1.4 0 0 0 0-.584c-.042-.16-.077-.029-.077.292m0 3c0 .321.035.452.077.292a1.4 1.4 0 0 0 0-.584c-.042-.16-.077-.029-.077.292m-32.25 89.287c.295.037.82.037 1.166.001s.104-.066-.538-.067c-.641 0-.924.029-.628.066m189.118 4.588-.49.542.542-.49c.505-.456.618-.594.49-.594-.029 0-.273.244-.542.542m23.674 19.042c0 9.166.02 12.941.045 8.387.024-4.553.024-12.053 0-16.666-.025-4.614-.045-.888-.045 8.279M34.625 239.451c.206.04.544.04.75 0s.037-.072-.375-.072c-.413 0-.581.032-.375.072m331.339.005c.484.034 1.234.034 1.667 0 .432-.035.036-.062-.881-.062-.917.001-1.27.029-.786.062M245.246 274c0 6.462.02 9.106.046 5.875s.025-8.519 0-11.75-.046-.588-.046 5.875m-50.354 8.667c0 .779.028 1.098.063.708a9.6 9.6 0 0 0 0-1.417c-.035-.389-.063-.071-.063.709m171.229.62c.296.037.821.037 1.167.001s.104-.066-.538-.067c-.642 0-.925.029-.629.066m-87.913.669c.436.034 1.148.034 1.584 0 .435-.034.079-.063-.792-.063s-1.227.029-.792.063m96.03 3.627c0 2.109.024 2.948.053 1.866a84 84 0 0 0 0-3.833c-.029-1.026-.053-.141-.053 1.967m-215.277-2.629c.3.037.75.036 1-.002.251-.038.006-.068-.544-.067s-.755.032-.456.069m-4.753 10.835c.436.035 1.148.035 1.584 0 .435-.034.079-.062-.792-.062s-1.227.028-.792.062m-13.833 10.159c.16.042.423.042.583 0 .161-.042.029-.076-.291-.076-.321 0-.452.034-.292.076m1.167 0c.16.042.423.042.583 0s.029-.076-.292-.076-.452.034-.291.076m-2.484 14.885c0 .779.029 1.098.064.709a9.6 9.6 0 0 0 0-1.417c-.035-.39-.064-.071-.064.708m14.23-.713c.296.037.821.038 1.167.002.345-.036.103-.067-.538-.067-.642-.001-.925.028-.629.065"/><path fill="#f0ecec" d="M128.205 134.5c0 .321.035.452.077.292a1.4 1.4 0 0 0 0-.584c-.042-.16-.077-.029-.077.292m0 3c0 .321.035.452.077.292a1.4 1.4 0 0 0 0-.584c-.042-.16-.077-.029-.077.292m-32.25 89.287c.295.037.82.037 1.166.001s.104-.066-.538-.067c-.641 0-.924.029-.628.066m189.118 4.588-.49.542.542-.49c.505-.456.618-.594.49-.594-.029 0-.273.244-.542.542m23.674 19.042c0 9.166.02 12.941.045 8.387.024-4.553.024-12.053 0-16.666-.025-4.614-.045-.888-.045 8.279M34.625 239.451c.206.04.544.04.75 0s.037-.072-.375-.072c-.413 0-.581.032-.375.072m331.339.005c.484.034 1.234.034 1.667 0 .432-.035.036-.062-.881-.062-.917.001-1.27.029-.786.062M245.246 274c0 6.462.02 9.106.046 5.875s.025-8.519 0-11.75-.046-.588-.046 5.875m-50.354 8.667c0 .779.028 1.098.063.708a9.6 9.6 0 0 0 0-1.417c-.035-.389-.063-.071-.063.709m171.229.62c.296.037.821.037 1.167.001s.104-.066-.538-.067c-.642 0-.925.029-.629.066m-87.913.669c.436.034 1.148.034 1.584 0 .435-.034.079-.063-.792-.063s-1.227.029-.792.063m96.03 3.627c0 2.109.024 2.948.053 1.866a84 84 0 0 0 0-3.833c-.029-1.026-.053-.141-.053 1.967m-215.277-2.629c.3.037.75.036 1-.002.251-.038.006-.068-.544-.067s-.755.032-.456.069m-4.753 10.835c.436.035 1.148.035 1.584 0 .435-.034.079-.062-.792-.062s-1.227.028-.792.062m-13.833 10.159c.16.042.423.042.583 0 .161-.042.029-.076-.291-.076-.321 0-.452.034-.292.076m1.167 0c.16.042.423.042.583 0s.029-.076-.292-.076-.452.034-.291.076m-2.484 14.885c0 .779.029 1.098.064.709a9.6 9.6 0 0 0 0-1.417c-.035-.39-.064-.071-.064.708m14.23-.713c.296.037.821.038 1.167.002.345-.036.103-.067-.538-.067-.642-.001-.925.028-.629.065"/><path fill="#f0ecec" d="M128.205 134.5c0 .321.035.452.077.292a1.4 1.4 0 0 0 0-.584c-.042-.16-.077-.029-.077.292m0 3c0 .321.035.452.077.292a1.4 1.4 0 0 0 0-.584c-.042-.16-.077-.029-.077.292m-32.25 89.287c.295.037.82.037 1.166.001s.104-.066-.538-.067c-.641 0-.924.029-.628.066m189.118 4.588-.49.542.542-.49c.505-.456.618-.594.49-.594-.029 0-.273.244-.542.542m23.674 19.042c0 9.166.02 12.941.045 8.387.024-4.553.024-12.053 0-16.666-.025-4.614-.045-.888-.045 8.279M34.625 239.451c.206.04.544.04.75 0s.037-.072-.375-.072c-.413 0-.581.032-.375.072m331.339.005c.484.034 1.234.034 1.667 0 .432-.035.036-.062-.881-.062-.917.001-1.27.029-.786.062M245.246 274c0 6.462.02 9.106.046 5.875s.025-8.519 0-11.75-.046-.588-.046 5.875m-50.354 8.667c0 .779.028 1.098.063.708a9.6 9.6 0 0 0 0-1.417c-.035-.389-.063-.071-.063.709m171.229.62c.296.037.821.037 1.167.001s.104-.066-.538-.067c-.642 0-.925.029-.629.066m-87.913.669c.436.034 1.148.034 1.584 0 .435-.034.079-.063-.792-.063s-1.227.029-.792.063m96.03 3.627c0 2.109.024 2.948.053 1.866a84 84 0 0 0 0-3.833c-.029-1.026-.053-.141-.053 1.967m-215.277-2.629c.3.037.75.036 1-.002.251-.038.006-.068-.544-.067s-.755.032-.456.069m-4.753 10.835c.436.035 1.148.035 1.584 0 .435-.034.079-.062-.792-.062s-1.227.028-.792.062m-13.833 10.159c.16.042.423.042.583 0 .161-.042.029-.076-.291-.076-.321 0-.452.034-.292.076m1.167 0c.16.042.423.042.583 0s.029-.076-.292-.076-.452.034-.291.076m-2.484 14.885c0 .779.029 1.098.064.709a9.6 9.6 0 0 0 0-1.417c-.035-.39-.064-.071-.064.708m14.23-.713c.296.037.821.038 1.167.002.345-.036.103-.067-.538-.067-.642-.001-.925.028-.629.065"/></g></svg>