<svg xmlns="http://www.w3.org/2000/svg" width="60" height="60"><path fill="#EBEBEB" d="M47.438 4.094C51.56 7.16 54.346 10.63 57 15l1.938 3.125c2.658 7.11 2.318 16.826-.5 23.813C54.26 49.76 48.215 55.828 40 59.25c-8.993 2.173-17.942 1.81-25.957-2.91L12 55l-2.75-1.687C1.842 45.698-.294 38.13-.317 27.787-.155 19.52 2.763 13.6 8.29 7.57 19.047-2.303 34.96-3.094 47.438 4.094M7 13c-4.493 7.064-5.773 13.689-5 22 1.943 7.672 5.612 14.327 12.469 18.504 7.34 3.788 14.65 6.302 22.87 3.777C45.843 53.677 51.88 49.42 56 41c1.774-4.816 2.209-8.882 2-14-2.827 2.744-5.444 5.51-7.937 8.563C47.38 38.732 44.585 40.863 41 43l-2.25 1.75C34.546 46.66 30.542 46.56 26 46c-3.437-1.437-3.437-1.437-6-3l-3-1c-2.924-5.953-3.592-11.632-2-18 2.305-4.362 4.426-7.069 9-9 6.12-1.487 10.411-1.224 16 2 4.003 3.292 5.717 5.986 7 11 5.625-4.81 5.625-4.81 8.125-11.312C52.487 10.385 46.92 6.43 40.828 3.71 28.114-1.234 15.824 3.098 7 13m13.188 6.438c-3.94 4.614-4.629 7.152-4.508 13.054.59 4.616 2.99 7.338 6.383 10.32C26.027 45.243 29.443 45.31 34 45c3.352-1.382 3.352-1.382 6-3v-1h-8v-8l2.59.035 3.347.028 3.34.035c2.637.215 2.637.215 3.723-1.098.443-3.813.154-5.714-1.687-9.125-3.046-3.786-5.478-6.316-10.188-7.75-5.335-.213-8.885.8-12.937 4.313M56 21a2480 2480 0 0 0-3.25 3.688l-1.969 2.203c-1.913 2.15-1.913 2.15-3.531 5.047C43.531 35.346 38.876 34.908 34 35v4c3.966.984 7.046 1.112 11 0 2.587-1.975 4.655-4.268 6.75-6.75l1.628-1.918c2.03-2.53 2.03-2.53 3.622-5.332-.292-2.174-.292-2.174-1-4"/><path fill="#EBEBEB" d="M36 23c3.27.564 4.826 1.5 7 4l-1 3c-4.044 1.838-6.734 2.255-11 1v2h-3l-1 3-7 1v-8l1.758-.184C26.2 28.34 30.599 27.79 35 27zm1 3 1 3 2-2zm-15 6 1 3 2-2z"/><path fill="#ECECEC" d="M13 10h3c-.312 1.938-.312 1.938-1 4l-3 1c-.99 1.995-.99 1.995-1.625 4.375l-.727 2.398L9 24l-1 3H6c.32-7.212 1.742-11.742 7-17"/><path fill="#EBEBEB" d="M48 40h3c-1.233 4.932-2.72 7.218-7 10h-2c0-3 0-3 2.438-5.562.845-.805 1.69-1.61 2.562-2.438z"/><path fill="#ECECEB" d="M13 16h3c-.812 2.938-.812 2.938-2 6l-3 1c.875-5.875.875-5.875 2-7"/></svg>