<svg xmlns="http://www.w3.org/2000/svg" width="3819" height="3150"><path fill="#EBEBEB" d="M1847.563 10.815q5.829 0 11.658-.02c34.648-.121 69.127 1.014 103.654 4.017l2.982.255A1290.4 1290.4 0 0 1 2165 48l2.587.637C2246.307 68.054 2322.703 95.387 2396 130l3.446 1.627c26.025 12.336 51.728 25.295 76.67 39.71 3.072 1.771 6.153 3.525 9.236 5.276a998 998 0 0 1 40.766 24.56c2.828 1.793 5.663 3.575 8.5 5.354 13.007 8.186 25.748 16.723 38.382 25.473l2.602 1.797c31.695 21.919 62.48 45.315 91.812 70.318a508 508 0 0 0 10.211 8.447c4.76 3.874 9.303 7.946 13.82 12.098a343 343 0 0 0 6.618 5.902c8.534 7.429 16.867 15.081 25.153 22.784q1.759 1.63 3.525 3.254c10.73 9.862 21.07 20.105 31.384 30.4l2.069 2.06c13.145 13.107 13.145 13.107 18.49 19.405 1.826 2.13 3.803 4.082 5.816 6.035 3.35 3.31 6.5 6.707 9.563 10.281 1.923 2.203 3.898 4.352 5.887 6.495 4.81 5.185 9.367 10.497 13.804 16.01 2.334 2.82 4.766 5.52 7.246 8.214 4.419 4.812 8.572 9.783 12.672 14.867a621 621 0 0 0 4.547 5.508 720 720 0 0 1 20.5 25.812c2.8 3.695 5.649 7.348 8.511 10.994 7.522 9.59 14.718 19.38 21.77 29.319l1.574 2.205A1262 1262 0 0 1 2964 660l1.912 3.409c8.02 14.324 15.854 28.702 23.047 43.465 1.265 2.583 2.56 5.15 3.858 7.715 1.747 3.461 3.466 6.935 5.183 10.411l1.5 3.033c25.751 52.257 46.15 106.657 64.745 161.812q2.586 7.673 5.214 15.332c7.679 22.388 14.433 44.957 20.541 67.823l.647 2.413c18.219 68.061 29.317 138.134 34.199 208.404q.227 3.18.47 6.356c3.794 50.586 3.677 102.832-.136 153.413a1757 1757 0 0 0-.555 7.72c-6.958 97.742-25.394 194.13-121.625 463.694l-1.313 2.793c-12.865 27.307-26.063 54.53-41.224 80.643-1.986 3.48-3.874 7.01-5.763 10.544-7.055 13.175-14.763 25.923-22.611 38.635-1.92 3.11-3.829 6.226-5.737 9.342-14.915 24.225-30.82 47.894-47.352 71.043l-1.584 2.23c-8.864 12.468-18.085 24.65-27.416 36.77-.61.795-1.22 1.59-1.85 2.408-10.748 13.987-21.883 27.63-33.319 41.06a497 497 0 0 0-8.331 10.094c-4.127 5.074-8.501 9.875-12.945 14.668a286 286 0 0 0-6.055 6.77c-4.246 4.892-8.644 9.644-13.035 14.406a971 971 0 0 0-4.277 4.692c-6.305 6.925-12.81 13.61-19.493 20.17-3.234 3.192-6.34 6.424-9.304 9.869-2.928 3.395-5.985 6.375-9.328 9.363-5.98 5.405-11.685 11.052-17.33 16.805a199 199 0 0 1-11.785 11c-3.053 2.656-5.996 5.427-8.948 8.195-4.925 4.592-9.883 9.121-15 13.5l-3.137 2.7a3737 3737 0 0 1-17.988 15.362l-1.612 1.373c-2.08 1.761-4.094 3.458-6.403 4.912-2.043 1.494-2.043 1.494-2.36 3.812l.002 2.561-.028 2.96c.01 1.075.02 2.15.032 3.259l-.015 3.456c-.01 3.172 0 6.344.015 9.516.014 3.42.004 6.839-.003 10.258-.01 6.706 0 13.412.02 20.117.02 7.821.02 15.642.019 23.462q0 20.959.046 41.918.043 20.291.041 40.582v5.031q0 23.136.028 46.271.008 8.154.01 16.308 0 9.972.028 19.944.015 5.077.013 10.154c-.603 34.223-.603 34.223 10.98 65.731 7.325 7.326 15.65 8.69 25.596 8.768 8.095-.173 14.41-2.798 20.607-8.06 19.51-20.743 15.26-58.075 15.251-84.08q.001-5.798.01-11.597.011-10.02.017-20.04c.005-10.558.022-21.117.041-31.677l.019-10.861.005-2.741a110762 110762 0 0 0 .053-33.628q.031-22.83.04-45.66.013-23.478.068-46.954.034-14.466.026-28.93-.004-9.897.03-19.794c.013-3.806.02-7.612.008-11.419-.012-4.124.007-8.248.029-12.372l-.026-3.65c.062-6.298.241-10.239 4.538-14.992 5.21-4.702 9.174-5.149 15.976-5.147l2.49-.011q4.145-.015 8.29-.019l5.933-.02q8.07-.025 16.141-.036 5.043-.007 10.084-.018 15.772-.029 31.546-.041 18.21-.015 36.42-.077 14.071-.044 28.145-.048c5.604-.002 11.207-.011 16.811-.036q7.91-.034 15.82-.018 2.901 0 5.8-.02c2.645-.017 5.289-.01 7.933.003l2.305-.033c5.46.065 9.77 1.423 14.306 4.521 4.21 5.182 5.124 9.116 5.13 15.64l.011 3.503-.003 3.852q.003 2.046.009 4.09.01 5.628.01 11.254c.001 4.044.01 8.089.016 12.133q.018 10.52.026 21.04c.01 11.1.031 22.2.053 33.299l.023 11.398.005 2.878q.031 16.223.058 32.444l.005 2.996q.038 23.982.061 47.965.028 24.647.085 49.295.037 15.186.04 30.37.004 10.43.036 20.86c.012 4.001.02 8.004.013 12.006-1.133 33.921-1.133 33.921 11.645 64.254 7.11 6.892 15.09 8.013 24.56 8.042 7.62-.134 13.114-2.29 19.467-6.444 18.596-19.441 16.201-50.981 16.124-75.855-.009-3.984 0-7.967.006-11.95q.013-10.318 0-20.635c-.011-9.953-.002-19.904.013-29.857q.035-24.244.04-48.487l.002-2.922a96911 96911 0 0 0 0-44.085v-2.931q0-24.187.042-48.375.024-14.895.002-29.791-.013-10.19.012-20.38c.008-3.918.01-7.835-.005-11.753q-.02-5.38.01-10.761c.005-1.91-.01-3.82-.025-5.729.056-6.65.224-11.145 4.529-16.364 5.217-4.507 9.855-5.733 16.622-5.628l2.517-.022c2.765-.017 5.528 0 8.293.019q2.985-.008 5.97-.022c5.39-.018 10.78-.005 16.17.014 5.646.017 11.293.008 16.939.003q14.22-.006 28.439.04c10.955.031 21.91.031 32.866.014 10.546-.016 21.092-.01 31.638.008q6.728.01 13.456-.002 7.923-.01 15.845.032 2.905.01 5.811 0c2.647-.009 5.293.007 7.94.03l2.315-.026c5.472.085 8.674 1.397 13.179 4.54 4.854 5.031 5.731 10.423 5.66 17.17l.031 2.664c.029 2.878.023 5.756.016 8.635q.02 3.01.046 6.019c.04 5.26.05 10.521.054 15.782.01 5.376.047 10.752.082 16.128.064 10.534.097 21.068.111 31.602l6.22-7.647 1.765-2.17q4.787-5.882 9.492-11.831c5.006-6.107 10.535-11.665 16.133-17.223a1117 1117 0 0 0 5.265-5.277c6.731-6.74 13.612-12.981 21.125-18.852l3.285-2.645c69.645-54.364 155.019-70.245 241.414-60.293 53.36 6.604 104.875 24.285 147.301 57.938l2.977 2.332c14.682 11.742 28.416 24.876 40.023 39.668l2.434 3.059c28.132 35.653 45.417 77.663 54.566 121.941l.584 2.81c5.589 27.582 6.879 55.316 6.837 83.36-.002 4.126.012 8.252.025 12.377.02 8.028.025 16.055.023 24.083q0 9.784.01 19.567.034 30.831.02 61.663c-.005 16.196.016 32.391.05 48.587q.05 25.024.043 50.047c-.002 9.346.003 18.692.028 28.038q.033 11.902.006 23.803c-.01 4.046-.01 8.091.01 12.137q.028 5.553-.008 11.105a459 459 0 0 0 .031 5.92c-.096 9.576-.096 9.576-2.885 13.214-5.152 4.251-9.389 4.583-15.914 4.556l-2.47.014c-2.73.013-5.46.011-8.19.01q-2.937.008-5.875.02c-5.318.018-10.636.022-15.954.024q-4.986.001-9.97.01-17.394.028-34.788.026c-10.806-.002-21.611.02-32.417.051q-13.92.038-27.84.036c-5.541 0-11.083.005-16.624.026q-7.819.029-15.638.005-2.867-.003-5.733.015c-2.613.015-5.226.006-7.84-.01l-2.277.032c-5.42-.07-9.732-1.457-14.244-4.526-1.199-2.398-1.13-3.888-1.138-6.566-.005-.962-.01-1.923-.017-2.914l-.003-3.208-.015-3.371q-.016-3.633-.026-7.267a4342 4342 0 0 0-.053-11.498c-.062-10.9-.116-21.8-.15-32.7-.02-6.661-.056-13.322-.1-19.984q-.021-3.81-.026-7.621c-.005-3.555-.028-7.11-.055-10.665l.009-3.184c-.062-5.375-.26-9.444-3.426-14.022-5.455-2.24-10.12.165-15.312 2.125-49.717 17.569-106.819 14.164-154.563-7.938-13.572-6.553-26.393-14.743-38.125-24.187l-3.094-2.477c-19.585-15.968-35.257-34.671-47.906-56.523l-1.17-2.013c-26.145-45.549-31.275-100.585-18.209-151.053 14.302-52.514 49.565-96.113 96.453-123.184 22.133-12.483 45.876-19.737 70.926-23.75l2.095-.34c8.147-1.105 16.448-.904 24.655-.91l2.504-.002c12.803.017 25.19.553 37.746 3.252l2.489.52c52.237 11.209 98.152 42.874 127.511 87.48 26.62 41.507 33.487 86.464 33.164 134.91q-.012 3.38-.019 6.76a6302 6302 0 0 1-.056 14.367c-.037 7.572-.056 15.145-.072 22.718q-.034 15.912-.086 31.826l-.006 2.028a27079 27079 0 0 1-.108 28.63l-.009 2.048-.008 2.045a13644 13644 0 0 0-.095 33.74q-.02 11.297-.089 22.592c-.023 4.664-.03 9.329-.032 13.993a988 988 0 0 1-.034 6.497 849 849 0 0 0-.018 8.846l-.039 2.611c.033 3.83.053 5.761 2.345 8.932 2.885 1.944 4.747 1.82 8.162 1.457l3-1c1.02-2.705 1.126-5.281 1.129-8.15l.01-2.498-.005-2.727.007-2.91q.007-4.842.004-9.684l.01-6.933q.014-9.435.012-18.871l.006-11.808q.014-19.56.012-39.121v-4.264q.002-17.05.023-34.1.023-17.546.02-35.091-.001-9.834.014-19.668.014-9.274.003-18.55-.003-3.38.007-6.76c.046-18.113-.657-36.194-4.314-53.99l-.639-3.11c-8.232-37.93-26.168-73.065-52.924-101.214-2.375-2.551-2.375-2.551-4.473-5.188a39 39 0 0 0-5.34-5.488l-2.109-1.797L3646 2342l-2.953-2.578c-7.33-6.368-14.892-12.125-23.047-17.422l-3.344-2.172c-47.91-30.276-106.485-40.203-161.798-28.186-4.319 1.007-8.592 2.148-12.858 3.358l-2.543.717c-26.037 7.551-50.285 20.408-71.457 37.283l-3.031 2.41c-15.292 12.423-28.59 26.523-39.969 42.59l-1.361 1.896c-32.675 45.823-44.54 104.013-35.71 159.268 9.032 51.256 36.076 99.418 77.071 131.836l3.031 2.441c27.201 21.664 58.996 35.57 92.969 42.559l2.594.54c35.002 6.88 70.964 2.23 104.974-6.945C3571 2709 3571 2709 3573 2709v75c-7.14 2.38-13.679 4.118-21 5.5l-3.422.65c-78.71 14.495-159.508 4.5-226.55-40.814-8.11-5.596-15.651-11.815-23.028-18.336l-2.883-2.543c-12.546-11.299-24.801-23.062-35.117-36.457q-1.293-1.612-2.594-3.219c-6.934-8.62-13.24-17.599-19.406-26.781l-.667 1.962c-11.426 33.31-27.07 62.55-50.333 89.038l-2.273 2.613c-9.172 10.38-18.841 19.81-29.727 28.387l-2.383 1.98c-44.794 37.033-104.475 51.656-161.804 46.332-48.725-5.196-90.809-29.827-126.079-62.761a419 419 0 0 0-7.859-7.114c-5.127-4.61-10.291-9.278-14.875-14.437v-2c-5.175 4.493-5.175 4.493-10.266 9.082-6.944 6.38-14.236 12.21-21.734 17.918l-1.817 1.384c-15.25 11.542-31.233 21.753-48.183 30.616l-2.552 1.344c-57.788 30.057-122.593 33.985-184.535 14.622-7.522-2.495-14.743-5.606-21.913-8.966l-2.103-.972c-29.863-13.927-56.477-35.211-76.897-61.028l-2.02-2.422c-17.408-21.014-29.676-46.748-37.087-72.9l-1.078-3.797c-.27-.95-.538-1.901-.815-2.881l-.004 2.185q-.056 26.328-.18 52.656c-.04 8.489-.072 16.977-.087 25.465a5360 5360 0 0 1-.084 22.196c-.022 3.917-.038 7.834-.037 11.751q0 5.533-.05 11.066c-.012 1.995-.005 3.99.003 5.986-.13 11.149-.13 11.149-4.561 15.695-3.761 2.603-7.817 2.29-12.217 2.28l-2.532.019c-2.804.017-5.608.02-8.412.023l-6.027.03c-5.46.027-10.922.04-16.383.048q-5.116.01-10.233.023-16.008.043-32.016.055-18.481.014-36.964.102-14.284.063-28.568.066c-5.689.002-11.377.014-17.065.05q-8.025.047-16.052.02-2.945-.003-5.888.026c-2.683.026-5.363.014-8.046-.007l-2.347.049c-5.22-.095-8.173-1.514-11.937-5.157-1.837-2.276-2.18-3.851-2.166-6.763l-.037-2.991.067-3.23-.013-3.442c-.007-3.748.034-7.493.074-11.24q.001-3.907-.008-7.815c-.012-6.854.019-13.708.059-20.562.064-10.977.081-21.955.07-32.933.004-3.838.035-7.675.067-11.513q.006-3.52.009-7.039l.048-3.243c.057-5.612.057-5.612-2.303-10.546-2.714-1.631-4.558-1.541-7.633-.986-3.739.992-7.354 2.312-11.004 3.59-5.906 2-11.892 3.44-17.98 4.773l-2.739.613c-14.575 3.102-28.907 4.111-43.761 4.075l-2.577-.002c-52.483-.153-101.218-20.779-139.042-56.992a452 452 0 0 0-3.874-3.65c-28.012-26.866-46.416-64.955-53.57-102.731l-.492-2.533c-9.451-50.768 2.03-105.766 31.05-148.458A264 264 0 0 1 1964 2379l1.321-1.706c20.307-25.852 46.009-45.434 75.679-59.294l3.414-1.617c46.481-21.01 101.874-21.527 149.586-4.383 49.619 18.971 91.812 56.287 114 105 2.958 6.894 5.554 13.91 8 21l.766 2.218c6.4 18.995 9.379 39.3 9.385 59.31l.013 3.029q.018 4.976.025 9.95l.026 7.173q.03 8.697.05 17.395.026 10.133.065 20.265a66954 66954 0 0 1 .124 38.327l.105 35.076q.054 18.024.119 36.047.035 10.113.062 20.226.023 9.495.059 18.99.012 3.492.018 6.982.01 4.75.032 9.5v2.816l.015 2.563.007 2.215c.063 2.14.063 2.14 1.129 4.918 5.371 1.177 5.371 1.177 10.438-.188 2.542-2.949 2.687-6.05 2.69-9.84l.01-2.413-.004-2.635.007-2.813q.007-4.679.004-9.358l.01-6.702q.014-9.123.012-18.246.002-5.713.006-11.426.014-18.942.012-37.883v-4.129q.002-16.488.023-32.975.023-16.98.02-33.962-.001-9.51.014-19.023.014-8.98.003-17.96-.003-3.264.007-6.528c.03-11.588-.274-23.089-1.138-34.647l-.234-3.16c-3.74-45.736-23.603-90.389-54.876-123.956-1.862-2.003-3.621-4.062-5.379-6.156-13.799-15.712-31.647-27.628-49.625-38l-1.831-1.088c-19.69-11.669-41.844-18.474-64.169-22.912l-2.535-.535c-52.341-10.75-110.713 2.656-155.027 31.66A356 356 0 0 0 2001 2324l-2.895 2.07c-46.924 34.318-78.263 84.891-87.698 142.288-5.383 34.964-2.521 71.302 9.593 104.642l.823 2.277c7.215 19.639 16.676 37.932 29.177 54.723l1.327 1.798c9.21 12.386 19.573 24.553 31.673 34.202l3.066 2.504c45.082 36.458 101.416 54.138 159.301 48.992 14.688-1.556 30.01-3.894 44.031-8.648C2192 2708 2192 2708 2196 2708v75c-28.81 6.915-28.81 6.915-39.875 8.312l-3.426.471c-11.067 1.49-21.975 2.377-33.144 2.42l-3.54.017q-3.7.015-7.397.02c-3.684.01-7.368.04-11.052.072-54.138.243-108.33-14.33-152.566-46.312l-3.121-2.234c-20.897-15.327-40.846-33.39-56.879-53.766l-4.312-5.125c-3.924-4.79-7.55-9.76-11.125-14.813l-1.578-2.225c-2.249-3.21-4.255-6.315-5.985-9.837l-.062 3.826q-.3 18.254-.617 36.506-.162 9.375-.316 18.748c-.43 26.42-.973 52.828-1.99 79.232l-.12 3.196c-3.175 82.42-13.784 158.524-67.895 224.492l-2.465 3.078c-13.51 16.531-29.197 32.439-46.535 44.922q-1.725 1.311-3.441 2.633c-36.489 27.817-78.97 49.423-124.559 56.367l-2.751.42c-26.346 3.88-53.117 4.546-79.706 5.123l-2.915.064c-25.091.536-50.184.58-75.28.578q-7.87 0-15.739.02c-28.69.074-57.32.092-85.952-1.95a364 364 0 0 0-7.359-.438l-3.491-.195-3.04-.147c-3.187-.547-5.156-1.592-7.767-3.475-1.64-3.278-1.224-6.92-1.281-10.527l-.055-2.804q-.089-4.803-.164-9.607l-.06-3.427c-.64-37.114-.978-74.235-1.29-111.354-.08-9.6-.167-19.199-.283-28.798-.067-5.555-.115-11.11-.153-16.666a940 940 0 0 0-.073-6.307c-.04-2.782-.057-5.563-.067-8.346l-.053-2.349c.015-3.485.423-5.712 2.094-8.793 3.16-2.68 4.846-2.614 8.967-2.545l2.086.013c2.382.021 4.763.079 7.145.135q2.628.034 5.256.06 6.207.074 12.414.187c8.779.155 17.558.262 26.337.37l10.19.127 2.591.032q9.157.115 18.316.238c98.7 6.583 98.7 6.583 184.462-33.018L1609 2887l2.09-2.09c15.639-16.734 14.357-37.401 14.176-58.844-.022-2.88-.033-5.76-.045-8.64-.032-8.057-.09-16.114-.156-24.172-.056-6.856-.101-13.713-.144-20.57q-.103-16.143-.242-32.287-.055-6.399-.1-12.797-.055-7.596-.137-15.192-.028-2.824-.045-5.647a1312 1312 0 0 0-.078-7.757l-.007-2.297c-.059-3.686-.14-6.637-2.312-9.707-3.512-1.756-6.936-1.335-10.611-.177l-2.635 1.154-3.002 1.275-3.19 1.373c-50.413 20.9-108.7 21.064-159.254.348-23.714-9.996-45.245-23.55-63.782-41.498a365 365 0 0 0-3.189-3.043c-14.18-13.386-25.58-28.575-35.337-45.432l-1.17-2.013c-26.75-46.605-32.82-104.214-19.26-155.917 8.893-32.202 24.686-61.23 47.344-85.797 1.938-2.112 3.796-4.273 5.649-6.46 3.503-4.008 7.36-7.402 11.437-10.813l2.648-2.309c43.02-36.964 98.757-52.206 154.749-48.464 40.284 3.572 82.263 19.722 112.603 46.773l2.602 2.309a710 710 0 0 1 5.062 4.578c2.098 1.897 4.237 3.726 6.399 5.55 37.448 32.899 57.705 84.937 61.937 133.563.251 5.326.276 10.643.26 15.974l.012 4.586c.01 4.147.008 8.294.004 12.441-.002 4.494.007 8.988.014 13.482q.018 13.175.012 26.351-.002 10.722.005 21.443l.001 3.093.004 6.223q.014 29.124.003 58.25c-.006 17.717.006 35.435.025 53.153q.03 27.36.024 54.72-.005 15.332.014 30.664.019 13.056.002 26.11c-.006 4.43-.008 8.86.005 13.29.057 22.396-.296 44.533-6.072 66.345l-.777 2.988c-13.499 50.111-46.382 94.219-90.977 120.856-31.808 18.306-65.84 29.003-102.722 29.249l-7.29.072-3.86.033q-6.008.057-12.016.13l-2.057.026-4.16.05c-9.31.113-18.619.219-27.93.294q-9.453.076-18.907.21-4.993.069-9.985.099c-3.706.021-7.41.073-11.116.133l-3.326-.003c-6.12.134-6.12.134-11.406 3.053-2.115 2.66-2.115 2.66-1.846 6.372.697 3.293.697 3.293 2.7 4.507 3.162 1.079 5.883 1.036 9.226 1.014l2.073-.005c2.274-.008 4.547-.031 6.82-.055q2.422-.014 4.842-.025c4.273-.024 8.546-.06 12.818-.1q5.018-.043 10.036-.075c9.127-.063 18.253-.157 27.38-.265q5.08-.06 10.16-.105c33.778-.128 33.778-.128 67.195-4.64l3.101-.64c40.632-8.87 76.797-28.664 106.711-57.298l1.507-1.425c7.996-7.588 15.014-15.658 21.493-24.575l1.437-1.974c20.89-29.118 33.76-61.974 39.313-97.276l.351-2.214c2.635-18.39 2.05-37.106 2.044-55.633 0-4.218.006-8.436.01-12.654q.012-12.364.012-24.73 0-10.065.006-20.131.014-28.62.012-57.242v-6.222q.002-24.945.023-49.888.023-25.695.02-51.389-.001-14.392.014-28.784.014-12.258.005-24.517-.007-6.235.005-12.471c.26-34.589.26-34.589-4.502-68.75l-.657-3.093c-9.183-41.916-29.538-79.085-59.093-110.032l-2.645-2.805c-6.925-7.158-14.395-13.236-22.355-19.195l-1.65-1.26c-45.728-34.863-104.86-49.068-161.6-42.223-40.024 5.418-78.278 21.087-109.75 46.483l-1.667 1.321c-46.602 37.06-75.636 91.875-82.385 150.833-5.642 56.322 10.01 115.177 45.462 159.701q1.292 1.575 2.59 3.145l1.41 1.717c17.364 21.043 37.806 38.77 61.59 52.283l2.076 1.183c29.438 16.577 64.023 27.83 98.033 28.02l2.548.022c25.328.272 25.328.272 50.343-3.225l2.994-.634c12.26-2.636 24.156-5.787 35.873-10.264C1606 2705 1606 2705 1609 2705v84c-27.372 14.338-54.644 26.059-85 32l-2.454.496c-27.842 5.357-59.739 4.642-87.546-.496l-2.884-.504c-28.924-5.133-56.2-14.763-82.116-28.496l-1.987-1.05c-15.35-8.186-29.435-18.105-43.013-28.95l-2.887-2.262c-7.736-6.28-14.804-13.218-21.863-20.238l-1.484-1.468A229 229 0 0 1 1259 2717l-1.724-2.15c-10.287-12.884-19.114-26.541-27.276-40.85l-.011 3.653a9494 9494 0 0 1-.173 34.162 4287 4287 0 0 0-.087 17.56q-.024 8.482-.097 16.962a997 997 0 0 0-.024 6.456c-.002 3.026-.03 6.05-.062 9.076l.015 2.668c-.15 9.034-3.056 17.106-9.561 23.463-6.559 4.732-11.472 6.149-19.576 6.147l-2.686.011q-4.474.015-8.947.019l-6.401.02q-8.709.025-17.418.036-5.442.008-10.882.018-17.021.029-34.043.041-19.65.015-39.3.077-15.187.044-30.373.048c-6.047.002-12.094.011-18.141.036q-8.538.034-17.074.018-3.13 0-6.259.02c-2.854.017-5.707.01-8.562-.003l-2.485.033c-7.395-.082-13.02-2.614-19.103-6.709-6.077-6.215-8.871-12.88-8.88-21.497l-.011-3.534.003-3.886-.009-4.126q-.01-5.674-.01-11.35c-.001-4.08-.01-8.159-.016-12.238q-.017-10.608-.026-21.217c-.01-11.186-.031-22.372-.053-33.558l-.028-14.384q-.031-16.341-.058-32.682l-.005-3.018q-.038-24.182-.061-48.363-.028-24.84-.085-49.678-.037-15.312-.04-30.625-.004-10.506-.036-21.012c-.012-4.036-.02-8.072-.013-12.108q.006-5.556-.023-11.112c-.007-1.956.001-3.912.01-5.868-.107-14.371-2.61-29.37-12.534-40.431-12.548-11.38-28.213-11.951-44.17-11.32-10.207.737-19.542 4.847-26.67 12.23-9.957 11.936-11.34 25.8-11.293 40.818l-.011 4.15c-.01 3.778-.008 7.555-.004 11.333.003 4.083-.006 8.166-.014 12.25q-.017 10.603-.018 21.206a17737 17737 0 0 1-.035 30.694q-.046 24.923-.073 49.847l-.004 3.01a108178 108178 0 0 0-.04 45.324c0 .993 0 1.985-.002 3.008q-.02 24.832-.071 49.665-.03 15.306-.028 30.611 0 10.488-.027 20.976c-.01 4.032-.015 8.063-.007 12.095a1663 1663 0 0 1-.017 11.084c-.005 1.96.003 3.921.013 5.882-.066 9.44-.863 18.196-7.529 25.387l-2.133 2.398c-6.412 5.207-12.913 6.824-21.033 6.742l-2.7.02c-2.961.019-5.922.009-8.884-.002q-3.199.011-6.398.027c-5.777.022-11.554.02-17.33.01-4.83-.005-9.658.002-14.486.01q-17.09.023-34.18-.004a8402 8402 0 0 0-35.226.032q-15.14.039-30.281.025c-6.023-.005-12.046-.003-18.07.018q-8.496.025-16.992-.012a730 730 0 0 0-6.223.01c-21.711.123-21.711.123-30.054-7.61-7.035-7.15-8.332-14.846-8.317-24.494l-.031-3.077c-.03-3.333-.04-6.666-.049-10l-.054-6.96c-.048-6.09-.077-12.178-.104-18.268-.03-6.22-.076-12.441-.121-18.662-.086-12.193-.153-24.385-.209-36.578l-1.021 1.544a6652 6652 0 0 1-4.663 7.03l-1.605 2.429c-12.397 18.654-27.476 37.957-44.773 52.372-2.277 1.91-4.442 3.922-6.625 5.937-59.32 53.227-141.104 77.884-219.688 77.938l-2.707.002c-77.885-.093-157.685-24.3-216.918-76.252l-2.832-2.48a435 435 0 0 1-4.89-4.43 226 226 0 0 0-4.65-4.149C91.695 2718.535 81.479 2706.643 72 2694l-1.562-2.062c-11.576-15.336-21.255-31.6-29.495-48.953a427 427 0 0 0-1.898-3.943c-18.166-37.41-28.06-80.905-28.248-122.42l-.021-3.16c-.018-3.341-.024-6.683-.026-10.025l-.002-3.462c.016-16.855.426-33.321 3.252-49.975l.52-3.204C21.54 2404.39 36.55 2362.58 61 2327l1.219-1.776A299 299 0 0 1 80 2302q1.388-1.668 2.773-3.336c9.24-11.033 19.139-21.465 30.227-30.664l1.505-1.292c16.634-14.275 35.064-26.57 54.495-36.708l1.884-.996c80.427-42.302 177.405-49.702 271.804-22.754C497.18 2223.412 548.93 2255.036 586 2299l1.351 1.58c12.625 14.823 23.43 30.836 32.739 47.932 2.506 4.577 5.193 9.034 7.91 13.488l.607-1.674c4.199-11.49 8.655-22.626 14.393-33.436a475 475 0 0 0 3-5.788c34.485-66.82 101.369-117.35 172.088-140.095 24.137-7.452 48.783-11.72 73.912-14.007l2.386-.218c17.783-1.51 35.783-.873 53.614-.782l-1.541-1.525a5592 5592 0 0 1-7.021-6.975l-2.424-2.398c-4.289-4.271-8.415-8.609-12.358-13.2-2.75-3.16-5.65-6.175-8.531-9.215a260 260 0 0 1-13.918-16.011c-2.467-2.991-5.067-5.84-7.707-8.676-4.259-4.583-8.28-9.3-12.203-14.176a347 347 0 0 0-6.18-7.357c-5.304-6.175-10.3-12.541-15.212-19.032a532 532 0 0 0-10.842-13.81c-6.372-7.891-12.369-16.045-18.333-24.246a2490 2490 0 0 0-4.98-6.817c-8.52-11.67-16.67-23.583-24.75-35.562l-1.41-2.08c-24.616-36.358-46.995-74.157-67.59-112.92l-1.481-2.788A1762 1762 0 0 1 721 1849l-1.726-3.348c-10.212-19.878-19.467-40.107-28.378-60.598q-1.256-2.876-2.524-5.747C652.184 1697.344 626.144 1610.63 589 1364l-.184-2.61c-3.72-53.385-3.594-108.013.184-161.39l.39-5.702C596.265 1095.512 613.81 997.694 744 664l1.79-3.19c13.33-23.708 27.177-47.136 42.21-69.81l1.987-3.01c9.789-14.816 19.706-29.528 30.013-43.99l1.699-2.386A852 852 0 0 1 843 513q1.848-2.404 3.692-4.812c13.464-17.565 27.368-34.728 41.836-51.478 1.507-1.75 3.004-3.508 4.5-5.269 5.64-6.633 11.376-13.148 17.304-19.527a351 351 0 0 0 6.035-6.773c3.563-4.088 7.232-8.066 10.946-12.016l1.976-2.107a425 425 0 0 1 13.367-13.612c1.95-2.001 3.775-4.038 5.598-6.152 3.875-4.464 7.993-8.649 12.184-12.817l2.158-2.17a233 233 0 0 1 12.518-11.599c2.93-2.591 5.653-5.371 8.386-8.168 3.975-4.02 7.975-7.912 12.29-11.57 3.08-2.69 6.041-5.505 9.023-8.305 5-4.682 10.127-9.1 15.476-13.383 3-2.481 5.862-5.091 8.711-7.742a260 260 0 0 1 13.91-12.004 605 605 0 0 0 6.961-5.71 718 718 0 0 1 25.817-20.505 812 812 0 0 0 10.994-8.512c8.854-6.945 17.882-13.602 27.042-20.138q3.503-2.513 6.987-5.053c8.314-6.048 16.687-11.942 25.289-17.578q2.654-1.773 5.304-3.551c22.764-15.247 46.021-29.66 69.696-43.449l2.592-1.51c33.091-19.234 67.11-37.175 101.994-52.943 3.406-1.543 6.8-3.108 10.195-4.676C1418.521 81.908 1506.43 54.644 1766 13.312l2.694-.184q7.856-.53 15.717-.98 2.52-.144 5.04-.298c19.35-1.16 38.735-1.037 58.112-1.035M1776 69l-2.76.184C1670.227 76.112 1568.626 95.768 1395 156l-1.994.827C1332.738 181.872 1274.42 211.525 1219 246l-2.626 1.628A1144 1144 0 0 0 1117 317l-1.648 1.282c-8.949 6.964-17.771 14.076-26.552 21.25q-2.36 1.923-4.73 3.835c-6.54 5.3-12.905 10.785-19.25 16.317a633 633 0 0 1-7.328 6.289c-7.79 6.584-15.28 13.429-22.687 20.441-3.229 3.055-6.506 6.046-9.805 9.023-5.59 5.094-10.922 10.423-16.219 15.819-3.869 3.92-7.864 7.597-12.035 11.194-2.053 1.822-3.847 3.769-5.621 5.862-5.247 5.972-10.901 11.518-16.566 17.092-4.144 4.097-8.107 8.27-11.906 12.69-2.638 3.042-5.399 5.968-8.153 8.906-4.592 4.925-9.121 9.883-13.5 15l-2.7 3.137q-3.89 4.525-7.762 9.064-1.488 1.74-2.978 3.477c-5.585 6.51-11.023 13.106-16.29 19.876-3.567 4.578-7.22 9.08-10.895 13.571-4.846 5.938-9.553 11.952-14.09 18.13-1.503 2.042-3.015 4.077-4.527 6.112-7.17 9.668-14.218 19.41-21.11 29.278-1.813 2.59-3.637 5.174-5.46 7.757C846.065 605.367 837.386 618.55 829 632l-1.66 2.647c-16.943 27.04-32.937 54.615-47.559 82.982a531 531 0 0 1-5.187 9.836c-38.641 71.44-66.67 149.914-83.324 894.983 2.167 7.208 4.435 14.384 6.73 21.552l.803 2.522C715.345 1698.42 735.535 1748.846 759 1798l1.815 3.83c7.52 15.86 15.326 31.479 23.884 46.81 1.586 2.877 3.106 5.783 4.618 8.698 6.129 11.802 12.905 23.225 19.683 34.662l1.87 3.161c18.661 31.492 38.656 62.186 60.13 91.839l1.625 2.244c8.034 11.062 16.298 21.93 24.745 32.68q2.323 2.961 4.638 5.928a908 908 0 0 0 23.906 29.31 521 521 0 0 1 8.586 10.4c4.127 5.074 8.501 9.875 12.945 14.668a286 286 0 0 1 6.055 6.77c3.698 4.258 7.502 8.417 11.328 12.56q2.303 2.493 4.595 4.995c10.485 11.457 21.428 22.452 32.42 33.418q3.816 3.81 7.624 7.627 2.984 2.989 5.97 5.972 2.079 2.078 4.155 4.159c4.423 4.407 8.895 8.689 13.645 12.744 3.831 3.314 7.46 6.861 11.118 10.363 6.81 6.432 13.388 11.417 22.083 14.974 26.602 11.454 51.042 27.538 72.355 47.165 1.928 1.767 3.895 3.461 5.895 5.148 11.31 9.914 21.454 20.727 30.312 32.875l2.324 3.168c18.337 25.761 31.555 54.93 39.181 85.616.445 1.753.962 3.488 1.495 5.216l2 1 .835-1.734c14.53-30.004 32.553-56.74 55.165-81.266l2.434-2.746c10.84-12.129 22.75-23.234 35.566-33.254l2.824-2.273c29.975-23.72 63.892-41.845 100.176-53.727.975-.32 1.95-.64 2.955-.968 35.17-11.312 72.035-16.284 108.92-16.22l2.152.003c83.372.236 165.673 27.844 227.973 84.185l1.79 1.603c5.816 5.215 11.542 10.427 16.558 16.436 1.875 2.225 3.856 4.332 5.84 6.461 23.924 26.57 41.517 58.728 52.812 92.5 1.795-2.693 2.967-5.092 4.215-8.059 18.712-43.883 46.633-82.643 82.785-113.941l1.8-1.582c44.237-38.696 99.977-62.473 158.2-69.418l2.626-.316c81.858-9.376 172.977 7.055 238.528 59.11 7.926 6.404 15.5 13.147 22.846 20.206l1.48 1.414c6.73 6.458 12.8 13.223 18.52 20.586l1.362 1.72c8.568 10.849 15.826 22.26 22.638 34.28l1.336 2.339c11.147 19.7 18.868 40.737 24.953 62.492.718 2.19 1.662 4.121 2.711 6.169l.004-2.651q.056-31.937.18-63.873c.04-10.296.072-20.593.087-30.889q.019-13.463.084-26.924c.022-4.751.038-9.503.037-14.254q0-6.711.05-13.423.012-2.46.004-4.92c-.007-2.245.011-4.488.035-6.732l.011-3.802c.707-4.916 2.212-8.566 6.04-11.843 4.387-2.833 8.575-3.238 13.732-3.127l2.439.003c2.682.007 5.363.044 8.045.08q2.894.016 5.787.027 6.224.028 12.446.087c6.57.058 13.14.078 19.71.09 18.681.038 37.362.109 56.043.264q15.483.13 30.965.122c5.456 0 10.91.021 16.366.097 5.138.07 10.273.085 15.412.059q2.814 0 5.628.063c10.004.218 17.046-.303 24.725-7.178a133 133 0 0 0 4.659-4.704c2.501-2.602 5.202-4.971 7.886-7.385.895-.83 1.79-1.662 2.71-2.519a340 340 0 0 1 6.662-5.934c14.478-12.656 28.007-26.329 41.583-39.934q4.07-4.076 8.149-8.145a6165 6165 0 0 0 6.375-6.375q1.502-1.503 3.006-3.003c5.057-5.048 10.02-10.121 14.662-15.557 2.57-2.99 5.282-5.845 7.978-8.72 4.592-4.925 9.121-9.883 13.5-15l2.7-3.137q3.89-4.525 7.762-9.064 1.488-1.74 2.978-3.477c5.588-6.513 11.027-13.112 16.297-19.885 2.968-3.81 5.99-7.568 9.052-11.302 6.432-7.843 12.609-15.838 18.632-23.997q2.506-3.39 5.02-6.77c56.425-76.089 104.939-158.403 251.247-672.056l.184-2.649c1.697-24.682 2.338-49.363 2.316-74.1l-.002-3.86c-.07-54.885-4.352-109.384-12.186-163.703h-3a76 76 0 0 0-5 5.625l-1.465 1.772c-3.864 4.7-7.607 9.494-11.338 14.299-3.76 4.816-7.711 9.441-11.716 14.054-3.45 3.993-6.75 8.078-9.981 12.25-4.25 5.486-8.682 10.779-13.224 16.025a375 375 0 0 0-10.374 12.577c-6.456 8.139-13.131 16.108-19.737 24.125A5415 5415 0 0 0 2959 1218l-6.77 8.273-4.304 5.266c-5.238 6.41-10.498 12.8-15.761 19.189A5430 5430 0 0 0 2918 1268l-6.77 8.273-4.304 5.266c-5.238 6.41-10.498 12.8-15.761 19.189A5430 5430 0 0 0 2877 1318l-4.5 5.5-2.25 2.75-9.02 11.023-4.304 5.266c-5.238 6.41-10.498 12.8-15.761 19.189A5430 5430 0 0 0 2827 1379l-6.77 8.273-4.304 5.266c-5.238 6.41-10.498 12.8-15.761 19.189A5430 5430 0 0 0 2786 1429l-4.5 5.5-2.25 2.75-9.02 11.023-4.304 5.266c-5.238 6.41-10.498 12.8-15.761 19.189A5430 5430 0 0 0 2736 1490l-6.77 8.273-4.304 5.266c-5.238 6.41-10.498 12.8-15.761 19.189A5430 5430 0 0 0 2695 1540l-4.5 5.5-2.25 2.75-9.02 11.023-4.304 5.266c-5.238 6.41-10.498 12.8-15.761 19.189A5430 5430 0 0 0 2645 1601l-6.77 8.273-4.304 5.266c-5.238 6.41-10.498 12.8-15.761 19.189A5430 5430 0 0 0 2604 1651l-4.5 5.5-2.25 2.75-9.02 11.023-4.304 5.266a5616 5616 0 0 1-15.76 19.184 1585 1585 0 0 0-7.783 9.496 860 860 0 0 1-4.38 5.351 315 315 0 0 0-3.976 4.922c-5.435 6.592-11.598 10.707-20.027 12.508-2.984.053-5.942.05-8.924-.001l-5.604-.067-2.998-.038c-6.35-.071-12.702-.077-19.053-.094-5.576-.019-11.15-.06-16.725-.153-5.4-.088-10.797-.112-16.198-.094a270 270 0 0 1-6.155-.082c-10.53-.631-10.53-.631-20.152 2.786-3.538 3.45-5.79 7.463-8.191 11.743a164 164 0 0 1-4.437 5.5l-2.223 2.691L2419 1752l-1.285 1.546a494 494 0 0 1-18.012 20.505c-2.012 2.17-3.952 4.392-5.882 6.635-3.726 4.264-7.652 8.29-11.66 12.287-.727.726-1.452 1.453-2.2 2.202q-2.286 2.287-4.576 4.57a3869 3869 0 0 0-6.938 6.944l-4.474 4.471-2.062 2.068a230 230 0 0 1-12.19 11.288c-2.216 1.91-4.373 3.884-6.533 5.859-4.242 3.824-8.594 7.474-13.036 11.062a496 496 0 0 0-6.96 5.75c-10.42 8.72-21.162 16.882-32.192 24.813l-2.171 1.57c-28.186 20.344-57.977 38.44-88.829 54.43l-3.177 1.655c-76.95 39.895-161.288 63.552-260.823 74.345l-3.503.312c-38.813 3.32-78.713 3.37-117.497-.312-.804-.075-1.607-.15-2.435-.229-27.107-2.569-53.878-6.365-80.565-11.771l-2.089-.423c-54.069-11.01-106.397-28.783-156.268-52.333a804 804 0 0 0-7.569-3.506c-58.583-26.997-113.944-65.043-161.562-108.472a450 450 0 0 0-6.297-5.559c-4.2-3.668-8.284-7.444-12.34-11.27l-2.216-2.09c-18.183-17.216-18.183-17.216-25.698-26.105-2.263-2.588-4.614-5.08-6.973-7.58-5.49-5.818-10.8-11.684-15.793-17.94-1.995-2.474-4.046-4.891-6.122-7.299-6.217-7.226-11.934-14.768-17.592-22.436a337 337 0 0 0-4.204-5.507c-22.661-29.286-42.272-61.638-59.277-94.48l-.94-1.813c-26.518-51.238-46.468-105.14-60.06-161.187l-.514-2.116c-18.541-76.64-22.783-156.66 48.223-464.146 1.272-2.697 2.525-5.402 3.775-8.11 5.97-12.845 12.522-25.311 19.516-37.628l1.74-3.068c20.716-36.264 44.52-71.31 71.76-102.998 2.326-2.73 4.574-5.507 6.813-8.309 4.75-5.842 9.89-11.289 15.062-16.754 2.657-2.812 5.24-5.68 7.809-8.574 4.924-5.49 10.085-10.718 15.31-15.92q2.36-2.356 4.711-4.719c4.887-4.89 9.814-9.684 15.072-14.18 2.58-2.213 5.048-4.536 7.536-6.853 4.65-4.297 9.438-8.367 14.375-12.336a304 304 0 0 0 7.192-6.07c9.16-7.904 18.879-15.053 28.62-22.219l2.318-1.712c51.368-37.873 107.99-68.721 167.682-91.288l1.973-.747c63.733-24.04 131.064-38.625 199.027-43.253l3.573-.263c15.143-1.033 30.318-.983 45.49-.987l2.174-.001c24.36-.008 48.528.6 72.763 3.251l2.374.257c78.094 8.554 153.32 29.901 224.626 62.743l2.84 1.3c13.726 6.3 26.988 13.317 40.16 20.7l2.624 1.46c20.065 11.184 39.661 23.21 58.376 36.54l2.21 1.57c23.084 16.438 45.43 33.979 66.306 53.164a277 277 0 0 0 6.547 5.766c3.953 3.428 7.6 7.128 11.25 10.875a136 136 0 0 0 6.554 5.969c4.024 3.49 7.656 7.237 11.258 11.156l3.922 4.23 1.986 2.15c1.9 2.047 3.813 4.08 5.733 6.108 5.895 6.238 11.618 12.514 16.976 19.227 2.113 2.606 4.287 5.14 6.491 7.668 6.714 7.71 12.975 15.71 19.1 23.893 1.648 2.2 3.308 4.39 4.968 6.58 39.783 52.869 71.464 111.763 94.699 173.644l1.35 3.564c25.025 66.53 38.228 136.634 42.65 207.436 3.745-3.656 7.228-7.457 10.625-11.438l1.582-1.85c3.978-4.683 7.807-9.468 11.577-14.32 3.51-4.514 7.098-8.962 10.716-13.392a890 890 0 0 0 12-15c5.086-6.512 10.291-12.924 15.512-19.328q3.517-4.317 6.988-8.672a1245 1245 0 0 1 8.625-10.68 1164 1164 0 0 0 15.21-19.03c4.043-5.165 8.182-10.248 12.33-15.33A803 803 0 0 0 2697.5 1119c6.6-8.446 13.388-16.738 20.166-25.041 6.124-7.506 12.208-15.035 18.17-22.67 4.043-5.165 8.182-10.247 12.328-15.328A803 803 0 0 0 2758.5 1043c6.6-8.446 13.388-16.738 20.166-25.041 6.124-7.506 12.208-15.035 18.17-22.67 4.043-5.165 8.182-10.247 12.328-15.328A803 803 0 0 0 2819.5 967c6.6-8.446 13.388-16.738 20.166-25.041 6.124-7.506 12.208-15.035 18.17-22.67 4.043-5.165 8.182-10.247 12.328-15.328A801 801 0 0 0 2880.5 891c4.483-5.74 9.06-11.399 13.666-17.041a759 759 0 0 0 10.272-12.897c4.682-6.004 9.512-11.879 14.368-17.743a676 676 0 0 0 12.08-15.08c3.483-4.46 7.037-8.856 10.614-13.239a1181 1181 0 0 0 12.5-15.563l1.31-1.658c3.017-3.845 5.87-7.787 8.69-11.779-15.75-34.725-32.223-69.11-51.34-102.126-1.805-3.124-3.59-6.258-5.375-9.394-6.97-12.213-14.126-24.256-21.743-36.076-1.66-2.59-3.302-5.19-4.94-7.795A903 903 0 0 0 2857 595l-1.522-2.182A1920 1920 0 0 0 2845 578l-1.578-2.214c-19.45-27.257-40.255-53.582-61.963-79.073q-1.48-1.737-2.957-3.477c-5.983-7.044-12.039-13.995-18.287-20.806a288 288 0 0 1-5.465-6.18c-3.495-4.02-7.12-7.916-10.75-11.813l-1.763-1.895c-2.86-3.06-5.753-6.068-8.737-9.007a115 115 0 0 1-6.629-7.156c-4.75-5.5-9.924-10.58-15.068-15.706a2175 2175 0 0 1-5.2-5.206c-5.186-5.19-10.383-10.287-15.968-15.05-2.334-2.023-4.482-4.206-6.635-6.417-3.47-3.506-7.003-6.828-10.75-10.031-2.339-2.047-4.611-4.153-6.882-6.275a295 295 0 0 0-16.688-14.483c-2.813-2.32-5.498-4.742-8.18-7.211-5.33-4.894-10.868-9.461-16.5-14q-1.827-1.496-3.652-2.996a769 769 0 0 0-22.85-18.056 964 964 0 0 1-13.233-10.232c-8.55-6.714-17.283-13.086-26.213-19.283a540 540 0 0 1-5.841-4.144c-20.213-14.488-41.034-28.253-62.211-41.289l-3.113-1.923c-16.403-10.115-32.984-19.815-49.887-29.077l-2.936-1.624c-75.023-41.472-154.936-74.584-249.736-101.727q-3.346-.933-6.688-1.874C2098.7 87.408 2015.786 74.315 1933 69l-2.4-.158c-51.267-3.361-103.342-3.334-154.6.158m-145 625-3.168 1.296c-30.633 12.64-60.63 27.273-88.832 44.704l-2.641 1.628A930 930 0 0 0 1520 752l-3.242 2.102c-29.521 19.44-57.376 41.47-83.27 65.523a571 571 0 0 1-4.492 4.098c-6.623 6.01-13.036 12.213-19.371 18.527l-2.27 2.256a236 236 0 0 0-11.733 12.627c-2.428 2.794-4.966 5.48-7.497 8.18-5.299 5.702-10.256 11.613-15.125 17.687a2089 2089 0 0 1-3.023 3.68c-26.38 32.09-49.272 66.762-68.977 103.32l-1.39 2.57c-41.86 77.844-67.023 163.824-75.86 276.555l-.125 2.608c-3.795 81.75 8.89 163.516 121.71 407.012a904 904 0 0 1 5.204 7.138c6.041 8.323 12.204 16.435 18.945 24.203 2.42 2.802 4.756 5.656 7.079 8.539 3.804 4.676 7.793 9.147 11.882 13.574a359 359 0 0 1 5.868 6.606c3.755 4.305 7.639 8.48 11.562 12.632l2.129 2.256c6.792 7.177 13.6 14.203 21.11 20.635 1.82 1.614 3.509 3.297 5.199 5.047 3.678 3.745 7.721 6.96 11.808 10.246 2.823 2.333 5.51 4.761 8.192 7.254 5.63 5.163 11.545 9.875 17.601 14.519 2.278 1.754 4.541 3.525 6.805 5.297 13.001 10.114 26.465 19.349 40.281 28.309l2.833 1.852c61.281 40.022 129.182 68.675 200.167 86.148l2.074.511c76.99 18.858 157.913 22.322 428.202-44.235a980 980 0 0 1 7.67-3.546c42.799-19.73 83.39-46.168 120.054-75.73l2.852-2.297A966 966 0 0 0 2291 1801l1.542-1.28a495 495 0 0 0 20.509-18.017 134 134 0 0 1 4.554-4.063c6.84-5.803 13.103-12.198 19.431-18.546q3.034-3.039 6.075-6.069c7.964-7.957 15.622-15.625 21.889-25.025h-87l-4 11c-5.785 9.282-13.444 14.347-24 17-3.607.402-7.176.41-10.803.388l-3.192.016c-3.512.014-7.024.007-10.536 0l-7.576.02q-9.204.024-18.41.014-7.484-.006-14.972.002l-2.156.003-4.338.004c-13.545.014-27.09.009-40.635-.003-12.376-.01-24.75.003-37.126.027q-19.088.037-38.177.027-10.705-.006-21.41.017-10.069.022-20.138-.008-3.69-.005-7.378.01c-3.366.013-6.73.002-10.096-.016l-2.926.03c-10.145-.11-19.815-3.295-27.131-10.531-8.821-10.806-10.154-21.657-10.134-35.17l-.007-3.385q-.007-5.61-.004-11.217l-.01-8.048q-.012-9.794-.012-19.586 0-7.965-.006-15.928-.014-22.597-.012-45.196v-4.922q-.002-19.746-.023-39.493-.023-20.295-.02-40.59.001-11.385-.014-22.772-.014-9.696-.005-19.392.006-4.942-.005-9.883c-.008-3.58-.003-7.16.005-10.74l-.016-3.12c.058-12.32 1.862-23.992 10.45-33.37 9.413-8.658 20.96-10.5 33.281-10.442l3.083-.01c3.39-.007 6.78-.001 10.17.005l7.314-.01a7536 7536 0 0 1 17.771-.002q7.227.008 14.452.003h2.082l4.187-.003q19.61-.006 39.22.012 16.804.013 33.609-.002a30211 30211 0 0 1 43.252-.007l2.074.001q7.211.003 14.422-.006 9.718-.008 19.436.01 3.56.004 7.123-.002c3.247-.006 6.494.001 9.742.011l2.829-.013c12.287.072 22.63 2.68 31.871 11.064 4.228 4.917 6.857 11.09 8.895 17.203 20.767.375 41.533.656 62.302.829 9.645.082 19.287.194 28.93.378 8.41.16 16.82.263 25.23.298 4.451.021 8.898.07 13.347.187 19.151 1.43 19.151 1.43 36.142-5.117 2.95-3.214 5.067-6.635 6.98-10.541 1.745-3.32 4.124-6.093 6.507-8.972a811 811 0 0 0 2.683-3.433c3.812-4.838 7.757-9.566 11.685-14.31a676 676 0 0 0 12.08-15.08c3.483-4.46 7.036-8.856 10.614-13.239a898 898 0 0 0 13.316-16.693c2.512-3.22 5.071-6.39 7.688-9.526l1.793-2.16a488 488 0 0 1 3.465-4.117l1.586-1.91 1.406-1.666c3.978-6.155 3.552-12.731 3.547-19.795l.017-3.547c.012-3.82.005-7.64-.005-11.461l-.006-3.958c-.053-22.508-.842-44.792-3.307-67.167l-.257-2.338c-9.37-83.874-35.07-163.523-117.743-307.662l-1.736-2.396c-6.838-9.425-13.776-18.683-21.264-27.604q-2.158-2.654-4.312-5.313c-14.123-17.224-29.205-33.383-44.977-49.106a3204 3204 0 0 1-6.316-6.323l-4.106-4.102-1.863-1.869c-4.314-4.291-8.814-8.318-13.426-12.287a2219 2219 0 0 1-3.5-3.07c-58.969-51.563-127.167-92.396-200.5-119.93l-3.274-1.252c-51.98-19.812-107.051-31.682-162.351-37.06l-2.537-.247c-19.847-1.9-39.59-2.65-59.525-2.629l-3.251.002c-82.599.126-165.557 15.742-242.062 47.186m1357 152a333 333 0 0 0-5.875 7.125l-1.77 2.192a1374 1374 0 0 0-12.474 15.746c-3.423 4.373-6.916 8.683-10.443 12.972-7.522 9.149-14.984 18.34-22.273 27.675-4.043 5.165-8.182 10.248-12.33 15.33A803 803 0 0 0 2912.5 940c-6.6 8.446-13.388 16.738-20.166 25.041-6.124 7.506-12.208 15.035-18.17 22.67-4.043 5.165-8.182 10.247-12.328 15.328A803 803 0 0 0 2851.5 1016c-6.6 8.446-13.388 16.738-20.166 25.041-6.124 7.506-12.208 15.035-18.17 22.67-4.043 5.165-8.182 10.247-12.328 15.328A803 803 0 0 0 2790.5 1092c-6.6 8.446-13.388 16.738-20.166 25.041-6.124 7.506-12.208 15.035-18.17 22.67-4.043 5.165-8.182 10.247-12.328 15.328A803 803 0 0 0 2729.5 1168c-6.6 8.446-13.388 16.738-20.166 25.041-6.124 7.506-12.208 15.035-18.17 22.67-4.043 5.165-8.182 10.247-12.328 15.328A801 801 0 0 0 2668.5 1244c-4.483 5.74-9.06 11.399-13.666 17.041a759 759 0 0 0-10.271 12.896c-4.683 6.005-9.513 11.88-14.37 17.744a676 676 0 0 0-12.08 15.08c-4.022 5.152-8.146 10.217-12.28 15.28a759 759 0 0 0-10.27 12.896c-4.683 6.005-9.513 11.88-14.37 17.744a676 676 0 0 0-12.08 15.08c-3.482 4.46-7.035 8.856-10.613 13.239a891 891 0 0 0-12 15c-4.483 5.74-9.06 11.399-13.666 17.041a759 759 0 0 0-10.271 12.896c-4.683 6.005-9.513 11.88-14.37 17.744a669 669 0 0 0-12.069 15.068c-4.1 5.254-8.304 10.421-12.534 15.572a225 225 0 0 0-7.719 9.949c-6.064 8.13-14.047 11.204-23.871 12.73-7.444.56-14.924.438-22.384.432l-6.773.031c-6.1.028-12.201.037-18.301.043-6.387.01-12.773.036-19.159.06q-16.064.057-32.128.088-16.538.03-33.075.084l-2.063.006-10.248.034c-28.29.093-56.58.164-84.869.222v-29h-204v232h204v-29l11.011.094q50.012.42 100.025.62l15.753.066c14.084.061 28.166.171 42.25.3q21.684.196 43.368.237c8.918.02 17.833.08 26.75.194 6.119.074 12.237.096 18.356.078 3.529-.009 7.054.005 10.582.08 14.933 1.018 14.933 1.018 27.953-4.75 2.936-3.353 4.918-6.97 6.952-10.919 1.869-2.385 1.869-2.385 3.418-4.078l1.408-1.62 1.362-1.552a400 400 0 0 0 11.558-13.93c3.025-3.785 6.108-7.52 9.192-11.258l1.847-2.24 3.583-4.342c3.557-4.316 7.094-8.649 10.632-12.98l4.5-5.5 2.25-2.75 9.02-11.023 4.304-5.266c5.238-6.41 10.498-12.8 15.761-19.189A5430 5430 0 0 0 2619 1545l6.77-8.273 4.304-5.266c5.238-6.41 10.498-12.8 15.761-19.189A5430 5430 0 0 0 2660 1495l6.77-8.273 4.304-5.266c5.238-6.41 10.498-12.8 15.761-19.189A5430 5430 0 0 0 2701 1445l4.5-5.5 2.25-2.75 9.02-11.023 4.304-5.266c5.238-6.41 10.498-12.8 15.761-19.189A5430 5430 0 0 0 2751 1384l6.77-8.273 4.304-5.266c5.238-6.41 10.498-12.8 15.761-19.189A5430 5430 0 0 0 2792 1334l4.5-5.5 2.25-2.75 9.02-11.023 4.304-5.266c5.238-6.41 10.498-12.8 15.761-19.189A5430 5430 0 0 0 2842 1273l6.77-8.273 4.304-5.266c5.238-6.41 10.498-12.8 15.761-19.189A5430 5430 0 0 0 2883 1223l4.5-5.5 2.25-2.75 9.02-11.023 4.304-5.266c5.238-6.41 10.498-12.8 15.761-19.189A5430 5430 0 0 0 2933 1162l6.77-8.273 4.304-5.266c5.238-6.41 10.498-12.8 15.761-19.189A5430 5430 0 0 0 2974 1112l6.77-8.273 4.304-5.266c5.238-6.41 10.498-12.8 15.761-19.189A5430 5430 0 0 0 3015 1062l4.5-5.5 2.25-2.75 6.75-8.25 2.223-2.719q2.383-2.91 4.773-5.812l2.442-2.969 2.214-2.688c3.257-3.934 3.257-3.934 3.739-8.914-1.072-7.71-3.188-15.249-5.141-22.773l-.668-2.582c-8.247-31.778-18.254-62.954-28.77-94.043l-.667-1.977A1695 1695 0 0 0 2989 846zM778.526 2313.525a365 365 0 0 1-3.189 3.043c-39.14 36.944-58.543 87.446-60.451 140.611-.177 7.596-.17 15.191-.16 22.789l-.016 7.46q-.017 8.967-.012 17.936.002 7.289-.005 14.576l-.001 2.113-.004 4.25q-.014 19.795-.003 39.592c.006 12.064-.006 24.128-.025 36.192q-.03 18.65-.024 37.3c.002 6.963 0 13.925-.014 20.888q-.019 9.792.002 19.584.004 3.592-.009 7.186c-.01 3.266-.002 6.531.01 9.797l-.022 2.878c.043 5.178.49 8.804 3.397 13.28 2.377 1.822 3.513 2.024 6.5 1.875 3.297-1.154 4.43-2.01 6.5-4.875.611-3.469.537-6.913.506-10.427l.018-3.253c.016-3.61.003-7.22-.01-10.83q.009-3.876.022-7.752.023-8.359.011-16.718c-.01-8.076.003-16.152.022-24.228q.047-19.69.05-39.38v-2.381l.001-2.384q.004-16.683.022-33.364l.002-2.366q.022-19.593.061-39.186.024-12.068.02-24.134c-.003-6.184.005-12.367.016-18.551q.004-3.785-.003-7.569c-.09-54.287 16.834-101.52 55.262-140.477 35.425-35.063 84.454-53.052 133.875-53.375 53.922.39 103.156 19.932 141.241 58.12 10.693 11.077 19.522 23.766 26.884 37.255l1.042 1.9c7.515 13.898 13.032 28.438 16.77 43.787l.591 2.406c3.822 16.69 3.882 33.214 3.852 50.246l.011 7.903q.012 8.464.008 16.93c-.003 8.163.009 16.327.025 24.491a42642 42642 0 0 1 .081 75.93V2595l.001 2.404q.006 19.837.055 39.675.03 12.22.014 24.44c-.007 6.231.007 12.462.028 18.693q.008 3.836-.005 7.67c-.011 3.484.002 6.967.021 10.45l-.027 3.083c.047 4.349.119 6.89 2.381 10.685 2.799 2.471 4.422 2.976 8.152 2.9 2.747-1.77 4.531-3.063 6-6 .095-1.42.127-2.844.129-4.266l.01-2.73-.005-3.018.007-3.193q.007-5.331.004-10.662l.01-7.617q.011-9.3.012-18.6 0-7.573.006-15.144.014-21.495.012-42.99v-4.689q.002-18.754.023-37.507.023-19.283.02-38.566-.001-10.815.014-21.628.014-10.197.003-20.394-.003-3.721.007-7.444c.042-18.288-.515-36.421-4.377-54.365l-.64-3c-7.412-33.024-23.236-63.077-46.157-87.921-1.896-2.068-3.708-4.184-5.515-6.329-16.648-18.95-38.996-32.271-61.563-42.937l-3.312-1.586c-74.741-33.957-169.3-17.884-228.162 39.111M2526 2289c-1.273 2.546-1.129 4.325-1.134 7.177l-.014 3.345v3.705l-.01 3.914q-.014 5.396-.017 10.793-.007 5.814-.022 11.63c-.02 9.375-.03 18.75-.039 28.126l-.015 13.263a66336 66336 0 0 0-.046 58.476c-.008 15.335-.033 30.67-.066 46.005q-.049 23.65-.054 47.299c-.002 8.842-.01 17.685-.036 26.528a5416 5416 0 0 0-.02 22.628c.004 3.84.002 7.678-.017 11.517-.194 40.157 6.628 77.316 34.928 107.406 28.996 27.348 69.8 36.516 108.562 36.188 50.086-1.536 101-17.663 139.333-50.57 1.435-1.231 2.89-2.44 4.347-3.645 10.447-8.839 19.704-20.81 26.32-32.785v-2c2.886 2.608 4.81 5.634 6.938 8.875 28.003 41.361 77.862 65.176 125.551 74.603q4.25.793 8.511 1.522l2.278.398c21.728 3.6 46.216 3.316 67.722-1.398l2.021-.438c29.301-6.593 56.75-21.978 73.412-47.603 16.676-26.745 21.73-57.002 21.707-88.106l.01-3.81q.01-5.174.01-10.349c.002-3.735.01-7.47.016-11.206q.02-12.216.024-24.432.005-7.631.012-15.262.019-21.148.026-42.295v-2.727l.002-8.215v-2.747q.009-22.08.046-44.16.035-22.692.037-45.384-.001-12.732.025-25.465.023-10.827.012-21.655c-.004-3.683-.003-7.365.011-11.048.015-3.99.007-7.978-.004-11.967l.025-3.537-.02-3.236.002-2.79c-.455-3.122-1.561-5.008-3.374-7.568-2.363-1.733-3.568-2.01-6.5-1.938-3.618 1.357-4.53 2.558-6.5 5.938-.606 4.135-.533 8.246-.499 12.419l-.016 3.866c-.015 3.54-.004 7.079.01 10.619.011 3.819 0 7.638-.01 11.457q-.019 9.93-.001 19.862c.015 9.596.005 19.192-.012 28.787q-.038 23.399-.036 46.796v14.175q.002 15.564-.002 31.127v2.811q-.009 23.282-.045 46.563-.022 14.337-.006 28.674.01 9.85-.007 19.702c-.006 3.777-.007 7.555.005 11.333.11 36.499-3.774 72.609-30.486 99.965-23.575 22.33-58.227 29.314-89.645 28.992-49.746-1.445-100.277-19.028-136.25-54.148l-2.418-2.23c-6.202-5.86-11.155-12.49-15.582-19.77-.57-.9-1.141-1.8-1.73-2.726-4.915-8.291-6.274-14.62-6.13-24.173a936 936 0 0 0-.024-4.055c-.02-3.676.001-7.352.031-11.028.024-3.979.008-7.957-.004-11.936-.015-6.883-.004-13.765.023-20.647.04-9.957.038-19.914.025-29.87-.02-16.167-.011-32.332.018-48.498q.045-23.523.06-47.046l.002-2.93a34986 34986 0 0 0-.003-45.602c-.006-10.85 0-21.701.027-32.552q.025-10.2.023-20.401-.002-5.886.023-11.771.024-5.388.011-10.775c0-1.914.014-3.83.029-5.744.014-8.055.014-8.055-3.381-15.246-2.377-1.822-3.513-2.024-6.5-1.875-3.112 1.09-4.417 2.327-6.5 4.875-.592 2.63-.592 2.63-.494 5.566l-.025 3.453.034 3.795a1424.615 1424.615 0 0 0 .01 15.12c.015 3.985.007 7.97.001 11.956q-.008 10.362.019 20.725c.023 10.002.02 20.004.01 30.005q-.025 24.366-.01 48.732a92874.446 92874.446 0 0 0 .04 47.253l.002 2.936q.021 24.26-.01 48.519-.019 14.957.022 29.915.026 10.26.004 20.519c-.007 3.942-.006 7.885.017 11.828a952 952 0 0 1-.003 10.848c-.004 1.914.015 3.828.036 5.741-.19 20.166-13.884 37.003-27.215 51.026-28.257 27.433-68.002 43.039-106.438 49.063l-3.852.617c-38.404 5.494-81.97 1.305-114.09-22.152-17.741-14.298-28.439-32.74-33.87-54.778l-.591-2.363c-4.164-18.327-3.889-37.086-3.855-55.763.005-3.795-.003-7.59-.008-11.384q-.012-9.83-.008-19.66c.003-9.478-.009-18.957-.025-28.436a57489 57489 0 0 1-.081-88.153v-2.796l-.001-2.793q-.007-23.033-.055-46.066-.03-14.19-.014-28.382.008-9.704-.021-19.407c-.01-3.733-.015-7.466-.002-11.2.014-4.041-.002-8.082-.021-12.124l.027-3.592-.03-3.272-.002-2.827c-.656-3.23-1.979-4.415-4.501-6.469-4.31-1.658-6.383-.713-10 2m-2329 46-1.745 1.437c-11.57 9.59-21.94 19.73-31.255 31.563l-2.363 2.883c-35.092 43.766-50.31 101.183-44.866 156.647 4.317 37.792 17.765 73.71 40.229 104.47l1.37 1.88c19.856 26.903 45.118 48.471 74.63 64.12l2.246 1.198c51.291 26.896 111.205 30.17 166.11 13.44 24.446-7.931 47.883-20.158 67.644-36.638l3.074-2.465C486.29 2662.007 499.36 2648.91 510 2634l1.43-1.984c23.82-33.368 40.375-75.077 40.808-116.512l.03-2.372c.545-54.887-14.832-107.03-51.268-149.132l-2.066-2.402c-38.781-44.066-91.878-70.77-150.496-75.223-54.696-3.104-109.059 13.617-151.438 48.625m1263 85-2.492 2.09c-19.416 16.79-31.074 40.409-33.508 65.91-1.428 27.435 6.448 53.348 25 74 7.818 8.65 15.88 15.208 26 21 .976.565 1.952 1.13 2.957 1.71 21.19 11.422 48.233 14.176 71.328 7.481L1553 2591l3.434-1.098c24.853-8.801 44.486-26.943 56.324-50.382 11.578-25.745 12.683-53.676 2.68-80.114-10.766-25.51-30.006-44.545-55.438-55.406-33.706-12.968-72.3-7.778-100 16m599 4-2.352 1.855c-19.161 15.878-30.3 39.823-33.648 64.145-2.09 26.794 3.978 54.496 21.777 75.363 2.648 2.974 5.425 5.805 8.223 8.637l1.727 1.945c14.05 15.492 38.377 25.916 59.055 27.232 31.118.667 57.74-6.093 80.933-27.798 20.034-19.603 31.095-45.579 31.598-73.629-.807-29.265-12.48-55.105-33.575-75.348-19.607-17.201-44.84-27.33-71.144-26.586-23.576 1.67-44.3 9.082-62.594 24.184m1365 13c-2.842 3.557-5.461 7.222-8 11l-1.621 2.395c-14.28 22.367-17.671 49.781-12.218 75.439 5.8 24.776 21.268 48.281 42.902 62.103 2.289 1.404 4.6 2.736 6.937 4.063l2.953 1.707c23.695 12.786 51.861 14.249 77.415 6.664 13.55-4.397 26.264-11.609 36.632-21.371l1.454-1.318c19.249-17.508 31.06-41.63 32.673-67.733 1.095-29.671-8.795-55.065-28.275-77.414-17.01-17.99-41.986-29.93-66.762-30.87-32.934-.484-61.653 10.26-84.09 35.335"/><path fill="#EBEBEB" d="m457 2343 3.031 2.332c42.414 33.822 69.818 82.524 75.947 136.561 5.398 52.94-8.872 106.909-42.62 148.457-8.84 10.744-17.676 20.679-28.565 29.408a219 219 0 0 0-5.055 4.172c-39.868 33.536-92.884 46.053-143.981 42.868-46.609-4.043-89.18-24.642-122.757-56.798l-1.512-1.43c-7.994-7.585-14.99-15.671-21.488-24.57l-1.256-1.712c-24.723-34.16-37.227-75.193-37.119-117.163l.002-2.428c.16-51.826 20.152-100.754 55.96-138.218q1.405-1.47 2.794-2.958c12.672-13.557 27.632-24.205 43.619-33.521l1.817-1.073C304.054 2287.055 395.039 2295.241 457 2343m-200.54 94.311c-18.965 21.947-24.787 49.367-23.46 77.689 1.831 19.776 10.955 39.191 24 54l2.082 2.516c18.439 21.66 44.531 31.34 72.117 33.765 27.759.93 53.068-10.616 73.48-28.648 20.278-19.267 30.743-45.58 31.634-73.383-.552-24.17-8.57-46.811-24.313-65.25l-1.98-2.418c-15.802-18.564-38.97-30.327-63.02-33.582-35.359-2.669-66.38 8.928-90.54 35.311M1243.68 452.617c6.677 3.98 11.168 9.325 13.695 16.68 2.01 8.697 1.206 16.985-3.375 24.703-4.984 6.714-12.142 10.952-19.059 15.426-10.32 6.685-20.158 14.135-29.941 21.574l-1.605 1.219c-14.875 11.306-29.316 23.18-43.145 35.746-2 1.809-4.023 3.584-6.062 5.347-10.441 9.123-20.39 18.727-30.174 28.544q-2.859 2.863-5.725 5.718c-5.461 5.458-10.888 10.897-15.892 16.784-2.178 2.56-4.481 4.995-6.772 7.455-4.29 4.643-8.352 9.421-12.316 14.347-2.08 2.558-4.2 5.072-6.344 7.576-5.435 6.352-10.62 12.852-15.654 19.528a1334 1334 0 0 1-4.112 5.408c-24.283 31.951-46.007 65.963-64.695 101.48a929 929 0 0 1-4.445 8.293c-38.546 71.788-63.438 151.74-85.325 323.763l-.106 2.571q-.098 2.37-.173 4.742c-.448 10.641-2.769 19.377-10.768 26.792-7.518 5.908-15.283 6.682-24.687 5.687-8.052-1.879-13.905-6.037-18.281-13.055-6.474-12.253-3.693-27.429-2.969-40.82l.13-2.406c4.662-84.151 22.382-167.292 107.69-364.269 1.332-2.282 2.65-4.572 3.965-6.864C975.157 694.036 995.274 664.77 1017 637l2.676-3.453a581 581 0 0 1 17.902-21.886q2.204-2.577 4.395-5.165a623 623 0 0 1 18.517-20.842 221 221 0 0 0 3.21-3.599c7.284-8.282 15.114-16.02 22.92-23.806q3.664-3.658 7.32-7.325l4.72-4.717 2.176-2.182a231 231 0 0 1 12.412-11.511c2.583-2.232 5.066-4.562 7.564-6.889 4.621-4.269 9.38-8.305 14.282-12.25a357 357 0 0 0 7.999-6.767 366 366 0 0 1 19.997-16.171c2.162-1.627 4.315-3.264 6.469-4.902 55.018-41.701 55.018-41.701 74.12-32.918M2165.973 1019.836c22.778-.966 41.138 9.962 58.213 23.708 2.92 2.343 5.868 4.648 8.814 6.956l3.5 2.75 1.75 1.375 75.25 59.125 1.75 1.375 3.504 2.754q4.333 3.408 8.676 6.8 3.47 2.713 6.922 5.446a572 572 0 0 0 7.734 6c17.374 13.45 28.386 29.365 32.379 51.445.273 2.15.44 4.265.535 6.43l.121 2.055c.631 20.264-6.726 38.337-19.746 53.57-7.632 8.057-16.233 13.65-26.325 18.047l-2.343 1.03c-10.403 4.528-20.96 8.676-31.508 12.853l-6.863 2.728q-9.005 3.58-18.014 7.15-10.696 4.245-21.39 8.495-8.757 3.48-17.517 6.954a5489 5489 0 0 0-33.612 13.443l-6.26 2.525q-5.796 2.34-11.586 4.7l-5.192 2.095-2.306.949c-19.893 7.973-40.849 6.356-60.459-1.594-18.652-9.012-31.577-24.823-38.732-43.958-7.61-22.333-1.858-46.837 1.447-69.5.669-4.607 1.323-9.216 1.98-13.824q1.656-11.592 3.34-23.18a9463 9463 0 0 0 3.83-26.683q1.84-12.923 3.703-25.844.787-5.46 1.564-10.923.919-6.443 1.862-12.882.34-2.343.672-4.688c2.729-19.283 6.962-37.573 20.334-52.518l1.984-2.266c13.654-14.65 32.463-21.274 51.989-22.898m-13.417 65.27c-3.896 6.377-4.355 13.804-5.343 21.065q-.356 2.46-.716 4.92c-.645 4.436-1.267 8.875-1.883 13.315-.65 4.657-1.32 9.312-1.987 13.967a7627 7627 0 0 0-3.313 23.459 7306 7306 0 0 1-3.84 27.068q-1.87 13.046-3.711 26.096-.783 5.54-1.577 11.078a2724 2724 0 0 0-1.837 13.066 921 921 0 0 1-.678 4.777c-2.538 14.403-2.538 14.403 1.454 27.958 3.298 3.974 6.838 6.73 12.063 7.41 6.848.137 12.113-1.446 18.401-4.042l3.055-1.212c3.32-1.322 6.629-2.669 9.938-4.015q3.506-1.405 7.013-2.806a4315 4315 0 0 0 16.587-6.683c6.782-2.746 13.575-5.466 20.367-8.187 20.313-8.148 40.62-16.312 60.808-24.767 8.142-3.405 16.359-6.595 24.624-9.689 6.636-2.494 11.833-5.214 15.289-11.759 1.864-5.425 1.649-11.037-.645-16.25-6.896-7.553-14.82-13.647-22.953-19.789a484 484 0 0 1-14.922-11.774 650 650 0 0 0-17.543-13.855c-5.191-3.965-10.31-8.023-15.44-12.066q-4.381-3.448-8.767-6.891l-3.5-2.75-1.75-1.375-21-16.5-3.496-2.746a3653 3653 0 0 1-8.824-6.95c-5.672-4.478-11.36-8.935-17.117-13.304l-2.887-2.195c-9.21-6.378-19.49-2.683-25.87 5.426M1597.016 1286.797c4.076 3.3 8.241 6.474 12.421 9.64 6.38 4.842 12.625 9.82 18.82 14.894 5.104 4.173 10.295 8.212 15.536 12.212 5.191 3.965 10.31 8.023 15.44 12.066q4.381 3.448 8.767 6.891l3.5 2.75 1.75 1.375 19.25 15.125 1.751 1.375 3.49 2.746a1393 1393 0 0 0 8.9 6.95c19.297 14.962 34.678 30.429 38.914 55.456 2.42 20.24-1.67 39.917-13.555 56.723-2.837 3.506-5.845 6.78-9 10l-1.758 1.867c-12.265 11.935-31.189 17.6-46.77 23.715l-6.831 2.71a8153 8153 0 0 1-17.959 7.093c-5.911 2.331-11.819 4.671-17.727 7.011q-10.519 4.169-21.042 8.322a4552 4552 0 0 0-35.144 14.022l-6.894 2.781a3804 3804 0 0 0-12.894 5.233c-23.235 9.413-45.757 14.409-69.981 4.246-17.21-7.663-31.999-21.876-39.414-39.328-6.844-18.17-6.099-35.235-3.37-54.088q.359-2.553.714-5.105c.642-4.582 1.296-9.162 1.954-13.742q.823-5.762 1.638-11.525 1.93-13.608 3.884-27.212a10114 10114 0 0 0 3.97-27.961q1.7-12.06 3.428-24.116a4739 4739 0 0 0 2.037-14.356 2565 2565 0 0 1 1.933-13.506q.356-2.46.696-4.92c3.333-24.075 11.847-44.755 31.53-60.141 34.856-24.365 71.72-13.827 102.016 10.797m-73.525 40.195c-2.084 4.203-2.577 8.312-3.225 12.93l-.47 3.15c-.527 3.558-1.037 7.118-1.546 10.678l-1.123 7.682a7611 7611 0 0 0-2.582 17.848 8969 8969 0 0 1-3.43 23.62q-2.326 15.876-4.624 31.757-1.289 8.914-2.593 17.826a5680 5680 0 0 0-2.47 17.07q-.456 3.175-.924 6.349c-3.672 18.601-3.672 18.601-.879 36.66 4.682 4.806 8.222 8.114 15.172 8.829 6.935-.095 13.132-3.065 19.453-5.641l3.621-1.43c6.308-2.498 12.578-5.086 18.837-7.703 14.762-6.165 29.589-12.144 44.465-18.027q4.944-1.956 9.888-3.917l6.693-2.653 3.377-1.34q8.6-3.409 17.21-6.797 8.459-3.33 16.906-6.694 3.186-1.264 6.38-2.514c2.958-1.158 5.909-2.333 8.859-3.512l2.62-1.011c6.733-2.726 12.758-6.141 15.894-12.965 1.392-4.595 1.341-8.59 0-13.187-3.493-6.045-8.282-10.163-13.875-14.187a1967 1967 0 0 1-4.54-3.376l-2.313-1.718c-3.583-2.71-7.052-5.553-10.522-8.407a647 647 0 0 0-17.543-13.855c-5.191-3.965-10.31-8.023-15.44-12.066q-4.381-3.448-8.767-6.891l-3.5-2.75-1.75-1.375-35.001-27.501-3.486-2.736a1293 1293 0 0 1-8.974-7.099A736 736 0 0 0 1553 1324l-2.27-1.8c-4.475-3.237-8.46-4.016-13.976-3.755-5.495 1.107-9.894 4.098-13.263 8.547M2711 1735c6.9 6.081 9.978 12.533 10.688 21.625-.298 10.39-4.794 19.886-8.688 29.375l-1.331 3.266c-24.11 58.696-55.796 114.283-95.669 163.734l-2.297 2.852A966 966 0 0 1 2607 1964l-1.28 1.542a528 528 0 0 1-19.178 21.773 285 285 0 0 0-3.386 3.775c-6.202 7.006-12.734 13.64-19.358 20.243a2504 2504 0 0 0-5.581 5.587c-5.905 5.908-11.845 11.671-18.217 17.08q-2.664 2.43-5.312 4.875a296 296 0 0 1-13.633 11.66 623 623 0 0 0-6.672 5.461c-9.162 7.575-18.6 14.65-28.299 21.521a554 554 0 0 0-5.63 4.065c-12.55 9.141-25.61 17.572-38.892 25.606l-1.806 1.097c-8.255 4.923-15.308 5.514-24.756 4.715-5.942-1.531-10.006-4.321-14-9l-2.125-2.25c-4.235-6.21-5.959-13.298-4.875-20.75 2.864-11.456 8.305-17.335 18.248-23.39l3.127-1.86q3.252-1.984 6.5-3.977l3.188-1.95c6.485-4.025 12.716-8.404 18.937-12.823l2.161-1.521c10.382-7.318 20.37-14.99 30.151-23.09 2.224-1.83 4.486-3.61 6.75-5.389 16.6-13.275 31.956-27.948 47-42.937l2.669-2.655A279 279 0 0 0 2547 1946q2.18-2.412 4.375-4.812c3.843-4.264 7.518-8.634 11.125-13.098q2.729-3.373 5.5-6.711c41.255-49.888 73.713-108.364 96.319-168.91l1.302-3.489 1.154-3.147c3.265-7.55 8.51-11.49 15.795-14.923 9.81-3.675 19.905-1.778 28.43 4.09M2012.781 1175.328c7.213 5.435 11.936 11.6 13.219 20.672.218 5.662-.369 10.526-1.879 16l-.616 2.331c-.68 2.56-1.373 5.114-2.068 7.669l-1.459 5.453q-1.18 4.412-2.368 8.82a2734 2734 0 0 0-5.508 20.79 7392 7392 0 0 1-3.992 15.192q-.98 3.724-1.948 7.451c-.916 3.518-1.846 7.031-2.78 10.544l-.81 3.152c-3.258 12.138-8.145 22.382-19.052 29.274-8.55 4.493-18.43 5.945-27.766 3.281-7.884-2.46-15.285-6.16-22.754-9.645l-7.046-3.254-4.606-2.129a1095 1095 0 0 0-17.535-7.929l-2.19-.968q-2.31-1.018-4.623-2.032c-1.905 2.858-2.762 5.004-3.784 8.247l-1.033 3.248-1.105 3.513q-1.178 3.683-2.36 7.367a2847 2847 0 0 0-3.685 11.612c-1.178 3.741-2.379 7.475-3.58 11.208l-1.08 3.477c-3.925 12.111-10.087 21.72-21.623 27.703-5.025 2.388-9.717 2.884-15.25 3l-3.969.148c-5.987-.32-11.171-3.026-16.531-5.523l-2.737-1.262a667 667 0 0 1-8.325-3.988l-3.185-1.538q-5.379-2.6-10.753-5.212l-4.1-1.99q-8.816-4.277-17.63-8.565a4475 4475 0 0 0-25.511-12.328q-3.629-1.742-7.26-3.476c-23.31-11.194-23.31-11.194-28.374-22.391-2.594-7.922-1.969-16.403 1.492-23.93 3.98-6.677 9.325-11.168 16.68-13.695 14.582-3.372 26.315 4.036 38.99 10.258q4.648 2.278 9.303 4.548 2.348 1.145 4.694 2.292c6.893 3.368 13.8 6.706 20.716 10.027l2.92 1.406c10.847 5.388 10.847 5.388 22.08 9.844l.792-3.834c1.199-5.385 2.832-10.585 4.544-15.826l.972-2.998q1.012-3.118 2.032-6.235 1.546-4.742 3.074-9.492.99-3.045 1.984-6.088l.913-2.838c4.003-12.155 9.13-22.17 20.939-28.189 5.562-2.594 9.984-3.692 16.125-3.875l3.336-.148c12.163.783 24.523 8.259 35.351 13.46q2.197 1.048 4.393 2.092a4818 4818 0 0 1 6.439 3.068A1314 1314 0 0 0 1952 1262l.631-2.772c2.9-12.593 6.105-25.104 9.378-37.605q.934-3.578 1.852-7.158c.899-3.5 1.812-6.997 2.729-10.492l.812-3.195c3.296-12.414 7.676-20.766 18.66-27.716 8.447-3.08 19.037-2.292 26.72 2.266M1231.18 701.883 1233 703l2.688 1.625c5.974 6.136 9.414 13.028 9.562 21.563-.168 9.758-2.991 15.343-9.727 22.406-3.173 3.026-6.51 5.737-9.984 8.41-3.515 2.764-6.794 5.758-10.094 8.773-2.347 2.133-4.735 4.21-7.132 6.285-3.44 3.055-6.49 6.256-9.454 9.77-2.11 2.461-4.328 4.804-6.546 7.168-38.081 41.837-59.618 96.318-68.185 151.58-1.556 9.781-3.218 17.769-11.128 24.42-8.52 5.898-15.731 6.891-26 6-7.36-2.075-12.847-6.633-17-13-11.929-23.605 3.831-63.918 11.483-87.368C1095.81 827.292 1117.86 787.353 1148 753l1.813-2.113A405 405 0 0 1 1155 745l2.566-2.883c10.843-12.044 22.612-23.191 35.434-33.117l2.91-2.254c10.526-7.919 22.88-11.492 35.27-4.863"/></svg>