<svg width="15" height="15" viewBox="0 0 15 15" fill="none" xmlns="http://www.w3.org/2000/svg">
<path d="M7.5 14.0625C5.75952 14.0625 4.09032 13.3711 2.85961 12.1404C1.6289 10.9097 0.9375 9.24048 0.9375 7.5C0.9375 5.75952 1.6289 4.09032 2.85961 2.85961C4.09032 1.6289 5.75952 0.9375 7.5 0.9375C9.24048 0.9375 10.9097 1.6289 12.1404 2.85961C13.3711 4.09032 14.0625 5.75952 14.0625 7.5C14.0625 9.24048 13.3711 10.9097 12.1404 12.1404C10.9097 13.3711 9.24048 14.0625 7.5 14.0625ZM7.5 15C9.48912 15 11.3968 14.2098 12.8033 12.8033C14.2098 11.3968 15 9.48912 15 7.5C15 5.51088 14.2098 3.60322 12.8033 2.1967C11.3968 0.790176 9.48912 0 7.5 0C5.51088 0 3.60322 0.790176 2.1967 2.1967C0.790176 3.60322 0 5.51088 0 7.5C0 9.48912 0.790176 11.3968 2.1967 12.8033C3.60322 14.2098 5.51088 15 7.5 15Z" fill="#D9D9D9"/>
<path d="M5.87906 4.73902C5.95573 4.69954 6.04181 4.68197 6.12782 4.68826C6.21383 4.69454 6.29644 4.72444 6.36656 4.77464L9.64781 7.11839C9.70858 7.16175 9.75811 7.219 9.79228 7.28537C9.82645 7.35174 9.84428 7.42531 9.84428 7.49996C9.84428 7.57461 9.82645 7.64818 9.79228 7.71454C9.75811 7.78091 9.70858 7.83816 9.64781 7.88152L6.36656 10.2253C6.29647 10.2754 6.2139 10.3053 6.12793 10.3116C6.04197 10.3179 5.95593 10.3003 5.87928 10.2609C5.80264 10.2215 5.73835 10.1617 5.69349 10.0881C5.64863 10.0144 5.62493 9.9299 5.625 9.84371V5.15621C5.62491 5.07003 5.64858 4.9855 5.6934 4.9119C5.73822 4.83831 5.80246 4.77849 5.87906 4.73902Z" fill="#D9D9D9"/>
</svg>
