<svg viewBox="0 0 26 27" fill="none" xmlns="http://www.w3.org/2000/svg">
<path fill-rule="evenodd" clip-rule="evenodd" d="M13 10C12.0717 10 11.1815 10.3687 10.5251 11.0251C9.86875 11.6815 9.5 12.5717 9.5 13.5C9.5 14.4283 9.86875 15.3185 10.5251 15.9749C11.1815 16.6313 12.0717 17 13 17C13.9283 17 14.8185 16.6313 15.4749 15.9749C16.1313 15.3185 16.5 14.4283 16.5 13.5C16.5 12.5717 16.1313 11.6815 15.4749 11.0251C14.8185 10.3687 13.9283 10 13 10ZM11.8333 13.5C11.8333 13.8094 11.9562 14.1062 12.175 14.325C12.3938 14.5437 12.6906 14.6667 13 14.6667C13.3094 14.6667 13.6062 14.5437 13.825 14.325C14.0437 14.1062 14.1667 13.8094 14.1667 13.5C14.1667 13.1906 14.0437 12.8938 13.825 12.675C13.6062 12.4562 13.3094 12.3333 13 12.3333C12.6906 12.3333 12.3938 12.4562 12.175 12.675C11.9562 12.8938 11.8333 13.1906 11.8333 13.5Z" fill="#CA9F28"/>
<path d="M4.83203 13.4997C4.83203 11.3337 5.69245 9.25652 7.22399 7.72497C8.75554 6.19342 10.8328 5.33301 12.9987 5.33301V7.66634C11.4516 7.66634 9.96787 8.28092 8.87391 9.37489C7.77995 10.4688 7.16536 11.9526 7.16536 13.4997H4.83203Z" fill="#CA9F28"/>
<path d="M13 19.3333C14.5471 19.3333 16.0308 18.7188 17.1248 17.6248C18.2188 16.5308 18.8333 15.0471 18.8333 13.5H21.1667C21.1667 15.6659 20.3063 17.7432 18.7747 19.2747C17.2432 20.8063 15.1659 21.6667 13 21.6667V19.3333Z" fill="#CA9F28"/>
<path fill-rule="evenodd" clip-rule="evenodd" d="M12.9993 0.666504C5.91185 0.666504 0.166016 6.41234 0.166016 13.4998C0.166016 20.5873 5.91185 26.3332 12.9993 26.3332C20.0868 26.3332 25.8327 20.5873 25.8327 13.4998C25.8327 6.41234 20.0868 0.666504 12.9993 0.666504ZM2.49935 13.4998C2.49935 14.8787 2.77094 16.2441 3.29861 17.518C3.82629 18.7919 4.59971 19.9494 5.57473 20.9245C6.54974 21.8995 7.70725 22.6729 8.98117 23.2006C10.2551 23.7282 11.6205 23.9998 12.9993 23.9998C14.3782 23.9998 15.7436 23.7282 17.0175 23.2006C18.2914 22.6729 19.449 21.8995 20.424 20.9245C21.399 19.9494 22.1724 18.7919 22.7001 17.518C23.2278 16.2441 23.4993 14.8787 23.4993 13.4998C23.4993 10.7151 22.3931 8.04435 20.424 6.07522C18.4548 4.10608 15.7841 2.99984 12.9993 2.99984C10.2146 2.99984 7.54386 4.10608 5.57473 6.07522C3.6056 8.04435 2.49935 10.7151 2.49935 13.4998Z" fill="#CA9F28"/>
</svg>
