<svg width="33" height="35" viewBox="0 0 33 35" fill="none" xmlns="http://www.w3.org/2000/svg">
<path d="M33 32.5491L23.782 23.1594C25.9971 20.4505 27.1017 16.976 26.866 13.4587C26.6303 9.94131 25.0725 6.65193 22.5165 4.27481C19.9606 1.89768 16.6033 0.615836 13.1431 0.695922C9.68298 0.776008 6.38635 2.21186 3.93902 4.70479C1.49169 7.19771 0.0820952 10.5558 0.00347406 14.0804C-0.0751471 17.605 1.18326 21.0248 3.5169 23.6284C5.85055 26.232 9.07976 27.8189 12.5328 28.059C15.9858 28.2991 19.3967 27.1739 22.0561 24.9175L31.2741 34.3072L33 32.5491ZM2.48486 14.4137C2.48486 12.2005 3.12915 10.037 4.33624 8.19676C5.54334 6.35656 7.25903 4.92229 9.26636 4.07534C11.2737 3.22838 13.4825 3.00678 15.6135 3.43855C17.7444 3.87033 19.7019 4.93608 21.2382 6.50105C22.7745 8.06602 23.8208 10.0599 24.2447 12.2306C24.6686 14.4012 24.451 16.6512 23.6195 18.6959C22.7881 20.7407 21.38 22.4883 19.5735 23.7179C17.767 24.9475 15.643 25.6038 13.4703 25.6038C10.5578 25.6005 7.76546 24.4205 5.70599 22.3226C3.64652 20.2248 2.48809 17.3805 2.48486 14.4137Z" fill="#B6B6CC"/>
</svg>
