<svg width="29" height="30" viewBox="0 0 29 30" fill="none" xmlns="http://www.w3.org/2000/svg">
<path d="M14.878 11.131C14.0889 11.0522 13.295 11.2219 12.605 11.6169C11.915 12.0118 11.3627 12.6127 11.0236 13.3373C10.6845 14.0618 10.5752 14.8746 10.7107 15.6644C10.8462 16.4542 11.2199 17.1823 11.7805 17.7491C12.3412 18.3159 13.0615 18.6937 13.8427 18.8307C14.624 18.9677 15.428 18.8572 16.1448 18.5144C16.8615 18.1715 17.4559 17.6132 17.8466 16.9156C18.2373 16.2181 18.4052 15.4156 18.3273 14.6179C18.2384 13.7237 17.8465 12.888 17.2178 12.2525C16.5892 11.617 15.7626 11.2208 14.878 11.131ZM24.1382 15C24.1357 15.4226 24.105 15.8445 24.0462 16.2629L26.763 18.4171C26.8813 18.5162 26.961 18.6545 26.9879 18.8074C27.0149 18.9604 26.9874 19.118 26.9102 19.2523L24.3401 23.7477C24.262 23.8807 24.14 23.9816 23.9956 24.0326C23.8511 24.0836 23.6935 24.0815 23.5505 24.0265L20.8523 22.9282C20.7035 22.8683 20.5424 22.8467 20.3833 22.8652C20.2242 22.8838 20.0721 22.9419 19.9407 23.0345C19.529 23.3211 19.0963 23.5758 18.6464 23.7963C18.5049 23.8658 18.3826 23.9694 18.2901 24.098C18.1977 24.2266 18.138 24.3763 18.1163 24.5337L17.7119 27.4429C17.6854 27.5966 17.6068 27.7361 17.4898 27.8377C17.3727 27.9393 17.2244 27.9967 17.0701 28H11.9299C11.7782 27.9973 11.6319 27.9425 11.5151 27.8446C11.3983 27.7466 11.318 27.6114 11.2875 27.4612L10.8837 24.5562C10.861 24.397 10.7997 24.2459 10.7054 24.1164C10.611 23.9869 10.4865 23.883 10.3428 23.8139C9.89347 23.5946 9.46223 23.3393 9.05326 23.0503C8.92231 22.9582 8.77076 22.9005 8.61225 22.8823C8.45374 22.8642 8.29326 22.8862 8.14527 22.9464L5.44773 24.0441C5.30478 24.0991 5.1472 24.1014 5.00276 24.0505C4.85831 23.9996 4.73627 23.8988 4.65812 23.7659L2.08799 19.2706C2.01072 19.1363 1.9831 18.9786 2.01006 18.8256C2.03703 18.6727 2.11681 18.5343 2.23521 18.4353L4.53133 16.6128C4.65712 16.5119 4.75599 16.3808 4.81895 16.2314C4.88192 16.0821 4.90699 15.9192 4.89188 15.7575C4.87025 15.5042 4.85703 15.2515 4.85703 14.9982C4.85703 14.7449 4.86965 14.4958 4.89188 14.2479C4.90533 14.0873 4.87904 13.9258 4.81536 13.7779C4.75169 13.6301 4.65263 13.5006 4.52712 13.4011L2.23221 11.5787C2.11573 11.4791 2.03762 11.3413 2.01158 11.1893C1.98554 11.0374 2.01323 10.881 2.08979 10.7477L4.65993 6.25234C4.73798 6.11929 4.85998 6.01837 5.00443 5.96736C5.14889 5.91635 5.30652 5.91853 5.44954 5.9735L8.14767 7.07182C8.29646 7.13171 8.45762 7.15335 8.61672 7.13479C8.77582 7.11624 8.92787 7.05808 9.05927 6.96551C9.47105 6.67886 9.90375 6.4242 10.3536 6.20374C10.4951 6.13424 10.6174 6.03061 10.7099 5.90199C10.8023 5.77337 10.862 5.62373 10.8837 5.46626L11.2881 2.55706C11.3146 2.40341 11.3932 2.26387 11.5102 2.16226C11.6273 2.06066 11.7756 2.0033 11.9299 2H17.0701C17.2218 2.00265 17.3681 2.05747 17.4849 2.15541C17.6017 2.25336 17.682 2.38859 17.7125 2.53883L18.1163 5.44379C18.139 5.60298 18.2003 5.75405 18.2946 5.88356C18.389 6.01307 18.5135 6.117 18.6572 6.18612C19.1065 6.40539 19.5378 6.66075 19.9467 6.94972C20.0777 7.04182 20.2292 7.09954 20.3878 7.11767C20.5463 7.13581 20.7067 7.11379 20.8547 7.0536L23.5523 5.95589C23.6952 5.90086 23.8528 5.89859 23.9972 5.94949C24.1417 6.00038 24.2637 6.10118 24.3419 6.23411L26.912 10.7294C26.9893 10.8637 27.0169 11.0214 26.9899 11.1744C26.963 11.3273 26.8832 11.4657 26.7648 11.5647L24.4687 13.3871C24.3423 13.4878 24.2429 13.6187 24.1794 13.7681C24.1159 13.9175 24.0904 14.0806 24.1051 14.2425C24.1249 14.494 24.1382 14.7467 24.1382 15Z" stroke="#B6B6CC" stroke-width="2.5" stroke-linecap="round" stroke-linejoin="round"/>
</svg>
