<svg xmlns="http://www.w3.org/2000/svg" width="150" height="150"><path d="M74.29 7.313c6.425-.106 12.82.8 19.022 2.355l.485.117c8.973 2.29 17.937 6.746 24.937 12.578.532.442 1.075.871 1.621 1.301 1.16.934 2.243 1.934 3.313 2.961q.451.439.91.871a40 40 0 0 1 3.27 3.504q.228.259.457.512c2.136 2.379 3.949 4.98 5.648 7.656q.123.188.246.383c1.356 2.136 2.508 4.344 3.59 6.617q.093.194.191.387c6.227 12.98 7.297 28.12 1.657 48.98a65 65 0 0 1-3.414 7.309c-.188.34-.368.68-.551 1.023-1.317 2.442-2.844 4.73-4.508 6.965q-.168.228-.344.461c-1.332 1.773-2.722 3.492-4.28 5.09-.34.351-.665.707-.993 1.066-.75.824-1.555 1.602-2.363 2.375-.157.145-.309.293-.47.446-.91.863-1.827 1.683-2.843 2.433-.383.29-.734.594-1.094.91-9.015 7.739-21.394 12.5-33.226 14.274q-.245.034-.496.074c-3.285.457-6.563.601-9.88.59h-.59c-3.089-.008-6.116-.113-9.179-.551l-.601-.086c-11.575-1.668-22.899-6.172-32.016-13.246l-.473-.367c-.484-.371-.964-.754-1.445-1.133l-.5-.387c-1.508-1.176-2.887-2.48-4.262-3.793l-.297-.277A42 42 0 0 1 22.325 115l-.562-.645C15.57 107.254 11.328 98.867 8.722 90l-.117-.39C4.953 77.007 5.79 63.104 15.348 40.5c2.574-4.316 5.714-8.258 9.207-11.926q.414-.437.824-.875c.754-.808 1.512-1.566 2.379-2.265.32-.262.61-.54.902-.829.64-.625 1.34-1.164 2.05-1.71.5-.387.99-.786 1.481-1.188 3.184-2.531 6.7-4.64 10.344-6.512q.526-.274 1.05-.562c9.278-4.961 20.177-7.008 30.704-7.32m0 0" style="stroke:none;fill-rule:nonzero;fill:#3d3c65;fill-opacity:1"/><path d="M92.965 51.332c.176.043.176.043.36.082 4.05.941 7.593 2.91 10.554 5.688q.336.31.676.609c3.375 3.043 5.875 7.805 6.254 12.242 0 .41-.008.805-.055 1.215.164-.047.324-.094.492-.14l.656-.184c.211-.059.422-.121.641-.18 3.523-.875 7.137-.375 10.277 1.32.793.45 1.528.957 2.239 1.516l.332.262c1.566 1.36 2.648 3.351 3.332 5.238q.08.216.168.441c.722 2.235.636 5.028-.168 7.227q-.075.228-.149.46c-.656 1.927-1.867 3.438-3.34 4.872-.109.105-.214.207-.324.316-3.308 2.985-7.625 3.235-11.93 3.23h-1.105q-1.49.006-2.98.005h-2.493q-2.934.006-5.875 0-3.03.001-6.058.008c-1.739 0-3.473.004-5.211.004-1.035-.004-2.074 0-3.11 0q-1.458.005-2.918 0h-1.07q-.733.005-1.46 0-.216.002-.43.003c-.801-.007-1.325-.086-1.957-.566-.36-.516-.391-.621-.391-1.207q-.005-.217-.004-.438v-.992q-.005-.85-.004-1.703.001-.609-.004-1.219c-.004-.992-.004-1.98-.004-2.972v-2.414q-.008-3.423-.004-6.844v-.746q0-2.994-.011-5.988c-.004-2.051-.004-4.098-.004-6.149q-.001-1.723-.008-3.453v-4.437q-.006-.813 0-1.626c0-.16-.004-.316-.004-.48.012-1.062.012-1.062.426-1.59 1.144-.762 2.535-1.035 3.87-1.355.15-.035.298-.075.45-.11 3.32-.777 7.027-.742 10.344.055m0 0" style="stroke:none;fill-rule:nonzero;fill:#fefefd;fill-opacity:1"/><path d="M75.078 53.73c.8.133 1.004.313 1.492.938.137.59.13 1.18.13 1.785l.01.582q.013.677.024 1.352.02 1.3.055 2.605.076 3.223.14 6.446.007.285.012.578c.344 17.101.344 17.101-.195 24.652q-.023.28-.039.566-.02.247-.039.5l-.031.414c-.067.352-.067.352-.438.883-.64.387-.98.43-1.722.301-.692-.637-.805-1.152-.88-2.055l-.034-.379q-.049-.649-.09-1.293-.013-.233-.032-.472c-.664-10.121-.18-20.36.133-30.485.02-.753.04-1.503.051-2.257q.007-.518.02-1.036c.011-.414.015-.828.02-1.238.034-1.316.034-1.316.433-1.988.379-.297.379-.297.98-.399m0 0" style="stroke:none;fill-rule:nonzero;fill:#fcfcfb;fill-opacity:1"/><path d="M70.52 56.281c.644.051.644.051 1.023.328.398.493.418.75.441 1.371l.012.32c.02.4.027.802.04 1.2.01.355.023.707.03 1.063q.054 1.785.094 3.574c.012.605.028 1.21.04 1.816q.04 1.526.073 3.05.037 1.753.079 3.505l.082 3.398q.018.714.03 1.434c.157 6.625.157 6.625-.015 9.195l-.035.535-.07 1.102q-.051.837-.11 1.676-.03.543-.066 1.082l-.035.5q-.046.698-.098 1.402L72 93.34l-.035.496-.035.445c-.07.387-.07.387-.45.926-.492.293-.492.293-1.027.313-.648-.239-.836-.457-1.207-1.02a9 9 0 0 1-.144-1.406l-.024-.426q-.029-.704-.05-1.406-.023-.511-.04-1.016c-.152-4.082-.133-8.164-.093-12.246q.004-.186.003-.379.061-5.916.157-11.84.022-1.501.039-3.008.014-1.044.035-2.09l.012-.917q.006-.605.02-1.215l.01-.66c.114-.883.395-1.524 1.349-1.61m0 0" style="stroke:none;fill-rule:nonzero;fill:#fcfbfb;fill-opacity:1"/><path d="M62.094 59.832c.402.273.508.438.605.902q.017.245.028.496l.035.594q.017.336.027.676c.008.121.012.246.02.371q.063 1.536.113 3.078l.035 1.012.07 2.125q.034 1.066.075 2.133c.457 13.015.457 13.015-.04 18.918l-.07.945c-.062.809-.125 1.613-.203 2.418-.008.125-.02.246-.031.375-.094.91-.094.91-.535 1.387-.477.238-.477.238-.946.226-.406-.156-.406-.156-.754-.656-.078-.45-.132-.887-.175-1.344-.012-.144-.028-.289-.04-.437a69 69 0 0 1-.132-1.551c-.028-.297-.028-.297-.051-.602-.21-2.695-.328-5.382-.324-8.085v-.43c.004-3.848.117-7.692.23-11.535q.044-1.537.086-3.078.03-1.202.067-2.403.018-.569.03-1.137l.048-1.574c.004-.23.004-.23.011-.465.028-.785.082-1.464.426-2.191.489-.234.856-.207 1.395-.168m0 0" style="stroke:none;fill-rule:nonzero;fill:#fbfbfa;fill-opacity:1"/><path d="M66.3 60.5c.598.2.723.313 1.024.832.055.445.078.855.078 1.3.004.134.004.266.008.403q.007.444.008.883c.008.82.023 1.645.039 2.465l.008.543a231 231 0 0 0 .133 4.683q.029.676.05 1.356c.204 5.59.293 11.133.024 16.726l-.059 1.278a92 92 0 0 1-.09 1.793q-.005.268-.02.547c-.05.8-.081 1.234-.593 1.894-.457.297-.457.297-1 .309-.601-.211-.719-.317-1.027-.844-.106-.496-.133-.992-.164-1.496q-.018-.222-.035-.457c-.036-.508-.063-1.012-.094-1.516l-.035-.531c-.344-5.563-.32-11.16-.07-16.73.085-1.954.109-3.91.148-5.868.015-.972.039-1.949.066-2.922q.011-.493.016-.98.013-.727.031-1.453c.004-.149.004-.293.004-.445.035-.997.035-.997.543-1.532.46-.238.46-.238 1.008-.238M57.035 59.262c.582.078.7.14 1.047.57.074.34.074.34.09.734.004.153.012.301.02.457l.011.5.024.528.058 1.742q.024.61.043 1.227.048 1.29.09 2.585.053 1.624.117 3.247c.48 13.171.48 13.171-.008 19.074l-.07.953c-.062.816-.125 1.637-.203 2.453l-.035.414c-.012.133-.028.27-.04.406l-.034.364c-.063.316-.063.316-.368.754-.394.23-.394.23-.84.23-.539-.21-.664-.348-.949-.832-.105-.512-.133-1.02-.164-1.535l-.035-.473q-.052-.78-.094-1.555l-.035-.543c-.18-2.933-.242-5.863-.238-8.8v-.555c.004-2.137.058-4.266.152-6.398.094-2.239.125-4.48.16-6.72q.037-1.963.078-3.921c.004-.195.008-.39.016-.594q.018-.862.047-1.73l.012-.532q.005-.246.015-.492l.012-.433c.133-.696.387-1.024 1.121-1.125m0 0" style="stroke:none;fill-rule:nonzero;fill:#fcfcfb;fill-opacity:1"/><path d="M52.586 60.105c.437.063.437.063.719.239.36.476.34.96.355 1.527.008.125.012.25.02.379q.029.643.05 1.281.022.464.043.922c.036.879.067 1.754.102 2.629.02.61.047 1.223.07 1.832.305 7.879.594 15.742-.164 23.606l-.105 1.187-.035.453c-.012.125-.02.246-.032.371-.097.469-.363.7-.761.969-.508-.18-.832-.297-1.22-.668-.062-.336-.062-.336-.085-.754q-.016-.235-.031-.476c-.012-.254-.012-.254-.028-.516-.007-.176-.02-.352-.03-.535q-.053-.851-.099-1.696-.047-.841-.101-1.68l-.059-1.046a67 67 0 0 0-.183-2.5c-.227-2.527-.051-5.078.058-7.606a443 443 0 0 0 .328-10.316c.036-1.644.036-1.644.07-3.289q.023-.971.052-1.938c.003-.183.007-.363.007-.55q.011-.246.016-.492l.012-.422c.125-.594.414-.825 1.03-.91m0 0" style="stroke:none;fill-rule:nonzero;fill:#fbfbfa;fill-opacity:1"/><path d="M48.238 62.02c.426.148.426.148.774.648.054.348.054.348.074.758l.047.992.023.547.082 1.797q.024.628.055 1.25l.117 2.636q.07 1.677.153 3.352.06 1.296.113 2.594l.058 1.234c.141 3.172.254 6.313-.023 9.477-.02.218-.035.433-.055.656l-.117 1.348q-.075.861-.144 1.722c-.043.555-.094 1.106-.141 1.66-.016.207-.031.41-.05.621q-.027.286-.052.579-.023.246-.043.504c-.109.484-.28.738-.62 1.105-.829-.125-.829-.125-1.223-.5-.067-.328-.067-.328-.102-.738-.016-.153-.027-.309-.043-.465-.012-.172-.027-.34-.039-.516l-.047-.543-.094-1.152q-.065-.843-.14-1.68c-.508-6.11-.223-12.25.039-18.36q.056-1.423.113-2.847c.027-.742.059-1.48.09-2.222q.02-.523.039-1.051.03-.728.063-1.45l.011-.433c.051-.969.051-.969.352-1.336.281-.207.281-.207.73-.187m0 0" style="stroke:none;fill-rule:nonzero;fill:#fcfbfb;fill-opacity:1"/><path d="M43.867 65.95c.215.023.215.023.434.05.379.543.398.71.41 1.34q.005.256.016.523l.011.575q.076 2.635.258 5.265l.047.695q.093 1.414.191 2.829c.282 4.085.301 7.992-.066 12.078l-.148 1.73q-.07.834-.145 1.668-.026.31-.05.625-.028.287-.055.578-.02.251-.043.508c-.075.418-.075.418-.426.918-.434.055-.434.055-.871 0-.414-.394-.403-.512-.45-1.05-.011-.153-.027-.302-.039-.454a19 19 0 0 1-.039-.492q-.022-.251-.047-.508-.069-.81-.132-1.621l-.094-1.066-.211-2.543c-.027-.364-.063-.73-.094-1.098-.222-2.586-.113-5.172.031-7.758l.047-.855.094-1.778q.063-1.126.125-2.257.06-1.09.117-2.184c.008-.133.012-.27.02-.406l.129-2.25c.011-.23.027-.465.039-.696.015-.328.039-.656.058-.984q.013-.276.032-.562c.09-.586.23-.747.851-.82M39.07 72.668c.29.055.575.11.871.164.43.996.485 2.02.582 3.078q.024.304.059.613l.117 1.29q.088.972.188 1.945c.191 2.027.355 4.004.14 6.035q-.069.65-.113 1.305c-.07.855-.14 1.71-.219 2.566-.047.527-.09 1.059-.133 1.586a90 90 0 0 0-.128 1.496c-.079.848-.215 1.61-.493 2.422-.328.102-.328.102-.695.164-.488-.465-.45-.82-.527-1.473l-.047-.355c-.547-4.684-.89-9.422-.504-14.125.023-.262.023-.262.043-.527l.14-1.633q.022-.264.044-.54l.14-1.527.04-.465c.07-.73.148-1.355.495-2.019m0 0" style="stroke:none;fill-rule:nonzero;fill:#fbfafa;fill-opacity:1"/><path d="m34.883 71.832.699.168c.324 1.355.477 2.71.61 4.094.023.23.042.457.066.687.047.461.09.926.133 1.387q.086.915.18 1.816l.1 1.059c.017.152.032.3.048.46.254 2.821-.168 5.7-.457 8.505q-.089.872-.172 1.75-.06.556-.117 1.113c-.024.258-.024.258-.051.524q-.023.239-.05.484-.02.21-.044.426c-.074.363-.074.363-.422.863-.336-.063-.336-.063-.695-.168-.227-.426-.234-.781-.277-1.258-.016-.191-.036-.387-.051-.586l-.055-.64q-.03-.323-.058-.657-.062-.691-.122-1.379l-.152-1.753a246 246 0 0 1-.148-1.688q-.031-.311-.055-.629c-.18-2.082-.125-4.101.047-6.183l.058-.68.118-1.418q.076-.909.148-1.817l.117-1.402.082-.996q.025-.3.051-.605l.047-.536c.074-.441.074-.441.422-.941m0 0" style="stroke:none;fill-rule:nonzero;fill:#fafaf9;fill-opacity:1"/><path d="m30.523 72.332.872.168c.14 1.234.277 2.473.41 3.707q.093.86.191 1.723c.461 4.132.402 7.855-.078 11.988l-.152 1.336q-.183 1.623-.371 3.246l-.872.168c-.234-.445-.242-.844-.293-1.34q-.033-.31-.066-.633c-.02-.226-.043-.457-.066-.683-.012-.117-.024-.23-.035-.352-.16-1.633-.313-3.273-.446-4.91q-.019-.26-.043-.523c-.215-2.793 0-5.508.266-8.29q.063-.66.125-1.324l.176-1.925c.02-.196.035-.395.054-.598.02-.184.035-.367.055-.555.016-.16.027-.32.043-.484.055-.383.055-.383.23-.719m0 0" style="stroke:none;fill-rule:nonzero;fill:#faf9f9;fill-opacity:1"/><path d="M26.336 74.168h.7c.874 5.684 1.265 10.707.323 16.394A40 40 0 0 0 27.035 93h-.7c-.315-1.484-.503-2.973-.67-4.477l-.142-1.214c-.3-2.563-.234-5.008.047-7.567l.14-1.324c.15-1.43.313-2.844.626-4.25m0 0" style="stroke:none;fill-rule:nonzero;fill:#fbfafa;fill-opacity:1"/><path d="M22.5 77.668q.256.083.523.164.188.978.372 1.957.095.492.19.984c.423 2.266.313 4.176-.124 6.434l-.129.672q-.151.813-.309 1.621h-.699c-.781-4.027-.969-7.64 0-11.668zm0 0" style="stroke:none;fill-rule:nonzero;fill:#faf9f9;fill-opacity:1"/></svg>