<?xml version="1.0" encoding="UTF-8"?>
<svg xmlns="http://www.w3.org/2000/svg" xmlns:xlink="http://www.w3.org/1999/xlink" width="150px" height="150px" viewBox="0 0 150 150" version="1.1">
<g id="surface1">
<path style=" stroke:none;fill-rule:nonzero;fill:rgb(23.921569%,23.529412%,39.607843%);fill-opacity:1;" d="M 74.289062 7.3125 C 80.714844 7.207031 87.109375 8.113281 93.3125 9.667969 C 93.554688 9.726562 93.554688 9.726562 93.796875 9.785156 C 102.769531 12.074219 111.734375 16.53125 118.734375 22.363281 C 119.265625 22.804688 119.808594 23.234375 120.355469 23.664062 C 121.515625 24.597656 122.597656 25.597656 123.667969 26.625 C 123.96875 26.917969 124.273438 27.207031 124.578125 27.496094 C 125.75 28.613281 126.824219 29.757812 127.847656 31 C 128 31.171875 128.152344 31.34375 128.304688 31.511719 C 130.441406 33.890625 132.253906 36.492188 133.953125 39.167969 C 134.035156 39.292969 134.117188 39.421875 134.199219 39.550781 C 135.554688 41.6875 136.707031 43.894531 137.789062 46.167969 C 137.851562 46.296875 137.914062 46.425781 137.980469 46.554688 C 144.207031 59.535156 145.277344 74.675781 139.636719 95.535156 C 138.65625 98.039062 137.511719 100.472656 136.222656 102.84375 C 136.035156 103.183594 135.855469 103.523438 135.671875 103.867188 C 134.355469 106.308594 132.828125 108.597656 131.164062 110.832031 C 131.050781 110.984375 130.9375 111.136719 130.820312 111.292969 C 129.488281 113.066406 128.097656 114.785156 126.539062 116.382812 C 126.199219 116.734375 125.875 117.089844 125.546875 117.449219 C 124.796875 118.273438 123.992188 119.050781 123.183594 119.824219 C 123.027344 119.96875 122.875 120.117188 122.714844 120.269531 C 121.804688 121.132812 120.886719 121.953125 119.871094 122.703125 C 119.488281 122.992188 119.136719 123.296875 118.777344 123.613281 C 109.761719 131.351562 97.382812 136.113281 85.550781 137.886719 C 85.386719 137.910156 85.222656 137.933594 85.054688 137.960938 C 81.769531 138.417969 78.492188 138.5625 75.175781 138.550781 C 74.980469 138.550781 74.785156 138.550781 74.585938 138.550781 C 71.496094 138.542969 68.46875 138.4375 65.40625 138 C 65.109375 137.957031 65.109375 137.957031 64.804688 137.914062 C 53.230469 136.246094 41.90625 131.742188 32.789062 124.667969 C 32.632812 124.546875 32.476562 124.425781 32.316406 124.300781 C 31.832031 123.929688 31.351562 123.546875 30.871094 123.167969 C 30.625 122.976562 30.625 122.976562 30.371094 122.78125 C 28.863281 121.605469 27.484375 120.300781 26.109375 118.988281 C 26.011719 118.898438 25.914062 118.804688 25.8125 118.710938 C 24.566406 117.527344 23.414062 116.316406 22.324219 115 C 22.136719 114.785156 21.949219 114.570312 21.761719 114.355469 C 15.570312 107.253906 11.328125 98.867188 8.722656 90 C 8.683594 89.871094 8.644531 89.742188 8.605469 89.609375 C 4.953125 77.007812 5.789062 63.105469 15.347656 40.5 C 17.921875 36.183594 21.0625 32.242188 24.554688 28.574219 C 24.832031 28.28125 25.105469 27.992188 25.378906 27.699219 C 26.132812 26.890625 26.890625 26.132812 27.757812 25.433594 C 28.078125 25.171875 28.367188 24.894531 28.660156 24.605469 C 29.300781 23.980469 30 23.441406 30.710938 22.894531 C 31.210938 22.507812 31.699219 22.109375 32.191406 21.707031 C 35.375 19.175781 38.890625 17.066406 42.535156 15.195312 C 42.886719 15.011719 43.234375 14.824219 43.585938 14.632812 C 52.863281 9.671875 63.761719 7.625 74.289062 7.3125 Z M 74.289062 7.3125 "/>
<path style=" stroke:none;fill-rule:nonzero;fill:rgb(99.607843%,99.607843%,99.215686%);fill-opacity:1;" d="M 92.964844 51.332031 C 93.140625 51.375 93.140625 51.375 93.324219 51.414062 C 97.375 52.355469 100.917969 54.324219 103.878906 57.101562 C 104.101562 57.308594 104.328125 57.511719 104.554688 57.710938 C 107.929688 60.753906 110.429688 65.515625 110.808594 69.953125 C 110.808594 70.363281 110.800781 70.757812 110.753906 71.167969 C 110.917969 71.121094 111.078125 71.074219 111.246094 71.027344 C 111.570312 70.9375 111.570312 70.9375 111.902344 70.84375 C 112.113281 70.785156 112.324219 70.722656 112.542969 70.664062 C 116.066406 69.789062 119.679688 70.289062 122.820312 71.984375 C 123.613281 72.433594 124.347656 72.941406 125.058594 73.5 C 125.167969 73.585938 125.277344 73.671875 125.390625 73.761719 C 126.957031 75.121094 128.039062 77.113281 128.722656 79 C 128.777344 79.144531 128.832031 79.289062 128.890625 79.441406 C 129.613281 81.675781 129.527344 84.46875 128.722656 86.667969 C 128.671875 86.820312 128.625 86.972656 128.574219 87.128906 C 127.917969 89.054688 126.707031 90.566406 125.234375 92 C 125.125 92.105469 125.019531 92.207031 124.910156 92.316406 C 121.601562 95.300781 117.285156 95.550781 112.980469 95.546875 C 112.613281 95.546875 112.242188 95.546875 111.875 95.546875 C 110.882812 95.550781 109.886719 95.550781 108.894531 95.550781 C 108.0625 95.550781 107.234375 95.550781 106.402344 95.550781 C 104.445312 95.554688 102.488281 95.554688 100.527344 95.550781 C 98.507812 95.550781 96.488281 95.554688 94.46875 95.558594 C 92.730469 95.558594 90.996094 95.5625 89.257812 95.5625 C 88.222656 95.558594 87.183594 95.5625 86.148438 95.5625 C 85.175781 95.566406 84.203125 95.566406 83.230469 95.5625 C 82.871094 95.5625 82.515625 95.5625 82.160156 95.5625 C 81.671875 95.566406 81.183594 95.566406 80.699219 95.5625 C 80.554688 95.5625 80.414062 95.566406 80.269531 95.566406 C 79.46875 95.558594 78.945312 95.480469 78.3125 95 C 77.953125 94.484375 77.921875 94.378906 77.921875 93.792969 C 77.917969 93.648438 77.917969 93.503906 77.917969 93.355469 C 77.917969 93.199219 77.917969 93.039062 77.917969 92.875 C 77.917969 92.707031 77.917969 92.539062 77.917969 92.363281 C 77.914062 91.796875 77.914062 91.226562 77.914062 90.660156 C 77.914062 90.253906 77.914062 89.847656 77.910156 89.441406 C 77.90625 88.449219 77.90625 87.460938 77.90625 86.46875 C 77.90625 85.664062 77.90625 84.859375 77.90625 84.054688 C 77.902344 81.773438 77.898438 79.492188 77.902344 77.210938 C 77.902344 77.089844 77.902344 76.964844 77.902344 76.839844 C 77.902344 76.714844 77.902344 76.59375 77.902344 76.464844 C 77.902344 74.46875 77.898438 72.472656 77.890625 70.476562 C 77.886719 68.425781 77.886719 66.378906 77.886719 64.328125 C 77.886719 63.179688 77.882812 62.027344 77.878906 60.875 C 77.878906 59.792969 77.878906 58.710938 77.878906 57.628906 C 77.878906 57.234375 77.878906 56.835938 77.878906 56.4375 C 77.875 55.894531 77.875 55.355469 77.878906 54.8125 C 77.878906 54.652344 77.875 54.496094 77.875 54.332031 C 77.886719 53.269531 77.886719 53.269531 78.300781 52.742188 C 79.445312 51.980469 80.835938 51.707031 82.171875 51.386719 C 82.320312 51.351562 82.46875 51.3125 82.621094 51.277344 C 85.941406 50.5 89.648438 50.535156 92.964844 51.332031 Z M 92.964844 51.332031 "/>
<path style=" stroke:none;fill-rule:nonzero;fill:rgb(98.823529%,98.823529%,98.431373%);fill-opacity:1;" d="M 75.078125 53.730469 C 75.878906 53.863281 76.082031 54.042969 76.570312 54.667969 C 76.707031 55.257812 76.699219 55.847656 76.699219 56.453125 C 76.703125 56.644531 76.707031 56.835938 76.710938 57.035156 C 76.71875 57.484375 76.726562 57.9375 76.734375 58.386719 C 76.746094 59.253906 76.765625 60.121094 76.789062 60.992188 C 76.839844 63.140625 76.886719 65.289062 76.929688 67.4375 C 76.933594 67.628906 76.9375 67.820312 76.941406 68.015625 C 77.285156 85.117188 77.285156 85.117188 76.746094 92.667969 C 76.730469 92.855469 76.71875 93.042969 76.707031 93.234375 C 76.695312 93.398438 76.679688 93.566406 76.667969 93.734375 C 76.652344 93.941406 76.652344 93.941406 76.636719 94.148438 C 76.570312 94.5 76.570312 94.5 76.199219 95.03125 C 75.558594 95.417969 75.21875 95.460938 74.476562 95.332031 C 73.785156 94.695312 73.671875 94.179688 73.597656 93.277344 C 73.585938 93.152344 73.574219 93.027344 73.5625 92.898438 C 73.53125 92.464844 73.5 92.035156 73.472656 91.605469 C 73.464844 91.449219 73.453125 91.292969 73.441406 91.132812 C 72.777344 81.011719 73.261719 70.773438 73.574219 60.648438 C 73.59375 59.894531 73.613281 59.144531 73.625 58.390625 C 73.628906 58.046875 73.636719 57.699219 73.644531 57.355469 C 73.65625 56.941406 73.660156 56.527344 73.664062 56.117188 C 73.699219 54.800781 73.699219 54.800781 74.097656 54.128906 C 74.476562 53.832031 74.476562 53.832031 75.078125 53.730469 Z M 75.078125 53.730469 "/>
<path style=" stroke:none;fill-rule:nonzero;fill:rgb(98.823529%,98.431373%,98.431373%);fill-opacity:1;" d="M 70.519531 56.28125 C 71.164062 56.332031 71.164062 56.332031 71.542969 56.609375 C 71.941406 57.101562 71.960938 57.359375 71.984375 57.980469 C 71.988281 58.085938 71.992188 58.191406 71.996094 58.300781 C 72.015625 58.699219 72.023438 59.101562 72.035156 59.5 C 72.046875 59.855469 72.058594 60.207031 72.066406 60.5625 C 72.101562 61.753906 72.132812 62.945312 72.160156 64.136719 C 72.171875 64.742188 72.1875 65.347656 72.199219 65.953125 C 72.226562 66.96875 72.25 67.988281 72.273438 69.003906 C 72.296875 70.171875 72.324219 71.339844 72.351562 72.507812 C 72.378906 73.640625 72.40625 74.773438 72.433594 75.90625 C 72.445312 76.382812 72.457031 76.859375 72.464844 77.339844 C 72.621094 83.964844 72.621094 83.964844 72.449219 86.535156 C 72.4375 86.710938 72.425781 86.886719 72.414062 87.070312 C 72.390625 87.4375 72.367188 87.804688 72.34375 88.171875 C 72.308594 88.730469 72.273438 89.289062 72.234375 89.847656 C 72.214844 90.210938 72.191406 90.570312 72.167969 90.929688 C 72.15625 91.09375 72.144531 91.257812 72.132812 91.429688 C 72.101562 91.894531 72.070312 92.363281 72.035156 92.832031 C 72.023438 93 72.011719 93.167969 72 93.339844 C 71.988281 93.503906 71.976562 93.667969 71.964844 93.835938 C 71.953125 93.980469 71.941406 94.128906 71.929688 94.28125 C 71.859375 94.667969 71.859375 94.667969 71.480469 95.207031 C 70.988281 95.5 70.988281 95.5 70.453125 95.519531 C 69.804688 95.28125 69.617188 95.0625 69.246094 94.5 C 69.160156 94.011719 69.113281 93.582031 69.101562 93.09375 C 69.09375 92.953125 69.085938 92.8125 69.078125 92.667969 C 69.058594 92.199219 69.042969 91.730469 69.027344 91.261719 C 69.011719 90.921875 69 90.582031 68.988281 90.246094 C 68.835938 86.164062 68.855469 82.082031 68.894531 78 C 68.898438 77.875 68.898438 77.75 68.898438 77.621094 C 68.9375 73.675781 68.992188 69.730469 69.054688 65.78125 C 69.070312 64.78125 69.082031 63.777344 69.09375 62.773438 C 69.105469 62.078125 69.113281 61.378906 69.128906 60.683594 C 69.132812 60.378906 69.136719 60.074219 69.140625 59.765625 C 69.144531 59.363281 69.152344 58.957031 69.160156 58.550781 C 69.164062 58.332031 69.167969 58.113281 69.171875 57.890625 C 69.285156 57.007812 69.566406 56.367188 70.519531 56.28125 Z M 70.519531 56.28125 "/>
<path style=" stroke:none;fill-rule:nonzero;fill:rgb(98.431373%,98.431373%,98.039216%);fill-opacity:1;" d="M 62.09375 59.832031 C 62.496094 60.105469 62.601562 60.269531 62.699219 60.734375 C 62.710938 60.898438 62.71875 61.0625 62.726562 61.230469 C 62.738281 61.425781 62.75 61.621094 62.761719 61.824219 C 62.773438 62.046875 62.78125 62.273438 62.789062 62.5 C 62.796875 62.621094 62.800781 62.746094 62.808594 62.871094 C 62.851562 63.894531 62.886719 64.921875 62.921875 65.949219 C 62.933594 66.285156 62.945312 66.625 62.957031 66.960938 C 62.980469 67.667969 63.003906 68.378906 63.027344 69.085938 C 63.050781 69.796875 63.074219 70.507812 63.101562 71.21875 C 63.558594 84.234375 63.558594 84.234375 63.0625 90.136719 C 63.039062 90.453125 63.015625 90.765625 62.992188 91.082031 C 62.929688 91.890625 62.867188 92.695312 62.789062 93.5 C 62.78125 93.625 62.769531 93.746094 62.757812 93.875 C 62.664062 94.785156 62.664062 94.785156 62.222656 95.261719 C 61.746094 95.5 61.746094 95.5 61.277344 95.488281 C 60.871094 95.332031 60.871094 95.332031 60.523438 94.832031 C 60.445312 94.382812 60.390625 93.945312 60.347656 93.488281 C 60.335938 93.34375 60.320312 93.199219 60.308594 93.050781 C 60.257812 92.535156 60.214844 92.015625 60.175781 91.5 C 60.148438 91.203125 60.148438 91.203125 60.125 90.898438 C 59.914062 88.203125 59.796875 85.515625 59.800781 82.8125 C 59.800781 82.667969 59.800781 82.527344 59.800781 82.382812 C 59.804688 78.535156 59.917969 74.691406 60.03125 70.847656 C 60.058594 69.824219 60.089844 68.796875 60.117188 67.769531 C 60.136719 66.96875 60.160156 66.167969 60.183594 65.367188 C 60.195312 64.988281 60.207031 64.609375 60.214844 64.230469 C 60.230469 63.707031 60.246094 63.183594 60.261719 62.65625 C 60.265625 62.425781 60.265625 62.425781 60.273438 62.191406 C 60.300781 61.40625 60.355469 60.726562 60.699219 60 C 61.1875 59.765625 61.554688 59.792969 62.09375 59.832031 Z M 62.09375 59.832031 "/>
<path style=" stroke:none;fill-rule:nonzero;fill:rgb(98.823529%,98.823529%,98.431373%);fill-opacity:1;" d="M 66.300781 60.5 C 66.898438 60.699219 67.023438 60.8125 67.324219 61.332031 C 67.378906 61.777344 67.402344 62.1875 67.402344 62.632812 C 67.40625 62.765625 67.40625 62.898438 67.410156 63.035156 C 67.414062 63.332031 67.417969 63.625 67.417969 63.917969 C 67.425781 64.738281 67.441406 65.5625 67.457031 66.382812 C 67.460938 66.652344 67.460938 66.652344 67.464844 66.925781 C 67.488281 68.375 67.535156 69.824219 67.585938 71.273438 C 67.589844 71.382812 67.59375 71.492188 67.597656 71.609375 C 67.617188 72.058594 67.632812 72.511719 67.648438 72.964844 C 67.851562 78.554688 67.941406 84.097656 67.671875 89.691406 C 67.652344 90.117188 67.632812 90.542969 67.613281 90.96875 C 67.589844 91.566406 67.558594 92.164062 67.523438 92.761719 C 67.519531 92.941406 67.511719 93.121094 67.503906 93.308594 C 67.453125 94.109375 67.421875 94.542969 66.910156 95.203125 C 66.453125 95.5 66.453125 95.5 65.910156 95.511719 C 65.308594 95.300781 65.191406 95.195312 64.882812 94.667969 C 64.777344 94.171875 64.75 93.675781 64.71875 93.171875 C 64.707031 93.023438 64.695312 92.871094 64.683594 92.714844 C 64.648438 92.207031 64.621094 91.703125 64.589844 91.199219 C 64.578125 91.023438 64.566406 90.847656 64.554688 90.667969 C 64.210938 85.105469 64.234375 79.507812 64.484375 73.9375 C 64.570312 71.984375 64.59375 70.027344 64.632812 68.070312 C 64.648438 67.097656 64.671875 66.121094 64.699219 65.148438 C 64.707031 64.820312 64.710938 64.492188 64.714844 64.167969 C 64.722656 63.683594 64.734375 63.199219 64.746094 62.714844 C 64.75 62.566406 64.75 62.421875 64.75 62.269531 C 64.785156 61.273438 64.785156 61.273438 65.292969 60.738281 C 65.753906 60.5 65.753906 60.5 66.300781 60.5 Z M 66.300781 60.5 "/>
<path style=" stroke:none;fill-rule:nonzero;fill:rgb(98.823529%,98.823529%,98.431373%);fill-opacity:1;" d="M 57.035156 59.261719 C 57.617188 59.339844 57.734375 59.402344 58.082031 59.832031 C 58.15625 60.171875 58.15625 60.171875 58.171875 60.566406 C 58.175781 60.71875 58.183594 60.867188 58.191406 61.023438 C 58.195312 61.1875 58.199219 61.351562 58.203125 61.523438 C 58.210938 61.699219 58.21875 61.871094 58.226562 62.050781 C 58.246094 62.632812 58.265625 63.210938 58.285156 63.792969 C 58.300781 64.199219 58.316406 64.609375 58.328125 65.019531 C 58.359375 65.878906 58.390625 66.742188 58.417969 67.605469 C 58.453125 68.6875 58.492188 69.769531 58.535156 70.851562 C 59.015625 84.023438 59.015625 84.023438 58.527344 89.925781 C 58.503906 90.242188 58.480469 90.558594 58.457031 90.878906 C 58.394531 91.695312 58.332031 92.515625 58.253906 93.332031 C 58.242188 93.46875 58.230469 93.605469 58.21875 93.746094 C 58.207031 93.878906 58.191406 94.015625 58.179688 94.152344 C 58.167969 94.273438 58.15625 94.394531 58.144531 94.515625 C 58.082031 94.832031 58.082031 94.832031 57.777344 95.269531 C 57.382812 95.5 57.382812 95.5 56.9375 95.5 C 56.398438 95.289062 56.273438 95.152344 55.988281 94.667969 C 55.882812 94.15625 55.855469 93.648438 55.824219 93.132812 C 55.8125 92.976562 55.800781 92.820312 55.789062 92.660156 C 55.753906 92.140625 55.722656 91.621094 55.695312 91.105469 C 55.683594 90.925781 55.671875 90.746094 55.660156 90.5625 C 55.480469 87.628906 55.417969 84.699219 55.421875 81.761719 C 55.421875 81.578125 55.421875 81.394531 55.421875 81.207031 C 55.425781 79.070312 55.480469 76.941406 55.574219 74.808594 C 55.667969 72.570312 55.699219 70.328125 55.734375 68.089844 C 55.757812 66.78125 55.785156 65.472656 55.8125 64.167969 C 55.816406 63.972656 55.820312 63.777344 55.828125 63.574219 C 55.839844 63 55.855469 62.421875 55.875 61.84375 C 55.878906 61.667969 55.882812 61.492188 55.886719 61.3125 C 55.890625 61.148438 55.894531 60.984375 55.902344 60.820312 C 55.90625 60.675781 55.910156 60.535156 55.914062 60.386719 C 56.046875 59.691406 56.300781 59.363281 57.035156 59.261719 Z M 57.035156 59.261719 "/>
<path style=" stroke:none;fill-rule:nonzero;fill:rgb(98.431373%,98.431373%,98.039216%);fill-opacity:1;" d="M 52.585938 60.105469 C 53.023438 60.167969 53.023438 60.167969 53.304688 60.34375 C 53.664062 60.820312 53.644531 61.304688 53.660156 61.871094 C 53.667969 61.996094 53.671875 62.121094 53.679688 62.25 C 53.699219 62.679688 53.714844 63.105469 53.730469 63.53125 C 53.746094 63.839844 53.757812 64.148438 53.773438 64.453125 C 53.808594 65.332031 53.839844 66.207031 53.875 67.082031 C 53.894531 67.691406 53.921875 68.304688 53.945312 68.914062 C 54.25 76.792969 54.539062 84.65625 53.78125 92.519531 C 53.746094 92.914062 53.710938 93.3125 53.675781 93.707031 C 53.664062 93.859375 53.652344 94.007812 53.640625 94.160156 C 53.628906 94.285156 53.621094 94.40625 53.609375 94.53125 C 53.511719 95 53.246094 95.230469 52.847656 95.5 C 52.339844 95.320312 52.015625 95.203125 51.628906 94.832031 C 51.566406 94.496094 51.566406 94.496094 51.542969 94.078125 C 51.53125 93.921875 51.523438 93.761719 51.511719 93.601562 C 51.5 93.347656 51.5 93.347656 51.484375 93.085938 C 51.476562 92.910156 51.464844 92.734375 51.453125 92.550781 C 51.417969 91.984375 51.386719 91.417969 51.355469 90.855469 C 51.324219 90.292969 51.289062 89.734375 51.253906 89.175781 C 51.234375 88.828125 51.214844 88.476562 51.195312 88.128906 C 51.148438 87.292969 51.089844 86.460938 51.011719 85.628906 C 50.785156 83.101562 50.960938 80.550781 51.070312 78.023438 C 51.203125 74.894531 51.3125 71.765625 51.378906 68.636719 C 51.382812 68.328125 51.390625 68.015625 51.398438 67.707031 C 51.433594 66.0625 51.433594 66.0625 51.46875 64.417969 C 51.484375 63.769531 51.5 63.125 51.519531 62.480469 C 51.523438 62.296875 51.527344 62.117188 51.527344 61.929688 C 51.535156 61.765625 51.539062 61.601562 51.542969 61.4375 C 51.546875 61.296875 51.550781 61.160156 51.554688 61.015625 C 51.679688 60.421875 51.96875 60.191406 52.585938 60.105469 Z M 52.585938 60.105469 "/>
<path style=" stroke:none;fill-rule:nonzero;fill:rgb(98.823529%,98.431373%,98.431373%);fill-opacity:1;" d="M 48.238281 62.019531 C 48.664062 62.167969 48.664062 62.167969 49.011719 62.667969 C 49.066406 63.015625 49.066406 63.015625 49.085938 63.425781 C 49.09375 63.582031 49.101562 63.738281 49.109375 63.898438 C 49.117188 64.070312 49.125 64.242188 49.132812 64.417969 C 49.140625 64.597656 49.148438 64.777344 49.15625 64.964844 C 49.183594 65.5625 49.210938 66.160156 49.238281 66.761719 C 49.253906 67.179688 49.273438 67.597656 49.292969 68.011719 C 49.332031 68.890625 49.371094 69.769531 49.410156 70.648438 C 49.457031 71.765625 49.507812 72.882812 49.5625 74 C 49.601562 74.863281 49.640625 75.730469 49.675781 76.59375 C 49.695312 77.003906 49.714844 77.417969 49.734375 77.828125 C 49.875 81 49.988281 84.140625 49.710938 87.304688 C 49.691406 87.523438 49.675781 87.738281 49.65625 87.960938 C 49.617188 88.410156 49.578125 88.859375 49.539062 89.308594 C 49.488281 89.882812 49.441406 90.457031 49.394531 91.03125 C 49.351562 91.585938 49.300781 92.136719 49.253906 92.691406 C 49.238281 92.898438 49.222656 93.101562 49.203125 93.3125 C 49.1875 93.503906 49.167969 93.695312 49.152344 93.890625 C 49.136719 94.054688 49.121094 94.222656 49.109375 94.394531 C 49 94.878906 48.828125 95.132812 48.488281 95.5 C 47.660156 95.375 47.660156 95.375 47.265625 95 C 47.199219 94.671875 47.199219 94.671875 47.164062 94.261719 C 47.148438 94.109375 47.136719 93.953125 47.121094 93.796875 C 47.109375 93.625 47.09375 93.457031 47.082031 93.28125 C 47.066406 93.101562 47.050781 92.921875 47.035156 92.738281 C 47.003906 92.355469 46.972656 91.96875 46.941406 91.585938 C 46.898438 91.023438 46.851562 90.464844 46.800781 89.90625 C 46.292969 83.796875 46.578125 77.65625 46.839844 71.546875 C 46.878906 70.597656 46.914062 69.648438 46.953125 68.699219 C 46.980469 67.957031 47.011719 67.21875 47.042969 66.476562 C 47.054688 66.128906 47.070312 65.777344 47.082031 65.425781 C 47.101562 64.941406 47.121094 64.457031 47.144531 63.976562 C 47.148438 63.832031 47.152344 63.691406 47.15625 63.542969 C 47.207031 62.574219 47.207031 62.574219 47.507812 62.207031 C 47.789062 62 47.789062 62 48.238281 62.019531 Z M 48.238281 62.019531 "/>
<path style=" stroke:none;fill-rule:nonzero;fill:rgb(98.431373%,98.039216%,98.039216%);fill-opacity:1;" d="M 43.867188 65.949219 C 44.082031 65.972656 44.082031 65.972656 44.300781 66 C 44.679688 66.542969 44.699219 66.710938 44.710938 67.339844 C 44.714844 67.511719 44.71875 67.683594 44.726562 67.863281 C 44.730469 68.050781 44.734375 68.242188 44.738281 68.4375 C 44.789062 70.195312 44.875 71.949219 44.996094 73.703125 C 45.011719 73.9375 45.027344 74.167969 45.042969 74.398438 C 45.105469 75.339844 45.167969 76.285156 45.234375 77.226562 C 45.515625 81.3125 45.535156 85.21875 45.167969 89.304688 C 45.117188 89.882812 45.070312 90.457031 45.019531 91.035156 C 44.972656 91.589844 44.925781 92.148438 44.875 92.703125 C 44.859375 92.910156 44.839844 93.117188 44.824219 93.328125 C 44.804688 93.519531 44.789062 93.710938 44.769531 93.90625 C 44.757812 94.074219 44.742188 94.242188 44.726562 94.414062 C 44.652344 94.832031 44.652344 94.832031 44.300781 95.332031 C 43.867188 95.386719 43.867188 95.386719 43.429688 95.332031 C 43.015625 94.9375 43.027344 94.820312 42.980469 94.28125 C 42.96875 94.128906 42.953125 93.980469 42.941406 93.828125 C 42.925781 93.664062 42.914062 93.503906 42.902344 93.335938 C 42.886719 93.167969 42.871094 93 42.855469 92.828125 C 42.808594 92.289062 42.765625 91.746094 42.722656 91.207031 C 42.691406 90.851562 42.660156 90.496094 42.628906 90.140625 C 42.558594 89.292969 42.488281 88.445312 42.417969 87.597656 C 42.390625 87.234375 42.355469 86.867188 42.324219 86.5 C 42.101562 83.914062 42.210938 81.328125 42.355469 78.742188 C 42.371094 78.457031 42.386719 78.171875 42.402344 77.886719 C 42.433594 77.292969 42.464844 76.703125 42.496094 76.109375 C 42.539062 75.359375 42.578125 74.605469 42.621094 73.851562 C 42.660156 73.125 42.699219 72.398438 42.738281 71.667969 C 42.746094 71.535156 42.75 71.398438 42.757812 71.261719 C 42.800781 70.511719 42.84375 69.761719 42.886719 69.011719 C 42.898438 68.78125 42.914062 68.546875 42.925781 68.316406 C 42.941406 67.988281 42.964844 67.660156 42.984375 67.332031 C 42.992188 67.148438 43.003906 66.960938 43.015625 66.769531 C 43.105469 66.183594 43.246094 66.023438 43.867188 65.949219 Z M 43.867188 65.949219 "/>
<path style=" stroke:none;fill-rule:nonzero;fill:rgb(98.431373%,98.039216%,98.039216%);fill-opacity:1;" d="M 39.070312 72.667969 C 39.359375 72.722656 39.644531 72.777344 39.941406 72.832031 C 40.371094 73.828125 40.425781 74.851562 40.523438 75.910156 C 40.539062 76.113281 40.558594 76.316406 40.582031 76.523438 C 40.621094 76.953125 40.660156 77.382812 40.699219 77.8125 C 40.757812 78.460938 40.820312 79.109375 40.886719 79.757812 C 41.078125 81.785156 41.242188 83.761719 41.027344 85.792969 C 40.980469 86.226562 40.945312 86.660156 40.914062 87.097656 C 40.84375 87.953125 40.773438 88.808594 40.695312 89.664062 C 40.648438 90.191406 40.605469 90.722656 40.5625 91.25 C 40.53125 91.589844 40.5 91.933594 40.472656 92.273438 C 40.457031 92.429688 40.445312 92.585938 40.433594 92.746094 C 40.355469 93.59375 40.21875 94.355469 39.941406 95.167969 C 39.613281 95.269531 39.613281 95.269531 39.246094 95.332031 C 38.757812 94.867188 38.796875 94.511719 38.71875 93.859375 C 38.703125 93.742188 38.6875 93.625 38.671875 93.503906 C 38.125 88.820312 37.78125 84.082031 38.167969 79.378906 C 38.191406 79.117188 38.191406 79.117188 38.210938 78.851562 C 38.257812 78.304688 38.304688 77.761719 38.351562 77.21875 C 38.367188 77.042969 38.378906 76.863281 38.394531 76.679688 C 38.441406 76.171875 38.488281 75.664062 38.535156 75.152344 C 38.554688 74.921875 38.554688 74.921875 38.574219 74.6875 C 38.644531 73.957031 38.722656 73.332031 39.070312 72.667969 Z M 39.070312 72.667969 "/>
<path style=" stroke:none;fill-rule:nonzero;fill:rgb(98.039216%,98.039216%,97.647059%);fill-opacity:1;" d="M 34.882812 71.832031 C 35.113281 71.886719 35.34375 71.941406 35.582031 72 C 35.90625 73.355469 36.058594 74.710938 36.191406 76.09375 C 36.214844 76.324219 36.234375 76.550781 36.257812 76.78125 C 36.304688 77.242188 36.347656 77.707031 36.390625 78.167969 C 36.449219 78.777344 36.507812 79.382812 36.570312 79.984375 C 36.605469 80.339844 36.636719 80.691406 36.671875 81.042969 C 36.6875 81.195312 36.703125 81.34375 36.71875 81.503906 C 36.972656 84.324219 36.550781 87.203125 36.261719 90.007812 C 36.203125 90.589844 36.144531 91.171875 36.089844 91.757812 C 36.050781 92.128906 36.011719 92.5 35.972656 92.871094 C 35.949219 93.128906 35.949219 93.128906 35.921875 93.394531 C 35.90625 93.554688 35.890625 93.714844 35.871094 93.878906 C 35.859375 94.019531 35.84375 94.160156 35.828125 94.304688 C 35.753906 94.667969 35.753906 94.667969 35.40625 95.167969 C 35.070312 95.105469 35.070312 95.105469 34.710938 95 C 34.484375 94.574219 34.476562 94.21875 34.433594 93.742188 C 34.417969 93.550781 34.398438 93.355469 34.382812 93.15625 C 34.355469 92.839844 34.355469 92.839844 34.328125 92.515625 C 34.308594 92.300781 34.289062 92.082031 34.269531 91.859375 C 34.230469 91.398438 34.1875 90.9375 34.148438 90.480469 C 34.097656 89.894531 34.046875 89.308594 33.996094 88.726562 C 33.945312 88.164062 33.894531 87.601562 33.847656 87.039062 C 33.828125 86.832031 33.808594 86.621094 33.792969 86.410156 C 33.613281 84.328125 33.667969 82.308594 33.839844 80.226562 C 33.859375 80 33.878906 79.773438 33.898438 79.546875 C 33.9375 79.074219 33.976562 78.601562 34.015625 78.128906 C 34.066406 77.523438 34.117188 76.917969 34.164062 76.3125 C 34.203125 75.84375 34.242188 75.375 34.28125 74.910156 C 34.308594 74.578125 34.335938 74.246094 34.363281 73.914062 C 34.378906 73.714844 34.398438 73.511719 34.414062 73.308594 C 34.429688 73.128906 34.445312 72.953125 34.460938 72.773438 C 34.535156 72.332031 34.535156 72.332031 34.882812 71.832031 Z M 34.882812 71.832031 "/>
<path style=" stroke:none;fill-rule:nonzero;fill:rgb(98.039216%,97.647059%,97.647059%);fill-opacity:1;" d="M 30.523438 72.332031 C 30.8125 72.386719 31.097656 72.441406 31.394531 72.5 C 31.535156 73.734375 31.671875 74.972656 31.804688 76.207031 C 31.867188 76.78125 31.929688 77.355469 31.996094 77.929688 C 32.457031 82.0625 32.398438 85.785156 31.917969 89.917969 C 31.867188 90.363281 31.816406 90.808594 31.765625 91.253906 C 31.644531 92.335938 31.519531 93.417969 31.394531 94.5 C 31.109375 94.554688 30.820312 94.609375 30.523438 94.667969 C 30.289062 94.222656 30.28125 93.824219 30.230469 93.328125 C 30.207031 93.121094 30.1875 92.910156 30.164062 92.695312 C 30.144531 92.46875 30.121094 92.238281 30.097656 92.011719 C 30.085938 91.894531 30.074219 91.78125 30.0625 91.660156 C 29.902344 90.027344 29.75 88.386719 29.617188 86.75 C 29.605469 86.578125 29.589844 86.402344 29.574219 86.226562 C 29.359375 83.433594 29.574219 80.71875 29.839844 77.9375 C 29.882812 77.496094 29.921875 77.054688 29.964844 76.613281 C 30.023438 75.972656 30.082031 75.332031 30.140625 74.6875 C 30.160156 74.492188 30.175781 74.292969 30.195312 74.089844 C 30.214844 73.90625 30.230469 73.722656 30.25 73.535156 C 30.265625 73.375 30.277344 73.214844 30.292969 73.050781 C 30.347656 72.667969 30.347656 72.667969 30.523438 72.332031 Z M 30.523438 72.332031 "/>
<path style=" stroke:none;fill-rule:nonzero;fill:rgb(98.431373%,98.039216%,98.039216%);fill-opacity:1;" d="M 26.335938 74.167969 C 26.566406 74.167969 26.796875 74.167969 27.035156 74.167969 C 27.910156 79.851562 28.300781 84.875 27.359375 90.5625 C 27.226562 91.375 27.117188 92.183594 27.035156 93 C 26.804688 93 26.574219 93 26.335938 93 C 26.019531 91.515625 25.832031 90.027344 25.664062 88.523438 C 25.617188 88.117188 25.570312 87.710938 25.523438 87.308594 C 25.222656 84.746094 25.289062 82.300781 25.570312 79.742188 C 25.617188 79.300781 25.664062 78.859375 25.710938 78.417969 C 25.859375 76.988281 26.023438 75.574219 26.335938 74.167969 Z M 26.335938 74.167969 "/>
<path style=" stroke:none;fill-rule:nonzero;fill:rgb(98.039216%,97.647059%,97.647059%);fill-opacity:1;" d="M 22.5 77.667969 C 22.671875 77.722656 22.84375 77.777344 23.023438 77.832031 C 23.148438 78.484375 23.273438 79.136719 23.394531 79.789062 C 23.457031 80.117188 23.523438 80.445312 23.585938 80.773438 C 24.007812 83.039062 23.898438 84.949219 23.460938 87.207031 C 23.417969 87.433594 23.375 87.65625 23.332031 87.878906 C 23.230469 88.421875 23.128906 88.960938 23.023438 89.5 C 22.792969 89.5 22.5625 89.5 22.324219 89.5 C 21.542969 85.472656 21.355469 81.859375 22.324219 77.832031 C 22.382812 77.777344 22.441406 77.722656 22.5 77.667969 Z M 22.5 77.667969 "/>
</g>
</svg>
