<svg width="40" height="27" viewBox="0 0 40 27" fill="none" xmlns="http://www.w3.org/2000/svg">
<path d="M12.9589 27.0001C12.1728 27.0001 11.5356 26.3628 11.5356 25.5767V1.66381C11.5356 0.877716 12.1728 0.240417 12.9589 0.240417C13.745 0.240417 14.3823 0.877716 14.3823 1.66381V25.5767C14.3823 26.3628 13.745 27.0001 12.9589 27.0001ZM7.26538 27.0001C6.47929 27.0001 5.84199 26.3628 5.84199 25.5767V6.21865C5.84199 5.43256 6.47929 4.79526 7.26538 4.79526C8.05147 4.79526 8.68877 5.43256 8.68877 6.21865V25.5767C8.68877 26.3628 8.05147 27.0001 7.26538 27.0001ZM1.57183 27.0001C0.785736 27.0001 0.148438 26.3628 0.148438 25.5767V9.91946C0.148438 9.13337 0.785736 8.49607 1.57183 8.49607C2.35792 8.49607 2.99522 9.13337 2.99522 9.91946V25.5767C2.99522 26.3628 2.35792 27.0001 1.57183 27.0001Z" fill="#B6B6CC"/>
<path d="M39.4423 15.4977C38.6052 13.3391 36.8882 11.6249 34.7313 10.7944L34.7242 10.7916C33.7134 10.4086 33.499 10.3851 32.1246 10.3167L32.0781 10.3145C31.3339 10.2797 30.9113 10.2989 30.4319 10.3942C29.1973 5.14149 25.3563 1.28373 20.1654 0.192272C19.7557 0.108007 19.2837 0.0446185 18.7622 0.00419426C18.3668 -0.0261714 17.9765 0.109336 17.6851 0.378451C17.394 0.647756 17.2285 1.02657 17.2285 1.42322V25.5764C17.2285 26.3625 17.8658 26.9998 18.6519 26.9998H33.3485C33.4904 26.9998 33.6315 26.9786 33.767 26.9368L34.4464 26.7277C34.4716 26.7199 34.4965 26.7115 34.5214 26.7024C36.4445 25.9915 37.995 24.4679 39.1276 22.1785C40.1675 20.0979 40.2821 17.6628 39.4423 15.4977Z" fill="#B6B6CC"/>
</svg>
