<svg xmlns="http://www.w3.org/2000/svg" width="150" height="150"><path d="M84.082 7.031c.258.04.258.04.523.078 11.075 1.653 21.653 5.965 30.532 12.813.082.062.16.125.242.187q1.546 1.189 3.027 2.453c.477.41.961.805 1.453 1.196 2.23 1.82 4.434 3.898 6.29 6.101.218.262.445.516.675.774 1.324 1.488 2.52 3.058 3.692 4.672q.122.156.238.32c6.707 9.176 10.773 20.082 12.215 31.32l.07.524c.746 5.578.695 11.48-.07 17.054q-.036.27-.07.555c-1.637 12.54-6.81 24.793-15.016 34.453q-.204.238-.403.477c-1.984 2.355-4.097 4.734-6.46 6.726a31 31 0 0 0-.774.676c-1.488 1.324-3.058 2.52-4.668 3.692-.11.082-.215.16-.324.238-7.27 5.312-15.785 9.12-24.582 11.043-.168.035-.336.074-.512.113-4.164.89-8.46 1.512-12.726 1.527-.168 0-.336.004-.508.004q-.802.005-1.606.004h-.554c-2.832-.004-5.602-.09-8.407-.476q-.285-.037-.578-.078a70.5 70.5 0 0 1-12.472-2.848c-7.985-2.57-15.567-6.727-21.961-12.16q-.238-.204-.477-.403c-2.355-1.984-4.734-4.097-6.726-6.46a31 31 0 0 0-.676-.774c-1.324-1.488-2.52-3.059-3.696-4.668-.078-.11-.156-.215-.234-.324-7.184-9.828-11.516-21.832-12.508-33.957q-.016-.206-.039-.422c-.133-1.707-.133-3.41-.133-5.117q-.004-.77-.007-1.54c-.008-2.94.168-5.863.582-8.777q.036-.262.074-.53c1.8-12.247 6.867-24.102 14.906-33.563q.2-.238.398-.477c2.083-2.469 4.301-4.91 6.778-6.996.168-.145.34-.293.508-.441a78 78 0 0 1 3.152-2.633c.152-.121.3-.239.453-.364 9.453-7.546 20.555-12.25 32.508-13.992.242-.035.242-.035.484-.074 5.614-.805 11.785-.77 17.387.074m0 0" style="stroke:none;fill-rule:nonzero;fill:#3c3c64;fill-opacity:1"/><path d="M64.172 41.45a91 91 0 0 1 2.918.007l.527.008c12.445.215 24.914 1.969 51.887 12.387q.195.111.394.222c1.23.723 2.329 1.633 2.93 2.953q.102.217.203.438c.528 1.297.524 3.027.07 4.351-.773 1.782-1.87 2.91-3.656 3.672-.691.27-1.3.32-2.039.328q-.164.005-.332.016c-1.543.016-2.828-.695-4.136-1.441-6.336-3.528-13.172-5.903-20.215-7.555l-.293-.07c-5.43-1.282-10.97-2.075-16.524-2.54-.3-.027-.601-.05-.906-.078-6.902-.593-14.059-.484-20.95.2l-.34.03c-5.12.5-10.323 1.286-15.25 2.813-1.855.567-3.726.715-5.503-.207-1.441-.789-2.527-1.949-3.074-3.515-.485-2.125-.23-3.707.879-5.567.957-1.48 2.597-2.175 4.238-2.629.168-.046.34-.097.512-.144 9.312-2.586 19.023-3.524 28.66-3.68m0 0" style="stroke:none;fill-rule:nonzero;fill:#fefefe;fill-opacity:1"/><path d="M28.418 25.488c.145.075.145.075.293.145q-.14.14-.285.281c-.668.664-1.324 1.328-1.938 2.047-.32.371-.656.734-.992 1.098a35 35 0 0 0-1.91 2.289q-.117.147-.234.3c-7.446 9.684-12.32 21.07-13.684 33.243q-.016.162-.04.332c-.273 2.402-.304 4.797-.3 7.215v.59c.008 2.78.063 5.515.485 8.269l.082.543c.914 6.25 2.664 12.36 5.3 18.101q.247.528.48 1.067c1.864 4.14 4.407 8.047 7.177 11.64l.191.25c.781 1.012 1.574 2 2.441 2.942.262.281.512.57.766.863 2.105 2.406 4.395 4.594 6.855 6.637q.128.106.262.219a59 59 0 0 0 4.13 3.093q.28.193.562.391c9.91 6.898 22.507 11.223 34.648 11.27h.547q.866.004 1.738.003h.297c2.906.004 5.77-.03 8.648-.472q.264-.042.54-.082c13.363-1.965 25.668-7.805 35.57-17.008.21-.192.426-.383.64-.574 5.614-5.02 10.243-11.594 13.489-18.356q.245-.505.496-1.004c3.879-7.867 6.242-17.054 6.277-25.855v-.547q.005-.874.004-1.742v-.301c.004-2.91-.031-5.773-.476-8.656q-.035-.258-.075-.528c-1.91-13.148-7.64-25.472-16.675-35.234q-.562-.608-1.118-1.223-.156-.168-.312-.343c-.254-.293-.488-.59-.715-.903.547.227.895.567 1.313.985l.207.207q.217.215.43.437l.652.653c.773.777 1.52 1.57 2.23 2.406l.441.492c1.313 1.477 2.5 3.039 3.66 4.637.083.105.16.21.239.32 6.707 9.176 10.773 20.082 12.215 31.32l.07.524c.746 5.578.695 11.48-.07 17.054q-.036.27-.07.555c-1.637 12.54-6.81 24.793-15.016 34.453q-.204.238-.403.477c-1.984 2.355-4.097 4.734-6.46 6.726a31 31 0 0 0-.774.676c-1.488 1.324-3.058 2.52-4.668 3.692-.11.082-.215.16-.324.238-7.27 5.312-15.785 9.12-24.582 11.043-.168.035-.336.074-.512.113-4.164.89-8.46 1.512-12.726 1.527-.168 0-.336.004-.508.004q-.802.005-1.606.004h-.554c-2.832-.004-5.602-.09-8.407-.476q-.285-.037-.578-.078a70.5 70.5 0 0 1-12.472-2.848c-7.985-2.57-15.567-6.727-21.961-12.16q-.238-.204-.477-.403c-2.355-1.984-4.734-4.097-6.726-6.46a31 31 0 0 0-.676-.774c-1.324-1.488-2.52-3.059-3.696-4.668-.078-.11-.156-.215-.234-.324-7.184-9.828-11.516-21.832-12.508-33.957q-.016-.206-.039-.422c-.133-1.707-.133-3.41-.133-5.117q-.004-.77-.007-1.54c-.008-2.94.168-5.863.582-8.777q.036-.262.074-.53c1.8-12.247 6.867-24.102 14.906-33.563q.2-.238.398-.477c1.762-2.09 3.66-4.047 5.606-5.969m0 0" style="stroke:none;fill-rule:nonzero;fill:#000;fill-opacity:1"/><path d="m104.297 72.656.375.168c7.973 3.586 7.973 3.586 9.293 6.57.406 1.215.262 2.708-.227 3.868-.804 1.449-2.015 2.328-3.586 2.816-.347.067-.68.09-1.03.102-.126.004-.25.011-.38.015-1.41-.18-2.625-.906-3.832-1.61-9.793-5.573-20.746-8.48-31.906-9.632l-.348-.035c-2.867-.293-5.73-.387-8.613-.387-.152 0-.3.004-.457.004a84.4 84.4 0 0 0-22.152 2.973l-.301.082q-.41.11-.82.226c-1.274.309-2.45.102-3.606-.515-1.215-.762-2.082-1.778-2.516-3.16-.285-1.485-.039-2.864.72-4.157 2.222-3.21 8.433-3.68 12.034-4.347a95 95 0 0 1 11.356-1.332l.445-.024c12.418-.672 24.961.985 45.55 8.375M90.82 89.797c.16.055.317.11.48.164 12.434 4.344 12.434 4.344 14.188 7.602.043.093.082.19.13.289l.198.421c.297 1.485.032 2.649-.73 3.938-.906.855-1.906 1.363-3.152 1.398l-.383.016c-1.219-.156-2.27-.812-3.305-1.434-9.16-5.34-20.066-8.14-30.648-8.18H67q-.954-.004-1.906-.003h-.328c-3.235 0-6.446.031-9.657.433q-.52.066-1.043.125c-3.359.407-6.671.97-9.98 1.688-3.856.828-3.856.828-5.266-.012-.937-.633-1.586-1.402-1.906-2.492-.164-1.418-.055-2.621.824-3.762 1.04-1.093 2.356-1.406 3.79-1.703q.145-.034.296-.062c11.383-2.407 23.196-3.391 48.996 1.574m0 0" style="stroke:none;fill-rule:nonzero;fill:#fefefe;fill-opacity:1"/><path d="M30.176 24.023c.097.047.191.098.293.149-1.063 1.062-2.125 2.125-3.223 3.219 0-.438 0-.438.254-.727l.34-.324c.539-.52 1.035-1.05 1.515-1.625.25-.27.52-.477.82-.692m0 0" style="stroke:none;fill-rule:nonzero;fill:#276551;fill-opacity:1"/></svg>