<svg width="22" height="22" viewBox="0 0 22 22" fill="none" xmlns="http://www.w3.org/2000/svg">
<g clip-path="url(#clip0_728_7113)">
<path d="M11.6666 4.10352H10.2916V11.7567L15.2594 14.1178L15.8496 12.8759L11.6666 10.8878V4.10352Z" fill="#D9D9D9"/>
<path d="M11 0.6875C5.30458 0.6875 0.6875 5.30458 0.6875 11C0.6875 16.6954 5.30458 21.3125 11 21.3125C16.6954 21.3125 21.3125 16.6954 21.3125 11C21.3125 5.30458 16.6954 0.6875 11 0.6875ZM11 19.9375C6.06396 19.9375 2.0625 15.936 2.0625 11C2.0625 6.06396 6.06396 2.0625 11 2.0625C15.936 2.0625 19.9375 6.06396 19.9375 11C19.9375 15.936 15.936 19.9375 11 19.9375Z" fill="#D9D9D9"/>
</g>
<defs>
<clipPath id="clip0_728_7113">
<rect width="22" height="22" fill="white"/>
</clipPath>
</defs>
</svg>
