<svg xmlns="http://www.w3.org/2000/svg" width="149" height="77" fill="none"><path fill="#fff" stroke="#fff" stroke-width=".5" d="M27.491 33.643v-3.589l9.742.171c2.051 0 4.82 1.88 4.957 5.982s-2.678 6.039-4.102 6.494l4.444 9.4H38.6l-4.615-9.058h-2.564v9.058h-3.93v-13.16h8.374c.684 0 2.358-.957 2.222-2.734s-1.367-2.564-2.222-2.564zM20.142 48.341V30.054h4.102v18.458h2.393v3.59h-9.23v-3.76zM9.204 51.93 1 30.225h3.931l4.444 11.793 2.905-7.691h4.102z"/><path fill="#fff" d="M43.386 33.643v-3.589h13.331v3.59zM47.83 52.272V37.916h4.273v14.356z"/><path stroke="#fff" stroke-width=".5" d="M43.386 33.643v-3.589h13.331v3.59zM47.83 52.272V37.916h4.273v14.356z"/><path fill="#fff" stroke="#fff" stroke-width=".5" d="M61.674 33.985h-4.102v12.647c.17 1.88 2.94 5.64 8.545 5.64s8.033-4.102 8.204-6.152V30.054h-4.444v15.724c0 .683-1.025 2.221-3.76 2.221s-4.444-1.709-4.444-2.563zM111.409 36.378h-3.931c0-1.914-2.051-2.393-2.735-2.393s-2.905.342-2.905 2.393c0 2.222 1.709 2.563 2.905 2.734 1.197.171 6.666.718 6.666 6.324s-4.33 6.78-6.495 6.665v-3.76c2.051 0 2.564-1.88 2.564-2.905 0-.855-.684-2.348-2.735-2.564-6.494-.683-7.064-4.33-7.007-6.494.228-2.108 1.948-6.324 7.007-6.324s6.552 4.216 6.666 6.324ZM148.5 36.378h-3.931c0-1.914-2.051-2.393-2.735-2.393s-2.905.342-2.905 2.393c0 2.222 1.709 2.563 2.905 2.734 1.197.171 6.666.718 6.666 6.324s-4.33 6.78-6.495 6.665v-3.76c2.051 0 2.564-1.88 2.564-2.905 0-.855-.684-2.348-2.735-2.564-6.494-.683-7.064-4.33-7.007-6.494.228-2.108 1.948-6.324 7.007-6.324s6.552 4.216 6.666 6.324ZM87.823 40.992c0-1.196-1.196-1.88-2.05-1.88-.855 0-1.881.684-1.881 1.88 0 1.197 1.026 2.051 1.88 2.051 1.025 0 2.051-.854 2.051-2.05Z"/><path fill="#fff" stroke="#fff" stroke-width=".5" d="M96.54 40.65c0-8.203-6.666-10.596-10.768-10.596-8.614 0-10.597 7.064-10.425 10.597h4.101c-.17-2.222.82-6.666 6.153-6.666s6.78 4.444 6.837 6.666z"/><path fill="#fff" stroke="#fff" stroke-width=".5" d="M75.346 40.65c0 9.571 6.656 11.622 10.758 11.622 8.614 0 10.606-8.09 10.435-11.621h-4.101c.17 2.221-1.197 7.69-6.163 7.69-5.333 0-6.827-3.589-6.827-7.69h-4.102ZM124.911 40.992c0-1.196-1.197-1.88-2.051-1.88s-1.88.684-1.88 1.88c0 1.197 1.025 2.051 1.88 2.051 1.025 0 2.051-.854 2.051-2.05Z"/><path fill="#fff" stroke="#fff" stroke-width=".5" d="M133.808 40.65c0-8.203-6.666-10.596-10.767-10.596-8.614 0-10.597 7.064-10.426 10.597h4.102c-.171-2.222.82-6.666 6.153-6.666s6.779 4.444 6.836 6.666z"/><path fill="#fff" stroke="#fff" stroke-width=".5" d="M112.615 40.65c0 9.571 6.656 11.622 10.758 11.622 8.613 0 10.606-8.09 10.435-11.621h-4.102c.171 2.221-1.196 7.69-6.163 7.69-5.332 0-6.826-3.589-6.826-7.69h-4.102Z"/><path stroke="#fff" stroke-width=".5" d="M112.605 38.258C112.605 12.28 89.874 1 75.005 1c-15.382 0-37.6 11.622-37.6 37.258S58.938 76.37 75.516 76.37c11.28 0 37.088-9.123 37.088-38.112Z"/><path stroke="#fff" stroke-width=".5" d="M56.546 5.957c-5.127 3.247 11.107 6.665 18.459 6.665 11.45 0 21.876-3.59 18.458-6.665M93.292 71.414c5.127-3.248-9.247-6.837-18.287-6.837-11.451 0-22.048 3.59-18.459 6.666"/><path stroke="#fff" stroke-width=".5" d="M107.57 20.484c0 1.145-.828 2.294-2.468 3.384-1.629 1.083-4.004 2.07-6.961 2.9-5.911 1.663-14.09 2.694-23.136 2.694s-17.226-1.03-23.136-2.693c-2.958-.832-5.332-1.818-6.962-2.901-1.64-1.09-2.467-2.239-2.467-3.384s.828-2.295 2.467-3.385c1.63-1.083 4.005-2.069 6.962-2.9 5.91-1.663 14.09-2.694 23.136-2.694s17.225 1.031 23.136 2.693c2.957.832 5.332 1.818 6.961 2.901 1.64 1.09 2.468 2.24 2.468 3.385ZM107.57 57.058c0 1.145-.828 2.294-2.468 3.384-1.629 1.083-4.004 2.07-6.961 2.9-5.911 1.663-14.09 2.695-23.136 2.695s-17.226-1.032-23.136-2.694c-2.958-.832-5.332-1.818-6.962-2.901-1.64-1.09-2.467-2.239-2.467-3.384s.828-2.294 2.467-3.385c1.63-1.083 4.005-2.069 6.962-2.9 5.91-1.663 14.09-2.694 23.136-2.694S92.23 49.11 98.14 50.772c2.957.832 5.332 1.818 6.961 2.901 1.64 1.09 2.468 2.239 2.468 3.385Z"/><path stroke="#fff" stroke-width=".5" d="M112.355 38.6c0 1.334-.962 2.663-2.843 3.916-1.872 1.247-4.598 2.38-7.988 3.336-6.776 1.91-16.153 3.094-26.52 3.094-10.366 0-19.743-1.184-26.52-3.094-3.39-.956-6.114-2.089-7.986-3.336-1.882-1.253-2.844-2.582-2.844-3.916s.962-2.663 2.844-3.917c1.872-1.247 4.597-2.38 7.987-3.335 6.776-1.91 16.153-3.094 26.52-3.094s19.743 1.184 26.519 3.094c3.39.955 6.116 2.088 7.988 3.335 1.881 1.254 2.843 2.582 2.843 3.917Z"/><path stroke="#fff" stroke-width=".5" d="M75.005 1c-1.197-.17-5.333 72.328 0 75.2"/><path stroke="#fff" stroke-width=".5" d="M75.688 1c3.248 2.564 2.222 60.672-.854 75.37"/><path stroke="#fff" stroke-width=".5" d="M78.423 1.171c-16.579 0-37.43 53.665-14.015 73.49"/><path stroke="#fff" stroke-width=".5" d="M67.485 1.855c-14.699 9.229-11.452 60.33 8.545 74.515"/><path stroke="#fff" stroke-width=".5" d="M78.765 1.171C55.008 3.564 28.175 32.96 47.83 64.748"/><path stroke="#fff" stroke-width=".5" d="M81.67 75.686c-22.218.684-37.088-13.16-41.019-21.534"/><path stroke="#fff" stroke-width=".5" d="M80.645 1.513c-14.015 0-26.833 5.982-28.713 7.69C37.575 24.586 39.113 66.117 78.082 76.2"/><path stroke="#fff" stroke-width=".5" d="M68.51 1.684c19.313-4.956 33.328 60.159 13.673 73.832"/><path stroke="#fff" stroke-width=".5" d="M83.38 2.026c18.8 5.127 16.407 61.355-10.084 74.344"/><path stroke="#fff" stroke-width=".5" d="M64.75 2.538c31.618-7.69 69.903 55.203 8.546 73.832"/><path stroke="#fff" stroke-width=".5" d="M95.343 70.217c16.578-14.185 15.211-49.964 7.349-56.911C91.729 3.618 83.55 2.368 69.194 1.513"/><path fill="#fff" d="M86.627 74.32c.512 0-6.321 2.05-11.451 2.05-4.444 0-10.939-1.71-10.597-1.71.513 0 5.811.343 10.597.172 5.298 0 10.938-.513 11.45-.513M84.918 2.368c.854.341-4.439 0-9.913 0s-10.255.341-9.571 0C65.946 2.11 70.048 1 75.004 1c3.932 0 8.705.884 9.914 1.368"/></svg>